<?xml version="1.0" standalone="no"?>
<!DOCTYPE svg PUBLIC "-//W3C//DTD SVG 1.1//EN" "http://www.w3.org/Graphics/SVG/1.1/DTD/svg11.dtd">
<svg version="1.1" xmlns="http://www.w3.org/2000/svg" viewBox="0 0 225.1192121799861 192.5027005880438" width="225.1192121799861" height="192.5027005880438"><!-- svg-source:excalidraw --><metadata></metadata><defs><style class="style-fonts">
      </style></defs><g stroke-linecap="round" transform="translate(71.40719439869105 58.25681386555789) rotate(355.34204686110024 70 60)"><path d="M118.48 17.04 C126.27 22.54, 131.07 31.29, 134.26 39.9 C137.45 48.51, 139.06 59.59, 137.6 68.7 C136.15 77.81, 131.59 87.11, 125.51 94.56 C119.43 102.02, 110.56 109.09, 101.1 113.44 C91.65 117.8, 79.85 121.06, 68.78 120.68 C57.71 120.3, 44.02 115.81, 34.68 111.17 C25.34 106.53, 18.37 100.45, 12.74 92.84 C7.11 85.22, 2.43 74.8, 0.88 65.46 C-0.67 56.11, -0.49 45.64, 3.47 36.77 C7.42 27.9, 15.81 17.91, 24.6 12.26 C33.39 6.61, 45.49 4.42, 56.19 2.86 C66.89 1.3, 77.8 0.17, 88.79 2.9 C99.78 5.63, 116.01 15.45, 122.12 19.26 C128.22 23.07, 126.29 24.96, 125.44 25.77 M44.34 3.73 C53.34 0.17, 67.45 0.31, 78.38 1.69 C89.32 3.08, 100.81 7.39, 109.96 12.06 C119.1 16.72, 128.36 21.61, 133.24 29.69 C138.12 37.77, 139.16 51.08, 139.25 60.55 C139.35 70.03, 138.72 78.02, 133.8 86.52 C128.88 95.02, 118.49 105.82, 109.74 111.55 C100.98 117.28, 91.46 120.34, 81.29 120.9 C71.13 121.47, 59.04 118.85, 48.76 114.96 C38.48 111.06, 27.31 104.62, 19.6 97.51 C11.89 90.41, 4.98 80.58, 2.49 72.34 C0 64.09, 2.61 56.52, 4.66 48.04 C6.71 39.57, 8.26 28.5, 14.8 21.48 C21.33 14.46, 38.5 8.27, 43.85 5.94 C49.2 3.61, 46.08 6.7, 46.89 7.49" stroke="none" stroke-width="0" fill="#e8590c"></path><path d="M97.83 4.74 C107.69 7.28, 117.79 14.29, 124.45 21.75 C131.11 29.22, 135.66 40.07, 137.81 49.52 C139.96 58.96, 140.42 69.36, 137.34 78.43 C134.25 87.49, 126.77 97.45, 119.32 103.89 C111.87 110.32, 103.24 114.82, 92.63 117.03 C82.01 119.24, 66.65 119.04, 55.61 117.15 C44.58 115.27, 34.51 110.98, 26.42 105.73 C18.32 100.48, 11.19 93.63, 7.03 85.65 C2.88 77.67, 1.23 67.57, 1.5 57.83 C1.77 48.08, 3.3 35.09, 8.65 27.17 C13.99 19.26, 24.02 14.62, 33.57 10.32 C43.13 6.02, 53.3 1.38, 66 1.35 C78.7 1.32, 100.82 7.09, 109.78 10.14 C118.75 13.19, 120.5 18.56, 119.79 19.66 M121.96 17.31 C129.38 22.71, 131.74 30.58, 134.43 40.05 C137.11 49.52, 140.17 64.85, 138.08 74.14 C135.99 83.43, 128.38 88.54, 121.88 95.77 C115.38 103.01, 108.86 113.91, 99.09 117.55 C89.32 121.19, 74.66 118.99, 63.24 117.6 C51.82 116.21, 39.94 113.35, 30.57 109.21 C21.21 105.07, 12.06 100.3, 7.04 92.77 C2.02 85.24, 0.63 73.37, 0.46 64.04 C0.29 54.7, 1.83 45.11, 6.02 36.78 C10.22 28.45, 16.47 20.45, 25.62 14.06 C34.78 7.66, 49.82 -0.16, 60.94 -1.58 C72.07 -3.01, 82.29 1.72, 92.36 5.5 C102.43 9.28, 116.73 19.34, 121.34 21.11 C125.95 22.89, 120.98 15.74, 120.04 16.14" stroke="#e8590c" stroke-width="1" fill="none"></path></g><g stroke-linecap="round" transform="translate(111.37416689394564 77.44474288415586) rotate(355.34204686110024 40 40)"><path d="M51.76 2.29 C58.54 3.82, 63.65 10.01, 68.36 15.12 C73.08 20.22, 78.65 25.94, 80.07 32.92 C81.49 39.91, 80.25 50.36, 76.89 57.01 C73.53 63.66, 66.26 69.1, 59.89 72.85 C53.52 76.61, 45.71 79.57, 38.69 79.54 C31.68 79.51, 23.55 76.57, 17.82 72.69 C12.09 68.82, 7.06 62.54, 4.32 56.3 C1.59 50.07, 0.67 42.51, 1.42 35.29 C2.16 28.07, 4.01 18.52, 8.79 12.98 C13.57 7.44, 18.57 -0.03, 30.08 2.07 C41.59 4.16, 70.91 15.86, 77.84 25.53 C84.76 35.21, 72.47 60.16, 71.63 60.12 M55.32 1.06 C61.1 2.75, 65.78 8.83, 69.65 14.7 C73.52 20.56, 77.86 28.96, 78.55 36.24 C79.23 43.51, 76.69 52.13, 73.74 58.37 C70.8 64.61, 67.04 70.15, 60.87 73.66 C54.71 77.17, 44.14 79.52, 36.75 79.44 C29.36 79.35, 22.12 77.13, 16.54 73.14 C10.97 69.15, 5.62 62.78, 3.31 55.48 C0.99 48.19, 1.34 36.49, 2.66 29.37 C3.99 22.25, 6.13 17.63, 11.24 12.76 C16.34 7.88, 26.23 1.39, 33.28 0.14 C40.34 -1.11, 49.79 4.47, 53.58 5.26 C57.38 6.04, 55.69 4.88, 56.03 4.84" stroke="none" stroke-width="0" fill="#ffffff"></path><path d="M47.67 -0.33 C54.45 0.69, 61.78 6.57, 67.09 11.95 C72.4 17.32, 77.81 24.68, 79.52 31.9 C81.22 39.12, 79.6 48.64, 77.33 55.26 C75.05 61.89, 71.9 67.85, 65.89 71.64 C59.87 75.43, 48.8 77.67, 41.24 78 C33.69 78.34, 26.47 76.62, 20.57 73.68 C14.67 70.73, 9.02 66.16, 5.84 60.34 C2.66 54.52, 1.36 46.43, 1.46 38.77 C1.56 31.11, 2.39 20.13, 6.43 14.38 C10.46 8.62, 16.67 5.53, 25.65 4.24 C34.63 2.94, 53.28 5.22, 60.31 6.6 C67.33 7.98, 68.37 12.27, 67.81 12.5 M13.18 9.6 C18.02 3.99, 28.22 1.3, 34.82 -0.27 C41.41 -1.84, 46.51 -3.17, 52.77 0.18 C59.02 3.52, 68.26 13.69, 72.36 19.8 C76.47 25.91, 76.85 29.62, 77.39 36.83 C77.93 44.03, 79.13 56.91, 75.6 63.04 C72.08 69.17, 63.3 71.11, 56.23 73.61 C49.17 76.12, 40.54 78.09, 33.21 78.07 C25.87 78.05, 17.37 77.57, 12.24 73.51 C7.1 69.46, 4.3 60.65, 2.38 53.75 C0.46 46.86, -0.69 39.03, 0.72 32.14 C2.13 25.26, 8.32 16.32, 10.86 12.43 C13.4 8.53, 15.09 8.18, 15.97 8.78" stroke="#e8590c" stroke-width="1" fill="none"></path></g><g stroke-linecap="round" transform="translate(131.37416689394564 97.44474288415586) rotate(355.34204686110024 20 20)"><path d="M29.13 2.17 C33.23 3.64, 37.48 7.83, 39.02 11.66 C40.57 15.5, 39.57 21.01, 38.4 25.18 C37.23 29.34, 35.47 34.06, 32 36.65 C28.53 39.23, 21.89 41.19, 17.59 40.7 C13.3 40.21, 9.13 36.79, 6.25 33.71 C3.36 30.64, 0.91 26.47, 0.29 22.24 C-0.33 18.02, 0.27 11.98, 2.53 8.35 C4.79 4.73, 9.2 1.45, 13.86 0.5 C18.52 -0.45, 27.24 1.91, 30.47 2.65 C33.7 3.4, 33.26 4.56, 33.23 5 M16.28 0.86 C20.37 -0.65, 25.95 -0.9, 29.65 0.98 C33.36 2.86, 37.14 7.82, 38.49 12.14 C39.85 16.46, 38.94 22.76, 37.8 26.89 C36.65 31.02, 34.99 34.92, 31.62 36.94 C28.25 38.95, 22.2 39.73, 17.55 38.98 C12.9 38.23, 6.77 35.62, 3.73 32.44 C0.69 29.26, -0.68 24.13, -0.68 19.89 C-0.68 15.65, 0.8 10.38, 3.75 6.99 C6.7 3.61, 14.97 0.66, 17.02 -0.41 C19.07 -1.48, 16.11 0, 16.07 0.58" stroke="none" stroke-width="0" fill="#1971c2"></path><path d="M16.89 0.37 C20.98 -0.26, 27.32 1.06, 31 3.46 C34.68 5.85, 37.57 10.74, 38.96 14.75 C40.35 18.77, 41.11 23.87, 39.34 27.55 C37.56 31.22, 32.29 34.94, 28.3 36.81 C24.32 38.67, 19.38 39.44, 15.42 38.75 C11.46 38.06, 7 35.81, 4.54 32.65 C2.09 29.49, 0.7 24.32, 0.71 19.81 C0.71 15.29, 1.45 8.72, 4.56 5.56 C7.67 2.4, 16.53 1.57, 19.37 0.82 C22.22 0.08, 21.71 0.99, 21.62 1.07 M15.13 1.88 C19.13 0.68, 24.62 -0.17, 28.6 1.36 C32.58 2.9, 37.44 7.37, 39 11.1 C40.56 14.82, 39.28 19.28, 37.97 23.7 C36.67 28.12, 34.69 35.07, 31.19 37.61 C27.69 40.16, 21.09 39.34, 16.97 38.97 C12.86 38.6, 9.45 38.45, 6.51 35.39 C3.57 32.34, 0 25.26, -0.68 20.64 C-1.36 16.03, 0.06 10.82, 2.43 7.7 C4.81 4.58, 11.43 2.92, 13.54 1.92 C15.66 0.92, 14.86 1.41, 15.11 1.71" stroke="#1971c2" stroke-width="1" fill="none"></path></g><g stroke-linecap="round"><g transform="translate(105.13624638352832 18.726484486999652) rotate(355.34204686110024 30 20)"><path d="M-0.73 -0.85 C8.89 5.77, 48.12 31.64, 58.33 38.56 M4.07 -3.77 C14.56 3.3, 54.66 33.42, 63.83 41.41" stroke="#e8590c" stroke-width="1" fill="none"></path></g></g><mask></mask><g stroke-linecap="round"><g transform="translate(85.90987656684598 19.25615873393781) rotate(355.34204686110024 40 30)"><path d="M-1.67 -1.44 C11.88 8.81, 66.8 50.49, 80.56 60.68 M2.62 3.95 C15.91 13.38, 65.8 46.26, 78.62 56.03" stroke="#e8590c" stroke-width="1" fill="none"></path></g></g><mask></mask><g stroke-linecap="round"><g transform="translate(46.44378206321181 61.65391324500433) rotate(355.34204686110024 50 0)"><path d="M0.56 0.68 C17.65 0.86, 83.97 -0.62, 100.89 -0.33 M-2.59 -1.43 C14.37 -0.66, 81.8 3.18, 99.14 3.12" stroke="#e8590c" stroke-width="1" fill="none"></path></g></g><mask></mask><g stroke-linecap="round"><g transform="translate(48.47646050295026 83.24857082823019) rotate(355.34204686110024 30 0)"><path d="M0.89 -0.33 C11.15 -0.04, 52.31 2.79, 62.11 2.42 M-2.07 -2.97 C7.96 -3.48, 51.06 -1.63, 61.02 -1.28" stroke="#e8590c" stroke-width="1" fill="none"></path></g></g><mask></mask><g stroke-linecap="round"><g transform="translate(91.49235283771856 85.37972965439167) rotate(355.34204686110024 -40 40)"><path d="M2.11 2.42 C-11.43 15.38, -66.21 64.6, -80.33 77.42 M-0.19 1.26 C-14.21 14.5, -69.91 66.17, -82.75 79.64" stroke="#e8590c" stroke-width="1" fill="none"></path></g></g><mask></mask><g stroke-linecap="round" transform="translate(27.545004520161854 63.294377277678905) rotate(355.34204686110024 50 10)"><path d="M64.11 0.05 C73.36 0.43, 83.74 1.49, 89.82 3.06 C95.9 4.64, 100.34 7.23, 100.6 9.49 C100.85 11.75, 97.38 15.13, 91.35 16.63 C85.32 18.13, 73.65 17.96, 64.41 18.5 C55.17 19.03, 44.99 20.28, 35.92 19.86 C26.85 19.45, 16.31 17.67, 10.01 15.99 C3.7 14.32, -1.75 12.05, -1.92 9.8 C-2.09 7.56, 2.76 3.82, 9 2.52 C15.24 1.22, 23.06 1.89, 35.52 2.03 C47.98 2.16, 73.99 2.91, 83.74 3.31 C93.5 3.72, 94.79 4.59, 94.07 4.45 M31.3 -0.73 C39.68 -1.51, 50.55 -1.12, 59.95 -0.23 C69.34 0.65, 80.9 2.76, 87.67 4.59 C94.45 6.41, 99.34 9.3, 100.59 10.72 C101.84 12.15, 100.29 11.55, 95.19 13.16 C90.09 14.77, 78.95 19.41, 69.99 20.4 C61.04 21.39, 51.05 19.27, 41.45 19.1 C31.85 18.93, 18.92 20.45, 12.39 19.36 C5.87 18.27, 2.84 15.18, 2.31 12.57 C1.79 9.95, 4.52 6.09, 9.25 3.67 C13.97 1.25, 27.23 -1.04, 30.68 -1.93 C34.12 -2.82, 29.34 -2.57, 29.92 -1.66" stroke="none" stroke-width="0" fill="#e8590c"></path><path d="M10.51 5.05 C15.78 3.96, 27.17 2.93, 36.13 1.86 C45.09 0.8, 55.19 -1.99, 64.24 -1.34 C73.29 -0.68, 84.42 3.69, 90.43 5.79 C96.44 7.89, 100.55 9.81, 100.3 11.28 C100.06 12.75, 94.98 13.37, 88.96 14.6 C82.95 15.83, 73.55 17.77, 64.2 18.66 C54.84 19.55, 41.72 20.36, 32.85 19.93 C23.99 19.49, 16.61 17.52, 11.02 16.05 C5.43 14.59, -0.84 13.54, -0.68 11.13 C-0.51 8.71, 9.46 3.01, 12 1.57 C14.54 0.12, 13.55 2.33, 14.55 2.46 M18.74 -0.27 C25.22 -2.18, 37.59 -2.45, 47.22 -1.68 C56.85 -0.92, 68.08 2.7, 76.51 4.33 C84.94 5.96, 94.37 6.3, 97.8 8.11 C101.24 9.92, 100.47 13.25, 97.12 15.2 C93.77 17.16, 85.08 19.46, 77.73 19.86 C70.37 20.25, 62.36 17.45, 52.99 17.59 C43.63 17.72, 29.74 20.91, 21.53 20.66 C13.32 20.41, 6.78 18.85, 3.71 16.09 C0.65 13.33, 0.31 6.27, 3.15 4.1 C6 1.94, 17.66 3.84, 20.8 3.09 C23.94 2.34, 21.18 -0.49, 21.97 -0.41" stroke="#e8590c" stroke-width="1" fill="none"></path></g><g stroke-linecap="round" transform="translate(70.69187410115074 25.7219656595189) rotate(28.930206958758955 50 10)"><path d="M33.19 -0.57 C42.15 -1.31, 55.81 -0.99, 65.47 -0.1 C75.13 0.78, 85.52 3.25, 91.14 4.74 C96.76 6.23, 98.98 6.95, 99.19 8.85 C99.4 10.75, 97.84 14.35, 92.41 16.15 C86.99 17.94, 76.5 19.09, 66.63 19.63 C56.76 20.17, 42.78 20.27, 33.21 19.4 C23.64 18.53, 14.62 15.7, 9.21 14.41 C3.8 13.13, 0.76 13.26, 0.74 11.67 C0.71 10.09, 3.11 7.06, 9.04 4.88 C14.98 2.7, 31.19 -0.5, 36.36 -1.41 C41.52 -2.31, 39.78 -0.87, 40.03 -0.55 M31.67 0.26 C39.88 -0.05, 53.7 0.79, 63.34 1.66 C72.98 2.53, 83.13 4.5, 89.5 5.5 C95.87 6.49, 101.26 5.76, 101.58 7.63 C101.9 9.49, 96.73 14.85, 91.42 16.68 C86.11 18.51, 78.85 17.67, 69.73 18.61 C60.62 19.54, 46.11 22.42, 36.72 22.28 C27.33 22.15, 19.04 19.97, 13.4 17.79 C7.76 15.61, 3.55 11.87, 2.86 9.2 C2.16 6.53, 4.4 3.67, 9.25 1.79 C14.1 -0.08, 27.66 -2.18, 31.93 -2.05 C36.2 -1.92, 34.99 1.83, 34.88 2.56" stroke="none" stroke-width="0" fill="#e8590c"></path><path d="M16.48 4.22 C22.31 2.36, 31.97 -1.5, 41.41 -1.74 C50.85 -1.98, 64.18 1.36, 73.13 2.78 C82.09 4.21, 91.01 5.55, 95.15 6.81 C99.28 8.08, 99.8 8.79, 97.92 10.38 C96.03 11.96, 90.88 14.64, 83.84 16.3 C76.8 17.96, 64.94 19.87, 55.69 20.33 C46.43 20.79, 36.85 19.85, 28.32 19.06 C19.79 18.27, 9.18 17.68, 4.48 15.59 C-0.22 13.5, -2.89 8.94, 0.14 6.51 C3.17 4.08, 16.43 2.26, 22.66 0.99 C28.89 -0.28, 36.97 -1.46, 37.51 -1.11 M84.48 1.55 C91.1 3.62, 95.56 8.89, 97.14 11.33 C98.71 13.77, 98.41 14.53, 93.93 16.2 C89.44 17.86, 79.52 20.39, 70.21 21.29 C60.9 22.2, 47.15 22.78, 38.07 21.62 C28.99 20.46, 21.93 15.67, 15.73 14.35 C9.54 13.02, 2.25 14.72, 0.9 13.66 C-0.46 12.6, 2.73 10.61, 7.59 8.01 C12.45 5.4, 21.25 -0.87, 30.06 -1.98 C38.87 -3.1, 50.81 0.88, 60.46 1.33 C70.1 1.78, 83.29 0.23, 87.94 0.7 C92.59 1.17, 89.45 3.51, 88.37 4.15" stroke="#e8590c" stroke-width="1" fill="none"></path></g><g stroke-linecap="round" transform="translate(-7.06863073037033 118.60596487592647) rotate(310.34204686110036 67.42640687119288 10)"><path d="M34.82 1.45 C43.04 0.46, 55.06 0.12, 66.08 -0.15 C77.1 -0.42, 90.81 -1.31, 100.94 -0.18 C111.06 0.95, 121.21 4.8, 126.84 6.63 C132.46 8.45, 135.09 9.63, 134.7 10.75 C134.3 11.87, 130.32 12.17, 124.46 13.34 C118.61 14.52, 109.3 16.81, 99.55 17.79 C89.81 18.76, 77.18 18.85, 66 19.21 C54.82 19.58, 42.19 20.69, 32.47 19.97 C22.74 19.25, 13.12 16.5, 7.66 14.91 C2.21 13.32, -0.71 12.02, -0.29 10.46 C0.14 8.89, 1.24 7.05, 10.22 5.53 C19.19 4.02, 43.53 2.33, 53.57 1.37 C63.61 0.4, 70.26 -0.41, 70.45 -0.28 M53.84 1.7 C64.59 0.53, 78.84 -0.75, 89.51 -0.99 C100.18 -1.22, 110.57 -0.69, 117.87 0.3 C125.16 1.29, 130.44 2.57, 133.27 4.94 C136.1 7.32, 138.48 12.37, 134.85 14.54 C131.22 16.71, 120.21 16.81, 111.48 17.97 C102.75 19.13, 92.71 20.87, 82.49 21.5 C72.26 22.14, 60.51 22.4, 50.12 21.78 C39.74 21.16, 28.32 19.16, 20.15 17.77 C11.98 16.39, 4.31 15.53, 1.1 13.45 C-2.1 11.38, -2.49 7.1, 0.93 5.32 C4.34 3.55, 13.09 4.09, 21.6 2.81 C30.1 1.52, 46.52 -2.28, 51.96 -2.39 C57.4 -2.5, 54.42 1.92, 54.24 2.15" stroke="none" stroke-width="0" fill="#e8590c"></path><path d="M97.31 -0.7 C106.96 -0.05, 117.94 4.36, 124.24 6.28 C130.54 8.2, 134.84 9.65, 135.1 10.83 C135.36 12, 131.23 12.2, 125.79 13.32 C120.35 14.45, 111.97 16.4, 102.46 17.59 C92.94 18.77, 79.49 20.17, 68.7 20.42 C57.91 20.67, 47.55 19.72, 37.74 19.07 C27.92 18.42, 16.17 18.26, 9.79 16.52 C3.41 14.78, 0.14 10.54, -0.53 8.61 C-1.2 6.69, 0.16 6.43, 5.75 4.97 C11.33 3.5, 23.39 0.51, 33 -0.17 C42.6 -0.86, 48.97 0.44, 63.39 0.87 C77.81 1.29, 108.81 1.67, 119.53 2.35 C130.25 3.03, 129.02 4.96, 127.71 4.95 M116.34 5.4 C123.91 6.56, 128.16 8.75, 131.17 9.6 C134.18 10.46, 137.29 8.84, 134.4 10.54 C131.5 12.25, 122.28 17.84, 113.8 19.86 C105.31 21.88, 94.4 23.21, 83.48 22.67 C72.57 22.14, 59.14 17.46, 48.31 16.66 C37.48 15.87, 26.07 19.09, 18.48 17.92 C10.89 16.76, 4.98 11.36, 2.78 9.68 C0.59 8, 2.43 8.89, 5.29 7.82 C8.15 6.74, 11.92 5, 19.95 3.25 C27.98 1.5, 42.39 -1.83, 53.46 -2.69 C64.54 -3.55, 75.94 -2.7, 86.4 -1.92 C96.86 -1.13, 111.58 1.01, 116.22 2.04 C120.87 3.06, 115.12 3.67, 114.27 4.24" stroke="#e8590c" stroke-width="1" fill="none"></path></g><g transform="translate(154.26380894873506 50.14711529975011) rotate(355.34204686110024 15.866679805391016 17.25849807088707)" stroke="none"><path fill="#e8590c" d="M 0.37,-2.60 Q 0.37,-2.60 1.50,-2.46 2.62,-2.32 3.82,-2.04 5.03,-1.76 6.46,-0.90 7.89,-0.04 8.89,0.56 9.89,1.17 11.55,2.43 13.22,3.69 14.65,4.72 16.09,5.75 17.58,6.35 19.07,6.96 20.01,7.55 20.95,8.14 21.97,9.15 22.99,10.16 23.81,11.55 24.63,12.93 25.61,13.91 26.59,14.88 27.64,16.15 28.69,17.43 29.42,18.81 30.15,20.19 30.94,21.21 31.72,22.22 32.43,23.96 33.14,25.70 33.43,27.18 33.72,28.66 34.01,29.78 34.29,30.90 34.86,32.39 35.42,33.87 35.40,34.48 35.38,35.09 35.16,35.65 34.95,36.22 34.56,36.69 34.18,37.16 33.67,37.48 33.15,37.80 32.56,37.94 31.97,38.08 31.37,38.02 30.76,37.97 30.21,37.72 29.66,37.48 29.21,37.07 28.76,36.66 28.47,36.13 28.18,35.60 28.07,35.00 27.96,34.40 28.05,33.80 28.14,33.20 28.41,32.66 28.69,32.12 29.12,31.70 29.55,31.27 30.10,31.01 30.65,30.75 31.25,30.67 31.85,30.60 32.44,30.72 33.04,30.84 33.56,31.14 34.09,31.45 34.49,31.90 34.89,32.36 35.12,32.92 35.35,33.48 35.40,34.08 35.44,34.68 35.29,35.27 35.13,35.86 34.80,36.36 34.47,36.87 33.99,37.25 33.52,37.62 32.94,37.82 32.37,38.03 31.77,38.04 31.16,38.05 30.58,37.86 30.01,37.68 29.52,37.32 29.03,36.96 28.68,36.46 28.33,35.97 28.16,35.39 27.99,34.81 27.99,34.81 27.99,34.81 27.44,32.58 26.88,30.36 26.80,28.95 26.72,27.53 25.76,26.26 24.79,24.98 24.16,23.74 23.53,22.51 22.69,21.63 21.85,20.75 21.41,19.75 20.97,18.75 19.70,17.45 18.44,16.15 17.55,15.04 16.67,13.92 15.97,13.11 15.27,12.29 14.26,11.81 13.25,11.32 12.01,10.50 10.76,9.68 9.71,8.61 8.65,7.54 7.29,6.69 5.93,5.84 5.01,5.13 4.08,4.41 2.97,3.68 1.85,2.96 0.74,2.78 -0.37,2.60 -0.67,2.51 -0.98,2.43 -1.26,2.28 -1.53,2.13 -1.77,1.91 -2.00,1.70 -2.17,1.43 -2.35,1.17 -2.45,0.87 -2.56,0.57 -2.59,0.25 -2.62,-0.05 -2.58,-0.36 -2.53,-0.68 -2.41,-0.97 -2.29,-1.26 -2.11,-1.52 -1.92,-1.78 -1.68,-1.98 -1.44,-2.19 -1.16,-2.33 -0.87,-2.47 -0.57,-2.54 -0.26,-2.61 0.05,-2.60 0.37,-2.60 0.37,-2.60 L 0.37,-2.60 Z"></path></g><g transform="translate(130.88442251206726 64.69794266691042) rotate(355.34204686110024 -50.66202176085119 6.402335987918377)" stroke="none"><path fill="#e8590c" d="M -0.25,2.53 Q -0.25,2.53 -1.85,2.33 -3.44,2.14 -4.55,2.11 -5.67,2.07 -7.06,2.35 -8.45,2.64 -9.72,3.27 -11.00,3.90 -12.53,4.33 -14.06,4.75 -15.53,5.08 -17.00,5.40 -18.44,5.48 -19.89,5.56 -20.95,5.80 -22.02,6.03 -24.30,6.03 -26.58,6.03 -28.16,6.04 -29.74,6.05 -30.95,6.09 -32.16,6.13 -33.92,6.11 -35.69,6.09 -37.12,6.10 -38.56,6.11 -39.83,6.25 -41.10,6.39 -42.42,6.63 -43.74,6.87 -45.04,7.06 -46.34,7.26 -47.60,7.52 -48.86,7.79 -50.48,7.84 -52.10,7.89 -53.43,7.90 -54.75,7.91 -55.82,7.93 -56.89,7.96 -58.47,7.94 -60.05,7.93 -61.30,7.72 -62.56,7.52 -63.60,7.25 -64.64,6.97 -66.11,6.88 -67.59,6.79 -68.93,6.55 -70.27,6.31 -71.85,6.02 -73.43,5.73 -74.67,5.34 -75.91,4.96 -77.07,4.68 -78.24,4.41 -79.79,3.65 -81.35,2.88 -82.61,2.28 -83.88,1.67 -84.97,1.82 -86.07,1.97 -87.18,2.15 -88.30,2.32 -89.37,2.68 -90.44,3.04 -91.35,3.98 -92.25,4.92 -93.32,5.57 -94.39,6.23 -95.79,7.26 -97.20,8.30 -97.57,9.44 -97.95,10.58 -98.05,9.34 -98.15,8.09 -98.85,6.94 -99.54,5.79 -98.06,6.33 -96.58,6.86 -95.04,7.57 -93.49,8.28 -92.23,9.18 -90.97,10.08 -89.60,10.36 -88.22,10.63 -87.16,10.39 -86.10,10.15 -85.07,10.41 -84.04,10.68 -82.91,10.69 -81.79,10.71 -80.29,10.72 -78.79,10.74 -77.37,10.74 -75.94,10.75 -74.77,10.75 -73.60,10.75 -72.48,10.55 -71.35,10.36 -69.67,10.31 -67.98,10.26 -66.65,10.27 -65.33,10.28 -64.18,10.27 -63.02,10.26 -61.78,10.24 -60.54,10.23 -58.50,10.31 -56.45,10.39 -54.77,10.66 -53.09,10.92 -51.43,11.03 -49.78,11.13 -48.54,11.12 -47.29,11.10 -45.36,11.13 -43.43,11.17 -41.99,11.24 -40.54,11.31 -38.97,11.39 -37.40,11.48 -35.84,11.46 -34.28,11.44 -33.79,11.52 -33.31,11.60 -32.88,11.83 -32.45,12.06 -32.11,12.42 -31.77,12.77 -31.57,13.22 -31.36,13.66 -31.31,14.15 -31.26,14.63 -31.36,15.11 -31.47,15.59 -31.72,16.01 -31.97,16.43 -32.34,16.75 -32.72,17.06 -33.17,17.24 -33.63,17.42 -34.12,17.45 -34.60,17.48 -35.08,17.35 -35.55,17.22 -35.95,16.94 -36.36,16.67 -36.65,16.28 -36.95,15.89 -37.11,15.42 -37.26,14.96 -37.26,14.47 -37.26,13.98 -37.11,13.52 -36.95,13.05 -36.65,12.66 -36.36,12.27 -35.95,12.00 -35.55,11.72 -35.08,11.59 -34.60,11.46 -34.11,11.49 -33.63,11.51 -33.17,11.70 -32.72,11.88 -32.34,12.19 -31.97,12.51 -31.72,12.93 -31.47,13.35 -31.36,13.83 -31.26,14.31 -31.31,14.79 -31.36,15.28 -31.57,15.72 -31.77,16.17 -32.11,16.52 -32.45,16.88 -32.88,17.11 -33.31,17.34 -33.80,17.42 -34.28,17.50 -34.28,17.50 -34.28,17.50 -35.84,17.48 -37.40,17.46 -38.97,17.55 -40.55,17.63 -41.99,17.70 -43.44,17.77 -44.58,17.80 -45.72,17.83 -47.44,17.80 -49.16,17.77 -50.28,17.71 -51.40,17.64 -52.59,17.59 -53.79,17.55 -55.12,17.49 -56.45,17.44 -58.50,17.52 -60.54,17.60 -61.78,17.58 -63.02,17.57 -64.16,17.56 -65.30,17.55 -66.58,17.58 -67.86,17.60 -69.15,17.65 -70.44,17.71 -72.48,17.95 -74.52,18.20 -75.76,18.20 -77.00,18.20 -78.48,18.20 -79.97,18.21 -81.33,18.21 -82.69,18.21 -83.99,18.14 -85.30,18.07 -86.50,17.87 -87.70,17.66 -89.12,17.54 -90.54,17.42 -91.94,16.95 -93.33,16.47 -94.44,15.93 -95.55,15.39 -96.95,14.72 -98.36,14.05 -99.44,13.78 -100.52,13.50 -101.92,12.80 -103.31,12.09 -103.77,11.04 -104.23,9.99 -104.17,8.32 -104.11,6.64 -103.48,5.42 -102.86,4.21 -101.83,2.92 -100.80,1.64 -99.33,0.65 -97.86,-0.33 -96.84,-0.75 -95.81,-1.17 -94.85,-2.29 -93.90,-3.41 -92.03,-4.02 -90.17,-4.64 -88.10,-4.97 -86.04,-5.31 -84.95,-5.30 -83.85,-5.29 -82.30,-4.93 -80.74,-4.57 -79.41,-4.09 -78.09,-3.61 -77.09,-3.16 -76.08,-2.72 -74.97,-2.17 -73.85,-1.63 -72.48,-1.11 -71.10,-0.60 -69.23,-0.33 -67.36,-0.05 -66.05,0.02 -64.74,0.10 -63.10,0.42 -61.46,0.74 -59.94,0.85 -58.43,0.95 -56.60,0.97 -54.77,0.98 -53.49,0.98 -52.20,0.97 -50.80,0.95 -49.40,0.93 -47.53,0.64 -45.65,0.36 -44.17,0.08 -42.69,-0.18 -40.62,-0.36 -38.56,-0.54 -37.12,-0.53 -35.69,-0.52 -33.92,-0.55 -32.16,-0.57 -30.96,-0.53 -29.77,-0.49 -28.21,-0.50 -26.65,-0.50 -25.49,-0.55 -24.32,-0.60 -23.14,-0.63 -21.96,-0.66 -20.52,-0.87 -19.09,-1.09 -17.77,-1.10 -16.44,-1.11 -15.24,-1.14 -14.03,-1.17 -12.94,-1.40 -11.84,-1.62 -10.38,-2.22 -8.91,-2.81 -7.14,-2.90 -5.37,-2.98 -4.16,-2.88 -2.95,-2.78 -1.35,-2.65 0.25,-2.53 0.55,-2.46 0.85,-2.39 1.12,-2.26 1.40,-2.12 1.63,-1.92 1.87,-1.72 2.04,-1.47 2.22,-1.23 2.34,-0.94 2.45,-0.66 2.50,-0.35 2.54,-0.05 2.51,0.25 2.48,0.55 2.38,0.84 2.27,1.13 2.11,1.39 1.94,1.64 1.71,1.85 1.49,2.06 1.22,2.21 0.95,2.36 0.65,2.44 0.36,2.52 0.05,2.52 -0.25,2.53 -0.25,2.53 L -0.25,2.53 Z"></path></g><g transform="translate(73.08621524071253 136.80716272380778) rotate(355.34204686110024 -27.279571743045608 19.207033448631137)" stroke="none"><path fill="#e8590c" d="M 0.66,2.42 Q 0.66,2.42 -1.11,2.83 -2.89,3.24 -4.31,3.91 -5.72,4.59 -6.63,5.58 -7.54,6.58 -8.47,7.29 -9.40,8.00 -10.09,9.42 -10.79,10.84 -11.59,11.73 -12.38,12.62 -13.28,13.54 -14.19,14.46 -15.55,15.30 -16.91,16.13 -17.80,17.15 -18.69,18.16 -19.71,18.50 -20.72,18.84 -21.99,19.44 -23.25,20.03 -24.61,20.84 -25.96,21.65 -27.08,22.22 -28.20,22.78 -29.35,23.53 -30.50,24.28 -31.36,24.98 -32.22,25.67 -33.97,26.86 -35.72,28.06 -36.48,28.84 -37.25,29.61 -38.40,30.43 -39.56,31.24 -40.38,32.17 -41.19,33.10 -42.48,33.99 -43.77,34.89 -44.66,35.59 -45.56,36.30 -46.60,37.26 -47.65,38.22 -48.72,38.43 -49.79,38.64 -51.41,40.21 -53.04,41.78 -53.62,41.91 -54.21,42.04 -54.80,41.98 -55.39,41.92 -55.94,41.67 -56.48,41.42 -56.92,41.01 -57.35,40.61 -57.64,40.08 -57.92,39.55 -58.02,38.96 -58.12,38.37 -58.02,37.78 -57.93,37.19 -57.65,36.66 -57.37,36.13 -56.94,35.72 -56.51,35.31 -55.97,35.06 -55.43,34.80 -54.83,34.73 -54.24,34.67 -53.66,34.79 -53.07,34.92 -52.56,35.22 -52.05,35.53 -51.66,35.98 -51.27,36.44 -51.04,36.99 -50.82,37.55 -50.78,38.14 -50.75,38.74 -50.91,39.32 -51.06,39.89 -51.40,40.39 -51.73,40.88 -52.20,41.25 -52.68,41.61 -53.24,41.81 -53.81,42.00 -54.41,42.00 -55.00,42.00 -55.57,41.82 -56.14,41.63 -56.62,41.27 -57.09,40.91 -57.43,40.42 -57.77,39.92 -57.93,39.35 -58.09,38.77 -58.06,38.18 -58.03,37.58 -57.82,37.02 -57.60,36.47 -57.21,36.01 -56.83,35.55 -56.32,35.24 -55.81,34.93 -55.81,34.93 -55.81,34.93 -54.76,33.97 -53.72,33.01 -52.55,32.66 -51.37,32.30 -50.21,31.07 -49.05,29.85 -48.04,29.21 -47.02,28.58 -45.87,27.69 -44.72,26.81 -43.66,25.77 -42.61,24.74 -41.54,23.91 -40.46,23.09 -38.73,21.68 -37.00,20.28 -35.77,19.39 -34.53,18.50 -33.58,17.89 -32.64,17.28 -31.47,16.60 -30.31,15.92 -29.30,15.40 -28.30,14.88 -27.31,14.28 -26.32,13.69 -25.10,13.12 -23.88,12.55 -22.77,12.16 -21.67,11.77 -20.80,11.00 -19.93,10.23 -18.75,9.33 -17.56,8.43 -16.58,7.87 -15.60,7.31 -14.61,5.78 -13.63,4.25 -12.43,3.29 -11.23,2.33 -9.97,1.27 -8.72,0.21 -7.58,-0.20 -6.45,-0.62 -5.29,-0.97 -4.14,-1.31 -2.40,-1.87 -0.66,-2.42 -0.36,-2.47 -0.06,-2.51 0.24,-2.48 0.54,-2.45 0.82,-2.35 1.11,-2.25 1.36,-2.09 1.62,-1.92 1.82,-1.70 2.03,-1.47 2.18,-1.21 2.33,-0.94 2.41,-0.65 2.48,-0.36 2.49,-0.06 2.50,0.24 2.43,0.53 2.37,0.83 2.23,1.10 2.10,1.37 1.90,1.61 1.71,1.84 1.46,2.02 1.22,2.19 0.94,2.31 0.66,2.42 0.66,2.42 L 0.66,2.42 Z"></path></g><g transform="translate(17.710586211549582 167.58818949340366) rotate(355.34204686110024 -0.5567425971239572 6.959065842604559)" stroke="none"><path fill="#e8590c" d="M 2.55,0.42 Q 2.55,0.42 2.42,1.39 2.30,2.35 2.30,3.49 2.31,4.62 2.01,5.87 1.70,7.11 1.89,8.36 2.08,9.61 2.29,11.19 2.50,12.78 2.58,13.30 2.66,13.82 2.56,14.34 2.47,14.86 2.22,15.32 1.97,15.79 1.58,16.14 1.19,16.50 0.71,16.72 0.23,16.93 -0.29,16.98 -0.81,17.04 -1.32,16.92 -1.84,16.80 -2.29,16.52 -2.74,16.24 -3.07,15.83 -3.41,15.43 -3.60,14.94 -3.79,14.44 -3.81,13.92 -3.83,13.39 -3.68,12.88 -3.54,12.38 -3.24,11.94 -2.93,11.51 -2.51,11.20 -2.09,10.88 -1.58,10.72 -1.08,10.56 -0.55,10.56 -0.03,10.57 0.46,10.74 0.96,10.92 1.37,11.24 1.79,11.57 2.08,12.01 2.37,12.45 2.51,12.96 2.64,13.47 2.61,14.00 2.57,14.52 2.37,15.01 2.17,15.50 1.82,15.89 1.48,16.29 1.02,16.56 0.56,16.83 0.05,16.93 -0.46,17.04 -0.98,16.98 -1.51,16.91 -1.98,16.68 -2.46,16.46 -2.84,16.09 -3.22,15.72 -3.46,15.25 -3.70,14.78 -3.70,14.78 -3.70,14.78 -3.98,11.91 -4.27,9.04 -4.18,7.77 -4.08,6.50 -3.69,5.08 -3.30,3.65 -3.12,2.57 -2.94,1.48 -2.74,0.52 -2.55,-0.42 -2.46,-0.72 -2.37,-1.02 -2.22,-1.29 -2.06,-1.56 -1.84,-1.78 -1.62,-2.01 -1.36,-2.17 -1.10,-2.34 -0.80,-2.44 -0.50,-2.53 -0.19,-2.56 0.11,-2.58 0.42,-2.53 0.73,-2.48 1.01,-2.36 1.30,-2.23 1.55,-2.04 1.80,-1.85 1.99,-1.61 2.19,-1.37 2.32,-1.09 2.45,-0.80 2.51,-0.50 2.58,-0.19 2.56,0.11 2.55,0.42 2.55,0.42 L 2.55,0.42 Z"></path></g><g transform="translate(177.95631972526377 63.337422839915234) rotate(355.34204686110024 -5.567247577108446 7.794166995852265)" stroke="none"><path fill="#e8590c" d="M 2.10,-1.58 Q 2.10,-1.58 2.62,-0.96 3.13,-0.33 3.97,0.68 4.80,1.70 5.43,2.91 6.06,4.12 6.82,5.02 7.58,5.93 8.25,7.40 8.92,8.87 10.07,9.93 11.22,11.00 12.36,12.35 13.50,13.70 14.14,14.63 14.79,15.56 15.94,17.09 17.10,18.63 17.71,20.06 18.32,21.50 18.33,21.93 18.35,22.37 18.26,22.79 18.18,23.22 17.99,23.61 17.80,24.00 17.53,24.34 17.25,24.68 16.90,24.94 16.56,25.20 16.16,25.37 15.76,25.54 15.33,25.60 14.90,25.67 14.46,25.64 14.03,25.60 13.62,25.46 13.21,25.33 12.84,25.09 12.47,24.86 12.17,24.55 11.87,24.23 11.66,23.85 11.44,23.48 11.32,23.06 11.20,22.64 12.65,23.91 14.10,25.17 12.67,24.70 11.24,24.23 9.55,23.08 7.87,21.94 6.69,20.88 5.51,19.83 4.33,18.94 3.14,18.06 1.69,17.11 0.25,16.17 -0.87,15.32 -2.00,14.48 -2.79,13.65 -3.58,12.82 -4.70,12.11 -5.82,11.40 -6.75,10.85 -7.69,10.31 -8.61,9.52 -9.53,8.74 -10.37,7.90 -11.22,7.06 -12.31,5.99 -13.40,4.91 -14.14,3.99 -14.88,3.06 -15.84,2.31 -16.81,1.56 -17.82,1.04 -18.83,0.52 -20.55,0.31 -22.27,0.10 -24.07,-0.18 -25.87,-0.48 -26.27,-0.55 -26.66,-0.61 -27.02,-0.78 -27.39,-0.96 -27.70,-1.21 -28.01,-1.47 -28.25,-1.79 -28.49,-2.12 -28.65,-2.49 -28.80,-2.86 -28.87,-3.26 -28.93,-3.65 -28.90,-4.06 -28.86,-4.46 -28.74,-4.84 -28.61,-5.22 -28.39,-5.56 -28.17,-5.90 -27.88,-6.18 -27.59,-6.46 -27.24,-6.66 -26.89,-6.86 -26.50,-6.97 -26.12,-7.08 -25.71,-7.10 -25.31,-7.11 -24.92,-7.03 -24.52,-6.95 -23.50,-5.48 -22.47,-4.00 -20.56,-2.83 -18.65,-1.66 -16.98,-0.32 -15.32,1.01 -14.34,1.77 -13.36,2.52 -15.06,2.91 -16.75,3.30 -15.51,2.25 -14.26,1.20 -12.89,0.64 -11.52,0.07 -9.96,-0.96 -8.39,-2.01 -8.55,-0.77 -8.71,0.46 -9.85,0.38 -10.99,0.29 -12.27,-0.60 -13.55,-1.50 -14.50,-2.44 -15.44,-3.37 -16.17,-3.82 -16.91,-4.27 -17.14,-4.64 -17.37,-5.01 -17.50,-5.42 -17.64,-5.83 -17.67,-6.27 -17.70,-6.70 -17.63,-7.12 -17.55,-7.55 -17.38,-7.95 -17.21,-8.34 -16.94,-8.69 -16.68,-9.03 -16.34,-9.30 -16.00,-9.57 -15.61,-9.76 -15.22,-9.94 -14.79,-10.02 -14.37,-10.11 -13.94,-10.08 -13.50,-10.06 -13.09,-9.94 -12.67,-9.82 -12.30,-9.60 -11.93,-9.38 -11.62,-9.07 -11.31,-8.77 -11.13,-7.10 -10.94,-5.43 -9.76,-3.81 -8.57,-2.19 -7.75,-1.03 -6.93,0.12 -6.23,1.34 -5.52,2.55 -5.03,3.60 -4.54,4.65 -4.08,7.75 -3.61,10.85 -3.68,11.35 -3.76,11.84 -3.98,12.28 -4.21,12.72 -4.56,13.07 -4.92,13.42 -5.36,13.63 -5.81,13.85 -6.30,13.91 -6.80,13.97 -7.28,13.87 -7.77,13.77 -8.20,13.52 -8.63,13.27 -8.96,12.90 -9.28,12.53 -9.48,12.07 -9.67,11.61 -9.70,11.11 -9.74,10.62 -9.61,10.14 -9.49,9.66 -9.21,9.24 -8.94,8.83 -8.55,8.52 -8.16,8.21 -7.69,8.05 -7.22,7.88 -6.73,7.87 -6.23,7.87 -5.76,8.02 -5.28,8.17 -4.88,8.46 -4.48,8.76 -4.20,9.16 -3.91,9.57 -3.77,10.05 -3.63,10.52 -3.65,11.02 -3.67,11.52 -3.85,11.98 -4.02,12.44 -4.34,12.83 -4.66,13.21 -5.08,13.47 -5.50,13.74 -5.98,13.85 -6.47,13.97 -6.96,13.92 -7.45,13.87 -7.91,13.67 -8.36,13.47 -8.73,13.13 -9.09,12.80 -9.33,12.36 -9.57,11.93 -9.66,11.44 -9.75,10.95 -9.75,10.95 -9.75,10.95 -9.89,9.03 -10.03,7.11 -10.84,5.49 -11.66,3.88 -12.88,2.49 -14.10,1.10 -15.07,-0.24 -16.04,-1.60 -16.48,-2.94 -16.91,-4.27 -17.14,-4.64 -17.37,-5.01 -17.50,-5.42 -17.64,-5.83 -17.67,-6.26 -17.70,-6.70 -17.63,-7.12 -17.55,-7.55 -17.38,-7.95 -17.21,-8.34 -16.94,-8.69 -16.68,-9.03 -16.34,-9.30 -16.01,-9.57 -15.61,-9.76 -15.22,-9.94 -14.79,-10.02 -14.37,-10.11 -13.94,-10.08 -13.50,-10.06 -13.09,-9.94 -12.68,-9.82 -12.30,-9.60 -11.93,-9.38 -11.62,-9.07 -11.31,-8.77 -10.73,-7.91 -10.15,-7.04 -8.79,-6.17 -7.44,-5.29 -6.23,-4.40 -5.02,-3.51 -4.19,-2.02 -3.35,-0.52 -4.82,1.84 -6.28,4.21 -7.53,5.12 -8.77,6.02 -10.65,7.00 -12.54,7.99 -13.77,8.32 -14.99,8.66 -16.23,8.28 -17.46,7.90 -18.56,7.05 -19.66,6.20 -20.74,5.20 -21.82,4.19 -23.00,3.11 -24.18,2.03 -25.85,0.71 -27.52,-0.60 -28.12,-1.82 -28.72,-3.04 -27.69,-1.83 -26.66,-0.61 -27.02,-0.78 -27.38,-0.96 -27.70,-1.21 -28.01,-1.47 -28.25,-1.79 -28.49,-2.12 -28.65,-2.49 -28.80,-2.86 -28.87,-3.26 -28.93,-3.65 -28.90,-4.06 -28.86,-4.46 -28.74,-4.84 -28.61,-5.22 -28.39,-5.56 -28.17,-5.90 -27.88,-6.18 -27.59,-6.46 -27.24,-6.66 -26.89,-6.86 -26.50,-6.97 -26.12,-7.08 -25.71,-7.10 -25.31,-7.11 -24.92,-7.03 -24.52,-6.95 -23.13,-6.71 -21.73,-6.47 -20.21,-6.39 -18.69,-6.31 -16.26,-5.46 -13.83,-4.61 -12.94,-3.78 -12.06,-2.94 -10.88,-2.36 -9.70,-1.78 -9.01,-0.57 -8.32,0.63 -7.31,1.38 -6.29,2.13 -5.42,3.13 -4.55,4.13 -3.53,4.64 -2.52,5.15 -0.97,6.19 0.57,7.22 1.90,8.51 3.24,9.79 4.83,10.85 6.41,11.90 7.59,12.81 8.76,13.72 9.88,14.59 10.99,15.47 12.04,16.32 13.09,17.18 14.09,18.19 15.09,19.19 16.70,20.35 18.32,21.50 18.33,21.93 18.35,22.37 18.26,22.79 18.18,23.22 17.99,23.61 17.80,24.00 17.53,24.34 17.25,24.68 16.90,24.94 16.56,25.20 16.16,25.37 15.76,25.54 15.33,25.60 14.90,25.67 14.46,25.64 14.03,25.60 13.62,25.46 13.21,25.33 12.84,25.09 12.47,24.86 12.17,24.55 11.87,24.23 11.66,23.86 11.44,23.48 11.32,23.06 11.20,22.64 11.24,22.86 11.28,23.07 10.68,22.15 10.07,21.23 9.56,20.29 9.05,19.36 8.56,18.39 8.08,17.42 6.99,16.21 5.90,15.00 5.25,14.11 4.59,13.22 3.77,12.01 2.95,10.80 1.95,8.97 0.96,7.15 0.54,5.95 0.12,4.74 -0.54,3.82 -1.21,2.90 -1.66,2.24 -2.10,1.58 -2.26,1.30 -2.42,1.03 -2.51,0.72 -2.60,0.42 -2.61,0.10 -2.62,-0.21 -2.56,-0.52 -2.50,-0.83 -2.36,-1.12 -2.22,-1.41 -2.02,-1.65 -1.82,-1.90 -1.57,-2.09 -1.31,-2.28 -1.02,-2.40 -0.73,-2.53 -0.41,-2.58 -0.10,-2.63 0.21,-2.60 0.53,-2.58 0.83,-2.48 1.13,-2.38 1.40,-2.21 1.66,-2.04 1.88,-1.81 2.10,-1.58 2.10,-1.58 L 2.10,-1.58 Z"></path></g><g transform="translate(55.90460427566762 63.51069466874105) rotate(355.34204686110024 -8.907626705224459 11.134520639092898)" stroke="none"><path fill="#e8590c" d="M -0.23,-2.53 Q -0.23,-2.53 1.53,-2.62 3.30,-2.71 4.79,-2.91 6.29,-3.11 8.07,-1.89 9.85,-0.68 9.35,0.34 8.84,1.36 7.24,2.31 5.63,3.27 3.90,3.39 2.18,3.50 1.04,3.58 -0.08,3.65 -1.22,3.71 -2.37,3.78 -3.85,3.60 -5.34,3.42 -6.83,2.95 -8.32,2.48 -10.21,2.37 -12.10,2.26 -13.23,2.27 -14.37,2.28 -15.62,2.29 -16.88,2.29 -18.04,2.85 -19.21,3.41 -19.09,4.63 -18.97,5.86 -19.64,7.13 -20.31,8.39 -21.00,9.64 -21.68,10.88 -21.81,12.10 -21.95,13.31 -20.41,13.78 -18.87,14.25 -17.78,15.13 -16.68,16.02 -15.28,16.64 -13.88,17.25 -12.49,18.07 -11.10,18.89 -9.91,19.36 -8.72,19.83 -7.40,19.73 -6.07,19.63 -5.12,18.77 -4.17,17.92 -4.46,17.63 -4.76,17.35 -4.45,16.82 -4.14,16.29 -3.68,15.89 -3.22,15.49 -2.65,15.26 -2.09,15.03 -1.48,14.99 -0.87,14.95 -0.28,15.11 0.30,15.26 0.81,15.60 1.31,15.94 1.69,16.42 2.06,16.90 2.26,17.47 2.47,18.05 2.47,18.66 2.48,19.27 2.29,19.85 2.10,20.43 1.74,20.92 1.38,21.41 0.87,21.76 0.37,22.11 -0.20,22.27 -0.79,22.44 -1.40,22.42 -2.01,22.39 -2.58,22.17 -3.14,21.95 -3.61,21.56 -4.08,21.17 -4.40,20.65 -4.72,20.14 -4.86,19.54 -5.00,18.95 -4.94,18.34 -4.88,17.73 -4.63,17.18 -4.38,16.62 -3.97,16.17 -3.55,15.73 -3.02,15.43 -2.48,15.14 -1.88,15.04 -1.28,14.93 -0.68,15.02 -0.07,15.12 0.46,15.40 1.00,15.68 1.43,16.11 1.85,16.55 2.11,17.10 2.37,17.65 2.45,18.26 2.52,18.86 2.39,19.46 2.27,20.06 2.27,20.06 2.27,20.06 0.70,22.47 -0.85,24.88 -1.96,25.61 -3.06,26.34 -4.92,26.73 -6.78,27.12 -8.28,27.08 -9.79,27.03 -10.90,26.68 -12.01,26.32 -13.01,25.95 -14.01,25.58 -15.30,24.79 -16.60,23.99 -18.01,23.15 -19.43,22.31 -21.38,21.46 -23.33,20.60 -24.54,19.99 -25.74,19.37 -27.00,18.26 -28.27,17.15 -28.76,15.54 -29.25,13.93 -29.21,12.67 -29.17,11.41 -28.72,9.89 -28.28,8.36 -27.48,6.76 -26.69,5.15 -25.86,3.59 -25.03,2.04 -24.44,0.48 -23.86,-1.07 -22.85,-1.90 -21.84,-2.73 -20.41,-3.41 -18.99,-4.09 -17.34,-4.30 -15.70,-4.51 -14.57,-4.50 -13.44,-4.48 -11.87,-4.47 -10.29,-4.47 -9.20,-4.45 -8.10,-4.44 -6.98,-4.04 -5.87,-3.64 -4.84,-3.29 -3.81,-2.94 -2.53,-2.77 -1.25,-2.60 -0.03,-2.54 1.17,-2.47 2.26,-2.44 3.36,-2.41 4.60,-2.51 5.85,-2.62 5.21,-1.51 4.57,-0.39 5.57,0.84 6.56,2.08 5.15,2.08 3.73,2.07 1.98,2.30 0.23,2.53 -0.07,2.52 -0.38,2.51 -0.67,2.43 -0.97,2.34 -1.23,2.19 -1.50,2.04 -1.72,1.83 -1.95,1.62 -2.11,1.37 -2.28,1.11 -2.38,0.82 -2.48,0.53 -2.51,0.22 -2.54,-0.07 -2.49,-0.37 -2.44,-0.68 -2.33,-0.96 -2.21,-1.24 -2.03,-1.49 -1.85,-1.74 -1.61,-1.93 -1.38,-2.13 -1.10,-2.26 -0.82,-2.40 -0.52,-2.46 -0.22,-2.53 -0.23,-2.53 L -0.23,-2.53 Z"></path></g><g transform="translate(62.35633755262171 59.78005010638935) rotate(355.34204686110024 16.42339691763908 3.89707075548813)" stroke="none"><path fill="#e8590c" d="M -0.28,-2.60 Q -0.28,-2.60 1.15,-2.74 2.59,-2.89 4.33,-3.07 6.06,-3.25 7.51,-3.11 8.96,-2.98 10.10,-2.75 11.24,-2.51 12.31,-2.16 13.39,-1.81 15.01,-1.44 16.63,-1.08 18.17,-0.85 19.71,-0.62 21.42,-0.34 23.14,-0.06 24.93,0.65 26.73,1.38 27.83,1.64 28.94,1.90 30.15,1.94 31.35,1.98 31.64,3.25 31.93,4.52 32.36,4.58 32.79,4.63 33.20,4.79 33.60,4.94 33.96,5.19 34.32,5.44 34.60,5.76 34.89,6.09 35.09,6.48 35.29,6.86 35.39,7.28 35.49,7.70 35.49,8.14 35.49,8.57 35.38,8.99 35.28,9.41 35.07,9.80 34.87,10.18 34.58,10.51 34.29,10.83 33.93,11.07 33.58,11.32 33.17,11.47 32.76,11.62 32.33,11.67 31.90,11.72 32.84,11.46 33.78,11.20 33.24,11.42 32.70,11.64 32.12,11.67 31.54,11.70 30.98,11.55 30.41,11.40 29.93,11.07 29.45,10.75 29.09,10.28 28.74,9.82 28.55,9.27 28.36,8.72 28.36,8.13 28.36,7.55 28.55,7.00 28.73,6.45 29.08,5.98 29.43,5.52 29.91,5.19 30.39,4.86 30.95,4.70 31.52,4.55 32.10,4.57 32.68,4.60 33.22,4.82 33.76,5.03 34.21,5.41 34.65,5.78 34.96,6.28 35.26,6.78 35.38,7.35 35.51,7.92 35.45,8.50 35.39,9.08 35.15,9.61 34.90,10.14 34.50,10.56 34.10,10.98 33.59,11.26 33.08,11.53 32.50,11.63 31.93,11.72 31.35,11.63 30.78,11.54 30.26,11.27 29.75,11.00 29.34,10.57 28.94,10.15 28.70,9.62 28.45,9.10 28.38,8.52 28.32,7.94 28.44,7.37 28.57,6.80 28.87,6.30 29.17,5.80 30.55,5.16 31.93,4.52 32.36,4.58 32.79,4.63 33.20,4.79 33.60,4.94 33.96,5.19 34.31,5.44 34.60,5.76 34.89,6.09 35.09,6.48 35.29,6.86 35.39,7.28 35.49,7.70 35.49,8.14 35.49,8.57 35.38,8.99 35.28,9.41 35.07,9.80 34.87,10.18 34.58,10.51 34.29,10.83 33.93,11.07 33.58,11.32 33.17,11.47 32.76,11.62 32.33,11.67 31.90,11.72 31.29,10.42 30.67,9.12 29.39,8.98 28.10,8.84 26.75,8.05 25.41,7.27 24.27,6.96 23.13,6.64 22.00,6.33 20.87,6.02 18.93,5.86 16.99,5.71 15.28,5.25 13.58,4.78 12.18,4.15 10.78,3.51 9.58,3.15 8.39,2.78 7.34,2.50 6.28,2.22 4.72,2.23 3.16,2.25 1.72,2.42 0.28,2.60 -0.02,2.59 -0.34,2.59 -0.64,2.51 -0.95,2.43 -1.23,2.28 -1.50,2.13 -1.74,1.92 -1.97,1.71 -2.15,1.45 -2.33,1.19 -2.43,0.89 -2.54,0.60 -2.58,0.28 -2.61,-0.02 -2.57,-0.33 -2.53,-0.65 -2.42,-0.94 -2.30,-1.24 -2.12,-1.49 -1.94,-1.75 -1.70,-1.96 -1.46,-2.16 -1.18,-2.31 -0.90,-2.45 -0.59,-2.52 -0.28,-2.60 -0.28,-2.60 L -0.28,-2.60 Z"></path></g><g transform="translate(46.502855158784826 84.86214921018473) rotate(355.34204686110024 18.928662150069215 -3.340353643240178)" stroke="none"><path fill="#e8590c" d="M 0,-2.65 Q 0,-2.65 1.12,-2.67 2.24,-2.69 3.30,-2.76 4.37,-2.83 5.53,-3.12 6.69,-3.41 7.99,-3.73 9.28,-4.06 10.58,-4.45 11.88,-4.84 12.97,-5.05 14.07,-5.27 15.16,-5.67 16.25,-6.07 17.66,-6.31 19.06,-6.56 20.40,-6.61 21.73,-6.66 23.44,-6.95 25.15,-7.24 26.83,-7.49 28.52,-7.74 30.12,-7.78 31.71,-7.82 34.46,-8.94 37.20,-10.06 37.76,-10.05 38.32,-10.04 38.84,-9.85 39.37,-9.66 39.80,-9.31 40.24,-8.97 40.54,-8.50 40.84,-8.03 40.98,-7.49 41.12,-6.95 41.08,-6.39 41.04,-5.84 40.82,-5.33 40.60,-4.81 40.23,-4.40 39.86,-3.98 39.38,-3.70 38.89,-3.42 38.35,-3.32 37.80,-3.21 37.25,-3.28 36.69,-3.35 36.19,-3.60 35.69,-3.84 35.30,-4.24 34.90,-4.63 34.65,-5.13 34.40,-5.62 34.32,-6.18 34.24,-6.73 34.34,-7.28 34.45,-7.82 34.72,-8.31 34.99,-8.80 35.40,-9.17 35.82,-9.55 36.33,-9.77 36.84,-9.99 37.39,-10.04 37.95,-10.09 38.49,-9.96 39.03,-9.82 39.50,-9.53 39.97,-9.23 40.33,-8.80 40.68,-8.36 40.87,-7.84 41.07,-7.32 41.09,-6.76 41.10,-6.21 40.94,-5.67 40.78,-5.14 40.46,-4.68 40.14,-4.23 39.69,-3.90 39.23,-3.57 38.70,-3.41 38.17,-3.24 38.17,-3.24 38.17,-3.24 36.67,-2.67 35.17,-2.09 33.57,-1.56 31.97,-1.04 30.53,-0.99 29.08,-0.94 27.68,-0.71 26.27,-0.47 25.08,-0.44 23.88,-0.40 22.21,-0.19 20.53,0.01 19.41,0.06 18.28,0.11 16.63,0.61 14.97,1.11 13.94,1.36 12.91,1.61 11.51,1.84 10.11,2.07 8.70,2.29 7.29,2.51 5.83,2.67 4.37,2.83 3.30,2.76 2.24,2.69 1.12,2.67 0,2.65 -0.31,2.61 -0.63,2.58 -0.93,2.46 -1.23,2.35 -1.49,2.17 -1.76,1.98 -1.97,1.74 -2.18,1.50 -2.33,1.22 -2.48,0.94 -2.56,0.63 -2.63,0.32 -2.63,-0.00 -2.63,-0.32 -2.56,-0.63 -2.48,-0.94 -2.33,-1.22 -2.18,-1.50 -1.97,-1.74 -1.76,-1.98 -1.49,-2.17 -1.23,-2.35 -0.93,-2.46 -0.63,-2.58 -0.31,-2.61 0.00,-2.65 0.00,-2.65 L 0,-2.65 Z"></path></g><g transform="translate(30.63022823314867 146.05097167360964) rotate(355.34204686110024 17.815227925573083 8.072512809538694)" stroke="none"><path fill="#e8590c" d="M 2.52,0.84 Q 2.52,0.84 2.23,1.81 1.94,2.78 1.34,4.33 0.75,5.88 -0.42,7.55 -1.59,9.23 -3.13,10.35 -4.66,11.47 -5.69,12.50 -6.72,13.53 -7.52,14.31 -8.32,15.08 -8.78,16.06 -9.23,17.05 -9.56,18.45 -9.88,19.85 -9.87,21.45 -9.87,23.05 -9.66,24.28 -9.45,25.50 -8.05,25.94 -6.64,26.39 -5.47,26.40 -4.30,26.41 -2.96,26.40 -1.62,26.39 -0.70,25.84 0.21,25.29 1.47,24.77 2.73,24.25 4.39,23.30 6.04,22.34 7.93,21.61 9.82,20.87 10.86,20.24 11.90,19.61 13.28,18.53 14.67,17.45 15.81,16.41 16.96,15.38 18.35,14.44 19.75,13.50 20.76,12.56 21.78,11.63 23.37,10.34 24.97,9.05 26.15,8.03 27.33,7.00 28.71,6.31 30.08,5.61 30.99,4.58 31.89,3.54 32.92,3.18 33.95,2.81 34.69,1.97 35.44,1.14 36.65,0.14 37.87,-0.84 39.55,-1.56 41.23,-2.28 42.58,-2.69 43.92,-3.11 44.92,-4.27 45.93,-5.44 45.70,-6.69 45.48,-7.94 48.27,-7.17 51.05,-6.41 50.19,-5.54 49.34,-4.67 48.24,-3.32 47.15,-1.96 45.46,-0.26 43.76,1.43 42.37,2.51 40.98,3.58 39.76,4.64 38.53,5.69 37.31,6.55 36.09,7.40 35.24,8.17 34.39,8.94 33.44,9.84 32.48,10.74 31.24,11.72 29.99,12.71 28.64,13.83 27.28,14.95 26.42,15.75 25.56,16.56 25.32,16.67 25.07,16.78 24.73,17.02 24.40,17.27 24.02,17.43 23.64,17.59 23.23,17.66 22.82,17.73 22.41,17.69 21.99,17.66 21.60,17.52 21.21,17.39 20.86,17.17 20.51,16.95 20.22,16.65 19.94,16.35 19.73,15.99 19.52,15.63 19.41,15.23 19.29,14.83 19.28,14.42 19.26,14.00 19.35,13.60 19.43,13.19 19.61,12.82 19.79,12.44 20.05,12.12 20.31,11.80 21.06,9.42 21.81,7.04 23.38,5.45 24.96,3.86 26.20,2.69 27.45,1.52 28.83,0.27 30.21,-0.97 31.41,-2.22 32.61,-3.47 33.62,-4.56 34.63,-5.65 35.44,-6.78 36.25,-7.91 37.03,-8.69 37.81,-9.47 38.02,-9.69 38.22,-9.91 38.40,-10.21 38.58,-10.51 38.83,-10.76 39.07,-11.01 39.37,-11.19 39.67,-11.38 40.01,-11.48 40.34,-11.59 40.69,-11.61 41.04,-11.63 41.39,-11.57 41.73,-11.51 42.05,-11.37 42.37,-11.23 42.65,-11.01 42.93,-10.80 43.14,-10.52 43.36,-10.25 43.51,-9.93 43.65,-9.61 43.72,-9.26 43.78,-8.92 43.76,-8.57 43.74,-8.22 43.64,-7.88 43.54,-7.55 41.91,-6.32 40.28,-5.10 39.18,-4.35 38.08,-3.61 36.10,-2.83 34.12,-2.05 31.91,-1.25 29.70,-0.45 27.80,0.31 25.90,1.08 24.34,1.90 22.78,2.71 21.55,3.54 20.31,4.37 19.16,5.39 18.01,6.42 17.08,7.05 16.15,7.68 14.48,8.95 12.81,10.23 11.91,11.00 11.02,11.78 10.05,12.54 9.08,13.30 7.74,14.66 6.40,16.01 5.64,17.02 4.89,18.03 4.79,18.36 4.68,18.69 4.42,18.94 4.17,19.19 3.86,19.37 3.55,19.55 3.20,19.65 2.86,19.75 2.50,19.76 2.15,19.78 1.79,19.70 1.44,19.63 1.12,19.48 0.80,19.33 0.52,19.10 0.24,18.87 0.03,18.59 -0.18,18.30 -0.32,17.97 -0.46,17.65 -0.51,17.29 -0.57,16.94 -0.54,16.58 -0.51,16.23 -0.40,15.89 -0.29,15.55 -0.10,15.25 0.08,14.94 1.72,14.37 3.35,13.79 4.66,13.34 5.97,12.89 7.54,12.15 9.12,11.41 10.64,10.60 12.16,9.80 13.38,8.99 14.61,8.19 15.61,7.27 16.62,6.36 17.42,4.85 18.21,3.34 18.39,3.30 18.57,3.25 18.88,3.08 19.19,2.92 19.53,2.83 19.87,2.74 20.22,2.74 20.57,2.73 20.92,2.81 21.26,2.89 21.57,3.05 21.89,3.21 22.15,3.44 22.42,3.67 22.62,3.96 22.82,4.25 22.95,4.58 23.08,4.90 23.13,5.25 23.17,5.60 23.14,5.95 23.10,6.30 22.98,6.63 22.86,6.96 22.66,7.26 22.46,7.55 22.20,7.78 21.94,8.02 21.03,9.87 20.12,11.72 18.81,12.83 17.50,13.93 16.37,14.94 15.24,15.95 14.53,16.79 13.83,17.63 12.74,18.90 11.64,20.17 11.62,20.23 11.61,20.29 11.41,20.58 11.21,20.87 10.94,21.10 10.68,21.33 10.37,21.50 10.06,21.66 9.72,21.75 9.38,21.83 9.02,21.83 8.67,21.83 8.33,21.75 7.99,21.67 7.68,21.50 7.37,21.34 7.10,21.11 6.84,20.87 6.64,20.58 6.44,20.29 6.31,19.97 6.19,19.64 6.14,19.29 6.10,18.94 6.14,18.59 6.19,18.24 6.31,17.91 6.43,17.58 7.17,16.57 7.90,15.56 9.29,14.22 10.69,12.87 12.15,11.66 13.60,10.45 15.10,9.42 16.59,8.39 17.97,7.38 19.36,6.38 20.89,5.53 22.43,4.67 23.58,3.90 24.73,3.13 25.85,2.32 26.97,1.51 27.84,0.72 28.71,-0.05 29.51,-1.13 30.31,-2.22 31.69,-3.47 33.07,-4.73 34.25,-5.53 35.42,-6.32 36.79,-7.70 38.16,-9.08 38.78,-9.86 39.41,-10.65 39.71,-10.85 40.01,-11.06 40.35,-11.19 40.69,-11.31 41.06,-11.36 41.42,-11.40 41.78,-11.35 42.15,-11.31 42.49,-11.18 42.83,-11.04 43.13,-10.83 43.43,-10.63 43.67,-10.35 43.91,-10.08 44.08,-9.75 44.25,-9.43 44.33,-9.07 44.42,-8.72 44.42,-8.35 44.42,-7.98 44.33,-7.63 44.24,-7.28 44.07,-6.95 43.89,-6.63 43.65,-6.36 43.41,-6.08 43.85,-7.44 44.29,-8.79 44.29,-7.56 44.28,-6.33 43.57,-5.14 42.87,-3.95 41.65,-2.67 40.44,-1.40 39.28,-0.28 38.13,0.83 37.17,1.79 36.21,2.74 35.14,3.78 34.07,4.81 33.32,5.59 32.57,6.37 31.41,7.46 30.25,8.55 28.63,9.71 27.02,10.87 25.57,11.92 24.13,12.98 23.16,13.99 22.19,15.00 21.02,16.03 19.86,17.06 18.88,17.86 17.90,18.66 17.11,19.42 16.32,20.17 15.20,21.13 14.08,22.08 13.97,22.24 13.87,22.40 13.66,22.67 13.45,22.93 13.19,23.14 12.92,23.34 12.61,23.48 12.31,23.62 11.98,23.67 11.65,23.73 11.31,23.71 10.97,23.69 10.65,23.59 10.33,23.49 10.05,23.31 9.76,23.14 9.52,22.90 9.29,22.66 9.11,22.37 8.94,22.09 8.84,21.76 8.74,21.44 8.73,21.11 8.71,20.77 8.77,20.44 8.83,20.11 8.97,19.81 9.11,19.50 10.82,17.69 12.52,15.88 14.30,14.54 16.08,13.20 18.15,11.56 20.21,9.92 22.56,7.98 24.90,6.04 27.26,4.39 29.61,2.74 31.54,1.29 33.47,-0.15 34.92,-1.29 36.36,-2.43 37.74,-4.10 39.11,-5.78 39.89,-6.65 40.67,-7.53 41.70,-8.46 42.73,-9.39 43.94,-10.89 45.15,-12.39 44.48,-13.50 43.81,-14.61 43.94,-14.91 44.06,-15.21 44.26,-15.48 44.45,-15.74 44.70,-15.95 44.95,-16.16 45.25,-16.30 45.54,-16.45 45.86,-16.52 46.18,-16.59 46.51,-16.58 46.84,-16.57 47.15,-16.48 47.47,-16.39 47.75,-16.23 48.04,-16.07 48.28,-15.85 48.51,-15.62 48.69,-15.35 48.87,-15.07 48.98,-14.76 49.09,-14.45 49.12,-14.13 49.15,-13.80 49.10,-13.48 49.05,-13.16 47.13,-12.30 45.22,-11.45 44.86,-11.71 44.50,-11.97 44.25,-12.32 43.99,-12.68 43.87,-13.10 43.74,-13.52 43.75,-13.96 43.76,-14.40 43.92,-14.81 44.07,-15.23 44.35,-15.57 44.62,-15.91 44.99,-16.14 45.36,-16.38 45.79,-16.48 46.22,-16.59 46.66,-16.55 47.09,-16.52 47.50,-16.34 47.90,-16.17 48.23,-15.87 48.55,-15.58 48.77,-15.19 48.98,-14.81 49.06,-14.38 49.15,-13.95 49.08,-13.51 49.02,-13.08 48.83,-12.68 48.63,-12.29 48.32,-11.98 48.01,-11.67 47.61,-11.48 47.22,-11.28 46.78,-11.22 46.35,-11.17 45.92,-11.25 45.49,-11.34 45.10,-11.55 44.72,-11.77 44.43,-12.10 44.14,-12.43 43.97,-12.83 43.79,-13.23 43.76,-13.67 43.72,-14.11 43.83,-14.54 43.94,-14.96 44.18,-15.33 44.41,-15.70 44.76,-15.98 45.10,-16.25 45.51,-16.40 45.93,-16.55 46.37,-16.56 46.81,-16.57 45.31,-15.59 43.81,-14.61 43.94,-14.91 44.06,-15.21 44.26,-15.48 44.45,-15.74 44.70,-15.95 44.95,-16.16 45.25,-16.30 45.54,-16.45 45.86,-16.52 46.18,-16.59 46.51,-16.58 46.84,-16.57 47.15,-16.48 47.47,-16.39 47.75,-16.23 48.04,-16.07 48.28,-15.85 48.51,-15.62 48.69,-15.35 48.87,-15.07 48.98,-14.76 49.09,-14.45 49.12,-14.13 49.15,-13.80 49.10,-13.48 49.05,-13.16 49.97,-12.41 50.90,-11.67 50.09,-10.43 49.27,-9.20 48.35,-8.49 47.42,-7.78 46.53,-6.86 45.63,-5.95 44.68,-5.22 43.73,-4.48 42.86,-3.71 41.99,-2.93 41.12,-2.17 40.26,-1.42 39.32,-0.61 38.38,0.18 36.92,1.27 35.45,2.37 33.55,3.93 31.65,5.49 29.50,7.16 27.36,8.82 25.14,10.92 22.93,13.01 21.04,14.84 19.16,16.67 17.66,18.22 16.17,19.77 15.02,21.08 13.87,22.40 13.66,22.67 13.45,22.93 13.19,23.14 12.92,23.34 12.61,23.48 12.31,23.62 11.98,23.67 11.65,23.73 11.31,23.71 10.97,23.69 10.65,23.59 10.33,23.49 10.05,23.31 9.76,23.14 9.52,22.90 9.29,22.66 9.11,22.37 8.94,22.09 8.84,21.76 8.74,21.44 8.73,21.11 8.71,20.77 8.77,20.44 8.83,20.11 8.97,19.81 9.11,19.50 9.87,18.76 10.64,18.01 11.82,17.23 13.00,16.46 13.98,15.63 14.95,14.81 15.87,14.16 16.78,13.51 17.82,12.64 18.85,11.76 20.04,10.54 21.23,9.32 22.61,8.15 23.99,6.97 25.25,5.89 26.51,4.81 27.60,3.65 28.68,2.49 29.45,1.74 30.23,0.99 31.24,-0.06 32.24,-1.13 33.16,-2.08 34.07,-3.04 35.07,-4.18 36.07,-5.31 37.50,-6.30 38.92,-7.28 39.16,-8.96 39.40,-10.64 39.71,-10.85 40.01,-11.06 40.35,-11.19 40.69,-11.31 41.06,-11.36 41.42,-11.40 41.78,-11.35 42.15,-11.31 42.49,-11.18 42.83,-11.04 43.13,-10.84 43.43,-10.63 43.67,-10.35 43.91,-10.08 44.08,-9.75 44.25,-9.43 44.33,-9.07 44.42,-8.72 44.42,-8.35 44.42,-7.98 44.33,-7.63 44.24,-7.28 44.07,-6.95 43.89,-6.63 43.65,-6.36 43.41,-6.08 42.47,-5.18 41.54,-4.28 40.67,-3.62 39.80,-2.95 38.29,-1.84 36.78,-0.72 35.07,0.67 33.36,2.07 32.61,2.85 31.86,3.62 30.79,4.49 29.71,5.37 28.50,6.20 27.30,7.04 25.99,7.88 24.68,8.73 23.45,9.42 22.21,10.10 20.83,11.22 19.46,12.34 18.23,13.28 17.01,14.22 15.83,15.40 14.65,16.58 13.13,18.43 11.61,20.29 11.41,20.58 11.21,20.87 10.94,21.10 10.68,21.33 10.37,21.50 10.06,21.66 9.72,21.75 9.38,21.83 9.02,21.83 8.67,21.83 8.33,21.75 7.99,21.67 7.68,21.50 7.37,21.34 7.10,21.11 6.84,20.87 6.64,20.58 6.44,20.30 6.31,19.97 6.19,19.64 6.14,19.29 6.10,18.94 6.14,18.59 6.19,18.24 6.31,17.91 6.43,17.58 6.95,16.94 7.47,16.30 8.57,15.20 9.68,14.10 10.58,13.06 11.48,12.02 12.60,10.87 13.73,9.73 14.72,8.76 15.72,7.80 16.71,7.16 17.69,6.52 18.13,4.88 18.57,3.25 18.88,3.08 19.19,2.92 19.53,2.83 19.87,2.74 20.22,2.74 20.57,2.73 20.92,2.81 21.26,2.89 21.57,3.05 21.89,3.21 22.15,3.44 22.42,3.67 22.62,3.96 22.82,4.25 22.95,4.58 23.08,4.90 23.13,5.25 23.17,5.60 23.14,5.95 23.10,6.30 22.98,6.63 22.86,6.96 22.66,7.26 22.46,7.55 22.20,7.78 21.94,8.02 22.08,7.41 22.23,6.80 21.88,7.91 21.53,9.01 20.70,9.68 19.87,10.35 18.54,11.24 17.22,12.13 15.88,13.03 14.53,13.92 13.02,14.86 11.51,15.79 9.73,16.89 7.95,17.99 6.31,18.34 4.68,18.69 4.42,18.94 4.17,19.19 3.86,19.37 3.55,19.55 3.20,19.65 2.86,19.75 2.50,19.76 2.15,19.78 1.80,19.70 1.44,19.63 1.12,19.48 0.80,19.33 0.52,19.10 0.24,18.88 0.03,18.59 -0.18,18.30 -0.32,17.97 -0.46,17.65 -0.51,17.29 -0.57,16.94 -0.54,16.58 -0.51,16.23 -0.40,15.89 -0.29,15.55 -0.10,15.25 0.08,14.94 0.88,13.88 1.68,12.81 3.02,11.72 4.37,10.63 5.14,9.88 5.90,9.12 6.79,8.48 7.68,7.84 9.73,6.36 11.79,4.88 13.26,4.00 14.74,3.11 16.42,2.01 18.10,0.92 19.50,0.06 20.90,-0.79 22.54,-1.69 24.17,-2.58 26.03,-3.58 27.88,-4.57 29.98,-5.67 32.07,-6.77 33.45,-7.45 34.83,-8.12 36.52,-9.01 38.22,-9.91 38.40,-10.21 38.58,-10.51 38.83,-10.76 39.07,-11.01 39.37,-11.19 39.67,-11.38 40.01,-11.48 40.34,-11.59 40.69,-11.61 41.04,-11.63 41.38,-11.57 41.73,-11.51 42.05,-11.37 42.37,-11.23 42.65,-11.01 42.93,-10.80 43.14,-10.52 43.36,-10.25 43.51,-9.93 43.65,-9.61 43.72,-9.26 43.78,-8.92 43.76,-8.57 43.74,-8.22 43.64,-7.88 43.54,-7.55 43.18,-7.30 42.83,-7.06 41.65,-5.95 40.48,-4.84 39.32,-3.60 38.16,-2.35 37.20,-1.32 36.24,-0.29 35.05,1.16 33.87,2.62 32.67,4.00 31.46,5.38 30.38,6.62 29.31,7.86 28.43,8.93 27.56,9.99 26.87,11.68 26.19,13.36 25.63,15.07 25.07,16.77 24.74,17.02 24.40,17.27 24.02,17.43 23.64,17.59 23.23,17.66 22.82,17.73 22.41,17.69 21.99,17.66 21.60,17.52 21.21,17.39 20.86,17.17 20.51,16.95 20.22,16.65 19.94,16.35 19.73,15.99 19.52,15.63 19.41,15.23 19.29,14.83 19.28,14.42 19.26,14.00 19.35,13.60 19.43,13.19 19.61,12.82 19.79,12.44 20.05,12.12 20.31,11.80 20.95,11.37 21.59,10.95 22.50,10.20 23.42,9.44 24.46,8.57 25.51,7.70 27.16,6.32 28.81,4.94 29.87,4.07 30.94,3.21 32.21,2.16 33.48,1.11 34.36,0.16 35.24,-0.78 36.18,-1.44 37.11,-2.09 38.67,-3.05 40.23,-4.00 40.90,-5.06 41.57,-6.12 42.80,-7.77 44.03,-9.42 45.15,-10.23 46.28,-11.05 49.39,-9.49 52.50,-7.93 52.46,-6.77 52.42,-5.60 52.22,-4.24 52.02,-2.87 51.05,-1.29 50.08,0.28 49.23,1.08 48.38,1.88 47.24,2.53 46.10,3.19 45.07,3.58 44.04,3.98 42.58,4.88 41.13,5.79 40.21,6.67 39.29,7.55 38.36,8.29 37.43,9.03 36.34,9.53 35.26,10.03 33.79,11.08 32.32,12.14 31.37,13.05 30.42,13.96 29.21,14.38 28.01,14.79 27.15,16.02 26.29,17.25 25.32,18.06 24.36,18.87 22.95,19.84 21.54,20.82 19.88,22.23 18.21,23.63 17.35,24.44 16.49,25.25 15.48,25.80 14.48,26.35 12.86,27.30 11.24,28.25 10.14,28.55 9.05,28.86 7.95,29.64 6.86,30.42 5.31,30.95 3.77,31.48 2.78,32.09 1.79,32.70 0.80,33.12 -0.18,33.54 -1.25,33.63 -2.32,33.71 -3.75,33.69 -5.17,33.66 -6.33,33.58 -7.49,33.51 -8.66,33.19 -9.83,32.87 -10.97,32.27 -12.11,31.67 -13.46,30.67 -14.80,29.67 -15.51,28.43 -16.22,27.18 -16.53,25.11 -16.84,23.04 -16.78,21.39 -16.71,19.74 -16.36,18.40 -16.00,17.06 -15.65,15.90 -15.30,14.75 -14.51,13.33 -13.72,11.92 -12.79,10.81 -11.85,9.71 -10.81,8.90 -9.77,8.09 -8.34,6.89 -6.91,5.69 -5.63,4.54 -4.35,3.39 -3.79,2.22 -3.22,1.06 -2.87,0.10 -2.52,-0.84 -2.39,-1.13 -2.25,-1.42 -2.04,-1.67 -1.84,-1.92 -1.58,-2.11 -1.33,-2.30 -1.03,-2.43 -0.74,-2.55 -0.42,-2.61 -0.10,-2.66 0.21,-2.63 0.53,-2.61 0.83,-2.50 1.14,-2.40 1.41,-2.23 1.68,-2.06 1.90,-1.83 2.12,-1.60 2.29,-1.32 2.45,-1.04 2.54,-0.73 2.62,-0.42 2.64,-0.10 2.65,0.21 2.59,0.52 2.52,0.84 2.52,0.84 L 2.52,0.84 Z"></path></g><g transform="translate(17.872121226589854 180.69794843250565) rotate(355.34204686110024 15.866679805391016 -11.69125049377908)" stroke="none"><path fill="#e8590c" d="M 0.37,-2.59 Q 0.37,-2.59 1.49,-2.46 2.61,-2.32 3.94,-2.31 5.27,-2.30 6.77,-2.87 8.26,-3.45 9.58,-4.54 10.89,-5.64 11.72,-6.74 12.54,-7.84 13.47,-8.81 14.39,-9.78 15.72,-11.11 17.04,-12.43 18.01,-13.70 18.98,-14.96 19.82,-15.63 20.67,-16.30 21.83,-17.46 22.99,-18.62 23.86,-19.76 24.74,-20.90 25.63,-21.82 26.51,-22.74 27.62,-24.37 28.73,-26.01 29.16,-26.41 29.59,-26.81 30.13,-27.05 30.67,-27.29 31.25,-27.35 31.84,-27.41 32.42,-27.28 32.99,-27.14 33.49,-26.83 33.99,-26.52 34.37,-26.07 34.75,-25.62 34.96,-25.07 35.17,-24.52 35.19,-23.93 35.22,-23.34 35.06,-22.77 34.89,-22.21 34.56,-21.72 34.22,-21.24 33.75,-20.89 33.27,-20.54 32.71,-20.36 32.15,-20.17 31.56,-20.18 30.97,-20.19 30.42,-20.38 29.86,-20.58 29.40,-20.94 28.93,-21.30 28.61,-21.79 28.28,-22.28 28.13,-22.85 27.98,-23.42 28.02,-24.01 28.06,-24.60 28.28,-25.14 28.50,-25.69 28.89,-26.13 29.28,-26.58 29.79,-26.87 30.29,-27.17 30.87,-27.29 31.45,-27.41 32.03,-27.34 32.62,-27.27 33.15,-27.02 33.68,-26.77 34.10,-26.36 34.53,-25.95 34.80,-25.42 35.07,-24.90 35.16,-24.32 35.25,-23.73 35.14,-23.15 35.04,-22.57 34.76,-22.06 34.48,-21.54 34.48,-21.54 34.48,-21.54 33.07,-19.58 31.66,-17.62 30.83,-16.79 30.00,-15.96 29.14,-15.16 28.28,-14.37 27.28,-13.09 26.28,-11.82 25.00,-10.75 23.72,-9.69 22.87,-8.64 22.01,-7.60 20.95,-6.58 19.88,-5.56 18.96,-4.67 18.04,-3.77 17.06,-2.82 16.09,-1.86 15.31,-1.05 14.53,-0.23 13.60,0.46 12.67,1.16 11.53,1.72 10.38,2.27 9.14,2.59 7.90,2.90 6.46,3.11 5.02,3.32 3.44,3.14 1.86,2.96 0.74,2.78 -0.37,2.59 -0.67,2.51 -0.98,2.43 -1.25,2.28 -1.53,2.12 -1.76,1.91 -2.00,1.69 -2.17,1.43 -2.35,1.17 -2.45,0.87 -2.56,0.57 -2.59,0.25 -2.62,-0.05 -2.58,-0.36 -2.53,-0.68 -2.41,-0.97 -2.29,-1.26 -2.11,-1.52 -1.92,-1.78 -1.68,-1.98 -1.44,-2.19 -1.16,-2.33 -0.87,-2.47 -0.57,-2.54 -0.26,-2.61 0.05,-2.60 0.37,-2.59 0.37,-2.59 L 0.37,-2.59 Z"></path></g><g transform="translate(48.22489271662761 82.27482117330874) rotate(355.34204686110024 33.96027902952602 -35.073713254022095)" stroke="none"><path fill="#e8590c" d="M 0,-2.61 Q 0,-2.61 1.44,-2.59 2.88,-2.58 4.84,-2.64 6.81,-2.71 8.06,-2.78 9.30,-2.85 10.44,-2.92 11.57,-3.00 12.74,-3.28 13.91,-3.55 15.23,-3.68 16.56,-3.80 17.81,-3.85 19.06,-3.90 20.18,-3.94 21.30,-3.98 22.68,-4.00 24.06,-4.02 25.32,-4.04 26.58,-4.06 27.80,-4.08 29.03,-4.10 30.17,-4.12 31.31,-4.14 32.43,-4.16 33.54,-4.18 34.70,-3.89 35.85,-3.60 35.37,-3.74 34.89,-3.89 35.33,-3.83 35.77,-3.78 36.18,-3.62 36.59,-3.47 36.95,-3.22 37.32,-2.97 37.61,-2.64 37.90,-2.31 38.11,-1.92 38.31,-1.53 38.42,-1.10 38.52,-0.67 38.52,-0.23 38.52,0.20 38.42,0.63 38.31,1.05 38.11,1.44 37.90,1.83 37.61,2.16 37.32,2.49 36.95,2.74 36.59,2.99 36.18,3.15 35.77,3.31 35.33,3.36 34.89,3.41 33.44,3.53 31.98,3.65 30.57,3.65 29.17,3.66 28.07,3.65 26.98,3.65 25.55,3.86 24.12,4.06 22.47,4.61 20.81,5.16 19.48,5.23 18.16,5.31 16.84,5.32 15.52,5.34 14.37,5.35 13.21,5.36 12.10,5.37 10.98,5.38 9.64,5.39 8.30,5.40 7.14,5.40 5.98,5.41 4.88,5.41 3.79,5.42 2.68,5.42 1.57,5.42 0.09,5.03 -1.38,4.63 -2.59,4.76 -3.80,4.88 -5.83,4.65 -7.86,4.42 -9.51,4.01 -11.17,3.60 -12.48,3.41 -13.80,3.23 -15.03,3.18 -16.26,3.13 -17.73,2.74 -19.19,2.34 -20.34,1.36 -21.49,0.37 -22.24,-0.59 -22.98,-1.56 -23.83,-2.40 -24.67,-3.24 -25.22,-4.63 -25.77,-6.03 -26.06,-7.08 -26.34,-8.14 -26.42,-9.38 -26.50,-10.62 -26.11,-12.71 -25.72,-14.80 -24.99,-15.69 -24.27,-16.58 -23.37,-17.49 -22.47,-18.40 -21.36,-19.02 -20.26,-19.65 -18.89,-20.41 -17.52,-21.18 -15.70,-21.75 -13.87,-22.31 -11.54,-22.80 -9.21,-23.29 -8.07,-23.39 -6.94,-23.50 -5.50,-23.51 -4.05,-23.52 -2.73,-23.46 -1.40,-23.40 -0.19,-23.36 1.00,-23.32 2.15,-23.29 3.30,-23.26 5.10,-23.26 6.89,-23.26 8.11,-23.23 9.33,-23.19 10.49,-23.17 11.64,-23.15 12.78,-23.14 13.91,-23.12 14.98,-23.16 16.06,-23.20 18.12,-23.22 20.19,-23.25 21.27,-23.23 22.34,-23.22 24.00,-23.23 25.66,-23.24 27.26,-23.25 28.86,-23.26 30.10,-23.08 31.34,-22.89 32.97,-22.80 34.61,-22.72 35.80,-22.73 37.00,-22.74 38.22,-22.76 39.43,-22.77 40.54,-22.79 41.65,-22.81 43.02,-22.82 44.38,-22.83 45.54,-22.79 46.71,-22.76 48.00,-22.71 49.30,-22.67 50.86,-22.68 52.42,-22.70 53.61,-22.73 54.81,-22.75 55.94,-22.78 57.07,-22.80 58.38,-22.85 59.70,-22.89 61.14,-22.92 62.58,-22.95 64.04,-22.94 65.49,-22.93 66.97,-22.93 68.44,-22.92 70.26,-23.15 72.08,-23.37 73.53,-23.45 74.97,-23.52 76.60,-23.51 78.23,-23.49 79.57,-23.50 80.91,-23.50 82.06,-23.51 83.22,-23.52 84.71,-23.53 86.20,-23.54 87.37,-23.56 88.54,-23.58 88.03,-22.44 87.52,-21.29 87.36,-20.21 87.20,-19.12 85.78,-20.24 84.36,-21.37 82.57,-21.92 80.77,-22.47 79.24,-22.88 77.71,-23.29 76.76,-23.82 75.81,-24.35 74.54,-25.06 73.26,-25.77 72.23,-26.55 71.20,-27.34 69.60,-28.19 68.00,-29.03 66.76,-29.68 65.52,-30.33 64.09,-31.43 62.65,-32.53 60.89,-33.67 59.13,-34.82 58.02,-35.76 56.91,-36.70 55.66,-37.33 54.42,-37.96 53.36,-38.62 52.30,-39.29 51.06,-40.05 49.82,-40.81 49.01,-41.60 48.19,-42.38 46.80,-43.72 45.40,-45.06 44.35,-45.69 43.30,-46.33 42.62,-47.15 41.94,-47.97 41.09,-48.85 40.25,-49.74 39.33,-50.64 38.42,-51.54 37.66,-52.65 36.89,-53.76 36.19,-54.65 35.50,-55.54 34.78,-56.62 34.06,-57.70 33.22,-58.70 32.38,-59.69 31.34,-60.54 30.30,-61.39 28.72,-62.67 27.14,-63.94 26.51,-65.47 25.88,-67.00 25.83,-68.30 25.78,-69.60 28.61,-72.57 31.43,-75.54 32.03,-75.46 32.63,-75.38 33.17,-75.12 33.71,-74.85 34.14,-74.43 34.57,-74.01 34.85,-73.47 35.12,-72.93 35.20,-72.33 35.29,-71.73 35.18,-71.14 35.07,-70.54 34.78,-70.02 34.48,-69.49 34.04,-69.08 33.59,-68.68 33.04,-68.43 32.49,-68.19 31.88,-68.14 31.28,-68.08 30.70,-68.23 30.11,-68.37 29.60,-68.69 29.09,-69.01 28.71,-69.48 28.32,-69.95 28.11,-70.51 27.90,-71.08 27.88,-71.68 27.86,-72.28 28.03,-72.86 28.20,-73.44 28.55,-73.93 28.90,-74.43 29.39,-74.78 29.88,-75.14 30.45,-75.32 31.03,-75.50 31.63,-75.49 32.24,-75.48 32.80,-75.27 33.37,-75.07 33.85,-74.69 34.32,-74.32 34.65,-73.81 34.98,-73.31 35.13,-72.72 35.28,-72.14 35.23,-71.53 35.19,-70.93 34.95,-70.38 34.72,-69.82 34.32,-69.37 33.92,-68.91 33.39,-68.61 32.87,-68.31 32.28,-68.19 31.69,-68.08 31.69,-68.08 31.69,-68.08 32.09,-68.48 32.49,-68.89 33.63,-68.10 34.77,-67.30 35.84,-66.29 36.90,-65.29 38.11,-64.01 39.32,-62.73 40.17,-61.59 41.02,-60.45 41.78,-59.48 42.54,-58.52 43.16,-57.55 43.78,-56.58 44.72,-55.42 45.67,-54.26 46.61,-53.20 47.55,-52.15 48.61,-51.47 49.66,-50.80 50.73,-49.76 51.79,-48.72 53.19,-47.44 54.59,-46.15 55.95,-45.48 57.31,-44.80 58.14,-44.12 58.96,-43.43 60.87,-42.50 62.78,-41.57 63.46,-40.58 64.13,-39.59 65.21,-38.92 66.29,-38.24 67.52,-37.45 68.75,-36.67 70.06,-36.01 71.37,-35.35 72.52,-34.71 73.66,-34.07 74.68,-33.57 75.69,-33.06 76.61,-32.40 77.54,-31.73 78.48,-30.87 79.42,-30.01 80.63,-29.88 81.84,-29.76 82.88,-29.37 83.93,-28.98 85.64,-28.23 87.35,-27.47 88.48,-26.87 89.62,-26.26 90.81,-25.35 92.01,-24.45 92.81,-23.37 93.62,-22.30 93.56,-20.86 93.51,-19.42 92.25,-18.12 91.00,-16.81 89.41,-16.66 87.82,-16.51 86.57,-16.52 85.33,-16.54 83.70,-16.56 82.08,-16.57 80.87,-16.57 79.66,-16.58 78.02,-16.56 76.38,-16.54 75.28,-16.54 74.18,-16.54 73.00,-16.50 71.82,-16.46 70.13,-16.25 68.44,-16.04 66.97,-16.03 65.49,-16.03 64.04,-16.02 62.58,-16.01 61.14,-16.04 59.70,-16.07 58.38,-16.12 57.07,-16.16 55.94,-16.18 54.81,-16.21 53.61,-16.23 52.42,-16.26 50.86,-16.28 49.30,-16.29 48.00,-16.25 46.71,-16.20 45.54,-16.17 44.38,-16.14 43.01,-16.14 41.65,-16.15 40.54,-16.17 39.43,-16.19 37.57,-16.23 35.72,-16.27 34.23,-16.34 32.74,-16.40 30.80,-16.61 28.85,-16.81 27.25,-16.82 25.66,-16.84 24.00,-16.85 22.34,-16.86 21.27,-16.84 20.19,-16.83 18.12,-16.85 16.06,-16.87 14.98,-16.91 13.91,-16.95 12.78,-16.93 11.64,-16.92 10.49,-16.90 9.33,-16.88 8.11,-16.85 6.89,-16.82 5.10,-16.81 3.30,-16.81 2.15,-16.78 1.00,-16.75 -0.19,-16.71 -1.39,-16.67 -3.53,-16.59 -5.67,-16.51 -6.98,-16.45 -8.30,-16.39 -9.86,-15.97 -11.42,-15.55 -13.03,-14.96 -14.64,-14.36 -15.98,-13.71 -17.31,-13.06 -18.22,-12.18 -19.12,-11.30 -19.13,-10.18 -19.14,-9.06 -18.24,-7.67 -17.34,-6.28 -16.36,-5.25 -15.38,-4.21 -14.18,-4.15 -12.98,-4.10 -11.65,-3.84 -10.32,-3.59 -8.96,-3.32 -7.61,-3.06 -6.36,-2.86 -5.11,-2.66 -4.01,-2.66 -2.91,-2.66 -1.61,-2.62 -0.31,-2.58 0.93,-2.33 2.18,-2.07 3.29,-2.07 4.40,-2.07 5.47,-2.07 6.54,-2.07 7.77,-2.06 8.99,-2.05 10.27,-2.05 11.54,-2.04 12.66,-2.03 13.77,-2.02 14.96,-2.01 16.14,-1.99 17.52,-2.02 18.89,-2.04 20.06,-2.25 21.23,-2.46 22.33,-2.80 23.42,-3.14 25.20,-3.40 26.98,-3.65 28.07,-3.65 29.16,-3.66 30.53,-3.66 31.91,-3.66 33.40,-3.77 34.89,-3.89 35.33,-3.83 35.77,-3.78 36.18,-3.62 36.59,-3.47 36.95,-3.22 37.32,-2.97 37.61,-2.64 37.90,-2.31 38.11,-1.92 38.31,-1.53 38.42,-1.10 38.52,-0.67 38.52,-0.23 38.52,0.20 38.42,0.63 38.31,1.05 38.11,1.44 37.90,1.83 37.61,2.16 37.32,2.49 36.95,2.74 36.59,2.99 36.18,3.15 35.77,3.31 35.33,3.36 34.89,3.41 34.22,3.24 33.54,3.07 32.43,3.05 31.31,3.03 30.17,3.01 29.03,2.98 27.80,2.96 26.58,2.95 25.32,2.93 24.06,2.90 22.96,2.90 21.85,2.89 20.74,2.85 19.62,2.81 18.47,2.77 17.32,2.72 16.08,2.67 14.84,2.62 13.21,2.81 11.57,3.00 10.44,2.92 9.30,2.85 8.06,2.78 6.81,2.71 4.84,2.64 2.88,2.58 1.44,2.59 0,2.61 -0.31,2.57 -0.62,2.53 -0.91,2.42 -1.21,2.31 -1.47,2.13 -1.73,1.95 -1.94,1.71 -2.15,1.48 -2.29,1.20 -2.44,0.92 -2.51,0.62 -2.59,0.31 -2.59,-0.00 -2.59,-0.31 -2.51,-0.62 -2.44,-0.92 -2.29,-1.20 -2.15,-1.48 -1.94,-1.71 -1.73,-1.95 -1.47,-2.13 -1.21,-2.31 -0.91,-2.42 -0.62,-2.53 -0.31,-2.57 0.00,-2.61 0.00,-2.61 L 0,-2.61 Z"></path></g><g transform="translate(152.2851635680127 42.5279717296562) rotate(355.34204686110024 30.619899901410008 54.837476557339414)" stroke="none"><path fill="#e8590c" d="M 0,-2.66 Q 0,-2.66 0.96,-2.69 1.92,-2.72 3.22,-2.79 4.52,-2.86 6.26,-2.35 8.01,-1.84 9.03,-1.38 10.05,-0.91 11.66,0.24 13.27,1.41 14.63,2.46 15.99,3.52 17.37,4.36 18.74,5.20 19.69,6.04 20.63,6.89 22.12,8.27 23.61,9.65 24.65,10.50 25.68,11.35 26.69,12.28 27.71,13.20 28.96,14.40 30.22,15.59 31.14,16.27 32.06,16.96 33.33,18.16 34.61,19.37 35.92,20.30 37.24,21.23 37.99,22.07 38.73,22.91 39.87,23.84 41.01,24.77 41.75,25.73 42.49,26.69 43.44,27.67 44.39,28.65 45.43,29.96 46.46,31.27 47.40,32.24 48.34,33.21 49.58,34.67 50.83,36.12 51.49,37.29 52.16,38.46 53.01,39.47 53.86,40.49 54.78,41.84 55.71,43.19 56.38,44.15 57.05,45.11 57.74,46.49 58.42,47.87 59.14,49.36 59.86,50.84 60.36,51.82 60.86,52.79 61.34,54.29 61.83,55.78 62.18,57.13 62.54,58.47 62.75,59.63 62.97,60.78 63.53,62.06 64.09,63.35 64.41,64.82 64.73,66.29 64.79,67.68 64.84,69.07 64.85,70.21 64.87,71.35 64.88,72.44 64.89,73.52 64.63,75.40 64.38,77.28 64.04,78.41 63.69,79.54 63.07,80.89 62.45,82.23 60.75,83.69 59.06,85.15 58.34,85.98 57.62,86.81 56.80,87.61 55.97,88.41 55.00,89.94 54.02,91.48 52.62,93.17 51.23,94.86 50.68,95.92 50.14,96.97 49.33,98.31 48.53,99.66 47.83,100.72 47.13,101.79 46.50,103.04 45.87,104.29 45.25,105.56 44.62,106.82 43.88,107.61 43.14,108.40 42.51,109.36 41.88,110.31 40.12,111.65 38.35,112.99 37.77,113.13 37.19,113.27 36.59,113.22 36.00,113.17 35.45,112.93 34.91,112.69 34.47,112.29 34.02,111.89 33.73,111.37 33.44,110.84 33.33,110.26 33.23,109.67 33.31,109.08 33.40,108.49 33.66,107.96 33.93,107.42 34.36,107.01 34.78,106.59 35.32,106.32 35.85,106.06 36.45,105.99 37.04,105.91 37.62,106.03 38.21,106.14 38.73,106.44 39.24,106.74 39.64,107.18 40.03,107.63 40.27,108.18 40.50,108.73 40.54,109.33 40.59,109.92 40.44,110.50 40.29,111.08 39.97,111.58 39.64,112.08 39.17,112.45 38.71,112.82 38.15,113.02 37.58,113.22 36.99,113.23 36.39,113.25 35.82,113.07 35.25,112.89 34.77,112.54 34.29,112.19 33.94,111.70 33.60,111.21 33.43,110.64 33.26,110.07 33.28,109.47 33.30,108.88 33.51,108.32 33.72,107.76 34.09,107.30 34.47,106.83 34.97,106.52 35.48,106.20 35.48,106.20 35.48,106.20 36.03,105.90 36.58,105.59 37.11,104.55 37.64,103.51 38.53,102.15 39.42,100.79 40.29,98.91 41.16,97.03 41.98,95.81 42.81,94.58 43.62,93.24 44.44,91.91 45.26,90.84 46.08,89.78 46.95,88.54 47.82,87.30 48.74,86.12 49.67,84.94 51.02,83.63 52.37,82.32 52.92,81.11 53.47,79.91 54.65,79.63 55.83,79.36 56.50,77.99 57.17,76.63 57.38,75.08 57.58,73.52 57.60,72.13 57.61,70.74 57.62,69.64 57.62,68.54 57.61,67.44 57.60,66.35 57.01,65.00 56.42,63.64 56.15,62.44 55.89,61.23 55.33,59.59 54.78,57.95 54.47,56.77 54.16,55.59 53.67,54.55 53.18,53.51 52.21,51.55 51.24,49.58 50.28,48.19 49.33,46.80 48.62,45.65 47.91,44.51 47.12,42.98 46.33,41.46 45.50,40.60 44.66,39.74 43.62,38.68 42.58,37.63 41.83,36.82 41.07,36.02 39.78,34.53 38.49,33.05 37.66,32.17 36.84,31.30 36.15,30.41 35.47,29.52 34.61,28.44 33.76,27.35 32.38,26.76 31.01,26.17 30.05,24.97 29.09,23.76 27.65,22.58 26.21,21.40 25.29,20.69 24.37,19.98 23.03,18.63 21.69,17.28 20.75,16.54 19.80,15.80 18.94,14.64 18.08,13.48 16.58,12.28 15.08,11.08 14.10,10.37 13.12,9.66 12.12,8.49 11.13,7.33 10.08,6.76 9.03,6.20 8.16,5.38 7.29,4.57 5.88,3.71 4.47,2.86 3.19,2.79 1.92,2.72 0.96,2.69 0,2.66 -0.31,2.62 -0.63,2.58 -0.93,2.47 -1.23,2.35 -1.50,2.17 -1.76,1.99 -1.97,1.75 -2.19,1.51 -2.34,1.22 -2.49,0.94 -2.56,0.63 -2.64,0.32 -2.64,-0.00 -2.64,-0.32 -2.56,-0.63 -2.49,-0.94 -2.34,-1.22 -2.19,-1.51 -1.97,-1.75 -1.76,-1.99 -1.50,-2.17 -1.23,-2.35 -0.93,-2.47 -0.63,-2.58 -0.31,-2.62 0.00,-2.66 0.00,-2.66 L 0,-2.66 Z"></path></g><g transform="translate(34.911558860850676 138.14267245432256) rotate(355.34204686110024 -12.80469746071276 8.072512809538694)" stroke="none"><path fill="#ffffff" d="M 0.50,2.53 Q 0.50,2.53 -0.28,2.73 -1.07,2.93 -1.82,3.71 -2.56,4.49 -3.63,5.14 -4.70,5.79 -5.52,6.88 -6.33,7.98 -7.36,8.50 -8.39,9.01 -9.97,9.86 -11.56,10.71 -12.90,11.40 -14.24,12.10 -15.09,13.10 -15.95,14.10 -16.95,14.63 -17.95,15.16 -19.07,16.28 -20.18,17.41 -22.53,18.51 -24.87,19.62 -25.45,19.61 -26.02,19.61 -26.56,19.42 -27.11,19.24 -27.56,18.89 -28.02,18.54 -28.34,18.06 -28.66,17.58 -28.81,17.03 -28.96,16.47 -28.92,15.90 -28.89,15.33 -28.67,14.79 -28.45,14.26 -28.08,13.83 -27.71,13.39 -27.21,13.10 -26.72,12.81 -26.16,12.69 -25.59,12.57 -25.02,12.63 -24.45,12.70 -23.93,12.94 -23.41,13.19 -23.00,13.58 -22.59,13.98 -22.32,14.49 -22.05,15.00 -21.97,15.57 -21.88,16.13 -21.97,16.70 -22.07,17.27 -22.34,17.77 -22.61,18.28 -23.03,18.67 -23.45,19.06 -23.98,19.30 -24.50,19.54 -25.07,19.60 -25.64,19.65 -26.20,19.53 -26.76,19.40 -27.25,19.10 -27.74,18.80 -28.11,18.36 -28.48,17.92 -28.69,17.39 -28.90,16.85 -28.92,16.28 -28.95,15.70 -28.79,15.15 -28.64,14.60 -28.31,14.13 -27.99,13.65 -27.53,13.31 -27.07,12.97 -26.52,12.79 -25.98,12.61 -25.98,12.61 -25.98,12.61 -25.53,12.45 -25.08,12.30 -24.00,11.27 -22.92,10.24 -21.78,9.65 -20.64,9.06 -19.86,8.32 -19.08,7.58 -18.20,6.89 -17.33,6.20 -16.26,5.86 -15.20,5.53 -13.76,4.79 -12.32,4.05 -11.11,3.29 -9.89,2.54 -8.31,1.42 -6.72,0.29 -5.76,-0.50 -4.79,-1.30 -3.46,-1.80 -2.12,-2.29 -1.31,-2.41 -0.50,-2.53 -0.19,-2.55 0.11,-2.58 0.42,-2.53 0.72,-2.47 1.01,-2.35 1.30,-2.23 1.54,-2.04 1.79,-1.85 1.99,-1.61 2.19,-1.37 2.32,-1.09 2.45,-0.80 2.51,-0.50 2.57,-0.19 2.56,0.11 2.54,0.42 2.46,0.72 2.37,1.02 2.21,1.29 2.06,1.56 1.84,1.78 1.62,2.00 1.36,2.17 1.09,2.33 0.80,2.43 0.50,2.53 0.50,2.53 L 0.50,2.53 Z"></path></g><g transform="translate(21.05959136306336 69.03667896235856) rotate(355.34204686110024 32.84681932015394 -5.567260319546222)" stroke="none"><path fill="#ffffff" d="M -2.27,-1.36 Q -2.27,-1.36 -1.82,-2.18 -1.36,-2.99 -0.75,-4.30 -0.13,-5.61 0.73,-6.57 1.61,-7.54 2.79,-8.80 3.97,-10.07 5.00,-10.63 6.02,-11.19 7.52,-11.64 9.01,-12.09 10.22,-12.41 11.43,-12.74 13.16,-13.01 14.88,-13.28 16.09,-13.37 17.30,-13.46 18.73,-13.48 20.16,-13.50 21.27,-13.50 22.39,-13.51 23.49,-13.53 24.59,-13.55 25.96,-13.56 27.33,-13.58 28.44,-13.59 29.54,-13.61 31.07,-13.61 32.60,-13.62 34.03,-13.62 35.46,-13.63 36.67,-13.64 37.87,-13.65 39.05,-13.66 40.22,-13.68 41.56,-13.69 42.91,-13.70 44.07,-13.71 45.23,-13.72 46.50,-13.94 47.77,-14.15 48.96,-14.23 50.16,-14.30 51.70,-14.58 53.24,-14.86 54.52,-14.88 55.80,-14.89 57.10,-14.88 58.39,-14.88 59.77,-14.88 61.14,-14.88 63.32,-14.89 65.51,-14.89 66.11,-14.79 66.71,-14.69 67.25,-14.41 67.79,-14.12 68.20,-13.68 68.62,-13.24 68.88,-12.69 69.13,-12.14 69.20,-11.53 69.27,-10.93 69.13,-10.33 69.00,-9.74 68.69,-9.22 68.38,-8.69 67.91,-8.30 67.45,-7.91 66.88,-7.68 66.32,-7.46 65.71,-7.42 65.10,-7.39 64.52,-7.55 63.93,-7.72 63.43,-8.06 62.92,-8.40 62.56,-8.88 62.19,-9.37 61.99,-9.95 61.80,-10.52 61.80,-11.13 61.80,-11.74 61.99,-12.32 62.19,-12.89 62.56,-13.38 62.92,-13.86 63.43,-14.20 63.93,-14.54 64.52,-14.71 65.10,-14.87 65.71,-14.84 66.32,-14.80 66.88,-14.58 67.45,-14.35 67.91,-13.96 68.38,-13.56 68.69,-13.04 69.00,-12.52 69.13,-11.93 69.27,-11.33 69.20,-10.73 69.13,-10.12 68.88,-9.57 68.62,-9.02 68.20,-8.58 67.78,-8.14 67.25,-7.85 66.71,-7.57 66.11,-7.47 65.51,-7.37 65.51,-7.37 65.51,-7.37 63.32,-7.37 61.14,-7.37 59.77,-7.38 58.40,-7.38 57.10,-7.37 55.81,-7.37 54.50,-7.50 53.18,-7.63 51.21,-7.35 49.23,-7.07 47.23,-6.69 45.23,-6.31 44.07,-6.32 42.91,-6.33 41.56,-6.34 40.22,-6.35 39.05,-6.37 37.87,-6.38 36.67,-6.39 35.46,-6.40 34.03,-6.41 32.60,-6.42 31.07,-6.42 29.54,-6.43 28.44,-6.44 27.33,-6.46 25.96,-6.47 24.59,-6.48 23.49,-6.50 22.39,-6.52 21.28,-6.53 20.16,-6.53 18.80,-6.55 17.43,-6.56 16.26,-6.54 15.09,-6.52 13.27,-6.30 11.46,-6.08 9.95,-5.62 8.44,-5.16 7.46,-4.55 6.49,-3.93 5.56,-3.09 4.63,-2.25 3.96,-1.22 3.29,-0.20 2.78,0.58 2.27,1.36 2.07,1.61 1.88,1.86 1.62,2.06 1.37,2.26 1.08,2.39 0.79,2.52 0.48,2.58 0.16,2.64 -0.15,2.62 -0.46,2.60 -0.77,2.51 -1.07,2.42 -1.35,2.25 -1.62,2.09 -1.85,1.86 -2.08,1.64 -2.24,1.36 -2.41,1.09 -2.50,0.79 -2.60,0.48 -2.62,0.16 -2.64,-0.15 -2.58,-0.46 -2.53,-0.78 -2.40,-1.07 -2.27,-1.36 -2.27,-1.36 L -2.27,-1.36 Z"></path></g></svg>