<?xml version="1.0" standalone="no"?>
<!DOCTYPE svg PUBLIC "-//W3C//DTD SVG 1.1//EN" "http://www.w3.org/Graphics/SVG/1.1/DTD/svg11.dtd">
<svg version="1.1" xmlns="http://www.w3.org/2000/svg" viewBox="0 0 151.52902450904776 170.08271863454593" width="151.52902450904776" height="170.08271863454593"><!-- svg-source:excalidraw --><metadata></metadata><defs><style class="style-fonts">
      </style></defs><g stroke-linecap="round"><g transform="translate(13.75281535461545 11.328755940984593) rotate(0 63.67464289780969 73.08112423498596)" fill-rule="evenodd"><path d="M1.58 -3.25 L126.1 0.22 L114.84 130.53 L66.52 150.11 L7.1 127.13 L2.43 -1.28" stroke="none" stroke-width="0" fill="#007cc3" fill-rule="evenodd"></path><path d="M-3.28 -0.17 C40.98 -1.93, 79.77 -0.99, 123.73 1.42 M-1.7 -0.87 C40.65 2.06, 80.1 0.2, 127.78 -0.71 M124.39 -1.33 C126.19 27.87, 122.3 61.45, 116.76 128.54 M125.99 1 C126.06 34.78, 123.32 69.16, 119.18 130.68 M115.27 133.07 C104.55 137.07, 91.29 138.01, 62.13 143.81 M119.74 129.08 C99.99 134.05, 76.43 142.58, 66.12 147.8 M64.11 147.69 C45.62 141.53, 31.28 140.27, 5.98 130.38 M63.2 148.75 C50.95 141.91, 34.03 139.49, 9.18 132.18 M8.34 134.9 C7.09 84.52, 4.78 34.57, -3.75 -0.15 M8.06 130.17 C10.4 91.52, 4.35 51.21, 1.85 0.12 M0 0 C0 0, 0 0, 0 0 M0 0 C0 0, 0 0, 0 0" stroke="#007cc3" stroke-width="1" fill="none"></path></g></g><mask></mask><g stroke-linecap="round"><g transform="translate(75.61851953373616 22.18238825311164) rotate(0 27.67676239592288 59.51408384482738)" fill-rule="evenodd"><path d="M0.4 0.18 L6.15 120.2 L51.7 111.35 L53.68 -0.12 L-0.67 0.56" stroke="none" stroke-width="0" fill="#008dd2" fill-rule="evenodd"></path><path d="M2.69 0.53 C2.64 48.32, -2.78 95.42, 4.44 122.04 M-0.17 1.83 C-2.56 34.1, 0.43 67.78, 2.1 118.29 M6.95 119.49 C16.93 120.68, 25.77 112.43, 47.46 109.52 M3.47 121.13 C12.95 117.4, 24.12 114.78, 48.5 107.6 M50.57 110.6 C55.4 81.89, 51 54.79, 58.42 1.75 M50.81 105.62 C47.17 79.35, 52.02 51.52, 55.53 -0.7 M53.61 -1.82 C38.18 2.41, 15.81 -0.75, -1.54 -0.07 M56.28 -1.74 C37.92 1.35, 23.49 1.79, 1.35 -1.26 M0 0 C0 0, 0 0, 0 0 M0 0 C0 0, 0 0, 0 0" stroke="#008dd2" stroke-width="1" fill="none"></path></g></g><mask></mask><g stroke-linecap="round"><g transform="translate(43.98255065242529 36.03009952441971) rotate(0 31.88839747684733 46.51262474394298)" fill-rule="evenodd"><path d="M2.62 -1.79 L73.4 3.09 L69.23 14.54 L40.12 32.48 L73.29 30.69 L67.01 80.77 L37.34 96.9 L4.06 82.78 L-3.3 55.66 L8.97 59.78 L12.16 71.89 L37.85 83.6 L50.55 68.81 L53.1 49.46 L-4 49.51 L-4.95 31.17 L35.75 13.14 L0.8 20.41 L-8.72 -1.69" stroke="none" stroke-width="0" fill="#fff" fill-rule="evenodd"></path><path d="M-3.62 2.15 C22.63 1.34, 42.89 -3.99, 67.87 -0.33 M0.43 0.02 C25.75 -1.97, 53.65 -1.62, 69.31 1.67 M68.73 -1 C68.69 5.79, 67.07 6.46, 72.18 14.7 M70.53 0.59 C69.3 5.35, 68.47 9.47, 70.8 15.57 M67.34 11.84 C60.57 23.62, 43.6 30.36, 35.29 34.65 M71.33 15.84 C62.74 18.69, 56.27 21.46, 37.29 29.85 M33.47 30.12 C44.57 29.92, 54.75 27.34, 73.34 31.69 M36.66 31.93 C47 28.87, 54.71 29.36, 71.58 29.59 M65.86 29.69 C68.95 43.46, 65.73 61.11, 65.06 82.88 M71.46 29.96 C67.15 47.66, 67.12 62.52, 67.93 79.59 M67.63 78.88 C56.13 84.36, 47.67 90.19, 37.62 95.75 M67.7 80.15 C60.03 80.56, 51.37 85.85, 34.54 93.35 M32.25 95.45 C22.79 85.38, 9.79 82.66, 0.92 83.74 M37.2 92.12 C26.4 89.66, 11.69 84.82, 3.49 79.54 M4.9 82.07 C4.21 74.09, -2.74 67.7, -2.85 62.68 M1.14 81.2 C-0.09 73.24, -0.11 63.31, -1.49 59.33 M-2.73 61.18 C3.7 58.77, 3.13 59.28, 10.87 59.96 M-1.64 58.14 C2.15 58.46, 5.71 58.58, 12.3 59.02 M11.3 60.44 C10.07 63.15, 16.28 67.96, 16.66 75.81 M12.51 59.5 C11.2 64.14, 13.99 68.73, 16.98 73.64 M12.55 73.28 C21.91 77.58, 24.46 81.21, 36.93 77.48 M14.2 71.9 C20 74.67, 25.02 77.37, 37.16 78.96 M35.85 77.13 C41.74 80.22, 48.49 72.91, 52.72 69.11 M38.27 79.34 C41.33 79.32, 47.55 76.66, 51.5 73.88 M51.54 72.63 C54.75 65.41, 51.51 64.92, 52.93 50.68 M53.24 71.65 C53.56 65.44, 52.39 56.33, 53.79 49.14 M49.75 52.22 C32.26 45.91, 14.64 48.25, 1.42 49.21 M50.54 49.17 C39.85 48.86, 29.17 49.69, -0.16 45.57 M-0.28 45.1 C0.08 44.51, -1.88 36.1, -4.66 33.54 M-2.35 48.55 C-2.8 42.3, -3.45 35.68, -3.57 34.7 M-4.93 37.72 C3.49 31.58, 16.66 30.24, 39.82 20.67 M-2.88 33.88 C7.14 29.35, 12.51 26.08, 37.52 14.85 M34.2 19.92 C29.48 18, 10.25 16.69, 1.63 17.4 M36.02 18.06 C25.79 18.95, 16.86 17.2, -3.62 17.92 M-4.8 15.63 C-4.3 14.24, -4.72 4.95, -4.96 -0.6 M-2.07 17.82 C-3.79 9.96, -6.16 7.17, -4.75 -0.64 M-5.79 -0.44 C-4.35 -0.43, -0.88 -1.16, -0.22 1.09 M-5.53 -0.32 C-3.72 0.37, -1.64 0.1, 0.07 -0.47" stroke="#0000" stroke-width="1" fill="none"></path></g></g><mask></mask></svg>