<?xml version="1.0" standalone="no"?>
<!DOCTYPE svg PUBLIC "-//W3C//DTD SVG 1.1//EN" "http://www.w3.org/Graphics/SVG/1.1/DTD/svg11.dtd">
<svg version="1.1" xmlns="http://www.w3.org/2000/svg" viewBox="0 0 239.26284174366901 237.2078993007326" width="239.26284174366901" height="237.2078993007326"><!-- svg-source:excalidraw --><metadata></metadata><defs><style class="style-fonts">
      </style></defs><g stroke-linecap="round" transform="translate(10 10) rotate(0 109.63142087183451 108.6039496503663)"><path d="M173.87 20.28 C185.22 26.46, 195.46 38.83, 202.7 50.09 C209.94 61.35, 214.88 74.45, 217.3 87.82 C219.72 101.19, 219.82 117.3, 217.22 130.32 C214.63 143.34, 208.43 155.15, 201.73 165.95 C195.04 176.75, 187.13 187.32, 177.05 195.13 C166.96 202.95, 154.25 209.21, 141.22 212.84 C128.19 216.47, 112.12 218.02, 98.86 216.93 C85.6 215.84, 73.66 212.33, 61.65 206.3 C49.64 200.28, 36.15 190.71, 26.79 180.78 C17.44 170.85, 9.71 158.78, 5.52 146.7 C1.33 134.63, 1.17 121.28, 1.66 108.32 C2.15 95.37, 4.14 81.34, 8.47 68.99 C12.8 56.65, 19.27 43.6, 27.64 34.26 C36.01 24.92, 46.88 18.59, 58.68 12.95 C70.48 7.31, 85.07 1.93, 98.43 0.4 C111.8 -1.12, 121.92 -4.16, 138.89 3.8 C155.86 11.75, 187.75 35.3, 200.23 48.15 C212.71 61.01, 214.89 80.16, 213.75 80.93 M189.16 35.33 C198.89 42.55, 205.68 52.54, 210.22 64.25 C214.76 75.96, 216.02 92.39, 216.39 105.58 C216.77 118.77, 216.35 131.56, 212.5 143.38 C208.64 155.2, 201.36 166.05, 193.28 176.5 C185.19 186.95, 175.91 199.83, 163.99 206.07 C152.08 212.31, 135.48 212.3, 121.79 213.94 C108.09 215.57, 94.4 218.59, 81.81 215.87 C69.21 213.14, 56.82 205.65, 46.24 197.58 C35.66 189.52, 25.8 178.06, 18.31 167.48 C10.82 156.89, 4.22 146.61, 1.3 134.1 C-1.63 121.59, -1.02 105.61, 0.77 92.41 C2.55 79.21, 5.35 66.04, 12 54.91 C18.65 43.79, 29.53 33.58, 40.68 25.67 C51.82 17.75, 66.61 11.73, 78.86 7.42 C91.11 3.12, 101.62 -1.08, 114.17 -0.17 C126.72 0.73, 141.9 6.9, 154.16 12.85 C166.43 18.8, 182.48 31.65, 187.77 35.53 C193.06 39.4, 187.33 34.8, 185.89 36.1" stroke="none" stroke-width="0" fill="#5e6af2"></path><path d="M27.94 38.03 C34.97 27.88, 46.03 20.87, 57.16 14.5 C68.29 8.14, 81.83 2.07, 94.7 -0.14 C107.58 -2.35, 121.62 -2.11, 134.4 1.25 C147.18 4.6, 160.12 12.28, 171.37 19.97 C182.63 27.66, 194.25 36.89, 201.92 47.38 C209.59 57.87, 214.4 69.73, 217.39 82.93 C220.39 96.12, 222.17 113.52, 219.9 126.56 C217.63 139.59, 210.62 150.06, 203.77 161.15 C196.91 172.24, 188.88 184.82, 178.77 193.08 C168.65 201.34, 155.87 206.77, 143.05 210.71 C130.24 214.66, 115.04 217.47, 101.89 216.76 C88.74 216.06, 75.66 212.02, 64.16 206.47 C52.66 200.92, 41.96 192.98, 32.86 183.48 C23.76 173.99, 14.88 161.48, 9.56 149.52 C4.25 137.57, 1.28 124.68, 0.98 111.76 C0.68 98.84, -2.46 88.82, 7.78 72.01 C18.02 55.2, 46.6 22.73, 62.43 10.9 C78.25 -0.94, 102.19 -0.93, 102.73 1 M45.73 20.11 C54.53 11.28, 70.24 7.56, 83.18 4.38 C96.13 1.21, 110.21 -0.18, 123.38 1.06 C136.55 2.3, 151.09 5.52, 162.19 11.81 C173.3 18.11, 181.52 28.82, 190.02 38.81 C198.53 48.8, 208.5 59.2, 213.23 71.74 C217.96 84.28, 218.69 100.61, 218.41 114.04 C218.12 127.47, 216.64 140.84, 211.51 152.3 C206.38 163.76, 196.61 174.02, 187.62 182.79 C178.63 191.56, 169.31 199.12, 157.58 204.93 C145.85 210.74, 131.23 216.36, 117.24 217.66 C103.25 218.95, 86.85 216.56, 73.63 212.68 C60.41 208.81, 47.62 203.09, 37.93 194.41 C28.23 185.74, 21.99 171.71, 15.47 160.65 C8.95 149.58, 1.39 140.08, -1.19 128.01 C-3.77 115.93, -3.54 101.02, -0.02 88.19 C3.5 75.36, 12.38 62.63, 19.94 51.03 C27.49 39.43, 40.46 23.31, 45.32 18.58 C50.19 13.85, 47.99 20.94, 49.12 22.66" stroke="#5e6af2" stroke-width="1" fill="none"></path></g><g stroke-linecap="round" transform="translate(124.03187660236767 97.67776143433366) rotate(0 0.2289808379263718 22.621100186116564)"><path d="M-1.65 0.63 L1.69 0.33 L1.52 45.86 L-1.26 45.23" stroke="none" stroke-width="0" fill="#ffffff"></path><path d="M0.01 0.01 C0.08 0, 0.27 0.04, 0.43 -0.02 M0 0.02 C0.18 -0.02, 0.36 0.01, 0.44 -0.01 M1.09 0.29 C-1.29 10.44, -1.12 20.4, 2.23 44.75 M1.05 -0.75 C-0.08 10.07, 0.33 19.91, 0.56 45.18 M0.45 45.21 C0.38 45.28, 0.25 45.25, -0.03 45.27 M0.46 45.24 C0.25 45.26, 0.1 45.23, 0.01 45.26 M-1.81 45.03 C1.41 28.79, 0.4 12.74, -0.06 0.26 M-0.18 45.89 C0.18 35.47, 0.8 24.03, -0.68 0.38" stroke="#ffffff" stroke-width="1" fill="none"></path></g><g stroke-linecap="round" transform="translate(124.01899754730835 96.24878113391424) rotate(0 20.95575655501824 24.01031980793323)"><path d="M1.11 -1.15 L43.41 -0.74 L42.55 48.89 L-0.88 49.19" stroke="none" stroke-width="0" fill="#ffffff"></path><path d="M1.88 -1.71 C14.63 -1.59, 29.27 1.99, 42.74 1.1 M-0.41 -0.83 C13.69 -0.89, 28.3 -0.99, 41.04 -0.02 M43.01 -0.01 C41.88 17.13, 39.73 34.47, 42.86 49.9 M42.77 0.49 C41.23 18.04, 42.11 35.87, 42.9 47.93 M42.43 46.44 C29.51 47.5, 13.7 46.88, -0.93 46.53 M41.99 47.97 C32.01 48.56, 23.29 47.72, 0.19 47.04 M1.63 47.64 C1.77 37.3, 1.32 25.52, 0.9 0.92 M-0.08 47.46 C-0.75 30.34, -1.02 11, 0.55 0.29" stroke="#ffffff" stroke-width="1" fill="none"></path></g><g stroke-linecap="round" transform="translate(76.43588416524449 92.58109158193201) rotate(0 20.245389831660816 22.94477297468802)"><path d="M1.5 -0.74 L41.13 0.87 L39.61 47.06 L0.92 47.8" stroke="none" stroke-width="0" fill="#ffffff"></path><path d="M0.61 -1.61 C13.21 2.32, 24.8 1.45, 41.34 -0.6 M-0.67 -0.71 C13.46 -0.47, 26.89 0.32, 40.98 -0.63 M40.76 0.36 C38.86 17.11, 41.69 34.24, 41.79 45.86 M39.82 0.51 C41.09 18.74, 41.88 35.76, 40.92 45.76 M42.48 45.31 C28.3 44.36, 14.04 44.07, -1.51 46.04 M40 46.46 C28.9 45.61, 17.1 44.89, -0.69 45.42 M1.54 46.24 C0.72 32.78, 0.53 21.3, 1.72 0.3 M-0.68 46.74 C-0.91 31.63, 0.58 17.6, 0.55 -0.58" stroke="#ffffff" stroke-width="1" fill="none"></path></g><g stroke-linecap="round"><g transform="translate(87.54216245537327 161.65963878335606) rotate(0 3.3403247641014673 -5.6004757703649375)"><path d="M0.8 1.28 C1.94 -1.63, 3.39 -5.14, 7.24 -11.73 M-0.27 -0.53 C0.96 -2.4, 3.3 -5.23, 7.02 -10.84" stroke="#ffffff" stroke-width="1" fill="none"></path></g></g><mask></mask><g stroke-linecap="round"><g transform="translate(83.9179365661048 144.63419244144643) rotate(0 0.24397972893200404 2.216028695127079)"><path d="M0.12 0.16 C0.25 0.88, 0.36 1.82, 0.24 4.23 M-0.13 0 C0.17 0.92, 0.29 2.11, 0.49 4.45" stroke="#ffffff" stroke-width="1" fill="none"></path></g></g><mask></mask><g stroke-linecap="round"><g transform="translate(142.4615857343431 150.3093435009223) rotate(0 3.5096223674042903 5.899166672031242)"><path d="M0.58 -0.41 C3.43 4.1, 4.51 8.45, 6.04 11.23 M0.34 -0.43 C1.8 2.96, 2.97 5.27, 7.14 11.15" stroke="#ffffff" stroke-width="1" fill="none"></path></g></g><mask></mask><g stroke-linecap="round"><g transform="translate(142.16288457789915 149.56261111936783) rotate(0 5.30178828695756 -2.165515019034956)"><path d="M0.49 -0.47 C2.8 -2.27, 6.7 -3.52, 9.68 -5.33 M0.3 0.31 C3.14 -1.15, 6.41 -3.06, 10.87 -4.06" stroke="#ffffff" stroke-width="1" fill="none"></path></g></g><mask></mask><g stroke-linecap="round"><g transform="translate(150.07823278203932 142.69269645322584) rotate(0 1.3695131637466034 1.3199491536092864)"><path d="M-0.21 -0.17 C0.57 0.61, 1.28 1.21, 2.74 2.76 M0 0.02 C0.68 0.5, 1.37 1.3, 2.86 2.72" stroke="#ffffff" stroke-width="1" fill="none"></path></g></g><mask></mask><g stroke-linecap="round"><g transform="translate(83.86746646356869 144.5354454191065) rotate(0 1.0600311751887261 -0.9042994803148758)"><path d="M-0.13 -0.08 C0.41 -0.62, 1.11 -0.84, 2 -1.71 M0.02 -0.09 C0.8 -0.6, 1.59 -1.22, 2.12 -1.72" stroke="#ffffff" stroke-width="1" fill="none"></path></g></g><mask></mask><g stroke-linecap="round"><g transform="translate(94.7941494340514 147.13693592459822) rotate(0 21.29246184052988 2.0852748828779113)"><path d="M-1.62 -1.74 C5.44 2.06, 9.7 3.1, 24.64 4.16 M0.47 0.47 C8.33 2.18, 14.75 3.74, 24.41 4.66 M25.11 6.08 C27.78 4.2, 32.15 2.9, 43.09 -0.64 M22.96 3.72 C30.44 2.07, 38.84 1.41, 42.66 0.83" stroke="#ffffff" stroke-width="1" fill="none"></path></g></g><mask></mask><g stroke-linecap="round"><g transform="translate(85.79944942679458 142.69283779401758) rotate(0 4.5505470000849755 2.2170054423768306)"><path d="M-0.01 0.33 C1.9 1.55, 5.05 2.34, 9.19 4.56 M0.32 0.22 C1.88 1.19, 4.05 1.96, 8.87 4.61" stroke="#ffffff" stroke-width="1" fill="none"></path></g></g><mask></mask><g stroke-linecap="round"><g transform="translate(137.34033952688628 148.01364853603172) rotate(0 6.777703263715466 -2.5970604529088632)"><path d="M-0.92 0.76 C3.68 -1.18, 5.96 -2.02, 12.19 -4.52 M-0.01 0.66 C5.28 -1.53, 8.88 -3.32, 13.71 -4.6" stroke="#ffffff" stroke-width="1" fill="none"></path></g></g><mask></mask><g stroke-linecap="round"><g transform="translate(150.00894039783225 162.2024810475532) rotate(0 15.835748189071012 -8.487960959751035)"><path d="M1.09 -0.01 C6.65 -2.7, 10.83 -5.09, 19.06 -6.61 M0.86 0.49 C5.94 -2.75, 13.43 -5.55, 19.11 -8.58 M18.53 -9.76 C24.37 -11.89, 27.89 -15.3, 30.93 -18.17 M18.18 -8.53 C20.76 -9.92, 24.35 -12.49, 31.82 -17.76" stroke="#ffffff" stroke-width="1" fill="none"></path></g></g><mask></mask><g stroke-linecap="round"><g transform="translate(54.4877151155124 144.84650121790764) rotate(0 16.405835054286854 8.297932004679296)"><path d="M0.25 0.34 C3.92 4.31, 12.19 8.64, 17.18 9.72 M-0.63 0.48 C6.51 4.49, 13.48 7.46, 16.37 9.64 M17.77 9.22 C21.81 10.95, 25.76 12.84, 31.44 16.73 M15.52 10.27 C21.05 11.52, 25.95 12.86, 32.18 16.17" stroke="#ffffff" stroke-width="1" fill="none"></path></g></g><mask></mask><g stroke-linecap="round"><g transform="translate(73.99735836904915 72.38212441739142) rotate(0 -8.804676851408487 19.256266480754675)"><path d="M-1.66 0.82 C-1.91 6.19, -4.37 9.02, -7.64 16.6 M0.18 0.72 C-2.46 5.23, -6.18 10.47, -9.11 15.31 M-8.68 13.87 C-11.79 18.73, -14.22 25.55, -17.79 38.68 M-9.05 14.82 C-11.64 21.05, -14.98 28.46, -17.83 39.33" stroke="#ffffff" stroke-width="1" fill="none"></path></g></g><mask></mask><g stroke-linecap="round"><g transform="translate(56.13463079306189 111.22674802288384) rotate(0 -1.0768288123333605 17.189937407266825)"><path d="M0.74 1.48 C0.23 4.95, -0.01 11.31, -1.25 14.57 M0.78 -0.07 C-0.34 5.41, -1.27 11.2, -2.65 16.41 M-2.9 14.23 C-3.42 20.85, -2.21 25.94, -2.26 33.46 M-1.85 14.72 C-2.69 21.89, -2.29 29.79, -2.33 35.1" stroke="#ffffff" stroke-width="1" fill="none"></path></g></g><mask></mask><g stroke-linecap="round"><g transform="translate(74.12404240602268 72.2554403804179) rotate(0 13.112000799576833 -3.8005791014388706)"><path d="M1 -0.03 C6.42 -0.56, 10.84 -4.68, 15.36 -4.75 M0.33 -0.1 C5.62 -1.72, 10.45 -3.08, 14.34 -4.85 M13.67 -4.98 C17.27 -5.49, 20.1 -6.78, 26.91 -7.36 M14.15 -5.35 C17.63 -5.16, 20.84 -5.88, 26.33 -7.27" stroke="#ffffff" stroke-width="1" fill="none"></path></g></g><mask></mask><g stroke-linecap="round"><g transform="translate(100.60141207912329 64.4009083043693) rotate(0 1.6469156775491456 3.6105501463671317)"><path d="M0.48 0.46 C1.59 2.49, 2.9 5.8, 3.72 7.74 M0.04 0.07 C0.77 2.37, 1.86 4.28, 3.13 7.1" stroke="#ffffff" stroke-width="1" fill="none"></path></g></g><mask></mask><g stroke-linecap="round"><g transform="translate(104.14862310661556 71.49532456013003) rotate(0 14.378855667370374 -0.6334288837028907)"><path d="M0.68 -0.92 C4.77 -0.21, 9.27 0.49, 13.55 -0.67 M-0.54 0.68 C3.73 -0.2, 7.45 -1.08, 13.17 -1.79 M13.6 -2.01 C19.18 -0.63, 22.56 -0.3, 27.28 -1.18 M13.54 -0.68 C17.63 -0.69, 21.18 -0.47, 29.1 0.52" stroke="#ffffff" stroke-width="1" fill="none"></path></g></g><mask></mask><g stroke-linecap="round"><g transform="translate(133.2863923514999 71.62200859710356) rotate(0 1.5835765586741672 -3.6105501463671317)"><path d="M0.27 0.11 C1.63 -2.26, 2.37 -5.34, 3.1 -7.14 M-0.08 0.08 C0.91 -2.5, 1.91 -4.93, 3.19 -7.24" stroke="#ffffff" stroke-width="1" fill="none"></path></g></g><mask></mask><g stroke-linecap="round"><g transform="translate(136.83360337899217 64.14754023042224) rotate(0 12.731939989821115 4.307321048556787)"><path d="M1.16 1.41 C3.1 1.45, 6.27 1.9, 14.18 2.54 M-0.43 -0.33 C4.97 0.89, 11.07 2.83, 13.87 3.63 M13.48 3.91 C15.53 4.01, 19.1 5.85, 26.5 8.37 M13.69 3.96 C18.5 6.02, 22.71 7.41, 25.41 8.26" stroke="#ffffff" stroke-width="1" fill="none"></path></g></g><mask></mask><g stroke-linecap="round"><g transform="translate(162.4117469429516 72.50427215528089) rotate(0 8.806749490897346 19.503699437582327)"><path d="M-0.19 0.87 C3.62 6.81, 8.09 11.55, 13.53 20.07 M-0.75 -0.76 C3.74 6.75, 7.55 13.57, 11.06 21.23 M9.66 19.31 C12.54 26.09, 16.96 32.01, 19.1 39.34 M11.99 21.48 C13.81 27.25, 15.74 33.11, 16.96 39.83" stroke="#ffffff" stroke-width="1" fill="none"></path></g></g><mask></mask><g stroke-linecap="round"><g transform="translate(180.24074970122 111.22929855520033) rotate(0 0.8543249784843283 17.60666140638841)"><path d="M-0.19 0.23 C1.06 4.76, 2.84 11.47, 2.14 14.03 M0.06 -0.07 C0.38 3.76, 0.39 8.02, 1.86 14.74 M0.77 14.49 C3.1 21.01, 2.96 28.2, 2.65 34.85 M1.86 15.05 C1.67 21.38, 1.02 29.78, 0.61 35.25" stroke="#ffffff" stroke-width="1" fill="none"></path></g></g><mask></mask><g stroke-linecap="round" transform="translate(83.51782090054894 103.53264974405374) rotate(0 12.686327869435218 14.018433779089719)"><path d="M7.79 1.09 C10.1 -0.01, 13.11 -0.2, 15.79 0.72 C18.48 1.64, 22.29 3.9, 23.9 6.61 C25.52 9.32, 25.87 13.9, 25.48 16.97 C25.09 20.04, 23.78 23.07, 21.54 25.04 C19.31 27.01, 14.83 28.74, 12.05 28.78 C9.27 28.82, 6.72 27.23, 4.87 25.28 C3.02 23.33, 1.36 19.95, 0.95 17.11 C0.54 14.27, 1.08 10.81, 2.39 8.24 C3.7 5.68, 7.6 2.9, 8.81 1.7 C10.03 0.49, 9.64 1.06, 9.68 1.02 M7.04 2.27 C9.17 1.1, 13.73 0.98, 16.52 1.53 C19.31 2.08, 22.35 3.16, 23.77 5.58 C25.19 8, 25.51 12.74, 25.05 16.06 C24.59 19.38, 23.19 23.72, 21.02 25.48 C18.85 27.24, 14.6 26.5, 12.02 26.63 C9.43 26.77, 7.48 27.84, 5.52 26.29 C3.56 24.74, 0.88 20.39, 0.28 17.33 C-0.32 14.26, 0.66 10.78, 1.91 7.91 C3.17 5.03, 6.92 1.39, 7.8 0.05 C8.67 -1.28, 7.07 -0.39, 7.17 -0.09" stroke="none" stroke-width="0" fill="#5e6af2"></path><path d="M8.08 0.48 C10.15 -0.86, 13.57 -1.12, 16 -0.11 C18.42 0.89, 21.08 3.85, 22.61 6.52 C24.14 9.19, 25.41 13, 25.18 15.88 C24.95 18.77, 23.12 21.78, 21.23 23.83 C19.35 25.89, 16.6 27.97, 13.86 28.22 C11.11 28.47, 7.16 27.32, 4.74 25.35 C2.32 23.39, -0.03 19.4, -0.67 16.4 C-1.3 13.41, -0.96 10.08, 0.95 7.37 C2.85 4.66, 8.75 1.29, 10.74 0.14 C12.74 -1.01, 12.93 0.24, 12.93 0.47 M15.75 0.53 C18.17 0.64, 21.26 2.15, 22.69 4.73 C24.12 7.31, 24.69 12.86, 24.34 16.01 C23.98 19.16, 22.1 21.56, 20.56 23.62 C19.01 25.68, 17.39 28.16, 15.07 28.37 C12.75 28.59, 8.85 26.72, 6.62 24.92 C4.39 23.12, 2.54 20.2, 1.68 17.58 C0.83 14.96, 0.72 11.74, 1.48 9.21 C2.25 6.68, 3.8 3.65, 6.25 2.42 C8.71 1.18, 14.6 1.97, 16.21 1.78 C17.82 1.6, 16.02 1.08, 15.92 1.29" stroke="#ffffff" stroke-width="1" fill="none"></path></g><g stroke-linecap="round" transform="translate(125.569250780125 104.02726199350127) rotate(0 12.686327869435218 14.018433779089719)"><path d="M8.07 0.55 C10.61 -0.48, 15.38 -0.33, 18.08 1 C20.78 2.33, 23.04 5.74, 24.29 8.53 C25.53 11.32, 26.36 14.82, 25.54 17.73 C24.72 20.65, 21.6 24.25, 19.36 26.02 C17.12 27.79, 14.53 28.59, 12.08 28.35 C9.63 28.12, 6.55 26.54, 4.68 24.58 C2.82 22.63, 1.29 19.51, 0.9 16.62 C0.52 13.73, 0.8 9.91, 2.37 7.23 C3.94 4.55, 8.98 1.76, 10.32 0.53 C11.66 -0.7, 10.6 -0.45, 10.42 -0.13 M14.74 1.02 C17.52 0.95, 20.96 1.76, 22.71 3.93 C24.45 6.09, 25.26 10.68, 25.2 14.04 C25.13 17.39, 24.2 21.97, 22.31 24.03 C20.42 26.1, 16.39 25.87, 13.85 26.44 C11.3 27.01, 9.21 28.63, 7.03 27.44 C4.85 26.25, 1.75 22.23, 0.77 19.28 C-0.21 16.33, 0.26 12.81, 1.15 9.75 C2.05 6.69, 4 2.73, 6.14 0.92 C8.28 -0.88, 12.54 -0.94, 13.97 -1.08 C15.41 -1.22, 14.46 -0.24, 14.75 0.09" stroke="none" stroke-width="0" fill="#5e6af2"></path><path d="M10.38 -0.6 C12.74 -1.08, 16.21 0.44, 18.59 2.16 C20.96 3.87, 23.66 6.93, 24.64 9.68 C25.61 12.44, 25.32 15.89, 24.42 18.7 C23.53 21.51, 21.71 25.01, 19.29 26.55 C16.86 28.09, 12.79 28.69, 9.87 27.93 C6.95 27.18, 3.49 24.45, 1.76 22.02 C0.04 19.6, -0.84 16.32, -0.46 13.4 C-0.09 10.48, 1.67 6.72, 4.02 4.51 C6.37 2.31, 11.75 0.88, 13.65 0.18 C15.55 -0.52, 15.47 0.03, 15.41 0.31 M17.85 0.44 C20.05 1.64, 22.18 6.42, 23.13 9.28 C24.08 12.14, 23.92 14.84, 23.54 17.61 C23.16 20.37, 22.7 24.3, 20.86 25.89 C19.01 27.47, 15.16 27.53, 12.5 27.13 C9.84 26.72, 6.9 25.3, 4.9 23.45 C2.91 21.59, 1.09 18.74, 0.54 15.99 C-0.01 13.24, 0.01 9.28, 1.58 6.94 C3.16 4.6, 7.2 2.77, 10 1.93 C12.81 1.1, 17.04 1.78, 18.42 1.93 C19.8 2.09, 18.67 3.02, 18.26 2.87" stroke="#ffffff" stroke-width="1" fill="none"></path></g><g stroke-linecap="round" transform="translate(71.20152884952245 83.04441395946833) rotate(0 46.215285110562604 6.602183587223408)"><path d="M-0.31 1.05 L92.76 -1.54 L92.2 13.1 L-0.05 14.45" stroke="none" stroke-width="0" fill="#ffffff"></path><path d="M0.57 -1.21 C19.48 -1.23, 39.3 0.42, 92.25 0.16 M0.2 -0.26 C27.4 -1.5, 53.74 -1, 92.21 0.82 M93.15 -0.24 C93.13 4.31, 93.67 7.62, 92.58 13.1 M91.81 0.02 C92.7 3.42, 92.71 6.07, 92.93 12.96 M93.6 14.12 C63.64 13.4, 31.91 13.33, 1.8 11.23 M91.85 12.89 C73.94 11.51, 55.12 12.86, -0.15 13.46 M-1.18 14.19 C0.12 8.64, 0.87 3.67, 1.08 1.3 M0.09 13.25 C-0.55 8.38, 0.34 4.79, -0.46 0.58" stroke="#ffffff" stroke-width="1" fill="none"></path></g><g stroke-linecap="round" transform="translate(84.40589602396881 69.84004678502151) rotate(0 6.602183587223237 6.602183587223408)"><path d="M0.33 -1.54 L12.97 -0.1 L13.15 14.45 L-1.28 11.34" stroke="none" stroke-width="0" fill="#ffffff"></path><path d="M-0.61 -0.99 C2.58 0.18, 7.03 0.19, 13.13 -0.65 M0.12 -0.64 C4.26 -0.27, 9.29 0.57, 13.08 0.51 M13.8 0.6 C14.41 4.39, 13.43 8.28, 12.47 12.31 M13.56 0.19 C13.45 4.7, 13.57 9.92, 13.42 13.49 M14.46 13.6 C10.41 13.62, 7.63 11.96, -1.3 12.23 M13.3 12.55 C10.22 13.4, 7.18 13.33, 0.53 13.54 M0.19 13.66 C1.06 9.12, 1.2 5.34, 0.37 1.22 M-0.43 12.71 C0.45 8.64, -0.47 4.18, -0.1 0.35" stroke="#ffffff" stroke-width="1" fill="none"></path></g><g stroke-linecap="round" transform="translate(110.81463037286176 96.24878113391424) rotate(0 6.602183587223237 26.40873434889272)"><path d="M-0.23 -0.1 L13.15 1.24 L11.93 50.95 L1.02 54.59" stroke="none" stroke-width="0" fill="#ffffff"></path><path d="M-1 0.1 C3.05 0.21, 6.26 -0.55, 13.96 0.26 M-0.46 -0.31 C3.47 0.67, 7.11 0.64, 13.32 0.36 M14.92 0.3 C13.67 14.74, 12.33 28.43, 14.9 50.92 M13.76 -0.58 C14.24 15.66, 13.81 32.51, 12.76 53.4 M13.79 53.17 C9.82 51.55, 2.77 51.88, -1 52.05 M13.18 53.06 C9.56 52.86, 6.64 53.02, 0.31 52.23 M1.42 53.57 C1.56 34.99, 0.48 15.06, 1.27 0.26 M0.71 53.18 C-0.35 37.52, 0.19 21, 0.16 -0.77" stroke="#ffffff" stroke-width="1" fill="none"></path></g><g stroke-linecap="round" transform="translate(163.63209907064766 109.45314830836105) rotate(0 6.602183587223237 13.20436717444636)"><path d="M-0.05 1.24 L11.93 -1.87 L14.22 28.18 L0.05 27.15" stroke="none" stroke-width="0" fill="#ffffff"></path><path d="M-0.12 0.11 C2.9 -0.66, 6.7 0.25, 12.86 0.24 M-0.15 0.54 C2.55 0.57, 5.46 0.42, 13.09 0.3 M13.43 -0.16 C12.32 7.77, 15.13 16.37, 13.28 27.5 M13.95 -0.37 C13.67 9.14, 12.91 17.99, 13.66 27.36 M14.39 25.1 C7.55 25.47, 3.48 25.68, -0.42 26.61 M13.1 26.58 C11.08 26.79, 8.21 25.87, 0.49 26.5 M1.63 28.38 C0.37 19.43, 1.09 9.02, 0.12 -1.3 M-0.69 27.28 C-0.34 20.98, -0.02 13.72, -0.12 -0.05" stroke="#ffffff" stroke-width="1" fill="none"></path></g><g stroke-linecap="round" transform="translate(57.99716167507586 109.45314830836105) rotate(0 6.602183587223237 13.20436717444636)"><path d="M-1.28 -1.87 L14.22 1.77 L13.25 27.15 L0.48 27.23" stroke="none" stroke-width="0" fill="#ffffff"></path><path d="M-0.07 -0.65 C4.81 0.25, 7.77 0.23, 11.92 -0.92 M-0.13 0.51 C3.46 0.25, 6.57 0.19, 13.51 0.57 M12.09 -1.36 C14.93 6.43, 13.31 17.74, 13.79 27.52 M13.53 0.44 C12.96 6.99, 13.86 13.75, 13.51 26.85 M11.91 25.43 C7.89 25.51, 4.16 26.47, -1.31 26.37 M13.73 26.74 C9.08 25.85, 4.83 26.54, 0.23 26.88 M0.56 28.26 C1.06 17.76, -0.09 7.28, -1.49 1.41 M-0.16 26.94 C0.35 16.76, 0.07 8.6, -0.03 0.62" stroke="#ffffff" stroke-width="1" fill="none"></path></g><g stroke-linecap="round" transform="translate(137.2233647217547 69.84004678502151) rotate(0 6.602183587223237 6.602183587223408)"><path d="M1.02 1.77 L13.25 0.74 L13.68 14.03 L-0.37 12" stroke="none" stroke-width="0" fill="#ffffff"></path><path d="M0.76 0.26 C3.73 0.31, 6.85 -0.85, 12.59 -0.29 M0.11 0.36 C4.92 0.2, 10.38 0.46, 13.3 0.08 M14.33 -1.25 C13.18 4.58, 13.52 8.44, 12.44 14.2 M12.91 0.39 C13.55 4.1, 13.45 7.24, 13.38 13.8 M12.21 12.44 C10.13 13.3, 6.58 13.06, 0.48 13 M13.51 12.61 C9.4 13.36, 4.83 13.74, 0.25 13.74 M0.84 13.38 C0.05 7.08, -1.02 3.61, 0.48 -0.91 M0.11 12.7 C-0.06 8.06, 0 3.39, -0.42 -0.62" stroke="#ffffff" stroke-width="1" fill="none"></path></g><g stroke-linecap="round" transform="translate(71.17919512600997 78.65794412633295) rotate(0 46.17369393943591 2.770421766437721)"><path d="M0.05 0.74 L92.82 0.82 L91.97 4.33 L-1.34 3.8" stroke="none" stroke-width="0" fill="#ffffff"></path><path d="M-0.52 0.37 C21.23 -1.57, 45.43 -0.63, 93.98 -0.38 M-0.18 0.45 C35.29 0.35, 69.81 -0.39, 92.27 -0.56 M92.37 0.3 C92.56 1.59, 92.08 2.99, 92.14 5.72 M92.47 0.26 C92.41 2.03, 92.4 4.06, 92.07 5.27 M91.72 5.84 C69.48 4.94, 51.3 4.7, 0.52 7.13 M93.1 5.68 C60.29 5.43, 27.92 5.53, 0.99 5.82 M0.03 5.18 C-0.45 3.76, 0.17 0.81, 0.48 -0.09 M-0.03 5.53 C-0.02 3.76, -0.19 1.37, 0.14 0.25" stroke="#ffffff" stroke-width="1" fill="none"></path></g><g stroke-linecap="round" transform="translate(62.694335654538236 96.24878113391424) rotate(0 52.065340129189565 2.34420303313982)"><path d="M0.48 0.82 L103.76 -1.21 L102.79 2.94 L-0.23 4.13" stroke="none" stroke-width="0" fill="#ffffff"></path><path d="M-1.95 -1.39 C32.37 -0.64, 68.24 -0.58, 105.67 0.35 M0.46 0.86 C37.09 -0.36, 73.79 -1.03, 103.45 0.85 M104.27 0.26 C103.86 1.31, 103.96 2.08, 104.34 4.48 M104.2 0.1 C104.22 1.89, 103.92 3.13, 103.96 4.51 M102.15 4.62 C79.65 4.54, 54.25 6.44, 1.02 5.63 M104.47 5.4 C82.58 5.65, 61.26 5.11, 0.92 5.33 M-0.35 5.02 C0.17 2.9, 0.41 1.68, 0.25 0.08 M-0.01 4.83 C-0.14 3.42, 0.12 2.81, 0.01 0.09" stroke="#ffffff" stroke-width="1" fill="none"></path></g><g stroke-linecap="round" transform="translate(57.966407890186474 133.92432171901328) rotate(0 60.238921893646534 3.4097498663850274)"><path d="M-0.37 -1.21 L119.14 -1.74 L120.24 6.26 L1.33 5.85" stroke="none" stroke-width="0" fill="#ffffff"></path><path d="M-0.93 -0.44 C40.01 0.46, 78.3 1.18, 121.57 -0.36 M0.15 0.11 C41.5 -1.59, 82.48 -0.18, 119.53 0.04 M120.08 0.51 C120.25 2.64, 120.8 4.54, 120.88 7.13 M120.57 0.31 C120.16 2.36, 120.25 5.13, 120.28 6.71 M121.2 6.51 C83.05 8.37, 45.62 7.72, -1.79 8.32 M120.85 7.64 C83.62 7.95, 45.71 8.31, 0.13 6.88 M0.25 6.35 C0.65 5.11, 0.41 3.73, -0.53 -0.08 M-0.22 6.5 C0.18 5.11, 0.01 2.93, 0.08 0.14" stroke="#ffffff" stroke-width="1" fill="none"></path></g><g stroke-linecap="round" transform="translate(63.08103919334576 98.5481473445243) rotate(0 10.584429709042752 5.043589427958068)"><path d="M-1.34 -1.74 L20.93 -0.56 L22.5 9.12 L-0.84 10.04" stroke="none" stroke-width="0" fill="#ffffff"></path><path d="M1.63 -0.38 C6.42 0.39, 10.85 -0.31, 22.07 0.92 M-0.08 -0.56 C7.49 0.83, 15.39 0.01, 21.72 0.29 M20.8 0.32 C21.55 3.14, 21.7 7.63, 22.13 10.39 M20.67 -0.5 C20.82 3.09, 20.9 6.78, 21.24 9.59 M21.69 11.68 C15.9 10.99, 6.81 11.55, 0.28 10.77 M22.16 10.37 C14.24 10.9, 5.59 10.32, -0.65 9.34 M0.88 9.93 C0.49 6.51, -0.81 2.49, -0.05 -0.03 M0.26 10.53 C0.08 6.62, 0.18 2.99, -0.09 -0.3" stroke="#ffffff" stroke-width="1" fill="none"></path></g><g stroke-linecap="round" transform="translate(151.16622673207257 99.25851406788115) rotate(0 11.223764312571689 4.19114870957128)"><path d="M-0.23 -0.56 L23.78 -0.97 L21.61 8.34 L1.64 7.59" stroke="none" stroke-width="0" fill="#ffffff"></path><path d="M1.54 0.35 C7.33 -0.32, 13.38 0.96, 24.16 0.3 M-0.68 0.85 C6.04 0.16, 14.53 0.42, 23 -0.58 M22.81 -0.37 C22.91 3.53, 23.22 6.54, 22.82 8.61 M22.14 -0.32 C22.12 3.13, 22.43 6.12, 22.43 8.53 M23.46 9.32 C14.27 10.06, 9.95 9.25, 1.42 9.13 M23.37 9.02 C14.01 8.51, 4.67 7.7, 0.71 8.75 M0.44 8.52 C-0.72 6.35, -0.12 4.49, 0.52 -0.54 M0.01 8.54 C0.06 6.82, -0.12 4.66, -0.28 -0.37" stroke="#ffffff" stroke-width="1" fill="none"></path></g><g stroke-linecap="round" transform="translate(155.8546458055157 99.82681004800088) rotate(0 5.967062266173684 17.68808068366252)"><path d="M1.33 -0.97 L11.1 -0.05 L13.58 34.58 L-1.06 37.05" stroke="none" stroke-width="0" fill="#ffffff"></path><path d="M0.65 -0.21 C3.89 0.53, 7.73 0.16, 12.07 -0.1 M-0.56 0.02 C3.24 0.07, 6.16 -0.45, 12.38 -0.22 M13.11 0.92 C13.99 12.36, 12.97 24.04, 13.73 33.4 M11.35 -0.32 C11.82 6.14, 11.64 14.63, 11.78 35.63 M10.87 36.27 C7.57 35.84, 3.72 35.88, 0.97 36.55 M12.01 35.41 C7.63 35.01, 4.53 35.67, -0.41 35.9 M-1.54 35.14 C-0.29 25.26, 1.06 13.97, -1.87 1.02 M0.24 35.79 C-0.19 21.02, -0.68 7, -0.12 -0.28" stroke="#ffffff" stroke-width="1" fill="none"></path></g><g stroke-linecap="round" transform="translate(64.92797836619502 104.23106812422066) rotate(0 8.595413289372743 18.895698260147128)"><path d="M-0.84 -0.05 L18.84 -0.79 L16.13 39.46 L-1.84 37.72" stroke="none" stroke-width="0" fill="#ffffff"></path><path d="M0.78 0.79 C6.93 0.29, 11.11 -0.11, 16.23 -1.17 M0.47 0.25 C7.1 -0.5, 13.88 -0.32, 17.47 0.38 M19.1 0.6 C18.29 10.21, 19.21 17.37, 15.22 36.31 M17.34 -0.99 C16.94 8.84, 16.82 17.22, 17.99 38.3 M17.43 38.38 C12.45 38.57, 6.66 39.62, 0.48 39.38 M16.63 37.15 C11.55 38.11, 4.09 38.55, -0.13 38.24 M-0.1 37.74 C1.53 24.56, -1.57 14.9, 1.77 0.05 M-0.19 37.19 C-0.76 24.18, -0.21 12.03, 0.67 -0.48" stroke="#ffffff" stroke-width="1" fill="none"></path></g><g stroke-linecap="round" transform="translate(56.68775169029186 138.04441879801107) rotate(0 27.633182292758534 0.6393280999473063)"><path d="M1.64 -0.79 L54.2 1.67 L53.43 1.2 L0.6 1.32" stroke="none" stroke-width="0" fill="#ffffff"></path><path d="M1.72 0.3 C15.82 -0.41, 30.06 -1.61, 56.97 -1.89 M0.55 -0.58 C17.53 -0.53, 33.88 0.27, 54.83 0.59 M55.32 0.03 C55.39 0.32, 55.15 0.79, 55.17 1.2 M55.26 0.02 C55.26 0.36, 55.32 0.72, 55.3 1.22 M56.69 2.03 C36.18 3.44, 14.38 3.32, 1.27 1.54 M55.97 1.64 C37.65 1.74, 21.26 1.39, 0.16 0.51 M0.08 1.2 C-0.12 0.98, 0.11 0.54, 0.05 0.03 M-0.04 1.22 C-0.01 0.82, 0.04 0.38, -0.03 0" stroke="#ffffff" stroke-width="1" fill="none"></path></g><g stroke-linecap="round" transform="translate(97.32060209685233 72.54880461333869) rotate(0 22.376483498151458 9.87406948926673)"><path d="M-1.06 1.67 L42.91 -0.08 L45.35 19.79 L0.85 21.18" stroke="none" stroke-width="0" fill="#ffffff"></path><path d="M0.23 -0.16 C14.36 -1.43, 32.65 -1.96, 44.82 1.09 M0.75 -0.37 C15.06 0.69, 29.05 0.84, 45.21 0.95 M46.53 -1.95 C42.9 5.06, 43.35 11.9, 44.13 20.04 M44.6 0.26 C45.53 4.47, 45.21 7.05, 45.49 19.89 M46.38 21.72 C30.35 21.76, 16.11 20.18, 0.12 18.45 M44.06 20.62 C34.5 20.44, 24.72 19.14, -0.12 19.7 M-1.84 20.75 C1.63 13.92, 0.61 8.47, 0.81 -0.37 M-0.12 19.47 C0.79 14.54, -0.28 10.26, 0.81 -0.39" stroke="#ffffff" stroke-width="1" fill="none"></path></g><g stroke-linecap="round" transform="translate(98.34075424044408 65.32823475481109) rotate(336.69511469695874 2.273164409729361 5.62596116973009)"><path d="M-1.84 -0.08 L5.14 0.04 L5.4 12.68 L0.07 9.86" stroke="none" stroke-width="0" fill="#ffffff"></path><path d="M-0.25 -0.31 C1.82 -0.43, 2.88 0.25, 4.68 0.25 M0.07 0.1 C1 0.15, 2.31 0.23, 4.62 0.1 M3.44 -0.83 C3.8 3.02, 4.29 7.52, 3.43 11.22 M4.99 0.29 C4.79 3.28, 4.95 7.64, 4.74 11.65 M4.67 11.67 C3.3 11.36, 1.51 11, -0.34 11.57 M4.51 11.37 C3.05 11.12, 1.46 11.28, -0.01 11.39 M1 11.28 C0.52 8.86, 0.57 5.73, -0.68 -0.75 M0.38 10.98 C-0.22 8.84, 0.48 6.24, -0.3 0.47" stroke="#ffffff" stroke-width="1" fill="none"></path></g><g stroke-linecap="round" transform="translate(102.04457034343659 71.24360170160708) rotate(352.9101826237367 8.169194556074558 3.196642125631115)"><path d="M0.6 0.04 L17.19 1.43 L16.41 5 L1.09 7.44" stroke="none" stroke-width="0" fill="#ffffff"></path><path d="M1.39 -1.55 C4.83 1, 10.02 1.02, 15.4 1.23 M-0.36 0.48 C4.67 0.71, 8.84 0.29, 16.56 0.73 M15.85 -0.37 C16.07 1.38, 15.64 2.55, 16.57 6.29 M16.49 -0.29 C16.63 2.13, 16.5 4.39, 16.46 6.65 M17.38 6.61 C9.93 5.48, 2.09 7.7, 0.59 5.27 M16.47 5.76 C9.92 6.44, 3.67 6.99, -0.52 5.63 M0.24 6.55 C0.21 4.03, -0.44 1.48, -0.56 -0.08 M-0.13 6.39 C0.22 4.53, -0.21 3.18, -0.29 -0.01" stroke="#ffffff" stroke-width="1" fill="none"></path></g><g stroke-linecap="round" transform="translate(117.02905134980165 71.16835304750839) rotate(184.29366073220115 8.169194556074558 3.196642125631115)"><path d="M0.85 1.43 L16.41 -1.4 L17.43 7.44 L1.68 5.38" stroke="none" stroke-width="0" fill="#ffffff"></path><path d="M0.06 0.89 C4.27 1.06, 6.64 1.38, 15.73 0.53 M0.37 0.78 C5.86 0.26, 11.45 0.64, 15.53 -0.8 M16.14 0.1 C15.66 1.43, 16.52 2.79, 16.5 6.9 M16.58 0.05 C16.48 2.47, 16.49 4.75, 16.65 6.48 M16.44 5.33 C8.71 7.57, 4.11 5.29, 1.42 6.14 M16.24 6.35 C10.56 6.78, 4.29 5.51, 0.42 7.12 M0.26 6.27 C-0.41 4.03, -0.58 2.45, -0.18 0.43 M0.26 6.27 C-0.14 5.05, -0.27 3.16, 0.1 0.01" stroke="#ffffff" stroke-width="1" fill="none"></path></g><g stroke-linecap="round" transform="translate(90.5011023640825 67.15003832728416) rotate(0 4.475296699630292 4.404261328010762)"><path d="M0.04 -0.93 L9.68 0.7 L10.07 8.13 L1.11 8.29" stroke="none" stroke-width="0" fill="#ffffff"></path><path d="M0.18 0.33 C1.49 0.42, 3.45 0.16, 9.21 -0.26 M0.09 0.13 C3.29 0.21, 6.13 -0.35, 8.73 -0.23 M8.37 -0.02 C9.14 2.04, 9.08 4.73, 9.25 9.08 M9.05 0.21 C9.1 2.09, 9.28 3.79, 9.22 9 M8.51 9.23 C6.36 8.36, 3.86 8.68, 0.31 8.91 M8.94 8.99 C6.76 8.53, 5.11 9.07, 0.01 8.92 M-0.35 8.42 C-0.54 5.89, -0.19 3.5, -0.28 -0.25 M-0.16 9.05 C-0.32 6.18, 0.04 3.57, 0.13 0.21" stroke="#ffffff" stroke-width="1" fill="none"></path></g><g stroke-linecap="round" transform="translate(74.61127871590747 73.96016012297241) rotate(0 8.797349290683655 3.48547420654495)"><path d="M1.09 1.05 L19.28 -1.01 L19.26 6.19 L0.17 5.89" stroke="none" stroke-width="0" fill="#ffffff"></path><path d="M-1.01 1.32 C5.59 0.47, 13.25 -0.87, 18.63 0.81 M0.24 0.79 C6.08 -0.94, 13.26 -0.74, 17.08 -0.28 M17.85 -0.11 C17.71 2.75, 17.88 4.72, 16.97 7.49 M17.73 0.28 C17.96 2.29, 17.94 4.6, 17.64 6.99 M18.23 5.76 C14.99 6.82, 10.25 7.38, -1.36 6.76 M17.03 6.15 C12.86 7.86, 7.24 7.41, 0.21 7.33 M-0.61 6.89 C-0.15 5.47, -0.3 2.76, -0.02 0.57 M-0.32 6.96 C0.14 5.16, 0.19 3.59, 0.01 -0.24" stroke="#ffffff" stroke-width="1" fill="none"></path></g><g stroke-linecap="round" transform="translate(63.22310343300251 139.46515224472478) rotate(0 6.1801716328227485 2.4862737763783116)"><path d="M1.68 -1.01 L14.03 -0.78 L12.53 3.89 L-1.23 6.43" stroke="none" stroke-width="0" fill="#ffffff"></path><path d="M-0.46 0.4 C4.93 -0.64, 9.51 0.47, 13.54 0.37 M-0.61 -0.61 C3.8 -0.58, 8.15 -0.31, 12.45 -0.61 M12.49 0.4 C12.63 1.71, 11.93 3.32, 12.43 5.14 M12.61 0.07 C12.61 2, 12.41 3.71, 12.2 4.79 M13.44 4.78 C8.43 5.09, 2.25 4.74, -0.06 4.94 M12.68 5.52 C7.9 5.09, 3.55 5.11, -0.12 4.6 M-0.14 5.3 C-0.2 3.61, 0.03 3.06, -0.2 -0.26 M0.07 4.98 C0.15 3.24, 0.05 0.98, 0.14 0.13" stroke="#ffffff" stroke-width="1" fill="none"></path></g><g stroke-linecap="round" transform="translate(144.19514460594382 144.36895880498378) rotate(334.11975775682384 11.707624123452717 5.151350669857948)"><path d="M1.67 -0.78 L23.59 -1.08 L22.18 11.76 L-1.31 8.52" stroke="none" stroke-width="0" fill="#ffffff"></path><path d="M0.87 -0.88 C9.96 0.84, 19.47 0.53, 24.3 0.54 M-0.74 -0.76 C8.55 -0.09, 18.4 -0.76, 23.38 0.36 M23.94 0.48 C22.52 3.7, 23.59 6.22, 24.15 10.69 M23.89 0.33 C23.58 3.96, 23.18 7.48, 23.78 10.49 M24.47 10.63 C16.47 10.03, 12.5 10.22, 1.24 9.03 M23.44 10.67 C18.81 10.92, 13.55 9.91, -0.67 9.43 M-0.5 9.87 C0 8.18, -0.38 3.81, 0.86 -0.95 M0.22 10.67 C-0.01 6.89, 0.25 4.47, 0.43 -0.26" stroke="#ffffff" stroke-width="1" fill="none"></path></g><g stroke-linecap="round" transform="translate(70.95231243579201 144.55628641610383) rotate(29.219206516413717 10.864667023244237 4.870363540635935)"><path d="M0.17 -1.08 L20.5 1.46 L20.41 7.95 L-0.01 10.12" stroke="none" stroke-width="0" fill="#ffffff"></path><path d="M1.17 0.92 C9.12 0.7, 15.32 0.63, 23.53 -1.98 M-0.58 -0.32 C4.53 -0.83, 8.73 0.52, 21.58 0.26 M20.86 0.73 C21.92 4.03, 22.47 7.76, 22.52 10.7 M21.79 0.03 C21.5 2.83, 22.16 6.56, 21.39 10.17 M20.19 9.51 C15.44 9.73, 10.61 8.5, -1.87 10.76 M21.97 10.15 C13.1 9.22, 4.17 8.95, -0.12 9.46 M-0.02 10.54 C-0.34 5.65, 0.86 1.7, -0.04 0.29 M0.02 9.4 C0.22 7.05, 0.37 3.61, 0.41 -0.19" stroke="#ffffff" stroke-width="1" fill="none"></path></g><g stroke-linecap="round" transform="translate(94.98931605505982 144.090131330212) rotate(7.982314106985414 8.99144236153893 1.8732203742479214)"><path d="M-1.23 1.46 L16.67 -1.79 L17.97 4.13 L-1.23 4.53" stroke="none" stroke-width="0" fill="#ffffff"></path><path d="M1.71 0.54 C5.4 0.4, 10.82 -1.86, 16.21 -1.33 M0.13 -0.89 C4.01 0.38, 7.93 0.29, 18.7 0.46 M18.04 0.13 C18.22 1.44, 18.26 2.97, 18.09 4.09 M17.86 -0.14 C18.12 1.43, 17.86 2.89, 17.95 3.85 M17.89 3.7 C13.41 2.58, 4.93 4.64, 1.59 3.79 M17.82 3.2 C11.32 3.04, 5.75 3.57, 0.6 3.31 M-0.15 3.55 C0.31 2.43, -0.01 1.92, 0.01 0.16 M0.1 3.84 C0.16 2.26, 0.16 0.89, 0.02 -0.1" stroke="#ffffff" stroke-width="1" fill="none"></path></g><g stroke-linecap="round" transform="translate(94.66058382882193 140.3896135777195) rotate(7.982314106985414 8.99144236153893 1.8732203742479214)"><path d="M-1.31 -1.79 L17.97 0.38 L16.75 4.53 L-1.68 5.45" stroke="none" stroke-width="0" fill="#ffffff"></path><path d="M0.79 0.48 C7.83 -1.83, 10.67 -1.38, 16.62 -1.04 M-0.03 0.32 C4.69 0.41, 10.37 0.64, 18.41 -0.8 M18.25 0.14 C18.29 1.77, 18.09 3.16, 18.22 3.8 M18.12 0.07 C17.83 1.31, 17.93 2.39, 18.01 3.6 M19.1 2.6 C11.12 4.66, 9.21 3.78, 0.67 4.17 M17.38 2.96 C11.74 3.39, 6.31 3.2, -0.38 3.73 M0.31 3.4 C0 2.43, 0.02 1.04, 0.27 0.01 M0.16 3.65 C0.14 2.81, 0 1.92, -0.12 0.14" stroke="#ffffff" stroke-width="1" fill="none"></path></g><g stroke-linecap="round" transform="translate(55.81633227019597 120.97995499284389) rotate(0 7.465153011502991 12.330084575816272)"><path d="M-0.01 0.38 L13.7 0.79 L13.25 26.36 L-1.63 25.3" stroke="none" stroke-width="0" fill="#ffffff"></path><path d="M1.34 -1.48 C3.46 -1.14, 8.73 -0.91, 14.46 0.22 M-0.11 0.19 C3.59 0.33, 6.35 -0.72, 15.49 0.11 M16.56 1.97 C15.66 10.09, 16.38 16.75, 15.05 23.36 M14.24 0.87 C14.95 6.09, 15.27 10.36, 14.81 24.61 M13.54 25.42 C11.81 24.6, 6.6 24.92, 0.61 24.38 M14.84 24.45 C11.85 24.17, 7.46 24.51, 0.61 24.36 M-0.08 25.26 C-0.16 19.43, 1.22 12.56, -1.4 1.09 M0.84 24.27 C-0.12 15.43, -0.82 8.01, -0.66 -0.89" stroke="#ffffff" stroke-width="1" fill="none"></path></g><g stroke-linecap="round" transform="translate(143.04960829595984 86.42215360882165) rotate(0 13.204367174446475 6.602183587223408)"><path d="M-1.23 0.79 L24.73 1.7 L24.78 13.85 L-1.81 11.42" stroke="none" stroke-width="0" fill="#ffffff"></path><path d="M-1.97 -1.48 C7.12 -0.9, 16.63 0.56, 24.43 -0.06 M0.8 0.51 C9.34 -0.96, 18.5 0.07, 26.75 0.71 M26.78 1.22 C27.36 4.63, 26.6 8.06, 25.43 14.14 M26.31 0.35 C26.43 3.93, 26.24 8.85, 26.39 13.61 M28.18 13.25 C20.92 13.81, 14.76 12.97, -1.21 11.87 M27.08 12.72 C20.37 13.11, 15.99 12.73, -0.53 14.04 M0.03 13.77 C0.95 10.5, -0.92 8.43, 0.69 1.11 M0.06 12.85 C-0.52 10.39, -0.54 6.03, 0 0.13" stroke="#ffffff" stroke-width="1" fill="none"></path></g><g stroke-linecap="round" transform="translate(68.18190768074942 76.04050337087119) rotate(30.954730604496717 9.29744973855253 9.18148176393288)"><path d="M-1.68 1.7 L16.96 0.64 L16.78 16.58 L1.86 18.25" stroke="none" stroke-width="0" fill="#ffffff"></path><path d="M-1.41 -1.08 C3.15 0.41, 5.63 0.08, 19.26 -0.29 M0.44 -0.83 C6.76 0.04, 12.44 0.57, 18.94 0.76 M19.76 0.24 C18.76 6.13, 17.28 15.94, 19.26 17.1 M18.74 -0.71 C18.46 7.06, 18.54 14.79, 18.01 17.51 M19.29 18.8 C12.83 18.02, 4.42 17.12, -1.62 18.14 M18.21 18.34 C14.3 17.9, 7.98 19.05, -0.86 18.33 M1.31 18.42 C-1.28 13.31, 0.96 7.8, -0.93 1.53 M-0.56 19.03 C-0.62 12.75, -0.02 8.96, -0.57 0.36" stroke="#ffffff" stroke-width="1" fill="none"></path></g><g stroke-linecap="round" transform="translate(56.82287010002892 93.68405820073622) rotate(290.9969231749782 11.957362718688103 8.624877022292821)"><path d="M-1.63 0.64 L22.1 -1.79 L25.77 17.14 L1.4 17.08" stroke="none" stroke-width="0" fill="#ffffff"></path><path d="M-0.63 0.3 C3.42 0.07, 11.54 -0.17, 24.43 1.59 M0.75 0.14 C8.73 0.92, 17.16 1.03, 24.9 0.28 M24.02 -1.12 C22.74 7.99, 24.65 12.35, 25.42 16.98 M23.81 -0.04 C23.92 6.62, 23.39 11.36, 24.35 18.01 M24.74 16.88 C15.48 15.97, 7.71 17.07, -0.56 18.58 M24.74 16.85 C17.36 18.08, 10.96 17.21, 0.3 17.27 M-1.2 18.19 C0.78 12.79, -1 6.87, -0.67 0.15 M-0.57 16.48 C0.1 13.17, -0.43 9.11, -0.72 0.73" stroke="#ffffff" stroke-width="1" fill="none"></path></g><g stroke-linecap="round" transform="translate(55.47783517850712 110.31040169035623) rotate(8.443608086774642 6.253647069755743 8.89455816537702)"><path d="M-1.81 -1.79 L14.36 -0.11 L13.9 17.61 L1.99 16.5" stroke="none" stroke-width="0" fill="#ffffff"></path><path d="M-1.24 -0.04 C3.48 -0.21, 6.38 0.98, 13.14 0.59 M0.21 0.44 C2.87 0.49, 5.88 0.16, 13.09 0.4 M11.18 1.26 C13.16 4.34, 14.07 10.86, 13.44 18.08 M12.48 0.55 C11.92 3.14, 12.94 8.72, 12.53 18.12 M11.75 16.95 C7.37 17.62, 4.06 18.6, -0.61 17.27 M12.17 18.31 C8.21 17.72, 5.25 17.75, 0.27 18.24 M0.93 19.28 C-0.78 13.88, -0.57 7.15, -0.96 -1.09 M-0.01 17.96 C-0.43 11.51, -0.63 5.28, -0.73 0.29" stroke="#ffffff" stroke-width="1" fill="none"></path></g><g stroke-linecap="round" transform="translate(54.399850537260136 126.7029023529467) rotate(0 3.1873710743500396 8.974963595889676)"><path d="M1.86 -0.11 L7.77 -0.17 L8.37 16.66 L1.16 17.47" stroke="none" stroke-width="0" fill="#ffffff"></path><path d="M0.23 -0.1 C2.17 0.51, 4.34 0.3, 5.8 0.48 M0.12 0.26 C2.32 0.04, 4.3 0.16, 6.42 0.02 M7.03 -1.24 C7.81 3.94, 7.19 8.73, 4.99 17.74 M5.8 -0.84 C6.83 6.09, 6.39 10.92, 6.59 18.32 M5.82 17.88 C4.4 18.33, 2.48 17.64, -0.01 18.47 M6.08 17.94 C4.81 18.01, 3.19 18.23, 0.01 17.73 M-0.91 19.45 C-0.8 11.74, -1.07 4.11, 1.31 -1.18 M-0.55 18.3 C-0.75 14.93, -0.73 10.68, -0.81 -0.8" stroke="#ffffff" stroke-width="1" fill="none"></path></g><g stroke-linecap="round" transform="translate(56.77493476581617 139.69345516828253) rotate(32.80570578836789 7.371545360284529 4.781054691706686)"><path d="M1.4 -0.17 L16.74 -1.29 L15.91 9.08 L1.95 10.96" stroke="none" stroke-width="0" fill="#ffffff"></path><path d="M0.38 1.17 C5.13 0.72, 7.43 1.13, 14.95 0.5 M0.73 0.2 C6.15 0.35, 11.04 -0.07, 14.26 -0.55 M15.58 -0.15 C15.28 3.7, 14.04 6.98, 14.69 9.54 M14.99 0.42 C14.69 3.64, 14.8 7.12, 14.65 9.27 M14.33 10.54 C10.59 8.93, 7.83 10.76, -0.58 8.78 M14.96 9.58 C9.4 10.08, 3.46 9.04, 0.4 9.95 M-0.37 9.65 C-0.47 5.3, 0.74 1.59, -0.85 -0.01 M-0.4 9.97 C-0.33 6.67, -0.37 3.03, 0.44 -0.03" stroke="#ffffff" stroke-width="1" fill="none"></path></g><g stroke-linecap="round" transform="translate(73.19587727195835 150.77868672158456) rotate(22.92578712695523 8.393519858193713 3.797644275226048)"><path d="M1.99 -1.29 L17.95 -0.48 L18.74 8.99 L0.12 6.98" stroke="none" stroke-width="0" fill="#ffffff"></path><path d="M0.85 0.79 C3.28 1.12, 9.79 0.44, 17.98 0.63 M0.78 0.53 C6.52 0.01, 12.27 -0.67, 17.38 0.3 M17.19 0.12 C16.27 1.67, 16.81 3.49, 17.26 7.11 M16.8 0.14 C16.92 1.73, 16.75 2.91, 16.53 7.26 M15.97 6.89 C11.91 9.09, 6.44 6.81, 1.4 6.05 M17.14 8.19 C11.84 7.01, 7.3 8.04, 0.71 7.17 M-0.41 7.13 C0.58 4.18, -0.65 1.76, 0.14 -0.47 M-0.31 7.72 C-0.28 4.68, 0.42 2.42, 0.27 -0.03" stroke="#ffffff" stroke-width="1" fill="none"></path></g><g stroke-linecap="round" transform="translate(67.65260374957688 147.67245071349862) rotate(0 4.864931564313451 2.348583150093873)"><path d="M0.78 -0.32 L11.03 0.93 L9.81 4.29 L0.88 3.58" stroke="none" stroke-width="0" fill="#ffffff"></path><path d="M-0.58 0.49 C3.79 0.19, 7.85 0.21, 10.26 0.64 M0.04 0.02 C2.98 -0.28, 6.61 0.08, 9.51 0.28 M9.49 -0.04 C9.73 1.33, 9.94 2.47, 9.44 4.86 M9.77 0.06 C9.7 1.73, 9.63 3.51, 9.71 4.65 M9.71 5.23 C5.9 4.32, 3.14 4.07, -0.02 4.89 M9.74 4.47 C6.97 4.91, 4.12 4.58, 0.27 4.57 M0.23 4.49 C-0.26 3.25, 0.08 1.6, 0.12 -0.26 M-0.14 4.56 C0.17 2.88, 0.13 1.07, 0.16 -0.1" stroke="#ffffff" stroke-width="1" fill="none"></path></g><g stroke-linecap="round" transform="translate(71.53704401922482 152.0858633211983) rotate(0 2.3355656419660704 1.400049133535049)"><path d="M1.3 0.93 L4.75 -0.41 L5.55 1.68 L0.2 3.2" stroke="none" stroke-width="0" fill="#ffffff"></path><path d="M0.04 0.11 C1.84 0.09, 3.5 0.28, 4.76 0.29 M-0.1 -0.12 C1.81 0.05, 3.29 0.13, 4.65 0.08 M4.66 0 C4.77 0.77, 4.48 1.87, 4.84 2.8 M4.65 -0.06 C4.61 0.86, 4.66 1.86, 4.73 2.75 M4.55 2.63 C3.73 2.54, 2.25 2.92, 0.01 2.93 M4.76 2.88 C3.07 2.7, 1.33 2.72, 0.01 2.72 M-0.17 2.8 C0.02 2.02, 0.06 1.31, 0.16 -0.15 M0.09 2.79 C0.08 1.86, 0.11 0.88, 0.05 -0.02" stroke="#ffffff" stroke-width="1" fill="none"></path></g><g stroke-linecap="round" transform="translate(69.16240281505202 151.02757169342567) rotate(0 2.4324677019753267 1.7614412022076067)"><path d="M0.08 -0.41 L5.74 -1.12 L5.06 3.92 L-1.28 3.51" stroke="none" stroke-width="0" fill="#ffffff"></path><path d="M0.23 0.12 C2.09 0.31, 3.74 0.29, 5.07 0.04 M0.11 0.06 C1.38 0.17, 2.95 0.11, 4.89 -0.12 M5.01 -0.15 C4.64 1.14, 5.07 2.04, 4.95 3.58 M4.79 -0.1 C4.85 1.17, 4.94 2.35, 4.82 3.52 M5.14 3.22 C2.99 3.6, 1.15 3.64, 0.23 3.53 M5 3.44 C3.88 3.48, 2.64 3.45, -0.1 3.64 M0.04 3.38 C0.11 2.5, 0.22 1.68, 0.08 -0.21 M0.08 3.51 C0.1 2.7, 0.05 2.01, 0.11 0.08" stroke="#ffffff" stroke-width="1" fill="none"></path></g><g stroke-linecap="round" transform="translate(74.56638431648048 69.71037211630573) rotate(340.22601175025204 8.123704862919737 2.146906794624556)"><path d="M1.32 -1.67 L16.54 0.6 L14.32 4.28 L1.13 5.73" stroke="none" stroke-width="0" fill="#ffffff"></path><path d="M1.33 1.6 C5.88 1.44, 11.9 0.15, 16.35 -1.06 M-0.56 0.71 C3.54 0.37, 7.46 -0.68, 16.15 -0.04 M15.85 0.22 C16.65 1.29, 16.43 2.66, 16.42 4.21 M16.22 -0.06 C16.36 0.93, 16.13 2.05, 16.42 4.21 M16.19 4.78 C12.27 4.84, 9.39 4.2, -1.13 5.18 M16.93 3.98 C10.59 3.77, 4.29 4.8, -0.53 3.57 M0.17 3.93 C0.36 2.66, 0.13 1.33, -0.38 0.4 M0.21 4.15 C0.09 2.98, 0.18 1.92, 0.01 -0.07" stroke="#ffffff" stroke-width="1" fill="none"></path></g><g stroke-linecap="round" transform="translate(84.40589602396881 66.98166290237441) rotate(341.03704763151956 8.315104927654602 2.1840953136979806)"><path d="M0.3 0.6 L14.7 -0.02 L17.76 5.8 L-1.39 3.3" stroke="none" stroke-width="0" fill="#ffffff"></path><path d="M0.46 1.54 C6.67 0.05, 11.33 -1.25, 15.39 1.17 M-0.13 0.44 C5.73 -0.79, 11.09 -0.19, 16.61 0.52 M17.02 0.01 C16.75 1.14, 16.77 1.98, 16.37 4.08 M16.78 -0.11 C16.53 0.92, 16.8 1.77, 16.51 4.55 M16.67 5.08 C14.36 4.47, 8.55 5.33, 0.87 5.77 M16.7 3.92 C11.97 4.91, 7.79 3.56, -0.01 4.53 M0.37 4.01 C0.12 2.93, -0.41 2.69, -0.02 0.3 M0.13 4.32 C0.17 3.25, -0.03 1.76, 0.14 -0.18" stroke="#ffffff" stroke-width="1" fill="none"></path></g><g stroke-linecap="round" transform="translate(134.93725190376608 64.10197111821344) rotate(24.274412644032612 1.461102218686733 4.383323377112447)"><path d="M-1.28 -0.01 L3.68 0.96 L2 8.05 L0.98 8.27" stroke="none" stroke-width="0" fill="#ffffff"></path><path d="M0.12 0.03 C1.18 -0.14, 2.19 0.12, 2.99 -0.13 M0.02 -0.08 C1.12 -0.02, 2.26 0.05, 2.86 -0.09 M3.14 0.14 C3.21 2.97, 2.62 5.76, 2.41 8.7 M2.8 -0.01 C3.2 2.27, 2.81 5.02, 2.65 8.76 M3.06 8.77 C1.82 8.88, 1.1 8.94, -0.1 8.93 M2.86 8.84 C2.1 8.67, 1.4 8.77, -0.06 8.8 M0.19 8.24 C-0.57 7.41, -0.08 5.38, -0.05 0.58 M0.29 8.97 C-0.02 6.61, 0.16 4.4, 0.04 0.09" stroke="#ffffff" stroke-width="1" fill="none"></path></g><g stroke-linecap="round" transform="translate(139.5976537369895 73.31017500506005) rotate(0 11.641633987407374 7.450037343635358)"><path d="M1.13 1.44 L21.89 -1.07 L24.76 14.16 L-0.27 14.73" stroke="none" stroke-width="0" fill="#ffffff"></path><path d="M0.12 -1.3 C7.65 1.38, 19 -1.41, 25.03 -0.31 M-0.12 -0.05 C8.19 0.8, 15.78 -0.75, 23.79 0.89 M23.9 -0.28 C22.44 3.51, 22.04 8.83, 22.87 15.89 M23.9 -0.3 C22.82 4.37, 22.54 7.47, 23.5 14.92 M21.89 15.99 C16.36 16.59, 6.32 16.58, -0.78 15.07 M22.63 14.01 C17.55 15.26, 11.22 15.46, -0.84 15.75 M-1.33 16.28 C-0.13 12.69, -0.18 9.88, -0.96 0.87 M0.04 14.67 C0.35 10.16, -0.04 6.9, -0.72 -0.01" stroke="#ffffff" stroke-width="1" fill="none"></path></g><g stroke-linecap="round" transform="translate(79.04987048505973 140.44485048274237) rotate(313.68811282851414 3.561450243903664 2.0090260013516854)"><path d="M-0.93 -0.71 L8.11 -0.5 L6.94 3.91 L1.05 4.37" stroke="none" stroke-width="0" fill="#ffffff"></path><path d="M-0.35 0.34 C2.4 -0.3, 4.88 -0.04, 7.37 0.08 M-0.01 0.15 C1.44 -0.22, 3.3 0.21, 7.13 0.09 M6.96 -0.18 C6.9 1.27, 7.06 2.78, 6.99 3.91 M7.05 0.11 C7.02 1.19, 7.18 2.4, 7.18 4.11 M7.37 4.42 C4.72 4.44, 2.62 4.09, -0.26 3.73 M7.12 4.06 C4.32 4.07, 1.61 4.18, -0.19 4.09 M-0.02 4.2 C0 3.44, -0.15 2.49, -0.06 0.26 M0.09 3.91 C0.02 2.57, -0.13 1.05, 0.08 0.1" stroke="#ffffff" stroke-width="1" fill="none"></path></g><g stroke-linecap="round" transform="translate(85.80748287740653 137.34001871868986) rotate(23.860160588755342 6.209709510996561 3.835407954973107)"><path d="M1.47 -0.74 L12.14 -0.17 L13.99 8.19 L-1.37 9.12" stroke="none" stroke-width="0" fill="#ffffff"></path><path d="M0.45 -0.86 C4 -0.28, 6.49 0.12, 11.46 -0.15 M-0.4 -0.58 C3.98 0.47, 7.34 0.15, 12.57 0.26 M11.75 -0.09 C12.16 2.67, 12 4, 12.4 8.3 M12.07 -0.01 C12.49 2.01, 12.54 4.27, 12.43 7.4 M11.79 8.71 C7.53 7.88, 2.94 7.01, 0.9 6.85 M12.04 7.91 C9.28 8.22, 6.68 7.89, -0.56 7.12 M-0.07 8.43 C-0.49 5.1, -0.18 2.39, 0.53 0.05 M0.06 7.79 C-0.42 5.6, 0.17 3.81, -0.27 -0.2" stroke="#ffffff" stroke-width="1" fill="none"></path></g><g stroke-linecap="round" transform="translate(165.25522744809064 140.810138578202) rotate(0 8.127417668746034 2.648255086829977)"><path d="M-0.27 -0.17 L17.83 0.52 L14.88 6.74 L1.08 4.08" stroke="none" stroke-width="0" fill="#ffffff"></path><path d="M1.42 -0.25 C6.88 0.38, 10.8 -0.08, 16.17 -0.04 M0.41 0.72 C5.91 0.45, 11.97 0.49, 16.1 -0.49 M16.11 0.35 C15.95 1.01, 16.2 2.91, 16.04 5.01 M16.33 0.01 C16.32 2.22, 16.22 3.88, 16.4 5.44 M15.62 5.44 C9.13 4.43, 4.95 4.36, -1.45 5.29 M15.57 5.99 C10.41 5.62, 5.15 4.63, 0.75 5.25 M-0.34 5.6 C-0.12 3.86, 0.37 1.41, -0.16 0.35 M-0.26 5.29 C0.14 4.34, -0.19 2.86, 0.2 -0.1" stroke="#ffffff" stroke-width="1" fill="none"></path></g><g stroke-linecap="round" transform="translate(114.84700861130068 145.92400470413213) rotate(0 2.9222211584253728 2.5569414234905707)"><path d="M4.05 0.35 L4.93 3.96 L3.72 4.31 L-0.72 2.08" stroke="none" stroke-width="0" fill="#ffffff" fill-rule="evenodd"></path><path d="M3.15 0.05 C3.46 0.66, 4.32 1.38, 6.02 2.82 M3 0.05 C3.63 0.66, 4.16 1.14, 5.75 2.88 M5.73 2.9 C5.02 3.82, 4.11 4.11, 3.2 4.9 M5.89 3.08 C5.01 3.54, 4.23 4.31, 3.1 5.05 M2.87 4.96 C2.03 4.14, 0.49 3.49, 0.05 2.85 M2.9 5.15 C1.88 4.3, 1.09 3.69, 0.09 2.99 M-0.07 3.28 C1.41 1.81, 2.32 0.78, 2.76 0.04 M0.08 3.1 C0.91 1.93, 2.1 0.97, 2.98 -0.01" stroke="#ffffff" stroke-width="1" fill="none"></path></g><g stroke-linecap="round" transform="translate(122.5178245212469 137.8879174197773) rotate(0 9.040604465293768 4.109365666042777)"><path d="M-1.37 1.44 L19.17 -1.21 L17 6.84 L1.07 8.92" stroke="none" stroke-width="0" fill="#ffffff"></path><path d="M-1.39 -0.21 C5.05 -0.08, 11.41 -1.18, 16.39 0.92 M0.21 0.37 C6.86 -0.61, 13.45 -0.86, 17.98 -0.25 M18.06 0.68 C17.72 2.58, 18.73 5.27, 18.05 8.46 M18.1 -0.29 C18.34 2.7, 18.46 4.76, 18.42 8.06 M19.4 7.03 C10.88 8.1, 7.26 6.99, 0.71 6.7 M17.26 7.41 C11.96 8.23, 4.79 8.2, 0.9 7.63 M0.57 8.27 C-0.23 5.82, -0.67 2.45, 0.25 -0.79 M-0.29 8 C0.26 5.61, -0.1 3.27, 0.32 0.11" stroke="#ffffff" stroke-width="1" fill="none"></path></g><g stroke-linecap="round" transform="translate(138.77265985873896 72.68598218523312) rotate(0 11.232266153849935 1.735064110019266)"><path d="M1.08 -1.21 L21.39 -1.38 L23.54 4.17 L0.63 3.76" stroke="none" stroke-width="0" fill="#ffffff"></path><path d="M-0.1 -0.05 C8.35 -1.25, 12.35 1.05, 24.24 0.05 M-0.19 -0.6 C6.91 -0.96, 15.03 -0.37, 23.13 -0.48 M22.33 -0.18 C22.75 0.58, 22.45 1.9, 22.47 3.62 M22.56 0.09 C22.61 1.2, 22.61 2.51, 22.48 3.38 M20.68 3.46 C17.49 2.09, 12.54 1.65, 1.7 1.84 M23.39 3.41 C15.7 3.18, 8.54 2.62, 0.58 3.23 M-0.11 3.7 C-0.31 2.14, 0.08 0.38, 0 0.2 M0.13 3.41 C0 2.17, 0.16 0.93, -0.12 0.13" stroke="#ffffff" stroke-width="1" fill="none"></path></g><g stroke-linecap="round" transform="translate(137.4941849667307 66.4762684939742) rotate(16.568797252504837 5.844433956324792 4.109365666042777)"><path d="M-1.08 -1.38 L12.76 0.7 L12.32 8.51 L-1.99 8.21" stroke="none" stroke-width="0" fill="#ffffff"></path><path d="M0.73 -0.75 C2.28 0.6, 7.78 0.03, 12.12 0.28 M-0.39 -0.51 C3.92 -0.09, 8.36 -0.21, 11.44 -0.01 M12.38 -0.76 C11.63 3.39, 11.67 6.63, 12.28 8.25 M12.03 -0.21 C12.08 1.73, 11.77 3.56, 11.44 8.52 M11.91 7.5 C9.41 7.24, 7.2 7.26, 0.38 7.16 M12.1 8.17 C9.81 7.83, 7.1 8.07, 0.57 8.63 M-0.69 8.34 C0.27 4.91, 0.02 3.65, 0.59 -0.57 M-0.06 8.18 C0.26 6.3, -0.34 4.46, 0.22 -0.25" stroke="#ffffff" stroke-width="1" fill="none"></path></g><g stroke-linecap="round" transform="translate(148.2698493617811 69.94639671401183) rotate(21.903181201354343 5.205196510320604 3.7440901113709515)"><path d="M1.07 0.7 L11.04 0.29 L8.42 7.48 L-1.83 7" stroke="none" stroke-width="0" fill="#ffffff"></path><path d="M-0.97 0.53 C4.02 0.09, 6.58 0.31, 10.84 -0.19 M-0.06 -0.14 C2.84 -0.16, 4.77 0.08, 10.84 -0.21 M10.38 0.22 C10.49 2.17, 11.01 3.72, 9.89 7.9 M10.72 -0.15 C10.51 2.44, 10.24 5.55, 10.16 7.15 M10.82 6.62 C8.18 6.57, 4.51 6.48, -0.93 8.45 M10.93 7.15 C7.65 7.35, 4.79 7.84, 0.03 7.33 M0.23 6.77 C0.06 5.17, 0.6 1.49, -0.4 0.55 M0.29 7.59 C-0.25 5.79, 0.21 3.32, -0.2 -0.26" stroke="#ffffff" stroke-width="1" fill="none"></path></g><g stroke-linecap="round" transform="translate(121.23936635029031 144.28025843771502) rotate(352.5685932475972 8.218731332085326 2.374301556023511)"><path d="M0.63 0.29 L14.45 -0.01 L14.61 4.26 L1.78 4.26" stroke="none" stroke-width="0" fill="#ffffff"></path><path d="M1.46 0.04 C4.49 0.31, 8.44 -0.39, 15.45 -1.1 M0.55 -0.4 C3.15 0.03, 7.67 -0.28, 16 0.69 M16.45 0.2 C16.77 1, 16.1 2.24, 16.69 5.15 M16.46 -0.13 C16.33 1.36, 16.32 2.16, 16.44 4.79 M17.83 3.41 C13.05 3.12, 7.14 6.14, -0.09 5.9 M16.92 4.55 C12.45 5.21, 6.91 4.39, 0.54 4.06 M0 5.02 C0.33 2.92, -0.27 2.11, -0.18 -0.07 M-0.16 4.92 C0.09 3.22, -0.17 1.81, 0.13 0.08" stroke="#ffffff" stroke-width="1" fill="none"></path></g><g stroke-linecap="round" transform="translate(157.31194816553966 75.78106084319916) rotate(328.7357674589115 6.108082722907284 11.102805431141405)"><path d="M-1.99 -0.01 L10.39 -0.49 L13.99 21.71 L-1.62 21.61" stroke="none" stroke-width="0" fill="#ffffff"></path><path d="M0.45 0.29 C4.79 -0.23, 7.84 -0.82, 11.15 -0.14 M-0.26 -0.01 C3.83 -0.18, 6.32 0.57, 11.65 -0.02 M13.64 0.07 C10.83 8.42, 13.27 16.33, 11.2 23.88 M11.6 0.73 C11.58 4.9, 12.23 11.78, 11.6 22.6 M12.61 21.1 C8.48 23.24, 6.86 22.96, -0.11 23.42 M12.81 22.63 C9.38 21.99, 6.87 21.67, 0.09 22.39 M1.44 20.82 C-1.07 19.16, -0.74 12.89, -0.17 1.57 M0.54 21.6 C-0.39 14.27, 0.69 8.07, 0.32 0.15" stroke="#ffffff" stroke-width="1" fill="none"></path></g><g stroke-linecap="round" transform="translate(164.78346089827596 93.12143333910444) rotate(340.8033069343085 6.118391667394349 11.170764491151658)"><path d="M-1.83 -0.49 L14.01 -0.49 L10.62 21.74 L1.65 23.52" stroke="none" stroke-width="0" fill="#ffffff"></path><path d="M0.5 -0.23 C2.96 -0.85, 6.33 -0.17, 11.9 0.82 M0.5 -0.24 C2.75 0.51, 5.6 -0.02, 12.42 0.01 M10.84 1.09 C13.45 9.34, 11.38 16.98, 11.46 22.52 M11.58 -0.89 C12.09 5.68, 11.48 11.38, 11.4 23.19 M11.14 23.48 C9.49 23.08, 6.78 23.45, -0.79 23.05 M12.27 22.15 C9.26 21.92, 5.57 22.61, -0.59 22.34 M-1.07 23.82 C-0.9 14.1, -0.33 7.98, 0.52 -1.37 M-0.54 21.65 C0.42 14.37, 0.19 5.86, -0.99 0" stroke="#ffffff" stroke-width="1" fill="none"></path></g><g stroke-linecap="round" transform="translate(174.49263243991345 112.9007133318737) rotate(353.8191751213598 3.1048568456296834 6.309943172298517)"><path d="M1.78 -0.49 L4.59 -0.6 L7.86 13.79 L-1.51 11.81" stroke="none" stroke-width="0" fill="#ffffff"></path><path d="M-0.37 -0.42 C1.47 -0.06, 3.85 0.43, 5.91 -0.26 M-0.17 0.26 C1.56 0.01, 3.79 0.03, 6.34 0.22 M6.87 1.06 C5.48 4.88, 5.63 7.77, 5.53 11.84 M6.21 0.12 C5.74 4.95, 5.6 9.95, 5.69 12.82 M6.17 13.05 C4.85 13.3, 3.21 13.04, -0.15 13.23 M6.41 12.36 C3.96 12.69, 1.32 12.6, 0.18 12.84 M-0.47 12.45 C-0.04 10.7, 0.4 5.94, 0.91 0.68 M0.34 12.84 C0.27 9.69, -0.56 6.58, -0.58 -0.15" stroke="#ffffff" stroke-width="1" fill="none"></path></g><g stroke-linecap="round" transform="translate(176.83646624509424 122.65751548280696) rotate(0 2.3367982702442873 10.172138211712536)"><path d="M-1.62 -0.6 L6.32 1.18 L3.17 19.54 L0.32 20.36" stroke="none" stroke-width="0" fill="#ffffff"></path><path d="M-0.41 -0.05 C1.19 0.34, 2.4 -0.16, 4.66 0.38 M-0.21 -0.01 C1.29 -0.03, 2.53 0.13, 4.68 -0.16 M3.66 1.67 C4 7.39, 3.7 13.2, 6.13 19.03 M4.06 0.39 C3.83 5.13, 3.86 8.89, 3.77 19.45 M4.63 20.81 C2.54 20.65, 0.89 20.83, 0.33 20.37 M4.71 20.41 C3.19 20.3, 2.29 20.47, -0.16 20.22 M-0.17 21.92 C0.6 11.37, 1.52 6.22, -1.21 -1.08 M0.32 20.49 C-1.1 15.64, -1.02 10.71, 0.89 -0.25" stroke="#ffffff" stroke-width="1" fill="none"></path></g><g stroke-linecap="round" transform="translate(153.20108816103198 141.54068132702014) rotate(328.5860030819621 2.4656193996255524 3.378814556699126)"><path d="M1.1 0.78 L3.93 -0.54 L5.14 6.77 L0.1 6.89" stroke="none" stroke-width="0" fill="#ffffff"></path><path d="M-0.09 0.22 C0.99 -0.13, 2.29 0.27, 4.8 -0.18 M0.05 0 C1.96 0.12, 3.79 -0.11, 5.02 0.09 M4.76 0.04 C4.66 2.32, 5.24 4.89, 4.53 6.75 M4.74 0.19 C4.72 2.23, 4.7 4.11, 5.14 6.74 M4.72 6.95 C3.03 7.11, 1.51 6.81, -0.1 6.97 M4.77 6.76 C3.96 6.89, 2.68 6.68, 0.12 6.7 M0.12 6.45 C0.33 5.07, -0.27 2.65, -0.31 0.24 M-0.22 6.76 C-0.22 4.44, 0.19 2.18, -0.18 -0.07" stroke="#ffffff" stroke-width="1" fill="none"></path></g><g stroke-linecap="round" transform="translate(163.4299599711585 143.85944979368378) rotate(327.05938318901144 7.7621379338114025 3.707449726689447)"><path d="M-1.51 -0.81 L15.84 0.01 L15.67 7.61 L-0.13 5.55" stroke="none" stroke-width="0" fill="#ffffff"></path><path d="M-0.75 -0.65 C4.44 1.17, 8.33 -0.93, 16.82 -1.43 M0.33 0.55 C4.62 -0.54, 9.62 0.4, 16.18 -0.39 M15.12 -0.46 C16.04 2.36, 14.83 5.68, 15.67 6.96 M15.22 0.12 C15.13 2.18, 15.81 5.01, 15.78 7.38 M15.15 8.93 C10.4 7.6, 2.64 8.53, -1.3 7.64 M15.96 7.97 C9.86 7, 5.85 7.13, -0.11 7.35 M0.54 7.82 C-0.47 4.21, -0.53 2.2, 0.26 0.23 M-0.34 7.32 C0.4 4.99, -0.23 2.64, 0.31 0.22" stroke="#ffffff" stroke-width="1" fill="none"></path></g><g stroke-linecap="round" transform="translate(147.79731024735634 153.00250944584513) rotate(336.3146591944679 8.94131627001974 2.9035228371931225)"><path d="M0.32 0.01 L18.03 0.2 L17.76 3.94 L-0.61 5.64" stroke="none" stroke-width="0" fill="#ffffff"></path><path d="M-0.04 1.47 C5.85 -0.88, 14.61 -1.57, 17.82 0.53 M0.03 -0.62 C5.89 0.34, 11.56 -0.58, 18.63 -0.35 M18.31 -0.38 C17.33 1.79, 17.96 3.23, 18.11 5.32 M17.62 -0.26 C18.1 2.22, 18.04 4.45, 18.17 5.62 M19.13 5.91 C10.93 7.16, 3.58 6.25, 0.54 4.08 M17.26 5.33 C13.19 5.6, 7.06 5.86, 0.7 6.04 M-0.35 5.49 C-0.44 4.78, 0.16 3.3, 0.09 -0.58 M0.26 5.74 C-0.18 3.98, 0.29 2.5, -0.22 -0.12" stroke="#ffffff" stroke-width="1" fill="none"></path></g><g stroke-linecap="round" transform="translate(136.39837084350438 143.36707164116797) rotate(339.60508452873086 5.022552462590454 1.2784665314820813)"><path d="M0.15 0.2 L9.92 -1.87 L9.44 2.39 L-0.17 1.31" stroke="none" stroke-width="0" fill="#ffffff"></path><path d="M-0.4 -0.53 C3.43 -1.01, 5.15 0.22, 10.07 0.43 M0.27 0.26 C4.15 -0.18, 7.88 -0.13, 10.09 -0.27 M9.82 0 C10.11 0.45, 10.16 1.01, 10.26 2.35 M10.16 -0.01 C10.11 0.84, 10.15 1.62, 10.12 2.53 M9.74 3.22 C5.21 2.71, 2.36 1.6, -0.01 3.13 M10.42 2.37 C6.24 2.46, 2.97 2.63, -0.35 2.92 M-0.18 2.69 C0.1 1.73, 0.05 0.49, 0 -0.23 M-0.1 2.52 C0.08 1.93, -0.12 1.1, 0.02 0" stroke="#ffffff" stroke-width="1" fill="none"></path></g><g stroke-linecap="round" transform="translate(100.23593626127717 145.74137737745423) rotate(13.28478262062903 7.396858198876714 1.6437420861539067)"><path d="M-0.13 -1.87 L14.19 -0.17 L14.62 2.04 L0.69 4.89" stroke="none" stroke-width="0" fill="#ffffff"></path><path d="M1.24 -1.36 C5.6 0.52, 11.34 0.71, 15.85 0.05 M0.62 -0.37 C4.02 -0.37, 6.88 -0.48, 14.34 0.54 M14.86 -0.2 C14.89 0.49, 15.04 1.27, 14.9 2.99 M14.91 -0.01 C14.99 0.59, 14.92 1.35, 14.95 3.4 M13.56 3.51 C10.71 1.96, 5.73 4.22, 1.06 2.26 M14.69 3.23 C11.73 3.43, 6.99 3.77, 0.4 2.84 M0.11 3.39 C0.07 2.15, 0.02 1.37, -0.08 0.29 M0.14 3.38 C-0.1 2.32, 0.05 1.48, 0.01 0.02" stroke="#ffffff" stroke-width="1" fill="none"></path></g><g stroke-linecap="round" transform="translate(114.6643812846221 146.65456417400128) rotate(0 3.926721618312456 1.9177039774867808)"><path d="M-0.4 -0.11 L7.74 -0.83 L8.31 4.91 L-0.61 3.95" stroke="none" stroke-width="0" fill="#ffffff"></path><path d="M-0.02 0.16 C1.95 0.27, 4.25 0.07, 7.49 0.29 M0.22 -0.1 C2.79 -0.12, 5.37 0.22, 7.68 -0.23 M7.95 -0.21 C8.08 0.94, 7.94 2.06, 7.63 4.07 M7.98 -0.08 C7.95 1.1, 8 2.35, 7.86 3.8 M8.01 3.33 C4.98 4.14, 2.48 3.48, -0.28 4.22 M8.06 3.9 C5.61 4.02, 3.87 3.67, -0.14 3.65 M0.04 3.58 C-0.01 2.25, -0.07 1.35, -0.06 -0.21 M-0.1 3.78 C0 2.8, -0.01 1.78, -0.01 -0.12" stroke="#ffffff" stroke-width="1" fill="none"></path></g></svg>