<?xml version="1.0" standalone="no"?>
<!DOCTYPE svg PUBLIC "-//W3C//DTD SVG 1.1//EN" "http://www.w3.org/Graphics/SVG/1.1/DTD/svg11.dtd">
<svg version="1.1" xmlns="http://www.w3.org/2000/svg" viewBox="0 0 159.43836113665384 180.57814497842264" width="159.43836113665384" height="180.57814497842264"><!-- svg-source:excalidraw --><metadata></metadata><defs><style class="style-fonts">
      </style></defs><g stroke-linecap="round"><g transform="translate(11.966602552682161 11.91582665779788) rotate(0 68.02008126603505 78.0685023621536)" fill-rule="evenodd"><path d="M0.16 2.85 L134.96 -3.06 L122.45 138.28 L65.2 155.46 L11.78 140.92 L-2.94 -3.18" stroke="none" stroke-width="0" fill="#e44d26" fill-rule="evenodd"></path><path d="M3.56 -1.41 C37.19 -2.43, 73.58 -2.36, 132.42 3.07 M-0.31 -1.32 C29 -1.14, 54.94 2.04, 134.73 -1.18 M137.47 -0.2 C127.69 32.89, 130.48 62.3, 127.69 135.22 M135.14 0 C135.79 32.27, 133.39 68.15, 124.5 137.48 M127.72 139.8 C101.63 144.45, 78.61 153.17, 70.06 152.93 M125.69 136.95 C109.25 142.6, 92.51 146.9, 67.04 158.11 M69.97 158.66 C45.63 152.42, 30.71 143.23, 8.02 142.12 M70.28 158.37 C51.8 150.97, 30.54 144.18, 9.41 138.34 M9 138.5 C2.98 105.18, 4.61 77.26, -1.97 -1.87 M8.6 141.01 C8.63 106.19, 4.22 72.41, 1.93 -1.6 M0 0 C0 0, 0 0, 0 0 M0 0 C0 0, 0 0, 0 0" stroke="#e44d26" stroke-width="1" fill="none"></path></g></g><mask></mask><g stroke-linecap="round"><g transform="translate(78.05429514638627 23.510158691780816) rotate(0 29.56554668665717 63.57558731967447)" fill-rule="evenodd"><path d="M1.82 2.56 L1.76 128.8 L51.42 112.88 L58.25 -4.28 L2.35 -1.89" stroke="none" stroke-width="0" fill="#f16529" fill-rule="evenodd"></path><path d="M-0.62 0.38 C1.76 51.42, 1.72 105.32, 0.01 125.93 M1.28 -1.82 C0.15 36.1, 0.37 68.7, 2.63 126.69 M0.18 128.71 C20.74 120.43, 36.43 115.98, 50.12 115.61 M5.54 126.72 C19.15 123.81, 29.29 119.17, 53.82 113.87 M49.86 114.24 C49.37 88.26, 55.77 55.33, 58.13 -4.13 M51.43 114.61 C52.28 89.04, 53.78 66.12, 59.68 -1.07 M55.21 0.31 C43.77 -2.48, 25.59 2.19, 0.7 3.57 M61.09 -1.73 C40.62 -1.91, 22.77 -1.16, -1.48 0.68 M0 0 C0 0, 0 0, 0 0 M0 0 C0 0, 0 0, 0 0" stroke="#f16529" stroke-width="1" fill="none"></path></g></g><mask></mask><g stroke-linecap="round"><g transform="translate(112.44849754242796 28.11199394801679) rotate(0 -31.182239501732738 50.71051070483827)" fill-rule="evenodd"><path d="M0.07 2.75 L0.81 12.88 L-40.05 15.19 L-41.58 35.4 L-2.98 36.96 L1.61 89.46 L-30.84 104.91 L-60.56 88.78 L-65.94 65.78 L-47.85 67.17 L-50.7 74.22 L-30.96 88.45 L-11.14 72.14 L-9.89 48.22 L-62.56 50.87 L-61.27 -3.45 L-1.53 -3.78" stroke="none" stroke-width="0" fill="#fff" fill-rule="evenodd"></path><path d="M-2.87 3.05 C-3.8 2.99, -2.31 9.27, -3.98 17.78 M-1.04 -0.32 C-1.45 2.03, -0.54 7.18, -1.66 14.29 M-0.19 12.22 C-16.27 15.31, -27.42 12.1, -40.04 17.2 M-3.38 14.48 C-9.03 14.27, -20.66 15.63, -41.05 12.7 M-40.42 10.22 C-43.17 16.38, -45.71 23.77, -46.12 30.76 M-43.18 14.96 C-41.76 19.25, -43.24 25.02, -42.03 30.33 M-44.87 34.34 C-27.49 37.65, -13.46 38.54, 3.55 40.46 M-43.48 30.57 C-32.55 34.85, -19.98 34.85, -0.07 34.61 M-1.34 34.66 C-2.15 50.04, -2.86 57.68, 2.21 94.02 M2.56 34.94 C1.87 49.82, 1.16 65.44, -1.05 90.33 M-3.12 92.43 C-10.14 92.82, -13.97 98.5, -31.48 100.95 M0.71 88.62 C-6.73 94.13, -14.31 94.29, -30.75 101.19 M-27.96 98.48 C-37.92 98.82, -37.44 96.71, -56.76 88.7 M-29.75 102.12 C-37.66 97.5, -41.2 97.67, -57.86 90.99 M-58.82 88.47 C-56.79 81.69, -64.04 66.36, -60.46 60.76 M-54.92 92.38 C-60.65 82.75, -61.04 71.86, -63.15 64.53 M-61.68 61.75 C-60.18 64.65, -54.12 63.9, -49.41 61.25 M-63.34 63.78 C-58.17 63.26, -57.2 62.79, -46.55 64.03 M-48.2 65.4 C-46.62 70.64, -45.35 74.1, -46.56 79.06 M-48.87 64.6 C-47.17 68.55, -46.13 73.25, -46.51 77.27 M-49.91 79.93 C-40.68 81.83, -37.27 84.46, -30.38 91.16 M-48.68 79.51 C-40.67 81.58, -38.1 83.43, -30.38 85.73 M-26.49 88.83 C-26.04 79.58, -12.96 78.96, -11.66 77.57 M-31.9 89.32 C-24.04 83.54, -19.24 78.06, -9.94 72.74 M-10.3 73.31 C-8.95 64.54, -11.36 63.55, -12.27 51.8 M-12.34 74.55 C-11.16 64.78, -13.09 57.14, -14.42 49.88 M-9.18 49.2 C-25.03 48.85, -45.35 51.53, -59.36 46.6 M-11.83 50.98 C-25.96 48.89, -40.59 47.9, -63.69 47.57 M-63.01 46.33 C-59.31 32.1, -58.08 11.46, -61.88 -2.81 M-61.14 47.77 C-59.13 34.91, -59.02 21.22, -58.55 -0.46 M-56.45 0.14 C-38.85 0.66, -16.96 2.86, 2.39 2.17 M-58.45 -0.22 C-44.61 0.2, -27.39 -1.68, 0.43 -1.71 M0 0 C0 0, 0 0, 0 0 M0 0 C0 0, 0 0, 0 0" stroke="#0000" stroke-width="1" fill="none"></path></g></g><mask></mask></svg>