<?xml version="1.0" standalone="no"?>
<!DOCTYPE svg PUBLIC "-//W3C//DTD SVG 1.1//EN" "http://www.w3.org/Graphics/SVG/1.1/DTD/svg11.dtd">
<svg version="1.1" xmlns="http://www.w3.org/2000/svg" viewBox="0 0 150.63116419456037 172.07569397691805" width="150.63116419456037" height="172.07569397691805"><!-- svg-source:excalidraw --><metadata></metadata><defs><style class="style-fonts">
      </style></defs><g stroke-linecap="round"><g transform="translate(13.198056448251009 12.52469051274511) rotate(0 63.90595090459601 73.34660274277485)" fill-rule="evenodd"><path d="M1.49 1.88 L130.12 -0.71 L119.17 128.51 L65.98 146.42 L9.7 130.09 L-3.85 -1.82" stroke="none" stroke-width="0" fill="#e7c62f" fill-rule="evenodd"></path><path d="M-3.2 2.62 C39.88 3.24, 86.43 -1.17, 127.43 2.51 M0.17 0.61 C44.59 1.14, 88.68 -0.02, 126.59 -2.3 M125.98 0.54 C129.12 28.74, 120.17 64.01, 119.57 128.07 M126.72 -2.52 C124.18 47.25, 118.15 90.8, 117.66 131.99 M115.81 131 C101.39 136.13, 88.26 140.74, 66.28 149.55 M118.03 131.08 C106.26 134.95, 93.28 139.65, 62.74 149.13 M66.05 144.26 C51.03 143.1, 29.77 137.13, 5.76 133.64 M65.95 147.47 C45.02 143.21, 24.6 136.05, 10.85 130.11 M12.13 134.23 C5.65 94.69, 3.23 47.86, 3.22 1.63 M7.58 131.29 C4.53 86.95, 3.32 44.91, 1.27 -1.23 M0 0 C0 0, 0 0, 0 0 M0 0 C0 0, 0 0, 0 0" stroke="#e7c62f" stroke-width="1" fill="none"></path></g></g><mask></mask><g stroke-linecap="round"><g transform="translate(75.28849738396548 23.417750326028) rotate(0 27.777302523872663 59.73027797617078)" fill-rule="evenodd"><path d="M0.68 -2.4 L0.05 119.42 L48.42 107.77 L56.92 -4.11 L-1.74 3.38" stroke="none" stroke-width="0" fill="#fedd25" fill-rule="evenodd"></path><path d="M-1.79 3.8 C2.29 37.25, -0.04 78.54, 5.39 124.24 M0.62 1.94 C2.11 39.72, 1.32 75.85, 2.53 121.04 M6.61 118.06 C9.95 118.18, 24.66 112.46, 51.13 105.47 M4.89 122.42 C12.47 117.68, 23.35 117.32, 47.89 106.41 M45.38 108.97 C48.99 71.75, 56.58 34.66, 53.73 2 M50.31 107.86 C53.47 73.16, 51.71 39.45, 55.64 -1.59 M58.66 -0.28 C38.88 -1.97, 21.25 0.83, 1.87 -0.72 M55.02 0.79 C39.84 -0.54, 29.17 -1.84, 0.22 0.22 M0 0 C0 0, 0 0, 0 0 M0 0 C0 0, 0 0, 0 0" stroke="#fedd25" stroke-width="1" fill="none"></path></g></g><mask></mask><g stroke-linecap="round"><g transform="translate(49.407496723295935 34.93583514432885) rotate(0 -3.994937891073846 46.16372674129752)" fill-rule="evenodd"><path d="M1.68 0.34 L14.4 1.6 L12.83 94.66 L-22.63 86.88 L-22.99 69.83 L-1.37 71.33 L-3.13 3.7" stroke="none" stroke-width="0" fill="#fff" fill-rule="evenodd"></path><path d="M-0.29 2.44 C7.29 2.81, 12.56 0.29, 16.02 0.94 M-0.92 -1.18 C5.16 0.21, 10.73 -0.84, 15.57 1.13 M16.29 -2.28 C15.52 19.58, 10.35 41.72, 11.5 94.84 M14.38 1.64 C12.63 34.89, 14.67 71.36, 15.42 90.51 M16.74 94.46 C0.89 93.1, -8.95 86.7, -21.64 86.92 M13.2 94.04 C3.53 89.57, -8.54 88.37, -24.66 85.89 M-26.19 86.19 C-21.39 78.33, -24.64 75.75, -23 66.57 M-21.89 83.22 C-22.58 77.87, -21.13 72.18, -21.91 67.23 M-19.86 69.1 C-11.7 69.95, 0.51 68.95, 1.47 69.89 M-21.82 66.24 C-15.08 69.48, -8.97 69.29, -0.01 73.12 M-1.24 71.94 C4.68 53.24, -1.98 31.33, 1.01 2.22 M3.53 75.09 C3.32 57.62, 3.32 39.69, 0.4 -0.92 M0 0 C0 0, 0 0, 0 0 M0 0 C0 0, 0 0, 0 0" stroke="#0000" stroke-width="1" fill="none"></path></g></g><mask></mask><g stroke-linecap="round"><g transform="translate(120.42861478683062 38.486891047506106) rotate(0 -21.30633541906036 42.61267083812072)" fill-rule="evenodd"><path d="M0.09 -3.09 L-44.34 0.45 L-41.67 48.62 L-15.83 46.64 L-16.68 60.24 L-42.4 69.19 L-37.38 87.54 L-5.02 76.11 L-3.64 31.56 L-31.5 29.93 L-28.23 18.8 L-0.11 10.98 L-1.45 0.9" stroke="none" stroke-width="0" fill="#fff" fill-rule="evenodd"></path><path d="M1.76 3.69 C-11.53 1.03, -23.54 1.93, -38.74 1.48 M-1.1 0.49 C-16.61 -1.58, -29.28 0.82, -43.86 -1.83 M-40.5 -2.38 C-45.04 13.06, -45.23 32.99, -37.79 45.17 M-43.74 -1.43 C-41.76 11.09, -42.07 22.94, -40.96 46.21 M-43.35 51.15 C-32.71 46.2, -24.15 48.53, -17.99 49.29 M-41.44 47.55 C-34.45 47.49, -28.04 47.47, -17.62 44.65 M-16.41 44.71 C-20.55 52.66, -19.22 54.51, -16.41 59.41 M-17.83 45.52 C-16.61 51.86, -17.61 55.83, -17.95 62.54 M-18.22 62.31 C-21.17 60.82, -30.56 62.58, -41.9 69.94 M-18.55 63.27 C-27.43 63.89, -37.76 67.31, -41.27 69.78 M-38.36 70.23 C-42.94 74.69, -39.61 81.84, -41.89 82.68 M-40.4 70.54 C-39.44 74.44, -39.66 78.35, -39.23 84.84 M-41.56 81.53 C-26.7 87.24, -24.25 78.7, -9.78 79.06 M-40.39 85 C-26.09 84.71, -14.99 80.5, -7.35 79.96 M-5.86 80.24 C-4.65 66.09, -3.45 49.02, -5.63 27.69 M-8.69 79.71 C-7.71 61.53, -5.84 42.52, -4.26 30.67 M-3.14 28.05 C-15.38 29.92, -24.89 28.7, -27.39 28.44 M-3.18 29.73 C-7.02 32.21, -16.28 29.85, -29.11 31.51 M-28.89 31.29 C-30.31 25.3, -27.6 18.46, -29.69 16.41 M-29.69 31.33 C-29.21 25.99, -30.74 19.22, -28.54 15.91 M-29.22 12.19 C-22.57 15.4, -9.9 15.04, 1.44 17.31 M-30.98 16.34 C-24.88 13.95, -18.41 16.23, -2.19 15.98 M-2.76 14.15 C-0.37 7.83, -1.09 2.67, -0.45 0.41 M-3.22 14.04 C-2.98 8.03, 0.34 5.19, -0.13 0.25 M0 0 C0 0, 0 0, 0 0 M0 0 C0 0, 0 0, 0 0" stroke="#0000" stroke-width="1" fill="none"></path></g></g><mask></mask></svg>