<?xml version="1.0" standalone="no"?>
<!DOCTYPE svg PUBLIC "-//W3C//DTD SVG 1.1//EN" "http://www.w3.org/Graphics/SVG/1.1/DTD/svg11.dtd">
<svg version="1.1" xmlns="http://www.w3.org/2000/svg" viewBox="0 0 220.0000000000001 220" width="220.0000000000001" height="220"><!-- svg-source:excalidraw --><metadata></metadata><defs><style class="style-fonts">
      </style></defs><g stroke-linecap="round" transform="translate(10 10) rotate(0 100.00000000000006 100)"><path d="M-0.11 2.4 L198.46 -0.78 L196.75 202.49 L3.36 203.89" stroke="none" stroke-width="0" fill="#f08c00"></path><path d="M1.84 -2.87 C76.77 -4.96, 158.88 -6.41, 203.13 -0.01 M0.92 -1.11 C47.57 3.07, 94.31 2.95, 200.57 1.26 M201.06 1.22 C202.49 82.98, 205.25 161.29, 202.18 199.48 M198.3 0.22 C203.3 67.2, 204.98 133.17, 201.2 199.03 M196.87 198.21 C131.31 203.32, 58.11 200.26, 0.52 202.22 M200.34 200.55 C135.19 201.87, 73.98 202.29, 1.59 199.92 M-2.48 197.44 C6.13 154.11, 5.32 108.3, 1.45 -0.19 M-0.53 200 C-4.59 129.23, -2.81 61.8, 0.24 1.74" stroke="#f08c00" stroke-width="1" fill="none"></path></g><g stroke-linecap="round" transform="translate(28.18181818181813 28.181818181818016) rotate(0 81.81818181818187 81.81818181818198)"><path d="M-1.54 -0.78 L160.38 2.49 L167 167.53 L-1.31 164.7" stroke="none" stroke-width="0" fill="#1e1e1e"></path><path d="M-2.67 -1.6 C65.68 -0.61, 133.66 2.6, 161.06 -0.48 M0.48 -0.53 C33 1.36, 66.52 3.43, 165.59 1.73 M162.94 3.88 C166.97 54.63, 167.03 103.55, 165.13 167.48 M163.46 -0.28 C162.25 38.39, 161.89 79.56, 164.72 163.62 M166.03 167.57 C115.36 162.55, 68.1 164.47, 0.71 167.24 M162.24 163.17 C105.38 164.63, 46.49 164.54, -1.4 161.96 M3.46 163.8 C4.82 110.86, 3.87 57.05, 1.85 3.33 M-1.77 161.95 C1.17 110.5, 1.22 58.62, -0.06 1.2" stroke="#f08c00" stroke-width="1" fill="none"></path></g><g stroke-linecap="round" transform="translate(46.36363636363626 46.36363636363603) rotate(0 61.64401904396385 61.64401904396391)"><path d="M42.18 2.83 C50.66 -0.32, 63.69 -0.38, 73.67 1.39 C83.65 3.15, 94.46 7.64, 102.06 13.43 C109.67 19.22, 115.85 27.63, 119.3 36.11 C122.75 44.6, 123.41 54.39, 122.75 64.33 C122.09 74.26, 119.96 87.43, 115.33 95.72 C110.71 104, 103.31 109.59, 94.98 114.05 C86.64 118.5, 75.18 121.74, 65.31 122.47 C55.44 123.2, 44.77 122.51, 35.77 118.42 C26.76 114.33, 17.25 105.48, 11.29 97.9 C5.32 90.33, 1.35 82.19, -0.02 72.97 C-1.39 63.75, -0.18 51.92, 3.09 42.6 C6.36 33.29, 6.46 23.43, 19.59 17.08 C32.72 10.74, 67.22 3.15, 81.88 4.54 C96.54 5.92, 108.04 24.68, 107.57 25.4 M39.47 2.05 C47.36 -0.99, 58.5 0.43, 68.48 2.49 C78.46 4.55, 91.07 9.22, 99.33 14.42 C107.59 19.62, 113.57 25.48, 118.04 33.69 C122.52 41.9, 126.77 54.07, 126.2 63.69 C125.63 73.3, 120.09 82.9, 114.62 91.37 C109.15 99.85, 101.8 109.1, 93.39 114.56 C84.98 120.03, 73.59 123.41, 64.15 124.17 C54.72 124.94, 45.37 123.23, 36.78 119.15 C28.19 115.08, 18.63 107.1, 12.6 99.74 C6.57 92.38, 2.55 84.51, 0.59 75 C-1.37 65.49, -1.66 51.92, 0.86 42.69 C3.38 33.46, 9.12 26.25, 15.71 19.62 C22.29 12.99, 36.24 5.51, 40.39 2.91 C44.53 0.31, 39.5 3.26, 40.6 4.01" stroke="none" stroke-width="0" fill="#f08c00"></path><path d="M15.99 18.61 C21.02 11.62, 31.2 7.03, 40.28 4.15 C49.35 1.27, 60.77 -0.09, 70.43 1.3 C80.09 2.69, 90.53 6.72, 98.25 12.49 C105.97 18.27, 112.33 27.02, 116.73 35.97 C121.13 44.92, 124.64 56.71, 124.64 66.21 C124.63 75.71, 121.62 84.9, 116.69 92.95 C111.77 100.99, 103.5 109.14, 95.07 114.49 C86.64 119.84, 75.55 124.19, 66.12 125.04 C56.7 125.89, 47.06 123.72, 38.54 119.59 C30.02 115.45, 21.12 107.54, 15.02 100.24 C8.93 92.93, 4.24 85.39, 1.96 75.76 C-0.31 66.14, -4.02 54.06, 1.4 42.48 C6.82 30.9, 25.66 12.79, 34.46 6.26 C43.26 -0.26, 54.1 2.19, 54.19 3.36 M29.76 6.16 C36.56 1.02, 46.6 2.03, 56.66 1.89 C66.72 1.76, 81.1 1.64, 90.11 5.37 C99.12 9.09, 105.04 16.59, 110.72 24.25 C116.4 31.9, 122.1 41.65, 124.17 51.3 C126.24 60.94, 126.22 72.94, 123.13 82.11 C120.04 91.28, 113.21 100.01, 105.63 106.31 C98.05 112.6, 86.58 117.22, 77.66 119.87 C68.74 122.53, 60.7 123.91, 52.1 122.25 C43.51 120.58, 34.24 116.24, 26.1 109.9 C17.95 103.56, 7.44 93.26, 3.24 84.21 C-0.96 75.17, 0.27 64.3, 0.88 55.62 C1.48 46.94, 2.01 39.64, 6.88 32.15 C11.74 24.66, 26.07 14.21, 30.08 10.69 C34.08 7.17, 30.41 10.24, 30.9 11.03" stroke="#f08c00" stroke-width="1" fill="none"></path></g><g stroke-linecap="round" transform="translate(72.82081638391276 47.02901370851487) rotate(0 54.65611800975887 54.23980467362799)"><path d="M95.1 15.99 C101.13 21.95, 104.39 33.75, 106.38 42.92 C108.37 52.1, 109.22 62.46, 107.05 71.02 C104.88 79.59, 99.95 88.41, 93.36 94.32 C86.76 100.23, 76.76 104.81, 67.47 106.47 C58.18 108.13, 46.29 106.62, 37.62 104.28 C28.95 101.93, 21.19 98.93, 15.46 92.4 C9.72 85.88, 5.25 74.35, 3.19 65.11 C1.14 55.88, 0.68 45.35, 3.13 36.98 C5.57 28.61, 11.44 21.08, 17.85 14.91 C24.26 8.74, 32.82 1.87, 41.57 -0.05 C50.33 -1.98, 59.24 -3.86, 70.37 3.37 C81.5 10.61, 102.36 32.02, 108.35 43.34 C114.34 54.67, 106.95 70.85, 106.3 71.33 M14.29 16.85 C19.2 9.38, 29.25 2.85, 37.48 0.05 C45.7 -2.75, 55.15 -2.55, 63.64 0.07 C72.13 2.68, 81.12 9.14, 88.42 15.76 C95.72 22.37, 104.03 31.69, 107.44 39.77 C110.84 47.86, 110.39 55.83, 108.84 64.26 C107.29 72.69, 104.44 83.56, 98.12 90.33 C91.8 97.11, 80.3 101.92, 70.92 104.89 C61.53 107.85, 51.08 109.7, 41.82 108.14 C32.57 106.58, 22.06 101.62, 15.39 95.53 C8.72 89.44, 4.4 80.54, 1.82 71.59 C-0.77 62.64, -2.08 50.63, -0.14 41.82 C1.81 33.01, 11.22 22.93, 13.48 18.74 C15.74 14.54, 12.87 16.08, 13.42 16.63" stroke="none" stroke-width="0" fill="#1e1e1e"></path><path d="M52.52 1.02 C61.18 0.33, 72.47 3.34, 80.61 7.67 C88.75 12.01, 96.7 19.19, 101.38 27.03 C106.05 34.87, 108.3 45.36, 108.65 54.71 C109 64.07, 107.61 75.37, 103.47 83.17 C99.34 90.97, 91.86 97.17, 83.85 101.5 C75.84 105.83, 64.86 108.87, 55.41 109.15 C45.95 109.44, 34.92 107.63, 27.12 103.23 C19.32 98.84, 12.9 90.97, 8.59 82.78 C4.27 74.59, 1.31 63.04, 1.21 54.11 C1.11 45.17, 3.84 37.28, 7.99 29.18 C12.14 21.07, 14.34 9.46, 26.12 5.46 C37.9 1.47, 66.95 2.3, 78.67 5.22 C90.38 8.14, 97.17 21.93, 96.41 23 M26.37 5.11 C32.87 0.33, 42.64 1.54, 52.27 1.8 C61.9 2.06, 75.88 2.5, 84.16 6.67 C92.44 10.83, 97.44 18.92, 101.94 26.79 C106.44 34.66, 110.62 44.6, 111.15 53.89 C111.68 63.17, 109.77 74.53, 105.13 82.49 C100.49 90.45, 91.93 97.46, 83.32 101.67 C74.7 105.89, 62.35 107.78, 53.45 107.78 C44.55 107.78, 37.07 105.96, 29.9 101.66 C22.73 97.36, 15.76 90.17, 10.43 82 C5.1 73.82, -1.62 61.97, -2.09 52.61 C-2.55 43.25, 3.21 32.87, 7.63 25.82 C12.05 18.77, 21.16 12.85, 24.42 10.31 C27.69 7.77, 26.37 10.02, 27.24 10.57" stroke="#1e1e1e" stroke-width="1" fill="none"></path></g></svg>