<?xml version="1.0" standalone="no"?>
<!DOCTYPE svg PUBLIC "-//W3C//DTD SVG 1.1//EN" "http://www.w3.org/Graphics/SVG/1.1/DTD/svg11.dtd">
<svg version="1.1" xmlns="http://www.w3.org/2000/svg" viewBox="0 0 181.36639022644317 243.65305999748216" width="181.36639022644317" height="243.65305999748216"><!-- svg-source:excalidraw --><metadata></metadata><defs><style class="style-fonts">
      </style></defs><g stroke-linecap="round"><g transform="translate(12.945661386491338 113.94118458132743) rotate(0 19.000128470773006 -0.3486287726714181)"><path d="M-0.62 -0.46 C11.77 0.07, 23.41 -1.66, 39 -0.06 M-0.35 -0.86 C11.25 0.18, 23.28 -0.79, 38.19 -0.57" stroke="#1e1e1e" stroke-width="2" fill="none"></path></g></g><mask></mask><g stroke-linecap="round"><g transform="translate(51.294523162453515 79.77582020091177) rotate(0 8.192724291560012 0.3486287726714181)"><path d="M0.31 0.43 C6.46 -0.53, 12.72 1.07, 16.67 2.16 M-0.66 0.44 C4.77 0.19, 11.08 0.71, 17.02 0.99" stroke="#1e1e1e" stroke-width="2" fill="none"></path></g></g><mask></mask><g stroke-linecap="round" transform="translate(52.60474006620052 78.96145173332843) rotate(0 38.3420358571135 38.34203585711339)"><path d="M19.17 0 C31.48 3.77, 42.8 3.37, 57.51 0 C72.68 -3.48, 78.21 2.89, 76.68 19.17 C74.29 30.76, 77.5 36.95, 76.68 57.51 C74.46 70.57, 68.93 75.72, 57.51 76.68 C43.99 73.53, 45.17 79.01, 19.17 76.68 C10.95 75.92, -5.6 66.85, 0 57.51 C-0.25 44.7, 3.38 29.89, 0 19.17 C-2.86 9.78, 9.79 0.46, 19.17 0" stroke="none" stroke-width="0" fill="#dce2e9"></path><path d="M19.17 0 C31.02 -2.2, 42.39 1.07, 57.51 0 M19.17 0 C30.65 -1.97, 41.89 0.81, 57.51 0 M57.51 0 C66.94 -0.87, 77.44 6.91, 76.68 19.17 M57.51 0 C73.88 1.63, 73.11 3.5, 76.68 19.17 M76.68 19.17 C79.37 29.98, 80.09 47.96, 76.68 57.51 M76.68 19.17 C77.29 30.69, 76.66 42.31, 76.68 57.51 M76.68 57.51 C79.3 69.29, 69.32 79.79, 57.51 76.68 M76.68 57.51 C77.16 74.73, 67.65 76.35, 57.51 76.68 M57.51 76.68 C47.84 80.11, 30.32 77.19, 19.17 76.68 M57.51 76.68 C43.4 78.32, 29.83 75.52, 19.17 76.68 M19.17 76.68 C8.73 79.95, 0.95 69.85, 0 57.51 M19.17 76.68 C6.05 78.27, -2.43 71.87, 0 57.51 M0 57.51 C-3.09 46.08, 3.03 34.72, 0 19.17 M0 57.51 C-1.47 50.25, -0.47 39.14, 0 19.17 M0 19.17 C-3 6.51, 3.1 -2.86, 19.17 0 M0 19.17 C-3.44 8.07, 2 3.8, 19.17 0" stroke="#dce2e9" stroke-width="2" fill="none"></path></g><g stroke-linecap="round" transform="translate(11.313316835462956 78.96145173332843) rotate(0 23.59509898899296 17.696324241744605)"><path d="M8.85 0 C23.27 3.71, 34.66 -4.19, 38.34 0 C45.77 -3.5, 44.04 0.49, 47.19 8.85 C48.16 11.96, 45.05 16.95, 47.19 26.54 C45.82 31.48, 39.96 34.38, 38.34 35.39 C37.07 38.41, 30.77 34.31, 8.85 35.39 C-2.65 31.95, 1.37 33.18, 0 26.54 C3.12 19.16, -2.52 19.63, 0 8.85 C3.4 3.41, 6.09 1.07, 8.85 0" stroke="none" stroke-width="0" fill="#dce2e9"></path><path d="M8.85 0 C20.46 1.57, 28.78 3.87, 38.34 0 M8.85 0 C17.06 1.57, 26.84 0.07, 38.34 0 M38.34 0 C44.99 0.52, 50.31 4.37, 47.19 8.85 M38.34 0 C40.66 -2.89, 49.48 2.17, 47.19 8.85 M47.19 8.85 C50.57 16.22, 46.65 21.57, 47.19 26.54 M47.19 8.85 C46.93 17.37, 48.4 22.17, 47.19 26.54 M47.19 26.54 C46.21 35.55, 44.65 39.25, 38.34 35.39 M47.19 26.54 C44.55 32.1, 44.74 37.91, 38.34 35.39 M38.34 35.39 C25.83 36.31, 22.33 35.9, 8.85 35.39 M38.34 35.39 C27.24 34.04, 17.84 37.36, 8.85 35.39 M8.85 35.39 C3.9 34.95, -0.29 33.82, 0 26.54 M8.85 35.39 C0.52 36.97, 1.49 31.73, 0 26.54 M0 26.54 C2.86 24.56, -2.05 16.16, 0 8.85 M0 26.54 C-0.41 20.67, -1 15.62, 0 8.85 M0 8.85 C-3.29 0.09, -0.04 1.46, 8.85 0 M0 8.85 C-4.39 6.75, 1.69 -2.08, 8.85 0" stroke="#dce2e9" stroke-width="2" fill="none"></path></g><g stroke-linecap="round" transform="translate(123.3900370331794 78.96145173332843) rotate(0 23.59509898899296 17.696324241744605)"><path d="M8.85 0 C22.61 -4.13, 33.14 -4.15, 38.34 0 C41.1 -2.46, 42.83 1.02, 47.19 8.85 C45.34 15.11, 46.09 20.03, 47.19 26.54 C42.9 31.43, 38.96 30.44, 38.34 35.39 C35.18 35.12, 17.3 32.44, 8.85 35.39 C4.32 36.13, -1.11 32.34, 0 26.54 C-2.84 24.35, 2.7 16.57, 0 8.85 C3.14 4.02, -0.59 0.95, 8.85 0" stroke="none" stroke-width="0" fill="#dce2e9"></path><path d="M8.85 0 C16.92 3.38, 24.93 -1.57, 38.34 0 M8.85 0 C13.49 -0.75, 21.87 -0.05, 38.34 0 M38.34 0 C47.36 1.42, 44.08 0.44, 47.19 8.85 M38.34 0 C46.53 -0.78, 48.02 6.19, 47.19 8.85 M47.19 8.85 C46.71 14.48, 50.65 17.67, 47.19 26.54 M47.19 8.85 C48.29 14.49, 46.7 22.4, 47.19 26.54 M47.19 26.54 C47.6 36.3, 41.94 35.1, 38.34 35.39 M47.19 26.54 C47.69 34.96, 44.72 37.98, 38.34 35.39 M38.34 35.39 C29.33 35.47, 18.41 34.65, 8.85 35.39 M38.34 35.39 C29.01 36.53, 17.81 34.68, 8.85 35.39 M8.85 35.39 C2.65 36.77, -2.12 33.81, 0 26.54 M8.85 35.39 C4.44 34.68, -2.45 28.75, 0 26.54 M0 26.54 C-2.6 19.01, 0.11 11.54, 0 8.85 M0 26.54 C-1.18 19.78, -1.31 11.64, 0 8.85 M0 8.85 C-2.99 4.41, -0.87 3.3, 8.85 0 M0 8.85 C-1.26 0.87, 7.42 1.52, 8.85 0" stroke="#dce2e9" stroke-width="2" fill="none"></path></g><g stroke-linecap="round" transform="translate(11.313316835462956 114.35410021681855) rotate(0 20.645711615368782 20.645711615368782)"><path d="M10.32 0 C19.67 -3.14, 22.82 -2.1, 30.97 0 C33.49 -1.93, 43.54 4.73, 41.29 10.32 C39.69 15.22, 36.78 21.02, 41.29 30.97 C36.01 32.9, 35.71 46.08, 30.97 41.29 C17.94 37.77, 17.49 41.95, 10.32 41.29 C2.33 41.18, -0.37 41.37, 0 30.97 C3.7 26.24, 3.44 21.67, 0 10.32 C-3.53 4.39, 5.66 4.63, 10.32 0" stroke="none" stroke-width="0" fill="#c29a7e"></path><path d="M10.32 0 C18.51 -1.75, 20.6 -3.6, 30.97 0 M10.32 0 C17.99 0.35, 26.46 0.8, 30.97 0 M30.97 0 C34.74 -2.51, 43.28 2.76, 41.29 10.32 M30.97 0 C38.68 3.24, 38.3 7.51, 41.29 10.32 M41.29 10.32 C44.76 18.11, 42.95 24.05, 41.29 30.97 M41.29 10.32 C41.07 19.99, 41.77 28.47, 41.29 30.97 M41.29 30.97 C38.99 37.56, 38.28 43.48, 30.97 41.29 M41.29 30.97 C41.77 40.44, 41.7 37.43, 30.97 41.29 M30.97 41.29 C27.25 40.48, 20.38 40.76, 10.32 41.29 M30.97 41.29 C26.99 41.41, 21.9 42.32, 10.32 41.29 M10.32 41.29 C1.33 42.66, 1.29 37.23, 0 30.97 M10.32 41.29 C0.99 37.6, 1.5 41.2, 0 30.97 M0 30.97 C0.69 19.73, 3.69 14.15, 0 10.32 M0 30.97 C-1.33 23.79, -1.19 20.21, 0 10.32 M0 10.32 C-3.82 6.74, 2.35 -1.8, 10.32 0 M0 10.32 C4.47 4.96, 7.39 2.23, 10.32 0" stroke="#c29a7e" stroke-width="2" fill="none"></path></g><g stroke-linecap="round" transform="translate(129.2888117804273 114.35410021681855) rotate(0 20.645711615368782 20.645711615368782)"><path d="M10.32 0 C12.09 -2.1, 15.78 -1.57, 30.97 0 C40.1 1.29, 40.37 1.22, 41.29 10.32 C36.86 15.61, 35.87 17.96, 41.29 30.97 C39.15 42.64, 41.19 45.85, 30.97 41.29 C26.43 41.67, 18.04 40.83, 10.32 41.29 C3.07 44.81, -2.74 34.99, 0 30.97 C2.79 24.6, -3.89 17.04, 0 10.32 C2.21 8.07, -0.71 0.77, 10.32 0" stroke="none" stroke-width="0" fill="#c29a7e"></path><path d="M10.32 0 C14.93 -3.09, 28.52 -3.22, 30.97 0 M10.32 0 C17.62 0.65, 20.25 -1.31, 30.97 0 M30.97 0 C39.84 -0.68, 42.01 6.26, 41.29 10.32 M30.97 0 C34.86 4.07, 43.56 2.41, 41.29 10.32 M41.29 10.32 C43.41 16.68, 45.37 27.05, 41.29 30.97 M41.29 10.32 C41.4 17.93, 40.04 21.53, 41.29 30.97 M41.29 30.97 C41.72 40.04, 38.27 43.54, 30.97 41.29 M41.29 30.97 C45.14 33.99, 38.34 43.94, 30.97 41.29 M30.97 41.29 C27.01 40.68, 15.21 43.55, 10.32 41.29 M30.97 41.29 C22.94 41.93, 14.15 41.93, 10.32 41.29 M10.32 41.29 C4.73 40.67, -2.13 34.64, 0 30.97 M10.32 41.29 C4.94 44.64, 3.1 34.81, 0 30.97 M0 30.97 C3.37 24.09, -0.91 17.51, 0 10.32 M0 30.97 C-1.16 25.44, -1.57 20.1, 0 10.32 M0 10.32 C-1.09 1.64, 7.33 1.32, 10.32 0 M0 10.32 C3.95 5.67, 7.07 1.96, 10.32 0" stroke="#c29a7e" stroke-width="2" fill="none"></path></g><g stroke-linecap="round"><g transform="translate(52.60474006620052 78.96145173332843) rotate(0 0 38.34203585711339)"><path d="M-2.26 1.49 C-2.49 14.57, -2.82 63.48, -2.35 76.07 M1.7 -0.17 C2.41 13.55, 3.22 65.95, 2.78 79.37" stroke="#1e1e1e" stroke-width="2" fill="none"></path></g></g><mask></mask><g stroke-linecap="round"><g transform="translate(129.2888117804273 78.96145173332843) rotate(0 0 38.34203585711339)"><path d="M-2.35 -0.61 C-1.89 11.98, -0.23 64, 0.53 77.05 M1.57 -3.41 C1.91 9.56, -1.42 68.19, -1.43 80.87" stroke="#1e1e1e" stroke-width="2" fill="none"></path></g></g><mask></mask><g stroke-linecap="round"><g transform="translate(52.60474006620052 78.96145173332843) rotate(0 38.3420358571135 0)"><path d="M0.53 0.36 C14.06 0.63, 66.54 1.35, 78.87 0.99 M-2.63 -1.91 C10.94 -2.45, 64.01 -3.86, 77.81 -3.48" stroke="#1e1e1e" stroke-width="2" fill="none"></path></g></g><mask></mask><g stroke-linecap="round"><g transform="translate(52.60474006620052 155.6455234475543) rotate(0 38.3420358571135 0)"><path d="M2.18 0.99 C14.51 0.64, 61.86 -1.51, 74.51 -1.76 M-0.08 -0.94 C13.07 -1, 66.88 0.36, 79.73 0.92" stroke="#1e1e1e" stroke-width="2" fill="none"></path></g></g><mask></mask><g stroke-linecap="round"><g transform="translate(129.2888117804273 114.35410021681855) rotate(0 20.645711615368782 0)"><path d="M-0.93 -0.75 C5.89 -0.86, 34.81 -0.47, 41.89 -0.2 M0.78 1.47 C7.42 1.51, 34.57 1.65, 41.25 1.23" stroke="#1e1e1e" stroke-width="2" fill="none"></path></g></g><mask></mask><g stroke-linecap="round"><g transform="translate(11.313316835462956 114.35410021681855) rotate(0 20.645711615368782 0)"><path d="M0.6 -0.2 C7.67 0.06, 34.85 0.63, 41.51 0.85 M-0.55 -1.36 C6.47 -1.35, 33.41 -0.94, 40.67 -0.83" stroke="#1e1e1e" stroke-width="2" fill="none"></path></g></g><mask></mask><g stroke-linecap="round"><g transform="translate(11.313316835462956 78.96145173332843) rotate(0 20.645711615368782 0)"><path d="M0.22 0.85 C6.87 1.06, 33.57 1.25, 40.51 1.06 M-1.13 0.24 C5.85 0.16, 35.72 -0.62, 42.81 -0.5" stroke="#1e1e1e" stroke-width="2" fill="none"></path></g></g><mask></mask><g stroke-linecap="round"><g transform="translate(129.2888117804273 78.96145173332843) rotate(0 20.645711615368782 0)"><path d="M-0.78 1.06 C6.16 0.88, 34.79 -0.27, 41.88 -0.27 M1.01 0.57 C7.83 0.49, 34.53 1.34, 41.25 1.13" stroke="#1e1e1e" stroke-width="2" fill="none"></path></g></g><mask></mask><g stroke-linecap="round"><g transform="translate(11.313316835462956 78.96145173332843) rotate(0 0 38.34203585711339)"><path d="M1.38 -0.63 C1.88 12.16, 1.33 66.09, 1.17 79.18 M-1.31 -3.44 C-0.92 9.83, -0.46 62.77, -0.44 75.52" stroke="#1e1e1e" stroke-width="2" fill="none"></path></g></g><mask></mask><g stroke-linecap="round"><g transform="translate(11.313316835462956 155.6455234475543) rotate(0 20.645711615368782 0)"><path d="M0.5 1.07 C7.31 1.2, 34.7 0.52, 41.46 0.53 M-0.7 0.58 C5.92 0.38, 33.79 -1.11, 40.6 -1.32" stroke="#1e1e1e" stroke-width="2" fill="none"></path></g></g><mask></mask><g stroke-linecap="round"><g transform="translate(170.5802350111651 78.96145173332843) rotate(0 0 38.34203585711339)"><path d="M0.4 1.23 C0.13 14.03, -0.72 66.82, -0.48 79.28 M-2.83 -0.57 C-3.62 12.72, -3.63 62.47, -2.99 75.68" stroke="#1e1e1e" stroke-width="2" fill="none"></path></g></g><mask></mask><g stroke-linecap="round"><g transform="translate(129.2888117804273 155.6455234475543) rotate(0 20.645711615368782 0)"><path d="M-0.21 1.11 C6.78 0.97, 35.21 -0.27, 42.08 -0.3 M-1.78 0.65 C5.1 0.65, 34.57 1.34, 41.54 1.08" stroke="#1e1e1e" stroke-width="2" fill="none"></path></g></g><mask></mask><g stroke-linecap="round"><g transform="translate(52.60474006620052 161.54429819480356) rotate(0 0.1591666732701924 34.27840890542984)"><path d="M1.83 -0.7 C1.85 10.65, -0.16 58.74, -0.37 70.73 M-0.61 -3.55 C-0.99 8.25, -2.9 55.11, -2.97 66.91" stroke="#1e1e1e" stroke-width="2" fill="none"></path></g></g><mask></mask><g stroke-linecap="round" transform="translate(52.60474006620052 214.63327092003692) rotate(0 18.04494503499768 7.118971461889032)"><path d="M3.56 0 C10.43 -2.17, 23.01 1.86, 32.53 0 C35.2 2.02, 36.78 -1.09, 36.09 3.56 C35.19 5.99, 35.8 7.88, 36.09 10.68 C38.51 9.62, 34.47 17.08, 32.53 14.24 C28.03 13.62, 18.71 15.73, 3.56 14.24 C-0.16 13.12, -1.43 10.27, 0 10.68 C-0.61 7.74, -0.34 5.73, 0 3.56 C0.34 2.94, -2.09 1.48, 3.56 0" stroke="none" stroke-width="0" fill="#dce2e9"></path><path d="M3.56 0 C15.7 0.28, 26.67 -1.08, 32.53 0 M3.56 0 C12.14 0.4, 21.35 -1, 32.53 0 M32.53 0 C35.12 1.15, 36.09 2.54, 36.09 3.56 M32.53 0 C34.44 1.29, 35.78 -0.75, 36.09 3.56 M36.09 3.56 C36.07 6.06, 36.39 8.29, 36.09 10.68 M36.09 3.56 C35.92 5.65, 36.23 8.58, 36.09 10.68 M36.09 10.68 C37.44 11.73, 33.97 14.44, 32.53 14.24 M36.09 10.68 C33.99 15.02, 33.95 13.74, 32.53 14.24 M32.53 14.24 C24.58 12.5, 20.22 12.09, 3.56 14.24 M32.53 14.24 C22.42 14.44, 11.22 14.59, 3.56 14.24 M3.56 14.24 C2.76 15.09, -1.24 13.6, 0 10.68 M3.56 14.24 C-0.25 12.95, -1.01 11.26, 0 10.68 M0 10.68 C-0.15 8.5, 0.01 6.72, 0 3.56 M0 10.68 C-0.28 8.35, -0.08 6.96, 0 3.56 M0 3.56 C1.19 2.81, 0.91 -2, 3.56 0 M0 3.56 C-1.42 1.75, 1.49 -0.46, 3.56 0" stroke="#1e1e1e" stroke-width="2" fill="none"></path></g><g stroke-linecap="round" transform="translate(87.99738854968973 214.63327092003692) rotate(0 19.613762542891664 7.118971461889032)"><path d="M3.56 0 C17.39 2.48, 27.15 2.32, 35.67 0 C38.73 -2.27, 39.84 2.61, 39.23 3.56 C38.8 6.09, 39.99 7.79, 39.23 10.68 C38.79 15.89, 34.62 13.03, 35.67 14.24 C25.18 15.84, 17.24 13.05, 3.56 14.24 C-0.24 11.46, 2.2 9.7, 0 10.68 C-0.38 8.75, 0.19 7.07, 0 3.56 C-3.28 2.67, 4.05 2.48, 3.56 0" stroke="none" stroke-width="0" fill="#dce2e9"></path><path d="M3.56 0 C14.34 -1.18, 21.11 0.18, 35.67 0 M3.56 0 C15.78 -1.02, 26.44 0.39, 35.67 0 M35.67 0 C38.05 1.35, 38.82 2.31, 39.23 3.56 M35.67 0 C37.74 -1.93, 40.57 3.07, 39.23 3.56 M39.23 3.56 C39.46 5.49, 39.46 8.4, 39.23 10.68 M39.23 3.56 C39.31 5.84, 39.43 7.38, 39.23 10.68 M39.23 10.68 C38.29 13.26, 36.22 15.95, 35.67 14.24 M39.23 10.68 C38.28 12.55, 36.32 14.31, 35.67 14.24 M35.67 14.24 C29.4 12.09, 23.33 13.45, 3.56 14.24 M35.67 14.24 C28.34 14.83, 20.09 14.77, 3.56 14.24 M3.56 14.24 C-0.06 14.78, -1.25 11.93, 0 10.68 M3.56 14.24 C0.18 12.45, -0.79 13.97, 0 10.68 M0 10.68 C0.05 8.21, -0.11 5.54, 0 3.56 M0 10.68 C-0.07 8.98, 0.28 6.95, 0 3.56 M0 3.56 C-0.27 -0.81, -0.04 0.49, 3.56 0 M0 3.56 C0.3 0.73, 1.14 -0.15, 3.56 0" stroke="#1e1e1e" stroke-width="2" fill="none"></path></g><g stroke-linecap="round"><g transform="translate(64.402289560697 14.074929513597453) rotate(0 5.89877474724824 0)"><path d="M-0.69 -0.09 C1.28 -0.17, 9.83 0.53, 11.93 0.66 M1.15 -1.18 C2.96 -1.1, 9.37 -1.1, 11.05 -1.12" stroke="#1e1e1e" stroke-width="2" fill="none"></path></g></g><mask></mask><g stroke-linecap="round"><g transform="translate(64.402289560697 14.074929513597453) rotate(0 2.949387373624063 2.9493873736241767)"><path d="M0.08 0.41 C1.15 1.48, 4.9 5.51, 5.98 6.32 M-0.79 -0.03 C0.22 0.82, 4.23 4.25, 5.42 5.21" stroke="#1e1e1e" stroke-width="2" fill="none"></path></g></g><mask></mask><g stroke-linecap="round"><g transform="translate(58.503514813448646 19.973704260845807) rotate(0 8.848162120872303 0)"><path d="M0.12 0.67 C3.22 0.4, 15.75 -1.01, 18.7 -1.01 M-1.27 -0.02 C1.74 -0.24, 15.21 0.21, 18.28 0" stroke="#1e1e1e" stroke-width="2" fill="none"></path></g></g><mask></mask><g stroke-linecap="round"><g transform="translate(52.60474006620052 25.87247900809416) rotate(0 5.89877474724824 -2.9493873736241767)"><path d="M1 -1.01 C2.97 -1.99, 10.13 -4.53, 11.93 -5.21 M0.07 1.08 C1.88 -0.31, 9.22 -5.62, 11.05 -6.97" stroke="#1e1e1e" stroke-width="2" fill="none"></path></g></g><mask></mask><g stroke-linecap="round"><g transform="translate(52.60474006620052 25.87247900809416) rotate(0 11.79754949449648 0)"><path d="M0.13 0.69 C3.89 0.99, 19.73 0.81, 23.6 0.81 M-1.26 0.01 C2.26 0.06, 18.7 -0.67, 22.65 -0.89" stroke="#1e1e1e" stroke-width="2" fill="none"></path></g></g><mask></mask><g stroke-linecap="round"><g transform="translate(52.60474006620052 43.56880324983922) rotate(0 8.848162120872303 -8.84816212087253)"><path d="M0.01 1.89 C2.81 -1.07, 14.24 -12.47, 17.13 -16.13 M-3.43 0.45 C-1.08 -3.47, 11.46 -17.17, 14.59 -20.28" stroke="#1e1e1e" stroke-width="2" fill="none"></path></g></g><mask></mask><g stroke-linecap="round"><g transform="translate(52.60474006620052 49.467577997086664) rotate(0 11.79754949449648 -5.898774747248353)"><path d="M-0.24 0.67 C3.66 -1.6, 19.35 -10.89, 23.44 -12.81 M-1.83 -0.02 C1.9 -2.24, 18.12 -9.69, 22.4 -11.8" stroke="#1e1e1e" stroke-width="2" fill="none"></path></g></g><mask></mask><g stroke-linecap="round"><g transform="translate(62.0452308774054 44.39985889180207) rotate(0 4.899647608368468 -9.263689941853954)"><path d="M-0.16 -1.01 C1.63 -4.04, 8.79 -14.6, 10.5 -17.55 M-1.7 1.08 C0.01 -2.34, 8.06 -16.07, 9.92 -19.15" stroke="#1e1e1e" stroke-width="2" fill="none"></path></g><g transform="translate(62.0452308774054 44.39985889180207) rotate(0 4.899647608368468 -9.263689941853954)"><path d="M7.11 -8.24 C9.33 -11.48, 8.9 -14.69, 10.28 -19.71 M7.71 -9.27 C8.78 -11.91, 9.6 -16.08, 9.68 -19.1" stroke="#1e1e1e" stroke-width="2" fill="none"></path></g><g transform="translate(62.0452308774054 44.39985889180207) rotate(0 4.899647608368468 -9.263689941853954)"><path d="M0.94 -11.89 C4.91 -14.1, 6.2 -16.29, 10.28 -19.71 M1.54 -12.93 C4.68 -14.33, 7.57 -17.28, 9.68 -19.1" stroke="#1e1e1e" stroke-width="2" fill="none"></path></g></g><mask></mask><g stroke-linecap="round"><g transform="translate(46.705965318952394 43.56880324983922) rotate(0 8.848162120872303 -8.84816212087253)"><path d="M1.64 2.29 C4.76 -0.32, 15.72 -14.83, 18.36 -18 M-0.91 1.06 C1.93 -0.88, 13.74 -10.74, 16.49 -14.54" stroke="#1e1e1e" stroke-width="2" fill="none"></path></g></g><mask></mask><g stroke-linecap="round"><g transform="translate(93.89616329693808 14.074929513597453) rotate(0 11.79754949449648 8.84816212087253)"><path d="M0.67 -0.31 C4.29 2.42, 19.81 15.5, 23.39 18.66 M-2.41 -2.94 C0.67 -1.29, 17.39 11.41, 21.04 14.17" stroke="#1e1e1e" stroke-width="2" fill="none"></path></g></g><mask></mask><g stroke-linecap="round"><g transform="translate(111.59248753868292 49.467577997086664) rotate(0 0 -14.746936868120429)"><path d="M-0.09 0.41 C0.74 -1.46, 6.17 -6.37, 5.26 -11.39 C4.36 -16.4, -3.54 -26.5, -5.51 -29.68 M-1.59 -0.42 C-0.39 -2.65, 8.39 -8.62, 7.64 -13.29 C6.9 -17.97, -3.69 -25.7, -6.07 -28.46" stroke="#1e1e1e" stroke-width="2" fill="none"></path></g></g><mask></mask><g stroke-linecap="round" transform="translate(70.30106430794535 43.56880324983922) rotate(0 20.645711615368782 5.898774747248353)"><path d="M2.95 0 C11.78 -1.41, 21.89 -3.07, 38.34 0 C42.51 -3.35, 41.2 -1.07, 41.29 2.95 C41.35 5.07, 40.29 6.59, 41.29 8.85 C44.16 13.29, 40.77 14.48, 38.34 11.8 C24.82 9.13, 10.39 8.25, 2.95 11.8 C1.29 12.04, -1.81 13.38, 0 8.85 C-0.83 6.86, 0.18 5.58, 0 2.95 C-0.94 1.67, 3.94 -0.09, 2.95 0" stroke="none" stroke-width="0" fill="#46415e"></path><path d="M2.95 0 C13.99 0.83, 23.35 -0.88, 38.34 0 M2.95 0 C11.4 -0.92, 18.04 -0.15, 38.34 0 M38.34 0 C38.48 1.71, 40.47 0.55, 41.29 2.95 M38.34 0 C38.59 0.07, 39.4 -0.66, 41.29 2.95 M41.29 2.95 C41.8 4.12, 41.05 6.18, 41.29 8.85 M41.29 2.95 C41.57 5.04, 41.16 6.96, 41.29 8.85 M41.29 8.85 C40.04 9.69, 39.43 10.24, 38.34 11.8 M41.29 8.85 C40.5 11.74, 40.84 11.42, 38.34 11.8 M38.34 11.8 C28.79 10.18, 19.56 9.82, 2.95 11.8 M38.34 11.8 C31.45 12.91, 23.23 11.1, 2.95 11.8 M2.95 11.8 C-0.25 12.29, 0.26 10.42, 0 8.85 M2.95 11.8 C0.94 11.64, 1.44 9.69, 0 8.85 M0 8.85 C0.01 7.71, 0.08 5.54, 0 2.95 M0 8.85 C-0.24 7.02, -0.1 5.06, 0 2.95 M0 2.95 C1.34 -0.92, 0.74 1.58, 2.95 0 M0 2.95 C-2.19 0.21, 0.2 0.92, 2.95 0" stroke="#1e1e1e" stroke-width="2" fill="none"></path></g><g stroke-linecap="round" transform="translate(67.98751569198612 42.34666702717186) rotate(0 22.166575937294965 16.996930784206597)"><path d="M8.5 0 C15.75 -4.09, 30.87 -4.97, 35.83 0 C41.36 -3.2, 42.73 0.85, 44.33 8.5 C40.05 15.81, 48.17 22.48, 44.33 25.5 C45.05 35.34, 45.18 29.96, 35.83 33.99 C25.72 28.44, 22.51 33.87, 8.5 33.99 C0.02 37.98, 3.23 34.48, 0 25.5 C1.42 24.55, -0.89 15.99, 0 8.5 C4.61 2.69, 3.47 0.1, 8.5 0" stroke="none" stroke-width="0" fill="#111924"></path><path d="M8.5 0 C14.63 -2.31, 18.8 1.13, 35.83 0 M8.5 0 C17.76 0.57, 27.06 2.07, 35.83 0 M35.83 0 C39.85 -0.87, 41.34 2.96, 44.33 8.5 M35.83 0 C37.72 -3.29, 40.89 4.51, 44.33 8.5 M44.33 8.5 C43.08 15.28, 45.74 18.37, 44.33 25.5 M44.33 8.5 C43.54 14.89, 43.54 19.39, 44.33 25.5 M44.33 25.5 C42.58 28.04, 40.12 35.6, 35.83 33.99 M44.33 25.5 C45.39 30.4, 39.67 34.22, 35.83 33.99 M35.83 33.99 C27.58 29.8, 17.23 32.04, 8.5 33.99 M35.83 33.99 C25.02 32.44, 13.53 34.93, 8.5 33.99 M8.5 33.99 C3.36 33.2, -0.08 30.89, 0 25.5 M8.5 33.99 C5.72 31.74, -2.35 33.95, 0 25.5 M0 25.5 C0.62 17.22, 0.55 14.58, 0 8.5 M0 25.5 C-0.19 18.73, 1.39 10.87, 0 8.5 M0 8.5 C-0.48 5.99, -0.97 -1.34, 8.5 0 M0 8.5 C-1.57 4.67, 2.27 -2.49, 8.5 0" stroke="#1e1e1e" stroke-width="2" fill="none"></path></g><g stroke-linecap="round" transform="translate(52.60474006620052 157.38865933149373) rotate(0 17.69632424174472 28.622305794271597)"><path d="M8.85 0 C16.64 -4.22, 18.24 -2.45, 26.54 0 C30.84 -1.99, 36.23 3.47, 35.39 8.85 C38.84 26.49, 35.1 40.6, 35.39 48.4 C39.07 50.26, 29.78 56.35, 26.54 57.24 C22.82 57.13, 15.76 60.33, 8.85 57.24 C6.18 60.56, 0.35 50.23, 0 48.4 C-1.71 37.16, 4.36 23.64, 0 8.85 C0.63 3.05, 1.74 2.69, 8.85 0" stroke="none" stroke-width="0" fill="#30211f"></path><path d="M8.85 0 C11.89 1.34, 23.19 2.57, 26.54 0 M8.85 0 C11.37 1.47, 16.4 -0.42, 26.54 0 M26.54 0 C29.45 0.12, 32.11 0.09, 35.39 8.85 M26.54 0 C29 1.67, 31 6.75, 35.39 8.85 M35.39 8.85 C36.36 23.07, 36.97 33.57, 35.39 48.4 M35.39 8.85 C33.65 21.27, 34.02 34.39, 35.39 48.4 M35.39 48.4 C34.02 55.9, 33.36 56.59, 26.54 57.24 M35.39 48.4 C33.57 54.52, 31.32 56.46, 26.54 57.24 M26.54 57.24 C19.46 55.56, 21.66 59.02, 8.85 57.24 M26.54 57.24 C18.71 57.32, 13.28 56.54, 8.85 57.24 M8.85 57.24 C2.87 56.98, 2.51 52.34, 0 48.4 M8.85 57.24 C0.6 60.03, 2.79 54.67, 0 48.4 M0 48.4 C0.53 35.89, 3.15 17.27, 0 8.85 M0 48.4 C1.55 34.08, -0.03 25.16, 0 8.85 M0 8.85 C-3.8 1.6, 1.59 1.6, 8.85 0 M0 8.85 C-0.57 0.46, 5.09 -1.73, 8.85 0" stroke="#372723" stroke-width="2" fill="none"></path></g><g stroke-linecap="round" transform="translate(92.15986929068481 157.89766923467323) rotate(0 17.69632424174472 28.622305794271597)"><path d="M8.85 0 C12.66 -2.37, 15.32 -1.3, 26.54 0 C33.28 0.53, 38.12 -2.15, 35.39 8.85 C36.99 26.52, 39.95 31.8, 35.39 48.4 C32.73 53.4, 28.76 54.03, 26.54 57.24 C20.34 60.81, 21.97 60.22, 8.85 57.24 C3.3 53.18, 0.62 55.56, 0 48.4 C4.89 32.85, 0.92 17.69, 0 8.85 C-1.21 5.63, 5.44 -2.8, 8.85 0" stroke="none" stroke-width="0" fill="#30211f"></path><path d="M8.85 0 C15.79 2.27, 15.24 -1.77, 26.54 0 M8.85 0 C13.61 -0.69, 18.5 -0.25, 26.54 0 M26.54 0 C29.16 -2.86, 32.4 4.41, 35.39 8.85 M26.54 0 C28.05 3.8, 34.14 0.87, 35.39 8.85 M35.39 8.85 C37.59 27.71, 37.36 37.77, 35.39 48.4 M35.39 8.85 C34.02 20.23, 34.21 35.54, 35.39 48.4 M35.39 48.4 C36.31 53.64, 30.85 57.44, 26.54 57.24 M35.39 48.4 C34.27 53.51, 28.92 56.41, 26.54 57.24 M26.54 57.24 C25.93 59.22, 22.15 56.62, 8.85 57.24 M26.54 57.24 C23.24 56.98, 19.43 57.21, 8.85 57.24 M8.85 57.24 C5.46 55.29, -2.04 56.72, 0 48.4 M8.85 57.24 C5.74 57.62, 2.58 55.18, 0 48.4 M0 48.4 C3.17 36.06, 0.42 28.61, 0 8.85 M0 48.4 C-0.77 38.72, -2.43 25.22, 0 8.85 M0 8.85 C-1.36 4.55, 2.46 -2.17, 8.85 0 M0 8.85 C2.14 1.22, 1.52 -1.82, 8.85 0" stroke="#372723" stroke-width="2" fill="none"></path></g><g stroke-linecap="round"><g transform="translate(87.99738854968973 155.6455234475543) rotate(0 0 35.39264848348921)"><path d="M1.89 -1.85 C1.52 9.66, -0.57 58.57, -1.31 71.07 M-0.53 3.32 C-1.48 15.15, -4.83 63.92, -4.25 74.86" stroke="#1e1e1e" stroke-width="2" fill="none"></path></g></g><mask></mask><g stroke-linecap="round"><g transform="translate(52.60474006620052 155.6455234475543) rotate(0 38.3420358571135 0)"><path d="M-1.31 0.29 C10.73 1, 61.32 2.54, 74.13 2.39 M3.18 -2.02 C15.88 -1.89, 67.49 -2.02, 79.15 -1.32" stroke="#1e1e1e" stroke-width="2" fill="none"></path></g></g><mask></mask><g stroke-linecap="round"><g transform="translate(52.60474006620052 155.6455234475543) rotate(0 0 36.27275252033178)"><path d="M-2.55 2.39 C-2.53 14.33, -1.23 60.23, -1.16 71.94 M1.25 1.22 C0.92 13.56, -4.41 62.81, -4.02 75.24" stroke="#1e1e1e" stroke-width="2" fill="none"></path></g></g><mask></mask><g stroke-linecap="round"><g transform="translate(129.2888117804273 155.6455234475543) rotate(0 -1.045878338596026 37.12183914247271)"><path d="M-1.16 -0.61 C-1.43 11.38, -3.65 62.19, -4.19 74.33 M3.41 -3.41 C4.25 10.3, 1.44 65.06, 1.07 78.01" stroke="#1e1e1e" stroke-width="2" fill="none"></path></g></g><mask></mask><g stroke-linecap="round" transform="translate(57.221156441939684 47.70221249768929) rotate(0 4.7064684825189715 11.504661724556172)"><path d="M2.35 0 C3.92 0.04, 4.95 0.49, 7.06 0 C6.03 -1.71, 8.84 -1.58, 9.41 2.35 C9.34 5.14, 11.46 13.14, 9.41 20.66 C11.55 22.45, 6.01 23.41, 7.06 23.01 C5.7 23.68, 4 23.08, 2.35 23.01 C0.85 22.23, 1.73 23.83, 0 20.66 C-0.24 16.9, 0.77 13.17, 0 2.35 C-2.1 2.85, -2.55 -2.15, 2.35 0" stroke="none" stroke-width="0" fill="#e9ecef"></path><path d="M2.35 0 C3.59 -0.35, 4.45 -0.32, 7.06 0 M2.35 0 C3.87 -0.15, 5.75 0.04, 7.06 0 M7.06 0 C10.35 0.97, 10.99 1.64, 9.41 2.35 M7.06 0 C7.2 0.63, 7.98 -0.51, 9.41 2.35 M9.41 2.35 C10 7.46, 8.97 11, 9.41 20.66 M9.41 2.35 C8.67 7.77, 8.5 12.7, 9.41 20.66 M9.41 20.66 C8.65 23.94, 9.82 24.64, 7.06 23.01 M9.41 20.66 C9.1 19.92, 7.21 23.57, 7.06 23.01 M7.06 23.01 C5.55 23.3, 3.88 22.77, 2.35 23.01 M7.06 23.01 C5.49 23.06, 3.52 23.05, 2.35 23.01 M2.35 23.01 C1.58 24.66, -1.48 22.5, 0 20.66 M2.35 23.01 C0.18 22.65, 1.55 20.03, 0 20.66 M0 20.66 C-0.76 14.76, 0.59 9.89, 0 2.35 M0 20.66 C-0.37 15.79, -0.79 12.22, 0 2.35 M0 2.35 C-1.86 0.73, -0.36 -0.57, 2.35 0 M0 2.35 C-0.82 1.13, 1 1.12, 2.35 0" stroke="#1e1e1e" stroke-width="2" fill="none"></path></g><g stroke-linecap="round" transform="translate(114.55621742255562 46.11946572367742) rotate(0 4.7064684825189715 11.504661724556172)"><path d="M2.35 0 C4.77 0.55, 5.32 -0.41, 7.06 0 C8.05 -2.37, 7.35 -2.46, 9.41 2.35 C11.78 9.9, 11.39 13.85, 9.41 20.66 C6.8 22.63, 9.44 26.23, 7.06 23.01 C5.75 23.18, 4.5 22.9, 2.35 23.01 C2.51 24.61, -1.8 18.83, 0 20.66 C0.52 17.21, -1.87 12.32, 0 2.35 C-3.34 -1.36, -1.41 1.78, 2.35 0" stroke="none" stroke-width="0" fill="#e9ecef"></path><path d="M2.35 0 C3.08 -0.31, 4.64 -0.41, 7.06 0 M2.35 0 C4.38 0.1, 6.16 0.14, 7.06 0 M7.06 0 C10.21 0.85, 8.17 1.33, 9.41 2.35 M7.06 0 C7.19 -1.29, 8.4 -1.01, 9.41 2.35 M9.41 2.35 C9.18 6.49, 9.58 11.63, 9.41 20.66 M9.41 2.35 C8.41 6.72, 8.92 13.49, 9.41 20.66 M9.41 20.66 C10.6 23.85, 8.35 21.01, 7.06 23.01 M9.41 20.66 C8 22.79, 8.93 22.55, 7.06 23.01 M7.06 23.01 C5.43 22.8, 4.54 23.32, 2.35 23.01 M7.06 23.01 C5.46 23.06, 4.25 23.21, 2.35 23.01 M2.35 23.01 C-0.7 23.28, -0.53 21.92, 0 20.66 M2.35 23.01 C2.33 20.82, -0.28 24.04, 0 20.66 M0 20.66 C0.79 16.68, -0.93 14.01, 0 2.35 M0 20.66 C-0.65 16.41, -0.79 11.02, 0 2.35 M0 2.35 C-1.14 0.21, 0.07 0.3, 2.35 0 M0 2.35 C0.22 1.9, -1.31 0.95, 2.35 0" stroke="#1e1e1e" stroke-width="2" fill="none"></path></g><g stroke-linecap="round" transform="translate(59.3108950472772 69.40562583189512) rotate(39.805594979277465 7.743269655415702 4.183505374965534)"><path d="M2.09 0 C4.16 -1.1, 8.83 -1.47, 13.39 0 C12.73 -3.24, 15.79 0.94, 15.49 2.09 C15.99 3.18, 14.99 4.27, 15.49 6.28 C16.3 10.89, 13.85 9.05, 13.39 8.37 C9.11 7.95, 5.73 9.3, 2.09 8.37 C-1.1 4.97, -0.74 7.06, 0 6.28 C-0.45 5.35, -0.71 3.11, 0 2.09 C-2.19 2.48, -1.3 1.73, 2.09 0" stroke="none" stroke-width="0" fill="#e9ecef"></path><path d="M2.09 0 C4.97 -1, 7.95 -0.22, 13.39 0 M2.09 0 C5.46 0.24, 8.3 0.2, 13.39 0 M13.39 0 C13.55 0.55, 14.24 -0.43, 15.49 2.09 M13.39 0 C13.78 -1.79, 14.7 1.62, 15.49 2.09 M15.49 2.09 C15.5 3.34, 15.41 4.47, 15.49 6.28 M15.49 2.09 C15.37 3.45, 15.57 4.62, 15.49 6.28 M15.49 6.28 C15.21 5.67, 13.56 8.86, 13.39 8.37 M15.49 6.28 C15.79 7.21, 14.75 8.21, 13.39 8.37 M13.39 8.37 C9.98 9, 5.28 8.94, 2.09 8.37 M13.39 8.37 C10.01 8.85, 5.76 8.46, 2.09 8.37 M2.09 8.37 C0.17 8.06, 1.34 5.76, 0 6.28 M2.09 8.37 C0.42 10.18, -2.19 6.9, 0 6.28 M0 6.28 C-0.24 5.36, -0.17 3.92, 0 2.09 M0 6.28 C-0.16 5.18, -0.09 4.04, 0 2.09 M0 2.09 C-0.71 1, 0.88 0.97, 2.09 0 M0 2.09 C-2.09 1.64, 2.53 1.58, 2.09 0" stroke="#1e1e1e" stroke-width="2" fill="none"></path></g><g stroke-linecap="round" transform="translate(106.5357774763495 70.2632724871637) rotate(320.33274362221096 7.743269655415702 4.183505374965534)"><path d="M2.09 0 C5.9 -1.24, 9.19 -1.74, 13.39 0 C15.1 0.24, 13.68 3.26, 15.49 2.09 C14.98 3.67, 15.7 5.76, 15.49 6.28 C14.55 8.36, 17.75 8.27, 13.39 8.37 C10.85 9.23, 5.34 6.41, 2.09 8.37 C-0.04 7.76, 0.89 8.17, 0 6.28 C-0.65 4.36, -0.41 3.71, 0 2.09 C-2 2.43, 0.67 2.62, 2.09 0" stroke="none" stroke-width="0" fill="#e9ecef"></path><path d="M2.09 0 C5.57 -0.2, 6.67 1.21, 13.39 0 M2.09 0 C6.3 0.19, 9.27 0.1, 13.39 0 M13.39 0 C13.54 -1.12, 14.61 -0.86, 15.49 2.09 M13.39 0 C14 0.92, 16.01 0.32, 15.49 2.09 M15.49 2.09 C15.42 2.86, 15.41 3.87, 15.49 6.28 M15.49 2.09 C15.6 3.15, 15.44 3.65, 15.49 6.28 M15.49 6.28 C14.26 8.16, 15.05 7.97, 13.39 8.37 M15.49 6.28 C15.44 7.52, 16.23 7.24, 13.39 8.37 M13.39 8.37 C10.67 9.07, 7.98 7.72, 2.09 8.37 M13.39 8.37 C9.39 8.54, 6.08 8.37, 2.09 8.37 M2.09 8.37 C2.04 6.46, -0.24 9.25, 0 6.28 M2.09 8.37 C-1.49 7.59, -0.78 8.59, 0 6.28 M0 6.28 C-0.13 4.94, -0.14 3.55, 0 2.09 M0 6.28 C-0.08 4.7, -0.04 3.28, 0 2.09 M0 2.09 C0.19 1.67, -1.12 0.82, 2.09 0 M0 2.09 C1.83 2.28, 0.99 1.72, 2.09 0" stroke="#1e1e1e" stroke-width="2" fill="none"></path></g><g stroke-linecap="round"><g transform="translate(76.19983905519348 14.074929513597453) rotate(0 12.299801386680997 9.143872328620546)"><path d="M-0.76 -1.26 C4.23 1.55, 22.69 15.73, 27.32 19.22 M4.02 4.22 C9.13 5.96, 22.81 12.94, 26.56 14.71" stroke="#1e1e1e" stroke-width="2" fill="none"></path></g></g><mask></mask><g stroke-linecap="round"><g transform="translate(82.0986138024416 19.973704260845807) rotate(0 8.848162120872303 8.84816212087253)"><path d="M2.72 0.93 C6.2 4.31, 17.24 16.06, 20.1 19.05 M0.75 -1.04 C4.14 1.63, 16.08 12.27, 19.17 14.78" stroke="#1e1e1e" stroke-width="2" fill="none"></path></g></g><mask></mask><g stroke-linecap="round"><g transform="translate(93.89616329693808 14.074929513597453) rotate(0 8.848162120872303 11.797549494496252)"><path d="M2.41 1.36 C5.27 5.33, 17.65 20.95, 19.9 24.79 M0.27 -0.38 C2.71 2.67, 15.27 15.71, 18.87 20.42" stroke="#1e1e1e" stroke-width="2" fill="none"></path></g></g><mask></mask><g stroke-linecap="round"><g transform="translate(87.99738854968973 14.074929513597453) rotate(0 11.79754949449648 8.84816212087253)"><path d="M2.21 1.19 C5.45 4.04, 18.58 15.97, 21.85 18.46 M-0.04 -0.63 C3.9 1.21, 22.68 10.7, 27.31 13.87" stroke="#1e1e1e" stroke-width="2" fill="none"></path></g></g><mask></mask><g stroke-linecap="round"><g transform="translate(87.99738854968973 25.87247900809416) rotate(0 11.79754949449648 5.898774747248353)"><path d="M-0.75 0.33 C2.9 2.1, 18.88 9.37, 22.85 11.12 M1.06 -0.55 C5.02 1.32, 21.67 10.27, 25.16 12.31" stroke="#1e1e1e" stroke-width="2" fill="none"></path></g></g><mask></mask><g stroke-linecap="round"><g transform="translate(64.402289560697 37.67002850259087) rotate(0 8.848162120872303 -5.898774747248353)"><path d="M-0.75 -0.67 C2.24 -2.85, 14.16 -10.96, 17.17 -12.73 M1.06 1.59 C3.9 -0.5, 13.4 -9.19, 15.94 -11.69" stroke="#1e1e1e" stroke-width="2" fill="none"></path></g></g><mask></mask><g stroke-linecap="round"><g transform="translate(76.19983905519348 31.771253755342514) rotate(0 11.79754949449648 0)"><path d="M-0.53 -0.94 C3.46 -0.74, 19.12 0.36, 23.18 0.48 M1.4 1.19 C5.26 1.08, 18.38 -1.36, 22.02 -1.39" stroke="#1e1e1e" stroke-width="2" fill="none"></path></g></g><mask></mask><g stroke-linecap="round"><g transform="translate(70.30106430794535 31.771253755342514) rotate(0 8.848162120872303 0)"><path d="M-0.41 0.48 C2.67 0.6, 15.03 -0.13, 17.97 -0.2 M1.57 -0.31 C4.57 0.08, 14.73 0.95, 17.17 1.24" stroke="#1e1e1e" stroke-width="2" fill="none"></path></g></g><mask></mask><g stroke-linecap="round"><g transform="translate(76.19983905519348 19.973704260845807) rotate(0 8.848162120872303 5.898774747248353)"><path d="M0.28 -0.2 C3.21 1.7, 14.37 9.89, 17.22 11.86 M-1.04 -1.35 C1.74 0.72, 13.1 11.07, 16.02 13.42" stroke="#1e1e1e" stroke-width="2" fill="none"></path></g></g><mask></mask><g stroke-linecap="round"><g transform="translate(105.69371279143456 25.87247900809416) rotate(0 5.89877474724824 5.898774747248353)"><path d="M-0.48 0.06 C1.39 2.02, 9.61 9.67, 11.5 11.59 M1.47 -0.96 C3.14 1.21, 8.43 10.73, 10.4 13.02" stroke="#1e1e1e" stroke-width="2" fill="none"></path></g></g><mask></mask><g stroke-linecap="round"><g transform="translate(93.89616329693808 25.87247900809416) rotate(0 2.949387373624063 2.9493873736241767)"><path d="M-0.18 -0.13 C0.75 0.82, 4.43 4.87, 5.32 5.76 M1.1 -0.85 C2.3 0.22, 5.8 5.56, 6.72 6.66" stroke="#1e1e1e" stroke-width="2" fill="none"></path></g></g><mask></mask><g stroke-linecap="round"><g transform="translate(99.79493804418644 19.973704260845807) rotate(0 2.949387373624063 5.898774747248353)"><path d="M-0.92 -0.22 C-0.08 1.61, 3.71 8.56, 4.77 10.74 M0.8 -1.38 C2.02 0.58, 6.28 9.65, 6.88 11.72" stroke="#1e1e1e" stroke-width="2" fill="none"></path></g></g><mask></mask><g stroke-linecap="round"><g transform="translate(94.87280854906953 21.903890784878968) rotate(0 4.880754940890029 5.92664125890451)"><path d="M-1.13 -1.06 C0.57 1.12, 7.37 10.56, 9.3 12.88 M0.47 1 C2.06 2.88, 6.51 9.63, 8.11 11.3" stroke="#1e1e1e" stroke-width="2" fill="none"></path></g></g><mask></mask><g stroke-linecap="round"><g transform="translate(87.90026501331363 19.81213410768669) rotate(0 8.018405915515018 4.5321341476369525)"><path d="M-0.46 1.03 C2.52 2.88, 14.03 8.9, 16.75 10.04 M1.5 0.52 C4.48 2.14, 13.93 7.09, 16.18 8.43" stroke="#1e1e1e" stroke-width="2" fill="none"></path></g></g><mask></mask><g stroke-linecap="round"><g transform="translate(82.67087332033361 35.50030918662742) rotate(0 9.412905047364006 -2.7890142225351156)"><path d="M0.72 0.98 C3.9 -0.32, 15.77 -5.73, 18.66 -6.78 M-0.37 0.44 C2.69 -0.24, 14.13 -5.16, 17.63 -5.87" stroke="#1e1e1e" stroke-width="2" fill="none"></path></g></g><mask></mask><g stroke-linecap="round"><g transform="translate(94.87280854906953 17.023119885152482) rotate(0 9.587207464572089 7.146837973545644)"><path d="M-0.16 -1.2 C2.79 1.07, 15.19 12.05, 18.44 14.59 M-1.71 0.78 C1.57 2.59, 17.37 10.21, 20.76 12.62" stroke="#1e1e1e" stroke-width="2" fill="none"></path></g></g><mask></mask><g stroke-linecap="round"><g transform="translate(78.48735996594951 26.784645725769224) rotate(0 12.376237645944002 4.009202957757225)"><path d="M-0.74 0.29 C3.44 1.79, 20.67 6.51, 24.91 7.78 M1.07 -0.6 C5.12 1.19, 20.23 7.56, 24.04 9.19" stroke="#1e1e1e" stroke-width="2" fill="none"></path></g></g><mask></mask><g stroke-linecap="round"><g transform="translate(95.57005013557568 15.62862075330304) rotate(0 7.844087539470024 8.541337105394632)"><path d="M0.37 -0.56 C3.26 2.15, 12.79 14.18, 15.63 16.9 M-2.88 -3.33 C-0.21 -0.22, 10.12 16.86, 13.37 20.42" stroke="#1e1e1e" stroke-width="2" fill="none"></path></g></g><mask></mask><g stroke-linecap="round"><g transform="translate(72.21208993437335 29.57365994830434) rotate(0 11.330359307347976 -3.4862637884593823)"><path d="M-0.02 -0.08 C3.85 -1.3, 19.74 -6.53, 23.41 -7.56 M-1.49 -1.17 C2.28 -2.21, 19.12 -5.16, 22.86 -6.33" stroke="#1e1e1e" stroke-width="2" fill="none"></path></g></g><mask></mask><g stroke-linecap="round"><g transform="translate(60.35882337540147 41.77557921820244) rotate(0 7.495450787380037 -5.403710069025237)"><path d="M0.75 -0.59 C3.15 -2.25, 11.88 -8.39, 14.38 -10.08 M-0.31 1.72 C2.49 -0.28, 14.16 -9.98, 16.77 -11.82" stroke="#1e1e1e" stroke-width="2" fill="none"></path></g></g><mask></mask><g stroke-linecap="round"><g transform="translate(57.22118835961328 37.59206586381879) rotate(0 9.238586671319013 -5.92664923832308)"><path d="M-0.61 0.73 C2.46 -1.14, 15.91 -9.7, 19.21 -11.76 M1.27 0.06 C4.18 -1.54, 15.73 -8.46, 18.64 -10.17" stroke="#1e1e1e" stroke-width="2" fill="none"></path></g></g><mask></mask><g stroke-linecap="round"><g transform="translate(64.19369997769536 21.903890784878968) rotate(0 8.715647502021056 1.9174383011472855)"><path d="M0.73 0.1 C3.85 0.65, 15.45 3.41, 18.1 4.06 M-0.35 -0.9 C2.73 -0.79, 14.26 1, 17.51 2.06" stroke="#1e1e1e" stroke-width="2" fill="none"></path></g></g><mask></mask><g stroke-linecap="round"><g transform="translate(68.02857657998948 16.325862339809646) rotate(0 9.064284254111044 5.229391692979789)"><path d="M0.67 0.23 C3.45 1.99, 14.38 8.79, 17.37 10.66 M-0.43 -0.69 C2.66 0.67, 16.6 6.93, 19.69 8.65" stroke="#1e1e1e" stroke-width="2" fill="none"></path></g></g><mask></mask><g stroke-linecap="round"><g transform="translate(76.04699845434152 11.096470646829403) rotate(0 6.798209200873998 8.367026708768208)"><path d="M-0.76 0.2 C1.48 3.12, 11.83 14.94, 14.07 17.73 M1.05 -0.73 C3.1 1.84, 11.02 12.95, 13.37 16.12" stroke="#1e1e1e" stroke-width="2" fill="none"></path></g></g><mask></mask><g stroke-linecap="round"><g transform="translate(47.11100980806964 43.17007835005188) rotate(0 4.357831730428984 -0.17431039662642434)"><path d="M0.3 0.62 C1.74 0.56, 6.79 -0.06, 8.16 -0.24 M-0.46 0.29 C1.25 0.36, 8.17 0.77, 9.57 0.77" stroke="#1e1e1e" stroke-width="2" fill="none"></path></g></g><mask></mask><g stroke-linecap="round"><g transform="translate(55.47803651683739 41.0783216728596) rotate(0 -1.3944991318489883 3.6605741850862614)"><path d="M-0.56 0.1 C-1.11 1.2, -2.7 6.12, -2.99 7.2 M0.53 -0.5 C-0.16 0.66, -3.18 6.85, -3.68 8.11" stroke="#1e1e1e" stroke-width="2" fill="none"></path></g></g><mask></mask><g stroke-linecap="round"><g transform="translate(71.8768257429374 37.58210043892632) rotate(0 15.043499346924705 -1.6950364424315012)"><path d="M-0.32 -0.19 C4.98 -0.97, 25.85 -4.16, 30.89 -4.53 M1.72 -1.33 C7.01 -2.02, 25.81 -3.1, 30.37 -3.6" stroke="#1e1e1e" stroke-width="2" fill="none"></path></g></g><mask></mask><g stroke-linecap="round"><g transform="translate(71.74684851264215 41.31323648541911) rotate(0 17.797950539324233 0.21187713052540857)"><path d="M0.81 -1.14 C6.77 -0.88, 29.84 1.18, 35.45 1.37 M-0.23 0.87 C5.59 0.82, 28.26 -0.3, 34.43 -0.25" stroke="#1e1e1e" stroke-width="2" fill="none"></path></g></g><mask></mask><g stroke-linecap="round"><g transform="translate(93.91239648568035 33.76825389478563) rotate(0 -12.712821813803089 1.0594050508548207)"><path d="M-0.15 0.95 C-4.71 1.42, -22.29 1.44, -26.57 1.72 M-1.68 0.4 C-5.96 1.14, -20.26 3.02, -24.45 3.04" stroke="#1e1e1e" stroke-width="2" fill="none"></path></g></g><mask></mask><g stroke-linecap="round"><g transform="translate(81.19957467187737 31.225689532024262) rotate(0 -9.322748928939973 8.051457048446082)"><path d="M-2.66 -0.94 C-5.87 1.56, -16.88 14.64, -19.6 17.22 M1.09 -3.92 C-2.55 -2.47, -18.68 9.36, -22.35 12.82" stroke="#1e1e1e" stroke-width="2" fill="none"></path></g></g><mask></mask><g stroke-linecap="round"><g transform="translate(105.64769375063247 41.31323648541911) rotate(0 -16.950422618995162 3.3900825839764366)"><path d="M-0.41 0.48 C-5.89 1.57, -28.56 5.16, -34.05 6.13 M1.58 -0.31 C-3.98 0.96, -29.18 6.04, -35.07 7.33" stroke="#1e1e1e" stroke-width="2" fill="none"></path></g></g><mask></mask><g stroke-linecap="round"><g transform="translate(101.96382443678658 32.92074537268218) rotate(0 7.203938827230559 4.8732418958820745)"><path d="M-0.15 -0.65 C2.41 0.82, 12.6 7.64, 14.97 9.3 M-1.68 1.62 C0.8 3.22, 11.85 9.14, 14.31 10.6" stroke="#1e1e1e" stroke-width="2" fill="none"></path></g></g><mask></mask><g stroke-linecap="round"><g transform="translate(109.16778266224378 35.03953607616586) rotate(0 5.29699615693346 5.297015555160215)"><path d="M0.56 -0.45 C2.29 1.34, 8.7 8.15, 10.22 10.12 M-0.61 -1.73 C0.94 0.28, 6.96 9.56, 9.08 11.41" stroke="#1e1e1e" stroke-width="2" fill="none"></path></g></g><mask></mask><g stroke-linecap="round"><g transform="translate(82.89459171608223 28.683125169263803) rotate(0 14.195990824822275 7.839579917920673)"><path d="M-0.87 -1.11 C3.29 1.96, 21.79 14.61, 26.23 17.39 M3.86 -4.18 C8.77 -1.82, 26.9 9.5, 31.46 13.31" stroke="#1e1e1e" stroke-width="2" fill="none"></path></g></g><mask></mask><g stroke-linecap="round"><g transform="translate(108.81249785779846 35.55790171229819) rotate(0 -18.433591630014348 2.9663186238117305)"><path d="M-0.93 0.73 C-7.19 1.8, -31.88 5.09, -37.98 5.9 M0.79 0.07 C-5.09 1.38, -29.28 6.31, -35.86 7.42" stroke="#1e1e1e" stroke-width="2" fill="none"></path></g></g><mask></mask><g stroke-linecap="round"><g transform="translate(91.79356698574429 12.580230470597598) rotate(0 11.865313291700545 11.653416762948382)"><path d="M-2.6 -0.07 C1.45 3.39, 17.91 18.54, 22.13 22.51 M1.18 -2.58 C6.35 1.14, 24.46 20.76, 27.67 25.7" stroke="#1e1e1e" stroke-width="2" fill="none"></path></g></g><mask></mask><g stroke-linecap="round"><g transform="translate(103.65888027744472 35.03953607616586) rotate(0 5.085128725521258 4.873251594995509)"><path d="M-0.69 -0.34 C1.12 1.32, 7.92 8.15, 9.74 9.93 M1.16 -1.57 C2.87 0.31, 7.17 9.91, 8.57 11.56" stroke="#1e1e1e" stroke-width="2" fill="none"></path></g></g><mask></mask><g stroke-linecap="round" transform="translate(73.49201342093875 72.17847403034557) rotate(0 17.405537966871066 4.746962266132414)"><path d="M2.37 0 C15.56 0.44, 22.56 1.47, 32.44 0 C31.8 1.7, 32.83 0.22, 34.81 2.37 C35.3 3.87, 34.53 5.2, 34.81 7.12 C35.72 6.66, 31.48 8.9, 32.44 9.49 C24.1 6.54, 12.25 7.99, 2.37 9.49 C-0.63 10.91, -1.31 6.95, 0 7.12 C-0.06 5.2, -0.58 4.01, 0 2.37 C-0.08 -1.31, 2.05 0.62, 2.37 0" stroke="none" stroke-width="0" fill="#e9ecef"></path><path d="M2.37 0 C9.97 0.29, 17.95 -1.71, 32.44 0 M2.37 0 C12.76 0.54, 23.54 -0.93, 32.44 0 M32.44 0 C33.07 -0.32, 33.5 -0.36, 34.81 2.37 M32.44 0 C31.95 0.2, 34.97 -0.37, 34.81 2.37 M34.81 2.37 C34.87 3.79, 34.89 6, 34.81 7.12 M34.81 2.37 C34.99 4.22, 34.83 6.08, 34.81 7.12 M34.81 7.12 C34.38 9.66, 34.91 8.49, 32.44 9.49 M34.81 7.12 C32.64 8.23, 33.63 10.06, 32.44 9.49 M32.44 9.49 C24.15 7.46, 12.37 8.1, 2.37 9.49 M32.44 9.49 C21.93 10.37, 10.82 9.57, 2.37 9.49 M2.37 9.49 C1.8 8.9, 1.2 7.02, 0 7.12 M2.37 9.49 C1.39 10.72, -1.62 8.15, 0 7.12 M0 7.12 C0.26 5.42, -0.09 5, 0 2.37 M0 7.12 C-0.04 5.42, -0.01 3.69, 0 2.37 M0 2.37 C1.39 -1.02, -0.1 -1.47, 2.37 0 M0 2.37 C-1.34 0.16, -0.71 0.67, 2.37 0" stroke="#1e1e1e" stroke-width="2" fill="none"></path></g><g stroke-linecap="round"><g transform="translate(76.09891347508301 35.52677035490706) rotate(0 12.999128845583527 2.08383030038749)"><path d="M0.11 0.58 C4.33 1.33, 20.43 3.93, 24.91 4.66 M-1.29 -0.16 C3.33 0.21, 22.38 2.26, 27.05 2.8" stroke="#1e1e1e" stroke-width="2" fill="none"></path></g></g><mask></mask><g stroke-linecap="round"><g transform="translate(61.015945244333125 43.26671147063098) rotate(0 12.800671845235001 -2.679210386212162)"><path d="M-1.09 0.49 C3.32 -0.36, 22.08 -3.71, 26.56 -4.53 M0.54 -0.29 C4.86 -1.53, 22.02 -5.22, 26.11 -6.22" stroke="#1e1e1e" stroke-width="2" fill="none"></path></g></g><mask></mask><g stroke-linecap="round"><g transform="translate(90.48940195689579 158.47295411112918) rotate(0 0.31834791957408015 28.970105158765364)"><path d="M2.23 1.93 C2.82 11.74, 0.95 51.03, 0.99 60.03 M0 0.5 C0.48 9.44, -1.33 46.58, -1.05 56.15" stroke="#1e1e1e" stroke-width="2" fill="none"></path></g></g><mask></mask></svg>