<?xml version="1.0" standalone="no"?>
<!DOCTYPE svg PUBLIC "-//W3C//DTD SVG 1.1//EN" "http://www.w3.org/Graphics/SVG/1.1/DTD/svg11.dtd">
<svg version="1.1" xmlns="http://www.w3.org/2000/svg" viewBox="0 0 179.71966326836923 187.98415110698443" width="179.71966326836923" height="187.98415110698443"><!-- svg-source:excalidraw --><metadata></metadata><defs><style class="style-fonts">
      </style></defs><g stroke-linecap="round"><g transform="translate(88.24081344659771 49.7200390437074) rotate(0 -17.079081928525056 19.474339565327227)" fill-rule="evenodd"><path d="M-1.1 -0.84 C-8.57 -1.14, -34.73 -0.52, -42.44 -1.24 C-50.16 -1.96, -46.65 -1.78, -47.39 -5.15 C-48.14 -8.51, -48.64 -16.45, -46.9 -21.43 C-45.16 -26.41, -41.23 -31.95, -36.94 -35.02 C-32.65 -38.09, -27.56 -39.12, -21.16 -39.87 C-14.76 -40.62, -5.32 -39.79, 1.46 -39.51 C8.23 -39.23, 14.15 -39.57, 19.51 -38.17 C24.86 -36.77, 29.99 -34.15, 33.6 -31.11 C37.21 -28.08, 39.36 -25.25, 41.16 -19.96 C42.95 -14.67, 44.66 -7.06, 44.38 0.63 C44.09 8.32, 41.4 19.89, 39.46 26.18 C37.52 32.46, 36.28 36.04, 32.75 38.37 C29.22 40.69, 24.54 39.38, 18.29 40.12 C12.04 40.86, 2.12 42.34, -4.74 42.82 C-11.6 43.3, -17.46 41.6, -22.86 43 C-28.27 44.39, -33.93 48.24, -37.16 51.18 C-40.39 54.11, -41.5 57.03, -42.23 60.59 C-42.96 64.16, -40.68 69.42, -41.52 72.56 C-42.37 75.71, -44.69 78.75, -47.31 79.48 C-49.93 80.21, -53.56 78.38, -57.24 76.93 C-60.92 75.48, -66.18 73.19, -69.41 70.79 C-72.64 68.38, -75.32 67.52, -76.62 62.51 C-77.92 57.49, -77.39 47.28, -77.22 40.71 C-77.05 34.13, -77.59 27.91, -75.59 23.05 C-73.58 18.19, -68.68 14.2, -65.21 11.57 C-61.74 8.94, -61.55 8.64, -54.76 7.29 C-47.98 5.95, -32.94 4.07, -24.49 3.49 C-16.04 2.91, -8.34 3.7, -4.06 3.8 C0.22 3.9, 0.29 4.38, 1.18 4.08 C2.08 3.77, 1.36 2.27, 1.29 1.97" stroke="none" stroke-width="0" fill="#228be6" fill-rule="evenodd"></path><path d="M-0.96 0.47 C-7.91 0.74, -34.15 1.43, -41.73 0.71 C-49.32 -0.01, -45.91 -0.39, -46.47 -3.87 C-47.04 -7.36, -46.52 -15.38, -45.1 -20.2 C-43.68 -25.03, -41.72 -30.05, -37.94 -32.84 C-34.17 -35.63, -28.74 -35.89, -22.44 -36.95 C-16.15 -38.01, -7.18 -38.87, -0.17 -39.19 C6.85 -39.51, 13.83 -39.82, 19.65 -38.86 C25.47 -37.89, 30.77 -36.36, 34.76 -33.4 C38.75 -30.44, 42.14 -27.36, 43.58 -21.11 C45.01 -14.85, 43.5 -3.45, 43.35 4.14 C43.2 11.74, 44.25 18.98, 42.68 24.45 C41.11 29.91, 37.98 33.82, 33.93 36.95 C29.88 40.07, 24.53 42.21, 18.37 43.2 C12.21 44.19, 4.02 42.96, -3.02 42.88 C-10.07 42.8, -18.23 41.87, -23.9 42.74 C-29.58 43.6, -33.79 44.98, -37.08 48.05 C-40.38 51.13, -42.51 56.78, -43.67 61.2 C-44.84 65.61, -43.65 71.68, -44.07 74.54 C-44.49 77.4, -43.68 77.93, -46.2 78.36 C-48.72 78.79, -55.17 78.1, -59.19 77.11 C-63.22 76.12, -67.55 75.24, -70.37 72.44 C-73.2 69.65, -75.07 65.76, -76.13 60.33 C-77.18 54.91, -77.04 46.12, -76.7 39.89 C-76.35 33.67, -75.44 27.63, -74.06 22.98 C-72.68 18.33, -72.02 14.75, -68.43 11.97 C-64.85 9.2, -59.78 7.31, -52.55 6.31 C-45.31 5.32, -32.95 5.87, -25.02 5.99 C-17.08 6.1, -9.03 7.04, -4.93 7 C-0.83 6.95, -1.13 6.83, -0.41 5.73 C0.3 4.62, -0.69 1.44, -0.64 0.36 M0.73 -0.32 C-5.84 -0.29, -31.52 -0.33, -39.49 -0.8 C-47.46 -1.26, -45.69 0.48, -47.1 -3.11 C-48.51 -6.7, -49.29 -17.42, -47.94 -22.34 C-46.58 -27.25, -42.9 -30.03, -38.97 -32.58 C-35.05 -35.13, -31.02 -36.88, -24.39 -37.64 C-17.75 -38.4, -6.91 -36.85, 0.82 -37.16 C8.55 -37.48, 16.58 -40.51, 21.99 -39.53 C27.39 -38.55, 30.06 -34.28, 33.25 -31.28 C36.44 -28.28, 39.41 -27.09, 41.13 -21.53 C42.86 -15.97, 43.5 -5.47, 43.59 2.07 C43.68 9.61, 43.27 18.06, 41.69 23.72 C40.11 29.39, 37.59 32.76, 34.11 36.07 C30.63 39.38, 26.87 42.47, 20.8 43.58 C14.72 44.68, 4.95 42.64, -2.34 42.69 C-9.62 42.75, -16.97 42.98, -22.92 43.91 C-28.87 44.84, -34.36 45.34, -38.05 48.26 C-41.75 51.19, -43.84 57.54, -45.1 61.45 C-46.35 65.36, -45.44 69.13, -45.58 71.74 C-45.73 74.35, -44.06 75.84, -45.96 77.11 C-47.87 78.38, -52.92 80.25, -57.02 79.33 C-61.11 78.4, -67.29 74.88, -70.53 71.56 C-73.78 68.23, -75.2 64.78, -76.48 59.36 C-77.76 53.93, -78.38 44.96, -78.21 39.01 C-78.04 33.06, -77.2 28.11, -75.46 23.67 C-73.73 19.22, -71.28 15.3, -67.81 12.36 C-64.33 9.41, -61.9 7.3, -54.6 5.99 C-47.3 4.68, -32.33 4.56, -24.01 4.47 C-15.69 4.38, -8.85 5.41, -4.68 5.46 C-0.51 5.51, 0.44 5.88, 1 4.75 C1.55 3.63, -1.14 -0.64, -1.35 -1.29" stroke="#228be6" stroke-width="2" fill="none"></path></g></g><mask></mask><g stroke-linecap="round"><g transform="translate(126.59818263271745 99.69393102442154) rotate(180 -17.9971306483734 19.474339565327227)" fill-rule="evenodd"><path d="M-1.61 -0.78 C-8.44 -1.11, -34.33 -2.38, -42.08 -2.79 C-49.84 -3.2, -47.65 0.2, -48.14 -3.24 C-48.63 -6.68, -46.8 -18.18, -45.03 -23.45 C-43.26 -28.72, -41.49 -32.34, -37.5 -34.85 C-33.5 -37.35, -27.06 -37.84, -21.07 -38.47 C-15.07 -39.09, -8.33 -38.95, -1.54 -38.58 C5.25 -38.21, 13.98 -37.36, 19.67 -36.24 C25.35 -35.13, 28.71 -34.02, 32.58 -31.9 C36.45 -29.78, 41.58 -29.71, 42.88 -23.54 C44.19 -17.36, 40.78 -3.34, 40.41 5.18 C40.05 13.7, 41.9 22.36, 40.69 27.59 C39.48 32.83, 36.78 33.98, 33.15 36.59 C29.52 39.2, 24.89 42.35, 18.9 43.26 C12.9 44.17, 4.37 41.7, -2.81 42.03 C-10 42.36, -18.57 44.07, -24.23 45.24 C-29.88 46.4, -33.6 46.55, -36.74 49.02 C-39.88 51.49, -41.17 55.83, -43.08 60.08 C-44.99 64.33, -47.58 71.74, -48.2 74.5 C-48.82 77.27, -44.97 76.29, -46.8 76.68 C-48.63 77.06, -55.03 77.35, -59.18 76.83 C-63.33 76.3, -68.85 76.1, -71.68 73.52 C-74.51 70.94, -74.9 66.83, -76.15 61.36 C-77.41 55.89, -79.54 47.13, -79.2 40.71 C-78.86 34.29, -75.56 27.59, -74.09 22.84 C-72.62 18.08, -73.75 15.34, -70.37 12.16 C-66.99 8.99, -61.62 5.21, -53.8 3.79 C-45.99 2.38, -31.77 3.45, -23.5 3.65 C-15.22 3.85, -8.32 4.43, -4.17 4.99 C-0.03 5.55, 0.54 7.45, 1.37 7 C2.19 6.55, 1.27 3.55, 0.77 2.3" stroke="none" stroke-width="0" fill="#fab005" fill-rule="evenodd"></path><path d="M-0.9 1.17 C-7.6 0.84, -33.59 -0.98, -41.16 -1.51 C-48.74 -2.04, -45.53 1.28, -46.34 -2.01 C-47.15 -5.3, -47.29 -16.28, -46.03 -21.26 C-44.77 -26.25, -42.67 -29.11, -38.78 -31.92 C-34.89 -34.74, -28.92 -36.92, -22.69 -38.15 C-16.46 -39.37, -8.65 -39.21, -1.4 -39.27 C5.85 -39.34, 14.75 -39.57, 20.82 -38.54 C26.89 -37.5, 31.49 -36.13, 35 -33.05 C38.5 -29.96, 40.42 -26.1, 41.86 -20.02 C43.3 -13.94, 43.63 -4.25, 43.63 3.45 C43.63 11.15, 43.6 20.14, 41.86 26.17 C40.13 32.21, 36.78 36.81, 33.24 39.67 C29.7 42.52, 26.8 42.97, 20.61 43.32 C14.43 43.67, 3.61 41.97, -3.85 41.77 C-11.31 41.57, -18.43 40.81, -24.15 42.12 C-29.87 43.42, -34.6 46.3, -38.18 49.63 C-41.76 52.95, -44.14 58.09, -45.62 62.05 C-47.1 66.01, -46.56 70.92, -47.09 73.38 C-47.61 75.85, -46.57 76.01, -48.75 76.86 C-50.93 77.71, -56.41 79.4, -60.15 78.48 C-63.89 77.57, -68.61 74.34, -71.19 71.35 C-73.77 68.36, -74.55 65.67, -75.63 60.55 C-76.71 55.43, -77.39 46.86, -77.67 40.64 C-77.95 34.43, -78.91 28.15, -77.32 23.24 C-75.73 18.33, -71.98 14.01, -68.15 11.19 C-64.32 8.36, -61.63 7.02, -54.33 6.29 C-47.03 5.57, -32.45 6.79, -24.36 6.84 C-16.27 6.9, -9.74 6.88, -5.77 6.64 C-1.81 6.4, -1.51 6.61, -0.56 5.39 C0.38 4.16, -0.39 0.14, -0.1 -0.71 M0.83 0.74 C-5.92 0.48, -34.08 0.25, -41.97 -0.53 C-49.86 -1.31, -45.97 -0.63, -46.53 -3.93 C-47.09 -7.22, -46.44 -15.75, -45.35 -20.29 C-44.25 -24.84, -43.41 -28.6, -39.95 -31.18 C-36.49 -33.77, -31.07 -34.8, -24.59 -35.81 C-18.11 -36.83, -8.48 -36.75, -1.05 -37.28 C6.38 -37.82, 14.16 -39.51, 19.96 -39.03 C25.77 -38.55, 30.01 -37.59, 33.77 -34.4 C37.54 -31.21, 40.78 -26.3, 42.55 -19.87 C44.31 -13.45, 44.74 -3.46, 44.38 4.14 C44.02 11.73, 42.31 19.81, 40.4 25.69 C38.5 31.57, 36.29 36.45, 32.94 39.41 C29.58 42.38, 26.35 43.21, 20.27 43.5 C14.18 43.79, 4.22 41.25, -3.58 41.13 C-11.37 41.02, -20.49 41.31, -26.49 42.83 C-32.49 44.35, -36.15 47.51, -39.57 50.26 C-43 53.02, -46.12 55.38, -47.03 59.36 C-47.95 63.35, -44.79 70.99, -45.06 74.17 C-45.34 77.36, -46.5 77.88, -48.66 78.48 C-50.82 79.08, -54.26 79.2, -58.02 77.76 C-61.78 76.33, -68.38 72.9, -71.24 69.88 C-74.09 66.87, -73.83 64.64, -75.14 59.68 C-76.45 54.73, -78.92 46.7, -79.1 40.15 C-79.27 33.6, -78.24 25.24, -76.2 20.4 C-74.15 15.57, -70.67 13.56, -66.85 11.15 C-63.03 8.74, -60.59 6.85, -53.26 5.96 C-45.92 5.06, -30.71 5.95, -22.82 5.78 C-14.93 5.61, -9.86 5.18, -5.93 4.92 C-1.99 4.66, -0.13 4.93, 0.77 4.23 C1.67 3.54, -0.68 1.66, -0.53 0.74" stroke="#fab005" stroke-width="2" fill="none"></path></g></g><mask></mask><g stroke-linecap="round" transform="translate(51.00290522628188 24.582888957239447) rotate(0 7.636698603846639 7.636698603846526)"><path d="M7.59 -0.22 C9.17 -0.49, 11.02 0.31, 12.25 1.35 C13.48 2.39, 14.7 4.38, 14.97 6.02 C15.24 7.65, 14.63 9.65, 13.85 11.17 C13.08 12.69, 11.84 14.45, 10.32 15.13 C8.79 15.81, 6.29 15.76, 4.68 15.25 C3.07 14.73, 1.44 13.55, 0.64 12.06 C-0.15 10.58, -0.42 8.05, -0.09 6.33 C0.24 4.61, 1.24 2.83, 2.62 1.72 C3.99 0.61, 7.22 -0.09, 8.16 -0.32 C9.1 -0.55, 8.42 0.24, 8.27 0.34 M8.2 -0.56 C9.77 -0.5, 11.66 1.31, 12.88 2.61 C14.11 3.91, 15.38 5.54, 15.55 7.24 C15.72 8.95, 14.86 11.59, 13.89 12.85 C12.93 14.12, 11.24 14.6, 9.74 14.82 C8.24 15.05, 6.5 14.79, 4.9 14.2 C3.3 13.61, 0.83 12.79, 0.13 11.3 C-0.57 9.8, 0.13 6.94, 0.69 5.22 C1.25 3.51, 2.24 1.77, 3.49 1.01 C4.74 0.25, 7.33 0.75, 8.19 0.65 C9.06 0.56, 8.64 0.39, 8.66 0.45" stroke="none" stroke-width="0" fill="#ffffff"></path><path d="M9.26 0.44 C10.78 0.68, 13.05 2.1, 14.02 3.32 C14.98 4.55, 15.21 6.2, 15.04 7.81 C14.86 9.42, 14.06 11.69, 12.96 12.98 C11.86 14.28, 10.01 15.41, 8.43 15.57 C6.86 15.74, 4.77 14.87, 3.49 13.97 C2.22 13.08, 1.33 11.76, 0.81 10.2 C0.29 8.64, -0.18 6.24, 0.37 4.61 C0.93 2.98, 2.53 1.09, 4.13 0.41 C5.73 -0.27, 9 0.52, 9.97 0.52 C10.93 0.51, 10.04 0.27, 9.92 0.38 M5.87 0.89 C7.35 0.59, 9.5 0.92, 10.9 1.51 C12.29 2.1, 13.65 2.94, 14.23 4.44 C14.81 5.94, 14.86 8.93, 14.38 10.52 C13.89 12.11, 12.5 13.18, 11.31 13.96 C10.12 14.74, 8.65 15.33, 7.21 15.2 C5.78 15.08, 4 14.35, 2.7 13.24 C1.39 12.13, -0.47 10.26, -0.63 8.57 C-0.78 6.88, 0.74 4.48, 1.77 3.1 C2.8 1.72, 4.82 0.65, 5.56 0.3 C6.3 -0.05, 6.17 0.81, 6.22 0.98" stroke="#1971c2" stroke-width="2" fill="none"></path></g><g stroke-linecap="round" transform="translate(110.68094152692379 146.6896418965389) rotate(0 8.15527433513796 8.155274335138074)"><path d="M9.95 -0.09 C11.54 0.23, 13.61 1.78, 14.59 3.22 C15.57 4.66, 15.92 6.74, 15.82 8.57 C15.71 10.4, 15.16 12.84, 13.94 14.19 C12.73 15.54, 10.32 16.44, 8.52 16.64 C6.72 16.84, 4.54 16.45, 3.14 15.39 C1.74 14.33, 0.55 12.06, 0.14 10.27 C-0.26 8.48, -0.09 6.3, 0.72 4.68 C1.52 3.05, 3.34 1.21, 4.98 0.51 C6.62 -0.19, 9.73 0.55, 10.57 0.47 C11.41 0.39, 10.03 -0.04, 10 0.02 M8.92 0.27 C10.69 0.5, 13.22 1.33, 14.47 2.7 C15.73 4.06, 16.36 6.77, 16.45 8.47 C16.53 10.16, 15.95 11.65, 14.97 12.89 C14 14.12, 12.45 15.35, 10.6 15.87 C8.76 16.39, 5.49 16.83, 3.88 16.03 C2.28 15.23, 1.55 12.81, 0.98 11.05 C0.4 9.29, 0.01 6.98, 0.42 5.44 C0.83 3.91, 1.95 2.72, 3.45 1.86 C4.94 1.01, 8.44 0.55, 9.38 0.32 C10.32 0.09, 9.03 0.36, 9.1 0.49" stroke="none" stroke-width="0" fill="#ffffff"></path><path d="M9.85 0.4 C11.48 0.51, 13.15 1.37, 14.18 2.68 C15.21 4, 16.04 6.45, 16.05 8.29 C16.07 10.14, 15.35 12.45, 14.28 13.76 C13.2 15.06, 11.21 15.82, 9.59 16.12 C7.97 16.42, 6.11 16.42, 4.55 15.55 C2.99 14.69, 0.94 12.67, 0.25 10.9 C-0.43 9.14, -0.27 6.53, 0.45 4.94 C1.16 3.35, 2.87 2.16, 4.53 1.37 C6.2 0.59, 9.44 0.31, 10.46 0.21 C11.47 0.12, 10.78 0.68, 10.63 0.8 M7.49 0.64 C9.09 0.29, 11.29 0.33, 12.64 1.38 C13.99 2.42, 15.19 5.2, 15.58 6.94 C15.98 8.67, 15.61 10.32, 14.99 11.78 C14.38 13.24, 13.32 14.92, 11.89 15.69 C10.46 16.46, 8.3 16.82, 6.42 16.41 C4.55 15.99, 1.68 14.7, 0.65 13.18 C-0.38 11.65, -0.02 9.05, 0.24 7.24 C0.49 5.42, 0.89 3.37, 2.18 2.27 C3.47 1.18, 7.08 0.95, 7.96 0.67 C8.85 0.39, 7.58 0.55, 7.49 0.61" stroke="#f08c00" stroke-width="2" fill="none"></path></g></svg>