<?xml version="1.0" standalone="no"?>
<!DOCTYPE svg PUBLIC "-//W3C//DTD SVG 1.1//EN" "http://www.w3.org/Graphics/SVG/1.1/DTD/svg11.dtd">
<svg version="1.1" xmlns="http://www.w3.org/2000/svg" viewBox="0 0 238.28650572443075 235.6137808157" width="238.28650572443075" height="235.6137808157"><!-- svg-source:excalidraw --><metadata></metadata><defs><style class="style-fonts">
      </style></defs><g stroke-linecap="round"><g transform="translate(16.871404026981736 169.8431588217918) rotate(6.903379189375651 6.2103426810493545 -31.05171340524703)"><path d="M1.01 1.23 C2.01 -21.09, 8.54 -38.95, 12.43 -64.81 M-0.04 -1.55 C3.07 -14.03, 3.49 -27.13, 12.11 -63.64" stroke="#1971c2" stroke-width="2" fill="none"></path></g></g><mask></mask><g stroke-linecap="round"><g transform="translate(31.080579173425576 114.63200929457253) rotate(6.903379189375651 49.68274144839489 12.420685362098538)"><path d="M-2.67 -3.14 C21.94 1.94, 43.32 7.48, 96.42 26.61 M0.81 0.04 C28.61 10.09, 60.07 15.09, 98.54 24.53" stroke="#1971c2" stroke-width="2" fill="none"></path></g></g><mask></mask><g stroke-linecap="round"><g transform="translate(142.43898375603408 121.38181572719623) rotate(6.903379189375651 -6.210342681049383 12.420685362098538)"><path d="M0.11 -1.43 C-4.27 6.77, -9.85 17.22, -12.34 24.8 M-0.79 0.5 C-2.82 4.76, -5.85 10.91, -11.94 25.49" stroke="#1971c2" stroke-width="2" fill="none"></path></g></g><mask></mask><g stroke-linecap="round"><g transform="translate(142.97634795905924 125.18829290265512) rotate(6.903379189375651 24.841370724197475 6.210342681049497)"><path d="M0 -1.35 C9.54 3.99, 22.09 5.82, 48.14 13.23 M-0.16 -0.77 C14.5 3.35, 30.4 7.91, 48.91 11.64" stroke="#1971c2" stroke-width="2" fill="none"></path></g></g><mask></mask><g stroke-linecap="round"><g transform="translate(10.356709798276597 177.77157604318108) rotate(6.903379189375651 74.52411217259237 18.631028043148035)"><path d="M-2.94 1.77 C34.25 10.46, 65.09 20.67, 149.13 34.1 M-0.83 -0.31 C53.03 16.64, 102.71 26.83, 149.24 37.21" stroke="#1971c2" stroke-width="2" fill="none"></path></g></g><mask></mask><g stroke-linecap="round"><g transform="translate(186.54011352539078 138.7134233732304) rotate(6.903379189375651 -12.420685362098709 43.47239876734557)"><path d="M0.16 -0.08 C-10.15 22.04, -12.74 37.48, -22.84 86.31 M0.97 1.3 C-7.8 17.75, -11.61 38.65, -23.22 88.53" stroke="#1971c2" stroke-width="2" fill="none"></path></g></g><mask></mask><g stroke-linecap="round"><g transform="translate(64.36009189722154 12.097178144278587) rotate(6.903379189375651 -6.2103426810493545 43.47239876734557)"><path d="M-3.09 1.61 C-4.13 26.77, -6.48 59.23, -15.5 85.29 M-1.54 -1.56 C-2.51 24.84, -4.61 51.21, -13.44 88.12" stroke="#1971c2" stroke-width="2" fill="none"></path></g></g><mask></mask><g stroke-linecap="round"><g transform="translate(66.75606163010252 22.69621825438753) rotate(6.903379189375651 80.7344548536417 18.631028043148035)"><path d="M0.08 -3.16 C49.55 9.17, 92.59 19.26, 160.85 39.19 M0.19 -0.05 C60.01 17.71, 116.33 30.91, 162.54 37.11" stroke="#1971c2" stroke-width="2" fill="none"></path></g></g><mask></mask><g stroke-linecap="round"><g transform="translate(45.80134215934004 100.90513863262095) rotate(6.903379189375651 24.841370724197446 6.210342681049497)"><path d="M1 -0.32 C15.37 3.79, 33.5 9.81, 50.99 10.88 M0.81 0.79 C10.53 3.36, 22.6 5.45, 49.22 13.01" stroke="#1971c2" stroke-width="2" fill="none"></path></g></g><mask></mask><g stroke-linecap="round"><g transform="translate(96.77305234240589 117.12883444883391) rotate(6.903379189375651 6.210342681049383 -18.631028043148035)"><path d="M-1.54 -0.83 C2.25 -7.25, 6.61 -17.99, 10.86 -37.07 M-0.51 0.59 C3.93 -11.25, 6.62 -21.67, 11.59 -37.07" stroke="#1971c2" stroke-width="2" fill="none"></path></g></g><mask></mask><g stroke-linecap="round"><g transform="translate(108.75561100845289 86.57155473167586) rotate(6.903379189375651 49.68274144839489 18.631028043148035)"><path d="M-0.62 1.93 C30.27 8.33, 52.79 22.38, 99.26 40.5 M1.07 -0.15 C36.35 14.13, 73.29 27.47, 99.64 36.81" stroke="#1971c2" stroke-width="2" fill="none"></path></g></g><mask></mask><g stroke-linecap="round"><g transform="translate(221.64176097998802 68.52397687305529) rotate(6.903379189375651 -6.210342681049383 31.05171340524703)"><path d="M2.61 -3.08 C-6.53 16.56, -6.72 35.48, -9.26 60.06 M-0.93 1.18 C-5.45 22.65, -7.97 44.1, -14.37 62.85" stroke="#1971c2" stroke-width="2" fill="none"></path></g></g><mask></mask><g stroke-linecap="round" transform="translate(27.352519708752425 120.58497740468283) rotate(0 20 20)"><path d="M1.3 0.13 L39.23 -1.39 L39.97 38.9 L-1.12 40.01" stroke="none" stroke-width="0" fill="#1971c2"></path><path d="M-1.56 0.19 C13.88 1.93, 29.44 -0.71, 41.18 1.07 M-0.83 0.19 C11.84 -0.46, 22.43 0.14, 39.25 0.64 M38.81 -1.29 C38.92 14, 41.69 29.99, 38.31 41.91 M39.63 -0.4 C39.99 10.89, 40.67 22.35, 39.87 40.48 M41.53 39.28 C26.42 38.53, 15.25 42.16, 0.75 40.01 M40.28 39.71 C27.89 40.89, 13.84 39.06, 0.89 39.45 M1.07 38.64 C0.92 28.78, 1.79 19.24, 0.61 -0.09 M-0.59 39.94 C-0.71 29.58, -0.83 18.97, 0.76 -0.18" stroke="#1971c2" stroke-width="2" fill="none"></path></g><g stroke-linecap="round" transform="translate(72.69550336212478 147.3072556184161) rotate(0 45.99730576267666 22.18883515583093)"><path d="M-1.54 -2.78 L91.94 -2.19 L89.75 44.4 L-0.36 42.9" stroke="none" stroke-width="0" fill="#1971c2"></path><path d="M-0.1 3.24 C23.68 -2.21, 43.39 1.97, 91.69 -1.86 M0.28 -0.45 C31.07 0.39, 64.55 0.93, 93.9 -1.12 M90.28 -3.64 C95.29 9.53, 88.08 29.46, 91.66 48.05 M91.23 -1.56 C92.27 10.32, 91.4 25.57, 92.41 44.14 M90.5 40.8 C58.86 47.39, 23.52 43.74, 0.71 42.1 M93.19 46.19 C63.28 42.01, 39.32 42.75, -0.41 43.36 M1.44 44.29 C2.71 30.57, 0.74 10.22, -1.68 -1.07 M-1.63 44.19 C-1.36 29.65, 2.05 16.1, 1.3 0.13" stroke="#1971c2" stroke-width="2" fill="none"></path></g><g stroke-linecap="round" transform="translate(21.191488964323298 138.80339694368286) rotate(0 38.6682150474478 17.856767036261772)"><path d="M-0.06 -2.19 L75.1 0.02 L76.97 34.23 L-2.07 38.73" stroke="none" stroke-width="0" fill="#1971c2"></path><path d="M3.16 -2.04 C26.28 0.89, 47.55 -3.11, 79.69 -3.31 M-1.95 0.75 C23.22 1.64, 51.32 -0.77, 77.11 -1.19 M81.16 -3.29 C73.64 12.23, 76.7 20.49, 76.42 34.23 M77.94 -1.98 C76.8 10.24, 77.48 18.3, 78.94 37.25 M79.19 39.39 C58.45 34.36, 37.24 32.05, -0.16 36.84 M75.84 33.88 C58.13 36.02, 34.96 36.1, 1.66 36.78 M3.18 38.9 C0.96 27.24, -1.93 18.07, 0.58 -2.35 M-1.88 34.94 C2.11 24.86, 1.88 14.87, -0.77 -1.39" stroke="#1971c2" stroke-width="2" fill="none"></path></g><g stroke-linecap="round" transform="translate(123.22774390336394 171.60160944651852) rotate(0 19.91755496720873 19.95674178647323)"><path d="M-1.12 0.01 L39.65 -0.74 L38.8 41.42 L-1.36 38.24" stroke="none" stroke-width="0" fill="#1971c2"></path><path d="M1.18 1.07 C15.02 -0.73, 31.52 -1.45, 40.22 0.28 M-0.75 0.64 C12.01 -0.71, 21.99 -0.75, 39.19 -0.43 M38.14 1.91 C40.05 10.18, 39.76 15.94, 39.03 39.15 M39.7 0.48 C40.16 8.73, 40.76 18.47, 39.47 39.54 M40.59 39.93 C31.8 39.14, 22.97 40.84, -0.57 41.11 M40.72 39.36 C24.07 39.04, 9.55 40.08, -0.68 40.27 M0.61 39.82 C-1.16 27.49, -0.03 14.96, -0.13 -1.63 M0.76 39.73 C1.03 28.38, -0.01 16.02, -0.01 -0.55" stroke="#1971c2" stroke-width="2" fill="none"></path></g><g stroke-linecap="round" transform="translate(34.80279088509428 116.05004262612056) rotate(0 20 20)"><path d="M20.82 -0.74 L38.97 22.51 L19.64 38.33 L-0.92 22.18" stroke="none" stroke-width="0" fill="#1971c2" fill-rule="evenodd"></path><path d="M20.85 -0.93 C27.03 3.47, 30.98 10.63, 39.55 19.05 M21.95 -0.56 C27.14 6.36, 33.02 13.62, 39.09 21.96 M39.83 22.84 C35.25 24.58, 30.76 28.69, 19.44 40.6 M40.21 20.88 C36.96 25.68, 31.97 28.36, 20.11 40.46 M21.35 38.86 C12.62 33.12, 3.9 26.3, 1.81 19.51 M20.79 39.49 C17.29 36.46, 11.41 32.34, -0.02 21.8 M-0.84 20.46 C8.2 11.86, 15.75 3.44, 20.81 -1.88 M0.65 21.07 C4.94 14.85, 10.8 9.51, 20.44 0" stroke="#1971c2" stroke-width="2" fill="none"></path></g><g stroke-linecap="round" transform="translate(21.289939017396364 118.5341948689238) rotate(289.0548623253812 18.657922040512517 13.419081862333769)"><path d="M-1.03 1.51 L35.95 -1.67 L36.39 28.02 L0.3 27.48" stroke="none" stroke-width="0" fill="#1971c2"></path><path d="M1.18 -1.65 C13.58 0.45, 25.94 -1.77, 38.06 -1.49 M-0.11 -0.6 C12.95 -0.22, 26.29 1.17, 36.49 -0.85 M36.86 -0.74 C36.49 9.85, 35.73 21.83, 35.34 26.58 M38.12 0.77 C37.01 8.98, 36.48 19.16, 38.23 27.22 M37.23 27.4 C25.52 27.82, 16.69 25.13, -1.84 28.62 M38.14 27.37 C27.49 27.01, 19 27.44, 0.8 27.14 M0.29 25.66 C-0.01 17.28, -0.07 9.1, -0.77 1.53 M-0.39 26.14 C-0.19 18.73, -0.73 11.73, -0.09 -0.37" stroke="#1971c2" stroke-width="2" fill="none"></path></g><g stroke-linecap="round" transform="translate(15.081937954180603 140.76042551019418) rotate(289.0548623253812 18.657922040512517 13.419081862333769)"><path d="M-1.36 -1.67 L36.39 1.18 L37.62 27.48 L1.88 26.36" stroke="none" stroke-width="0" fill="#1971c2"></path><path d="M0.39 0.28 C9.01 -1.64, 19.67 -1.18, 38.6 1.91 M-0.65 -0.43 C8.19 1.18, 17.38 -0.62, 38.27 -0.08 M36.51 -0.76 C35.69 11.12, 35.28 20.77, 38.28 27.26 M36.95 -0.37 C36.64 8.19, 38.45 15.84, 37.32 27.01 M36.74 28.03 C30.06 25.45, 17.35 28.72, -1.1 26.43 M36.64 27.2 C28 27.83, 19.51 27.34, -0.05 26.42 M-0.13 25.21 C-0.23 17.63, -0.81 13.7, -0.37 1.3 M-0.01 26.29 C-0.46 18.61, 0.01 10.01, -0.52 0.75" stroke="#1971c2" stroke-width="2" fill="none"></path></g><g stroke-linecap="round" transform="translate(69.17267370242598 79.54804846103434) rotate(289.0548623253812 18.657922040512517 13.419081862333769)"><path d="M-0.92 1.18 L37.62 0.64 L39.2 26.36 L0.79 26.97" stroke="none" stroke-width="0" fill="#1971c2"></path><path d="M-0.45 -1.95 C8.86 -1.54, 17.51 1.86, 36.19 -0.22 M-0.91 0.96 C8.14 -0.69, 18.89 0.08, 38.23 -0.23 M35.75 0.6 C35.23 6.79, 38.18 14.53, 37.08 28.45 M36.42 0.46 C38.14 10.48, 37.23 20.39, 36.75 26.8 M39.13 25.35 C23.23 28.84, 11.73 26.65, -1.02 28.49 M37.29 27.63 C24.92 27.28, 10.89 26.55, -0.27 26.98 M-0.19 24.96 C-0.76 21.89, -0.35 15.19, 0.13 -0.77 M-0.56 26.84 C-0.09 20.28, -0.51 15.22, -0.68 -0.84" stroke="#1971c2" stroke-width="2" fill="none"></path></g><g stroke-linecap="round" transform="translate(47.17733180977075 61.49102393115572) rotate(289.0548623253812 26.632856097871354 16.951655168149955)"><path d="M0.6 1.27 L57.03 -0.96 L54.84 34.17 L-1.67 36.73" stroke="none" stroke-width="0" fill="#1971c2"></path><path d="M1.49 -2.98 C19.29 4.85, 31.18 0.59, 50.88 -2.58 M-1.64 -1.69 C15.6 -1.19, 29.22 -1.48, 52.52 -0.81 M49.31 -0.53 C54.67 9.71, 52.26 20.97, 56.33 32.45 M55.1 0.75 C52.67 9.26, 51.52 17.73, 53.83 33.33 M49.59 37.46 C31.92 32.29, 12.93 36.42, 2.14 31.18 M54.86 34.51 C35.27 33.91, 16.93 35.04, -1.18 33.78 M-1.54 36.96 C-0.67 29.1, 0.33 17.54, -2.78 -0.06 M-0.18 33.16 C-0.65 27.1, -0.99 15.6, -0.92 1.18" stroke="#1971c2" stroke-width="2" fill="none"></path></g><g stroke-linecap="round" transform="translate(70.45823129739392 41.204070832623984) rotate(289.0548623253812 26.632856097871354 16.951655168149955)"><path d="M3.77 -0.96 L54.84 0.26 L51.6 36.73 L-3.66 30.21" stroke="none" stroke-width="0" fill="#1971c2"></path><path d="M2.58 3.82 C8.55 0.35, 19.21 -1.79, 51.55 -3.64 M1.91 -0.17 C22.91 0.45, 41.41 0.1, 52.5 -1.56 M55.2 0.84 C52.12 14.4, 55.66 20.93, 51.77 30.33 M53.28 0.35 C52.75 11.66, 54.45 22.91, 54.46 35.72 M51.07 33.08 C39.23 38.16, 31.39 32.13, 1.44 33.82 M53.17 33.06 C32.51 34.52, 11.65 34.1, -1.63 33.72 M-0.73 36.51 C0.53 25.38, -2.52 19.88, -2.19 -2.24 M-1.03 35.41 C-1.3 22.04, -0.86 14.71, 0.3 0.64" stroke="#1971c2" stroke-width="2" fill="none"></path></g><g stroke-linecap="round" transform="translate(66.3675103772407 59.950035541683974) rotate(294.48677859654964 26.632856097871354 16.951655168149955)"><path d="M1.58 0.26 L51.6 2.83 L49.61 30.21 L3.56 30.22" stroke="none" stroke-width="0" fill="#1971c2"></path><path d="M-2.25 -0.45 C9.62 -3.6, 22.3 -4.66, 57.09 -3.29 M1.84 -0.46 C10.72 -0.72, 22.17 -1.48, 53.87 -1.98 M52.79 3.21 C56.66 8.28, 52.1 15.88, 55.12 37.58 M52.12 -0.08 C53.83 10.88, 54.46 24.71, 51.77 32.07 M51.23 37.22 C34.69 30.97, 13.28 33.6, 3.18 37.09 M52.73 34.19 C34.49 33.33, 16.44 33.27, -1.88 33.13 M0.27 32.36 C-2.66 21.09, -2.07 6.15, 0.02 -0.36 M-1.36 32.23 C-0.57 26.17, 0.65 16.71, 1.88 -0.48" stroke="#1971c2" stroke-width="2" fill="none"></path></g><g stroke-linecap="round" transform="translate(91.36610252392416 38.531739794450914) rotate(294.48677859654964 21.657956906756112 17.513608341955205)"><path d="M-0.84 1.41 L41.49 -1.85 L45.1 33.19 L-1.39 36.48" stroke="none" stroke-width="0" fill="#1971c2"></path><path d="M-1.19 -1.29 C16.27 -1.77, 36.17 -1.6, 41.62 1.91 M-0.37 -0.4 C12.25 -0.68, 25.57 -0.89, 43.18 0.48 M44.85 -0.72 C42.53 9.45, 44.2 24.32, 44.07 35.04 M43.6 -0.29 C43.71 12.03, 42.37 21.33, 44.2 34.48 M44.38 33.67 C31.93 35.34, 20.7 36.98, 0.61 34.93 M42.73 34.96 C31.32 35, 20.02 34.7, 0.76 34.84 M-1.39 35 C-1.12 21.12, -0.01 9.27, -0.74 -1.03 M-0.46 35.62 C0.39 22.2, 1.18 8.49, 0.39 0.07" stroke="#1971c2" stroke-width="2" fill="none"></path></g><g stroke-linecap="round" transform="translate(123.55493397273221 54.20042309574637) rotate(294.48677859654964 21.657956906756112 17.513608341955205)"><path d="M-1.83 -1.85 L45.1 -1.84 L41.92 36.48 L1.7 36.49" stroke="none" stroke-width="0" fill="#1971c2"></path><path d="M-0.86 -1.82 C14.43 -1.37, 23.33 2.19, 43.15 1.84 M-0.38 -0.78 C12.31 -0.81, 23.88 0.66, 43.52 -0.12 M42.57 -1.79 C44.51 15.16, 44.34 26.66, 43.67 33.89 M43.91 0.91 C42.67 9.45, 44.3 20.18, 43.11 34.52 M44.04 34.98 C28.33 36.32, 10.76 34.64, -0.84 34.49 M42.5 34.93 C28.75 34.61, 16.83 34.82, 0.65 35.09 M-1.1 33.91 C0.25 25.69, -0.5 15.68, 1.51 -1.36 M0.15 35.35 C1.1 27.21, 0.56 19.94, -0.42 0.71" stroke="#1971c2" stroke-width="2" fill="none"></path></g><g stroke-linecap="round" transform="translate(134.96531868575175 61.7322659884112) rotate(294.48677859654964 21.657956906756112 17.513608341955205)"><path d="M1.78 -1.84 L41.92 1.46 L45.01 36.49 L-1.64 35.22" stroke="none" stroke-width="0" fill="#1971c2"></path><path d="M1.91 -1.64 C8.5 2.3, 20.23 2.23, 42.86 -0.74 M0.3 -0.99 C11.11 0.82, 22.7 0.22, 44.12 0.77 M44.24 1.84 C43.94 9.25, 43.54 17.34, 43.24 35.59 M42.57 -0.92 C44.41 8.95, 43.32 18.5, 44.14 35.56 M44.91 36.62 C33.87 34.93, 22.38 34.48, 0.29 33.85 M42.38 34.64 C31.36 34.8, 18.53 35.05, -0.39 34.33 M0.01 34.85 C-0.55 23.54, 1.7 12.75, -1.67 -0.92 M0.94 34.79 C0.34 22.51, -0.47 10.57, -0.91 -0.92" stroke="#1971c2" stroke-width="2" fill="none"></path></g><g stroke-linecap="round" transform="translate(142.6734394919829 51.634429091923266) rotate(289.5421646653013 21.657956906756112 17.513608341955205)"><path d="M-1.39 1.46 L45.01 1.47 L41.67 35.22 L1.96 36.47" stroke="none" stroke-width="0" fill="#1971c2"></path><path d="M-1.69 1.91 C8.89 2.19, 17.65 -0.39, 42.51 -0.76 M-0.13 0.48 C9.82 0.31, 20.02 1.19, 42.95 -0.37 M44.07 0.01 C43.83 6.24, 43.4 15.32, 42.74 36.22 M44.2 -0.55 C42.85 13.17, 43.88 27.9, 42.64 35.39 M43.92 34.93 C29.57 34.84, 17.8 34.2, -0.13 33.4 M44.08 34.84 C31.38 34.93, 17.75 34.16, -0.01 34.48 M-0.74 33.99 C1.51 25.12, -1.68 17.01, 1.18 0.3 M0.39 35.09 C-0.75 24.11, -1.24 10.86, 0.89 -0.92" stroke="#1971c2" stroke-width="2" fill="none"></path></g><g stroke-linecap="round" transform="translate(123.93706482515904 46.64920046412135) rotate(289.5421646653013 21.657956906756112 17.513608341955205)"><path d="M1.7 1.47 L41.67 0.2 L45.28 36.47 L1.77 36.97" stroke="none" stroke-width="0" fill="#1971c2"></path><path d="M-0.17 1.84 C8.98 -1.16, 18.06 -1.18, 41.75 0.6 M0.21 -0.12 C9.51 0.56, 17.06 -0.58, 42.42 0.46 M43.67 -1.14 C43.37 14.29, 42.87 28.64, 45.13 33.53 M43.11 -0.51 C44.46 7.82, 42.95 14.94, 43.29 35.82 M42.48 34.49 C27.16 33.83, 10.31 33.38, -0.19 33.15 M43.97 35.09 C31.61 34.25, 20.66 34.4, -0.56 35.03 M1.51 33.66 C-1.54 23.91, 1.31 14.94, 0.64 1.88 M-0.42 35.73 C-1.05 24.43, 0.75 14.77, -0.7 0.73" stroke="#1971c2" stroke-width="2" fill="none"></path></g><g stroke-linecap="round" transform="translate(155.5818278256006 68.57340545027637) rotate(294.48677859654964 21.657956906756112 17.513608341955205)"><path d="M-1.64 0.2 L45.28 1.44 L45.08 36.97 L-1.28 35.62" stroke="none" stroke-width="0" fill="#1971c2"></path><path d="M-0.46 -0.74 C16.32 -1.16, 32.7 0.2, 41.34 -0.26 M0.8 0.77 C14.73 -0.32, 29.29 0.51, 44.23 0.38 M43.24 0.56 C42.8 11.72, 45.19 19.57, 41.48 36.81 M44.14 0.53 C42.56 8.95, 43.22 17.97, 44.11 35.33 M43.61 33.85 C30.4 33.28, 17.54 33.03, -0.77 36.55 M42.93 34.33 C31.1 34.51, 18.36 35.06, -0.09 34.66 M-1.67 34.1 C0.92 26.63, 0.37 19.51, -0.48 0.79 M-0.91 34.1 C1.04 23.37, -0.55 14.28, 0.85 0.73" stroke="#1971c2" stroke-width="2" fill="none"></path></g><g stroke-linecap="round" transform="translate(165.5818278256006 78.57340545027637) rotate(294.48677859654964 21.657956906756112 17.513608341955205)"><path d="M1.96 1.44 L45.08 1.94 L42.04 35.62 L-0.72 36.68" stroke="none" stroke-width="0" fill="#1971c2"></path><path d="M-0.81 -0.76 C15.41 0.76, 31.97 -0.1, 44.28 0.42 M-0.36 -0.37 C11.58 0.13, 25.87 0.05, 43.32 0.18 M42.74 1.19 C45.11 7.02, 41.46 18.8, 42.22 34.62 M42.64 0.36 C43.58 9.52, 44.4 17.76, 43.27 34.61 M43.19 33.4 C31.3 32.89, 18.88 36.3, -0.37 36.33 M43.3 34.48 C29.47 34.73, 16.66 34.36, -0.52 35.78 M1.18 35.33 C0.93 28.79, -0.19 19.58, 0.13 -0.84 M0.89 34.11 C-0.38 22.77, 1.17 9.79, -0.82 0.1" stroke="#1971c2" stroke-width="2" fill="none"></path></g><g stroke-linecap="round" transform="translate(116.31752692373448 45.21939369769552) rotate(296.3865674356162 21.657956906756112 17.513608341955205)"><path d="M1.77 1.94 L42.04 0.6 L42.6 36.68 L-0.78 34.89" stroke="none" stroke-width="0" fill="#1971c2"></path><path d="M-1.56 0.6 C9.41 -0.1, 23.74 0.58, 43.08 1.61 M-0.89 0.46 C17.23 0.54, 32.63 0.34, 42.75 -0.04 M45.13 -1.49 C41.38 13.27, 42.12 22.58, 42.3 36.68 M43.29 0.8 C43.87 12.68, 43.03 24.34, 43.05 35.17 M43.13 33.15 C32.1 36.2, 22.05 35.98, 0.13 34.26 M42.76 35.03 C33.24 34.42, 22.84 35.54, -0.68 34.19 M0.64 36.91 C-0.69 26.93, -0.08 16.41, 1.41 -1.83 M-0.7 35.76 C0.54 28.48, -1.13 20.58, 0.98 0.72" stroke="#1971c2" stroke-width="2" fill="none"></path></g><g stroke-linecap="round" transform="translate(95.64189345206978 36.708235568242344) rotate(289.54060266726987 21.657956906756112 17.513608341955205)"><path d="M-1.28 0.6 L42.6 1.65 L42.54 34.89 L1.44 34.74" stroke="none" stroke-width="0" fill="#1971c2"></path><path d="M-1.98 -0.26 C12.31 0.29, 22.45 1.48, 44.85 -0.72 M0.92 0.38 C11.39 -0.02, 22.19 -0.24, 43.6 -0.29 M41.48 1.78 C42.54 12.18, 42.62 26.85, 44.38 33.67 M44.11 0.3 C43.26 11.35, 43.04 23.69, 42.73 34.96 M42.54 36.55 C33.48 35.92, 24.51 33.85, -1.39 35 M43.23 34.66 C32.18 35.78, 21.39 34.19, -0.46 35.62 M-0.48 35.82 C0.02 23.16, 1.3 11.13, -1.85 1.78 M0.85 35.76 C-0.58 27.84, 1.22 21.17, 0.88 0.97" stroke="#1971c2" stroke-width="2" fill="none"></path></g><g stroke-linecap="round" transform="translate(163.76570882180818 60.98464648866502) rotate(286.51307418627624 21.657956906756112 17.513608341955205)"><path d="M-0.72 1.65 L42.54 -0.13 L44.76 34.74 L-0.21 35.6" stroke="none" stroke-width="0" fill="#1971c2"></path><path d="M0.97 0.42 C14.06 1.66, 30.13 -0.67, 42.57 -1.79 M0.01 0.18 C14.43 -0.2, 30.28 -0.45, 43.91 0.91 M42.22 -0.41 C41.98 9.55, 44.06 14.43, 44.04 34.98 M43.27 -0.42 C43.33 13.44, 43.01 26.53, 42.5 34.93 M42.95 36.33 C34.53 34.59, 24.08 35.33, -1.1 33.91 M42.8 35.78 C29.62 34.03, 16.82 35.46, 0.15 35.35 M0.13 34.19 C1.5 19.39, -1.76 9.19, -1.84 -1.39 M-0.82 35.13 C0.68 22.69, 0.59 9.88, -0.64 0.3" stroke="#1971c2" stroke-width="2" fill="none"></path></g><g stroke-linecap="round" transform="translate(176.34945908297595 88.05401570068443) rotate(207.852760629081 16.025821783151628 16.476906665413026)"><path d="M-0.78 -0.13 L33.5 -0.29 L31.85 33.53 L0.88 32.86" stroke="none" stroke-width="0" fill="#1971c2"></path><path d="M-0.24 1.61 C10.73 -0.79, 17.64 -1.85, 32.98 1.84 M-0.57 -0.04 C11.11 -0.34, 22.25 0.85, 31.31 -0.92 M31.04 1.66 C32.94 11.46, 32.59 25.59, 33.64 34.55 M31.78 0.15 C31.45 10.83, 31.22 21.68, 31.11 32.57 M32.18 32.18 C18.6 33.13, 6.83 32.04, 0.01 32.77 M31.37 32.12 C23.16 33.79, 15.35 33.51, 0.94 32.71 M1.41 31.12 C-1.87 23.55, -1.86 9.19, 1.46 1.7 M0.98 33.67 C1.15 21.62, -0.37 8.65, -0.36 0.83" stroke="#1971c2" stroke-width="2" fill="none"></path></g><g stroke-linecap="round" transform="translate(183.4869295699541 92.71476361526584) rotate(201.33692208770643 14.224278220858537 15.688937865056687)"><path d="M1.44 -0.29 L28.24 0.57 L29.33 31.29 L-0.13 29.83" stroke="none" stroke-width="0" fill="#1971c2"></path><path d="M1.53 -0.72 C8.38 -2.02, 19.18 1.61, 29.2 0.01 M0.28 -0.29 C9.63 0.92, 17.33 -0.91, 29.34 -0.55 M29.52 -1.36 C29.01 8.73, 29.88 19.13, 29.06 31.29 M27.86 -0.06 C27.55 8, 27.42 15.81, 29.21 31.19 M27.06 31.35 C16.96 30.15, 7.68 31.09, -0.74 30.35 M27.99 31.97 C17.92 31.46, 8.03 30.9, 0.39 31.44 M-1.85 33.16 C-2.06 21.88, 1.23 16.87, 1.47 -1.64 M0.88 32.35 C-0.95 21.95, -0.67 12.76, -0.39 -0.07" stroke="#1971c2" stroke-width="2" fill="none"></path></g><g stroke-linecap="round" transform="translate(191.23148274412006 64.37211079061217) rotate(196.71982624534976 14.224278220858537 15.688937865056687)"><path d="M-0.21 0.57 L29.33 -0.09 L28.32 29.83 L-1.69 30.8" stroke="none" stroke-width="0" fill="#1971c2"></path><path d="M-0.75 -1.79 C11.75 1.94, 22.4 0.12, 28.8 -1.14 M0.6 0.91 C7.67 -0.84, 17.73 -0.47, 28.24 -0.51 M29.17 -0.04 C30.21 13.6, 29.22 23.93, 27.61 30.84 M27.63 -0.09 C27.32 9.48, 29.03 19.55, 29.1 31.44 M27.35 30.26 C21.02 31.19, 12.83 30.34, 1.51 30.01 M28.6 31.7 C23.24 31.31, 16.54 31.61, -0.42 32.08 M-1.84 29.99 C1.75 26.53, 1.75 16.65, 0.2 1.96 M-0.64 31.68 C-0.64 20.53, -0.67 7.97, 0.72 -0.14" stroke="#1971c2" stroke-width="2" fill="none"></path></g><g stroke-linecap="round" transform="translate(56.32585213546099 29.987013240378474) rotate(289.0548623253812 26.632856097871354 16.951655168149955)"><path d="M1.76 -0.19 L53 -3.09 L49.89 32.74 L-0.08 37.21" stroke="none" stroke-width="0" fill="#1971c2"></path><path d="M1.85 3.67 C15.56 0.98, 28.81 -1.33, 53.1 1.13 M-1.49 -1.84 C16.23 -2.06, 28.49 -1.98, 54.92 1.07 M56.45 3.18 C54.73 7.68, 51.83 14.66, 53.85 31.55 M51.39 -0.77 C54.24 9.59, 54.02 20.04, 52.5 32.51 M53.28 33.54 C35.88 31.24, 24.48 30.58, -3.35 32.06 M55.15 33.42 C34.92 34.37, 14.17 35.66, -1.83 32.06 M2.91 37.3 C3.55 17.42, 1.02 11.44, 2.88 3.53 M-0.72 35.56 C-0.34 20.31, 1.88 6.7, -0.21 0.57" stroke="#1971c2" stroke-width="2" fill="none"></path></g><g stroke-linecap="round" transform="translate(53.36887232399454 28.325726961631517) rotate(285.50590973326075 26.632856097871354 16.951655168149955)"><path d="M-0.27 -3.09 L49.89 -1.16 L53.19 37.21 L1.13 31.6" stroke="none" stroke-width="0" fill="#1971c2"></path><path d="M1.51 0.03 C11.93 -3.26, 22.28 0.15, 52.12 2.38 M1.78 -1.1 C20.39 -0.04, 43.27 2.05, 51.91 0.72 M54.48 -0.19 C52.13 9.03, 54.39 17.85, 53.01 30.65 M54.79 -0.37 C53.93 9.99, 51.86 18.32, 53.24 32.81 M51.78 31.84 C43.28 31.08, 23.92 31.96, 2.37 34.5 M54.05 34.03 C34.75 35.06, 16.08 31.8, 1.78 32.06 M2.93 30.62 C-0.1 30.02, 2.38 21.82, 3.88 -2.55 M-0.78 33.77 C1.69 22.43, 0.04 12.11, 0.88 -0.09" stroke="#1971c2" stroke-width="2" fill="none"></path></g><g stroke-linecap="round" transform="translate(44.90516904931087 59.05691245368871) rotate(285.50590973326075 26.632856097871354 16.951655168149955)"><path d="M-3.38 -1.16 L53.19 3.31 L54.4 31.6 L-0.61 35.34" stroke="none" stroke-width="0" fill="#1971c2"></path><path d="M0.71 -2.28 C20.71 1.12, 40.6 2.38, 56.89 -2.98 M-0.41 -1.02 C12.74 1.65, 20.81 1.31, 53.22 1.59 M51.59 -1.07 C54.05 10.52, 53.22 22.48, 52.89 30.14 M54.57 0.13 C53.01 7.47, 53.75 16.63, 52.15 33.91 M56.28 31.17 C34.42 31.51, 24.64 33.95, 1.27 37.67 M52.43 35.32 C36.73 32.13, 25.64 32.13, -1.39 35.36 M0.39 37.83 C2.38 24.39, 3.38 5.25, 1.2 -1.43 M1.44 33.62 C0.06 21.5, 1.14 7.87, -0.13 -1.54" stroke="#1971c2" stroke-width="2" fill="none"></path></g><g stroke-linecap="round" transform="translate(34.7996765198036 148.81687779706954) rotate(289.0548623253812 18.657922040512517 13.419081862333769)"><path d="M-0.04 1.65 L37.88 -1.15 L37.01 27.56 L-1.45 27.03" stroke="none" stroke-width="0" fill="#1971c2"></path><path d="M-0.08 0.56 C10.65 1.4, 24.25 -1.28, 35.48 1.78 M0.83 0.53 C8.47 0.55, 18.27 0.99, 38.11 0.3 M37.61 -1.18 C37.08 6.3, 37.02 13.97, 36.54 28.36 M36.93 -0.7 C37.48 7.01, 36.93 15.12, 37.23 26.47 M35.64 25.91 C29.23 26.88, 19.42 28.47, -0.48 27.63 M36.4 25.92 C26.77 26.18, 13.74 27.83, 0.85 27.57 M1.44 28.61 C1.91 19.72, 0.57 14.43, 1.65 -0.78 M-0.1 27.12 C0.25 18.92, -0.26 10.32, -0.84 -0.29" stroke="#1971c2" stroke-width="2" fill="none"></path></g><g stroke-linecap="round" transform="translate(42.0463222022413 126.74834053051472) rotate(289.0548623253812 18.657922040512517 13.419081862333769)"><path d="M0.57 -1.15 L37.01 0.72 L35.87 27.03 L-0.23 25.44" stroke="none" stroke-width="0" fill="#1971c2"></path><path d="M-0.57 1.19 C10.88 -1.6, 16.29 1.67, 36.22 -0.41 M-0.68 0.36 C9.28 0.6, 19.39 0.11, 37.27 -0.42 M37.19 -1.63 C37.17 5.45, 36.58 16.19, 36.95 28.14 M37.3 -0.55 C36.65 8.23, 37.12 16.09, 36.8 27.59 M38.5 27.14 C29.3 28.55, 19.54 27.45, 0.13 26 M38.21 25.92 C22.79 27.22, 10.5 27.23, -0.82 26.94 M1.94 25.56 C0.4 15.44, 1.46 4.69, -0.13 1.44 M0.44 26.79 C-0.04 18.4, -0.82 11.21, -0.02 0.83" stroke="#1971c2" stroke-width="2" fill="none"></path></g><g stroke-linecap="round" transform="translate(66.9468497268324 136.9103003685923) rotate(289.0548623253812 18.657922040512517 13.419081862333769)"><path d="M-0.31 0.72 L35.87 0.19 L37.09 25.44 L1.27 27.7" stroke="none" stroke-width="0" fill="#1971c2"></path><path d="M1.81 -1.49 C10.41 1.56, 23.39 -0.63, 36.3 1.66 M-0.02 0.8 C13.98 0.17, 26.33 -0.55, 37.05 0.15 M37.13 -1.88 C36.53 8, 36.93 14.25, 37.45 26.07 M36.76 0 C37.22 5.81, 36.8 13.12, 36.63 26 M37.95 28.72 C27.37 27.68, 18.51 26.06, 1.41 25.01 M36.62 27.57 C30.41 27.23, 20.99 26.59, 0.98 27.56 M0.6 26.12 C1.39 15.64, -0.39 7.44, -0.29 -0.21 M-0.07 26.07 C-0.96 17.73, -0.14 10.02, 0.28 -0.58" stroke="#1971c2" stroke-width="2" fill="none"></path></g><g stroke-linecap="round" transform="translate(90.87560339486117 145.7765592599053) rotate(289.0548623253812 18.657922040512517 13.419081862333769)"><path d="M-1.45 0.19 L37.09 -1.4 L38.59 27.7 L0.01 27.5" stroke="none" stroke-width="0" fill="#1971c2"></path><path d="M-1.84 1.78 C12.32 -0.13, 25.82 1.93, 38.38 -1.36 M0.8 0.3 C12.49 -0.72, 24.81 -0.15, 36.73 -0.06 M36.54 1.53 C36.92 7.17, 37.42 10.96, 35.92 26.81 M37.23 -0.37 C36.65 7.33, 36.48 12.32, 36.85 27.43 M36.84 27.63 C25.69 26.35, 15.22 25.36, -1.85 28.62 M38.16 27.57 C28.73 27.21, 22.77 27.83, 0.88 27.81 M1.65 26.06 C-0.21 21.94, -0.37 13.96, 0.57 0.88 M-0.84 26.55 C0 19.74, 0.3 10.41, -0.15 0.36" stroke="#1971c2" stroke-width="2" fill="none"></path></g><g stroke-linecap="round" transform="translate(83.05973947249095 166.78999135824688) rotate(289.0548623253812 18.657922040512517 13.419081862333769)"><path d="M-0.23 -1.4 L38.59 0.86 L37.32 27.5 L1.83 26.51" stroke="none" stroke-width="0" fill="#1971c2"></path><path d="M-1.1 -0.41 C7.39 1.32, 17.89 -1.69, 38.04 -0.04 M-0.05 -0.42 C13.9 0.03, 27.74 -0.18, 36.5 -0.09 M36.95 1.3 C37.35 4.76, 35.82 11.03, 36.22 25.72 M36.8 0.75 C36.61 7.23, 36.83 16.72, 37.47 27.16 M37.45 26 C24.02 25.16, 6.05 28.77, -1.84 25.45 M36.49 26.94 C24.38 27.83, 10.37 28.08, -0.64 27.14 M-0.13 28.28 C-0.51 19.54, 0.35 13.54, -0.09 -0.13 M-0.02 27.67 C0.51 20.28, 0.07 15.24, -0.73 0.1" stroke="#1971c2" stroke-width="2" fill="none"></path></g><g stroke-linecap="round" transform="translate(98.08056117933461 173.3887828602783) rotate(289.0548623253812 18.657922040512517 13.419081862333769)"><path d="M1.27 0.86 L37.32 0.67 L39.15 26.51 L1.29 27.51" stroke="none" stroke-width="0" fill="#1971c2"></path><path d="M-1.02 1.66 C15.58 -1.28, 29.74 0.03, 38.91 1.59 M-0.27 0.15 C11.74 0.09, 23.85 0.06, 36.38 -0.39 M37.45 -0.77 C35.88 10.07, 36.17 19.08, 37.33 26.66 M36.63 -0.84 C36.72 7.65, 37.33 14.43, 38.26 26.6 M38.73 25.01 C22.8 28.46, 10.14 25.29, 1.46 28.53 M38.3 27.56 C24.27 27.84, 8.82 27.17, -0.36 27.66 M-0.29 26.63 C0.59 20.71, -0.07 12.69, -1.54 -1.69 M0.28 26.26 C-0.15 19.92, -0.72 12.39, -0.11 -0.7" stroke="#1971c2" stroke-width="2" fill="none"></path></g><g stroke-linecap="round" transform="translate(123.3050083800822 182.7409435079644) rotate(289.0548623253812 18.657922040512517 13.419081862333769)"><path d="M0.01 0.67 L39.15 -0.33 L38.6 27.51 L-0.58 25.67" stroke="none" stroke-width="0" fill="#1971c2"></path><path d="M1.07 -1.36 C11.15 -0.35, 22.45 1.28, 37.92 -0.09 M-0.59 -0.06 C8.82 -0.15, 18.32 -0.44, 38.08 -0.18 M35.92 -0.03 C36.24 8.68, 37.34 19.42, 36.57 25.81 M36.85 0.59 C37.28 10.39, 38.07 19.91, 37.71 26.9 M35.47 28.62 C25.84 25.1, 19.5 28.19, 1.47 25.19 M38.2 27.81 C25.11 27.41, 13.83 27.93, -0.39 26.77 M0.57 27.72 C-0.05 16.72, -1.51 5.17, -0.58 -0.04 M-0.15 27.2 C-0.8 16.66, -0.19 5.6, 0.64 0.43" stroke="#1971c2" stroke-width="2" fill="none"></path></g><g stroke-linecap="round" transform="translate(132.1712820994876 185.93852651202815) rotate(289.0548623253812 18.657922040512517 13.419081862333769)"><path d="M1.83 -0.33 L38.6 0.68 L36.74 25.67 L-0.4 25.65" stroke="none" stroke-width="0" fill="#1971c2"></path><path d="M0.72 -0.04 C15.88 1.85, 29.18 0.16, 36.48 -0.54 M-0.81 -0.09 C10.8 -0.36, 24.24 -0.16, 37.97 0.07 M36.22 -1.12 C37.14 6.84, 36.39 13, 38.82 25.47 M37.47 0.32 C38.13 5.57, 37.59 11.68, 36.9 27.55 M35.48 25.45 C30.99 28.87, 23.22 25.53, 0.2 28.8 M36.68 27.14 C23.08 28.03, 9.17 27.13, 0.72 26.7 M-0.09 26.7 C-1.62 17.38, -0.66 11.25, 1.65 0.57 M-0.73 26.93 C-0.07 19.63, 0.68 14.26, 0 0.33" stroke="#1971c2" stroke-width="2" fill="none"></path></g><g stroke-linecap="round" transform="translate(131.805689353459 186.3827551985296) rotate(294.136465015675 18.657922040512517 13.419081862333769)"><path d="M1.29 0.68 L36.74 -1.17 L36.92 25.65 L1.33 28.82" stroke="none" stroke-width="0" fill="#1971c2"></path><path d="M1.59 1.59 C9.27 -0.08, 16.48 -0.53, 37.61 -1.18 M-0.94 -0.39 C11.72 -0.15, 22.57 0.1, 36.93 -0.7 M37.33 -0.18 C36.43 6.98, 38.68 14.66, 35.64 25.91 M38.26 -0.24 C37.75 9.7, 36.94 19.98, 36.4 25.92 M38.77 28.53 C24.26 24.93, 8.47 28.54, 1.44 28.61 M36.96 27.66 C22.11 26.88, 8.41 26.81, -0.1 27.12 M-1.54 25.15 C-0.57 17.57, 1.67 8.94, -1.15 -0.31 M-0.11 26.14 C0.83 18.25, 0.2 9.14, 0.92 -0.17" stroke="#1971c2" stroke-width="2" fill="none"></path></g><g stroke-linecap="round" transform="translate(142.29157628174016 162.85655714713084) rotate(294.136465015675 18.657922040512517 13.419081862333769)"><path d="M-0.58 -1.17 L36.92 -1.19 L38.65 28.82 L0.05 26.48" stroke="none" stroke-width="0" fill="#1971c2"></path><path d="M0.61 -0.09 C10.28 -0.83, 22.52 -1.47, 37.19 -1.63 M0.76 -0.18 C11.5 0.21, 21.31 -0.55, 37.3 -0.55 M36.57 -1.03 C38.82 5.18, 35.64 12.17, 38.5 27.14 M37.71 0.07 C37.15 9.61, 36.65 16.89, 38.21 25.92 M38.78 25.19 C28.92 29.12, 21.56 28.92, 1.94 25.56 M36.93 26.77 C25.73 27, 12.59 27.43, 0.44 26.79 M-0.58 26.8 C1.86 19.53, -0.94 10.79, 0.72 -1.45 M0.64 27.27 C0.03 18.86, 0.95 10.05, 0.64 0.34" stroke="#1971c2" stroke-width="2" fill="none"></path></g><g stroke-linecap="round" transform="translate(152.61551078598904 140.46410020441817) rotate(291.8607486354426 18.657922040512517 13.419081862333769)"><path d="M-0.4 -1.19 L38.65 1.98 L37.36 26.48 L0.94 26.99" stroke="none" stroke-width="0" fill="#1971c2"></path><path d="M-0.84 -0.54 C14.45 -1.16, 28.2 -1.61, 37.13 -1.88 M0.65 0.07 C9.37 -0.63, 19.49 -0.48, 36.76 0 M38.82 -1.36 C35.54 6.88, 38.4 15.92, 37.95 28.72 M36.9 0.71 C36.51 6.49, 38.31 13.9, 36.62 27.57 M37.51 28.8 C24.39 28.3, 10.53 25.25, 0.6 26.12 M38.04 26.7 C22.93 27.1, 9.2 26.77, -0.07 26.07 M1.65 27.4 C-1.07 20.75, 0.8 13.81, 0.19 -0.23 M0 27.17 C0.74 20.5, 0.47 14.83, -0.29 -0.58" stroke="#1971c2" stroke-width="2" fill="none"></path></g><g stroke-linecap="round" transform="translate(132.16660155640125 132.8102109482188) rotate(291.8607486354426 18.657922040512517 13.419081862333769)"><path d="M1.33 1.98 L37.36 -0.36 L38.26 26.99 L-1.21 25" stroke="none" stroke-width="0" fill="#1971c2"></path><path d="M0.29 -1.18 C10.89 -1.53, 21.86 -1.78, 36.54 1.53 M-0.39 -0.7 C10.49 -0.57, 20.46 -0.02, 37.23 -0.37 M35.64 -0.92 C38.7 6.97, 38.16 15.22, 36.84 27.63 M36.4 -0.92 C38.09 7.31, 36.51 17.18, 38.16 27.57 M38.75 28.61 C31.13 25.93, 21.66 26.49, 1.65 26.06 M37.21 27.12 C26.81 26.74, 15.36 26.01, -0.84 26.55 M-1.15 26.53 C0.5 17.39, -0.03 10.61, -1.4 1.27 M0.92 26.67 C0.64 17.97, -0.29 7.84, -0.2 -0.6" stroke="#1971c2" stroke-width="2" fill="none"></path></g><g stroke-linecap="round" transform="translate(127.1041216077781 131.472848052651) rotate(306.1977957575504 18.657922040512517 13.419081862333769)"><path d="M0.05 -0.36 L38.26 0.15 L36.1 25 L-0.27 28.62" stroke="none" stroke-width="0" fill="#1971c2"></path><path d="M-0.13 -1.63 C10.01 -1.66, 19.61 1.75, 36.95 1.3 M-0.01 -0.55 C10.88 0.26, 22.8 -0.11, 36.8 0.75 M38.5 0.3 C37.73 8.1, 36.61 13.23, 37.45 26 M38.21 -0.92 C36.37 10.68, 37.92 20.63, 36.49 26.94 M39.25 25.56 C23.06 26.45, 9.26 26.39, -0.13 28.28 M37.75 26.79 C26.59 26.17, 15.15 26.66, -0.02 27.67 M0.72 25.39 C0.35 17.8, -1.24 10.49, 0.86 0.01 M0.64 27.18 C-0.53 17.31, -0.44 8.35, 0.67 0.99" stroke="#1971c2" stroke-width="2" fill="none"></path></g><g stroke-linecap="round" transform="translate(58.48314645214873 157.92373246693478) rotate(289.0548623253812 18.657922040512517 13.419081862333769)"><path d="M0.94 0.15 L36.1 -1.84 L37.04 28.62 L1.1 28.6" stroke="none" stroke-width="0" fill="#1971c2"></path><path d="M-0.19 -1.88 C8.23 1.83, 17.63 1.61, 37.45 -0.77 M-0.56 0 C8.51 -0.17, 16.68 0.96, 36.63 -0.84 M37.95 1.88 C37 7.6, 37.61 12.79, 38.73 25.01 M36.62 0.73 C38.4 6.31, 36.73 11.25, 38.3 27.56 M37.91 26.12 C24.48 25.82, 8.2 28.04, -0.29 26.63 M37.25 26.07 C24.21 26.53, 12.77 27.65, 0.28 26.26 M0.19 26.61 C-1.5 20.47, 0.76 11.56, 0.67 1.83 M-0.29 26.26 C-0.37 18.64, 0.49 12.62, 0.02 -0.18" stroke="#1971c2" stroke-width="2" fill="none"></path></g></svg>