<?xml version="1.0" standalone="no"?>
<!DOCTYPE svg PUBLIC "-//W3C//DTD SVG 1.1//EN" "http://www.w3.org/Graphics/SVG/1.1/DTD/svg11.dtd">
<svg version="1.1" xmlns="http://www.w3.org/2000/svg" viewBox="0 0 227.87579736919156 139.43033656157058" width="227.87579736919156" height="139.43033656157058"><!-- svg-source:excalidraw --><metadata></metadata><defs><style class="style-fonts">
      </style></defs><g stroke-linecap="round" transform="translate(14.839114559799327 20.358642623688866) rotate(0 98.30856398065202 49.154281990326126)"><path d="M-2.24 2.64 L198.87 -2.81 L197.05 100 L2.04 97.29" stroke="none" stroke-width="0" fill="#012169"></path><path d="M-1.88 3.54 C57.06 -0.56, 114.26 6.7, 195.14 -3.23 M-0.22 -0.38 C69.93 -2.03, 139.79 -4.21, 197.83 -0.45 M198.7 -2.09 C194.64 35.08, 196.17 65.54, 199.8 95.63 M198.35 0.68 C199.41 28.7, 197.56 58.69, 198.44 98.52 M198.92 97.83 C142.8 98.5, 82.13 97.17, -0.26 95.81 M195.69 98.2 C125.59 100.05, 55.41 101.09, -1.9 97.36 M3.05 96.15 C-1.7 78.09, -1.58 55.96, -2.23 3.67 M0.77 98.95 C-0.27 60.24, -0.19 20.47, -0.11 -0.03" stroke="#012169" stroke-width="1" fill="none"></path></g><g stroke-linecap="round" transform="translate(103.77287540103248 -42.05554514820142) rotate(294.8918638545591 10.165023283563755 109.86545299346699)"><path d="M2.25 -2.81 L20.76 1.69 L22.37 218.71 L-2.28 220.04" stroke="none" stroke-width="0" fill="#ffffff"></path><path d="M0.17 -3.77 C4.92 3.13, 7.4 -3.59, 22.62 0.73 M-0.3 1.8 C7.41 -0.3, 17.38 -0.37, 20.77 1.18 M17.61 2.97 C20.93 65.55, 25.07 124.94, 20.4 222.39 M21.45 -0.85 C23.14 54.16, 25.21 109.65, 20.05 220.86 M22.3 221.9 C12.33 220.52, 9.91 217.18, 2.32 219.27 M19.68 220.41 C13.23 221.43, 5.13 218.76, -1.93 219.43 M-1.72 219.53 C-4.53 169.76, -4.84 127.09, 2.98 1.49 M0.5 219.62 C-0.89 166.45, -1.56 116.51, -0.97 1.14" stroke="#ffffff" stroke-width="1" fill="none"></path></g><g stroke-linecap="round" transform="translate(106.0474686237983 -40.6308986578897) rotate(294.8918638545591 5.578370291825081 107.27928028181668)"><path d="M0.22 0.84 L12.18 -0.51 L10.02 214.72 L0.71 215.03" stroke="none" stroke-width="0" fill="#c8102e"></path><path d="M0.13 0.97 C3.92 -0.8, 9.31 0.31, 12.24 -0.12 M-0.19 -0.1 C3.48 -0.22, 6.4 0.23, 11.1 0.29 M10.45 0.97 C11.07 51.99, 9.71 107.68, 10.27 216.08 M10.91 -0.29 C13.16 71.75, 12.22 143.9, 10.72 215.06 M10.34 214.79 C7.87 213.92, 5.38 214.49, 0.3 214.04 M11.03 215.04 C7.34 214.33, 4.04 214.51, -0.46 214.98 M-0.82 213.52 C-0.04 163.4, 2.44 109.79, -1.14 0.67 M0.29 213.71 C-0.59 143.33, -1.03 72.71, 0.49 -0.62" stroke="#c8102e" stroke-width="1" fill="none"></path></g><g stroke-linecap="round" transform="translate(100.9033461255608 -39.18742960684904) rotate(242.82706771849945 11.22012047797159 108.90259788763387)"><path d="M2.04 -1.02 L20.16 0.31 L23.87 218.74 L0.8 221.55" stroke="none" stroke-width="0" fill="#ffffff"></path><path d="M-1.48 -3.23 C6.91 0.34, 13.14 -0.83, 21.69 -0.6 M1.22 -0.45 C9.19 1.27, 17.3 1.13, 21.4 -1.57 M25.21 -2.33 C20.98 86.63, 19.15 170.95, 23.62 220.05 M24.03 0.18 C21.09 55.81, 20.5 110.34, 22.23 218.66 M22.18 215.3 C16.81 217.44, 7.63 216.05, -0.21 216.51 M20.54 216.85 C13.02 217.89, 5.82 219.72, -1.08 216.81 M-1.94 221 C4.77 155.2, -0.5 90.93, 1.11 1.01 M-0.1 217.78 C-2.22 154.96, -0.27 88.59, 0.19 0.73" stroke="#ffffff" stroke-width="1" fill="none"></path></g><g stroke-linecap="round" transform="translate(104.21363651213301 -35.930267847305004) rotate(243.28971474546262 5.578370291825081 106.45816375139702)"><path d="M-1.14 0.16 L11.87 0.47 L11.56 214.79 L-0.24 212.36" stroke="none" stroke-width="0" fill="#c8102e"></path><path d="M0.64 0.2 C5.41 -0.03, 8.43 -0.08, 12.16 -0.38 M0.12 0.33 C3.08 0.32, 5.98 -0.41, 11.63 -0.22 M11.19 1.35 C11.75 77.17, 13.24 152.43, 10.3 212.42 M11.01 0.57 C12.42 57.29, 12.76 114.01, 11.63 212.27 M11.8 212.79 C7.88 212.33, 3.94 212.48, 0.38 212.67 M10.62 212.83 C6.39 213.29, 2.24 212.59, -0.03 212.66 M1.51 213.67 C-0.1 162.35, 1.6 110.95, -0.11 0.58 M-0.49 213.5 C0.6 169.09, 0.2 126.86, 0.45 -0.22" stroke="#c8102e" stroke-width="1" fill="none"></path></g><g stroke-linecap="round" transform="translate(96.86279586631849 -28.79563936663635) rotate(270 16.284882674132632 98.3085639806518)"><path d="M1.43 0.94 L33.37 3.75 L32.09 195.51 L-0.31 200.03" stroke="none" stroke-width="0" fill="#ffffff"></path><path d="M3.9 -0.44 C6.39 -0.72, 17.88 -1.47, 31.82 2.43 M-0.21 1.04 C8 -1.96, 19.8 -1.19, 33.68 1.59 M30.53 3.47 C34 48.38, 30.68 90.47, 31.24 200.26 M31.57 1.15 C31.69 62.03, 33.01 120.64, 32.99 196.49 M33.65 194.77 C24.62 195.24, 18.46 195.65, 3.44 192.82 M30.93 198.14 C23.27 195.53, 16.01 195.59, -1.19 195.5 M-2.61 198.15 C-2.11 120.76, -3.63 43.9, -3.88 -0.22 M1.13 195.21 C2.42 138.81, 3.22 78.81, -1.14 0.16" stroke="#ffffff" stroke-width="1" fill="none"></path></g><g stroke-linecap="round" transform="translate(95.960423353132 20.358642623688866) rotate(0 16.284882674132632 49.154281990326126)"><path d="M0.8 3.75 L32.09 -1.11 L32.26 101.72 L-3.79 99.16" stroke="none" stroke-width="0" fill="#ffffff"></path><path d="M-0.75 -0.6 C13.97 -1.28, 19.98 2.5, 31.68 0.88 M-1.04 -1.57 C13.41 -1.14, 24.5 1.25, 31.23 0.04 M33.93 2.58 C29.61 35.9, 30.24 77.71, 32.99 97.66 M32.33 0.98 C32.67 34.44, 32 71.67, 31.32 99.47 M32.36 97.01 C24.53 97.11, 17.21 94.21, -1.9 94.44 M31.49 97.31 C23.17 97.87, 12.81 97.69, 1.83 100.03 M1.28 99.47 C1.03 65.9, -2.6 30.64, -0.07 -2.24 M0.22 99.15 C-0.09 61.83, -2.25 26.52, 0.71 0.47" stroke="#ffffff" stroke-width="1" fill="none"></path></g><g stroke-linecap="round" transform="translate(104.21084650563171 -28.79563936663635) rotate(270 8.936832034819417 98.3085639806518)"><path d="M-0.24 -0.55 L17.72 1.7 L15.98 197.04 L-0.41 195.07" stroke="none" stroke-width="0" fill="#c8102e"></path><path d="M1.61 -0.6 C4.83 1.11, 9.94 0.42, 18.93 -0.19 M0.76 -0.36 C6.79 0.85, 11.99 0.16, 18.56 -0.45 M16.89 -0.56 C17.88 77.85, 18.75 151.74, 19.18 195.62 M18.41 -0.73 C17.85 70.24, 17.01 141.19, 17.76 196.89 M18.48 196.22 C14.87 194.86, 7.95 194.83, -0.27 195.15 M17.82 196.2 C10.62 196.03, 5.24 197.3, 0.38 196.03 M-0.12 197.27 C-2.57 129.98, -0.66 62.44, 1.32 1.13 M0.51 196.36 C-0.78 151.52, 0.14 106.5, 0.2 0.94" stroke="#c8102e" stroke-width="1" fill="none"></path></g><g stroke-linecap="round" transform="translate(103.43737929332042 20.52938309309502) rotate(0 8.936832034819417 49.154281990326126)"><path d="M-0.16 1.7 L15.98 0.42 L17.47 96.76 L-1.88 97.82" stroke="none" stroke-width="0" fill="#c8102e"></path><path d="M-0.34 1.09 C4.69 0.45, 11.24 -0.13, 18.81 -0.93 M0.49 0.71 C3.36 0.09, 8.6 -0.38, 18.65 0.3 M17.21 1.82 C17.6 35.5, 18.7 70.64, 19.03 98.07 M18.08 -0.07 C17.78 34.91, 18.29 68.94, 17.41 98.26 M19.41 96.61 C12.24 96.54, 8.04 96.8, 1.36 97.34 M17.34 97.81 C14.22 98.99, 9.31 97.64, 0.34 98.59 M-1.94 98.2 C0.03 64.85, 1.38 34.76, -1.4 0.22 M-0.57 98.39 C-0.14 64.9, -0.3 31.97, -0.12 -0.28" stroke="#c8102e" stroke-width="1" fill="none"></path></g></svg>