<?xml version="1.0" standalone="no"?>
<!DOCTYPE svg PUBLIC "-//W3C//DTD SVG 1.1//EN" "http://www.w3.org/Graphics/SVG/1.1/DTD/svg11.dtd">
<svg version="1.1" xmlns="http://www.w3.org/2000/svg" viewBox="0 0 199.99999999999997 215" width="199.99999999999997" height="215"><!-- svg-source:excalidraw --><metadata></metadata><defs><style class="style-fonts">
      </style></defs><g stroke-linecap="round" transform="translate(10 10) rotate(0 89.99999999999999 97.5)"><path d="M3.18 -1.31 L183.86 3.82 L179.81 197.84 L2.2 195.17" stroke="none" stroke-width="0" fill="#1e1e1e"></path><path d="M-0.65 3.58 C43.88 -0.43, 83.43 -2.08, 178 -0.47 M1.74 0.99 C52.76 -0.77, 104.7 -0.47, 179.91 0.14 M183.93 -1.81 C181.36 39.16, 177.99 78.43, 183.85 191.71 M179.67 -1.72 C183.03 49.6, 180.12 103.57, 179.28 194 M177.8 192.23 C127.09 199.7, 84.97 193.66, -2.18 193.52 M180.42 195.42 C113.48 197.66, 44.47 196.36, 0.67 193.34 M-3.09 192.47 C-6.08 119.74, -6.63 49.56, -0.82 -3.37 M-0.38 193.64 C-1.94 118.46, -3.82 45.08, 1.58 0.9" stroke="#1e1e1e" stroke-width="1" fill="none"></path></g><g stroke-linecap="round"><g transform="translate(22.93156916073454 146.45552542185305) rotate(6.903379189375651 4.657757010787021 -23.288785053935044)"><path d="M-0.43 -1.05 C4.31 -14.76, 7.85 -29.68, 9.38 -48.44 M0.49 -0.26 C2.17 -11.55, 5.56 -24.18, 8.47 -46.22" stroke="#ffffff" stroke-width="2" fill="none"></path></g></g><mask></mask><g stroke-linecap="round"><g transform="translate(33.58845052056745 105.04716327643837) rotate(6.903379189375651 37.26205608629617 9.315514021574018)"><path d="M2.94 1.82 C30.68 10.76, 54.01 10.55, 73.14 17.27 M-0.92 1.69 C26.51 7.9, 49.32 13.81, 73.34 18.79" stroke="#ffffff" stroke-width="2" fill="none"></path></g></g><mask></mask><g stroke-linecap="round"><g transform="translate(117.10725395752377 110.10951810090592) rotate(6.903379189375651 -4.657757010787023 9.315514021574018)"><path d="M1.89 1.62 C-2.11 2.79, -5.17 8.58, -8.49 19.61 M0.46 0.58 C-3.49 5.55, -5.79 10.38, -9.89 17.64" stroke="#ffffff" stroke-width="2" fill="none"></path></g></g><mask></mask><g stroke-linecap="round"><g transform="translate(117.51027710979264 112.96437598250122) rotate(6.903379189375651 18.631028043148092 4.657757010787009)"><path d="M0.06 -1.86 C12.27 2.24, 26.66 7.12, 36.75 8.39 M-0.84 0.36 C13.78 3.45, 28.14 5.97, 36.74 9.03" stroke="#ffffff" stroke-width="2" fill="none"></path></g></g><mask></mask><g stroke-linecap="round"><g transform="translate(18.045548489205714 152.40183833789524) rotate(6.903379189375651 55.893084129444254 13.973271032361026)"><path d="M-1.38 -1.36 C44.23 14.69, 84.14 21.53, 115.17 29.77 M-1.19 0.16 C38.39 7.23, 78.51 18.62, 112.72 29.79" stroke="#ffffff" stroke-width="2" fill="none"></path></g></g><mask></mask><g stroke-linecap="round"><g transform="translate(150.1831012845413 123.108223835432) rotate(6.903379189375651 -9.315514021574046 32.60429907550906)"><path d="M1.64 1.96 C-5.33 11.52, -4.77 28.68, -16.31 61.83 M-1.15 -1.97 C-8.08 21.36, -12.36 45.69, -19.59 64.17" stroke="#ffffff" stroke-width="2" fill="none"></path></g></g><mask></mask><g stroke-linecap="round"><g transform="translate(58.54808506341442 28.146039913718596) rotate(6.903379189375651 -4.657757010787023 32.60429907550906)"><path d="M-1.03 -1.84 C1.45 19.27, -2.1 31.41, -7.88 62.83 M-1.04 -0.58 C-2.69 21.75, -7.45 38.96, -8.12 63.69" stroke="#ffffff" stroke-width="2" fill="none"></path></g></g><mask></mask><g stroke-linecap="round"><g transform="translate(60.34506236307516 36.09531999630053) rotate(6.903379189375651 60.550841140231284 13.973271032361026)"><path d="M3.39 1.83 C44.44 7.49, 85.83 18.25, 121.43 25.65 M0.93 1.84 C23.13 5.29, 49.67 10.44, 121.26 29.85" stroke="#ffffff" stroke-width="2" fill="none"></path></g></g><mask></mask><g stroke-linecap="round"><g transform="translate(44.62902276000327 94.75201027997537) rotate(6.903379189375651 18.631028043148085 4.657757010787009)"><path d="M1.16 -1.69 C10.26 1.01, 19.16 3.41, 35.29 8.27 M-0.48 -0.52 C10.75 1.42, 20.33 5.66, 36.61 8.5" stroke="#ffffff" stroke-width="2" fill="none"></path></g></g><mask></mask><g stroke-linecap="round"><g transform="translate(82.85780539730268 106.91978214213486) rotate(6.903379189375651 4.657757010787023 -13.973271032361026)"><path d="M0.72 -1.19 C3.22 -10.73, 4.3 -20.28, 8.74 -27.01 M0.6 -0.76 C3.86 -9.96, 6.79 -22.69, 9.72 -27.72" stroke="#ffffff" stroke-width="2" fill="none"></path></g></g><mask></mask><g stroke-linecap="round"><g transform="translate(91.84472439683788 84.00182235426564) rotate(6.903379189375651 37.26205608629617 13.973271032361026)"><path d="M0.32 -2.3 C12.32 4.82, 31.18 14.8, 78.21 26.03 M0.16 1.9 C17.53 6.43, 38.14 15.45, 75.4 29.94" stroke="#ffffff" stroke-width="2" fill="none"></path></g></g><mask></mask><g stroke-linecap="round"><g transform="translate(176.50933687548923 70.46613896030067) rotate(6.903379189375651 -4.657757010787023 23.288785053935044)"><path d="M-1.97 -1.04 C-2.78 12.08, -2.6 21.4, -10.35 47.77 M-0.65 -0.82 C-1.65 10.75, -3.7 21.97, -9.87 47.53" stroke="#ffffff" stroke-width="2" fill="none"></path></g></g><mask></mask><g stroke-linecap="round" transform="translate(30.792405922062585 109.51188935902064) rotate(0 15 15)"><path d="M-0.71 0.05 L30.23 -0.8 L31.21 31.73 L0.49 30.21" stroke="none" stroke-width="0" fill="#ffffff"></path><path d="M-0.58 0.93 C9.12 -0.8, 13.52 1.35, 28.48 0.16 M0.4 0.22 C12.29 1.24, 23.16 1.19, 30.81 0.98 M30.97 0.06 C28.01 9.81, 31.61 25.21, 31.15 29.8 M29.73 0.29 C29.95 11.52, 30.38 21.35, 30.87 29.24 M30.67 29.69 C24.18 30.72, 14.86 30.77, 1.12 31.45 M29.13 29.57 C20.01 29.97, 10.25 30.81, 0.33 29.96 M-1.03 30.64 C-0.87 21.48, 0.77 9.63, 0.57 0.31 M-0.59 30.97 C-0.08 19.24, 0.5 9.72, 0.42 -0.17" stroke="#ffffff" stroke-width="2" fill="none"></path></g><g stroke-linecap="round" transform="translate(64.79964366209185 129.55359801932082) rotate(0 34.49797932200749 16.64162636687297)"><path d="M0.46 -1.61 L71.41 3.46 L69.97 33.71 L-3.56 35.22" stroke="none" stroke-width="0" fill="#ffffff"></path><path d="M3.68 -1.92 C15.03 1.75, 31.17 -0.33, 72.8 -2.61 M0.88 1.99 C13.95 1.59, 31.72 1.65, 70.74 -1.34 M65.42 -3.61 C72.94 12.56, 71.61 16.76, 71.71 31.38 M69.18 0.97 C69.87 7.12, 70.55 15.6, 67.9 31.75 M72.06 34.29 C42.39 34.17, 19.8 35.97, 0.6 31.24 M67.9 33.01 C44.27 34.1, 23.63 32.61, 0.36 32.83 M-1.88 35.33 C1.74 22.41, 1.49 17.29, 2.03 -0.78 M-0.29 32.81 C1.28 21.86, 1.24 7, -0.71 0.05" stroke="#ffffff" stroke-width="2" fill="none"></path></g><g stroke-linecap="round" transform="translate(26.17163286374074 123.17570401327066) rotate(0 29.001161285585844 13.392575277196102)"><path d="M2.42 3.46 L58.98 0.43 L54.44 28.73 L-0.69 26.57" stroke="none" stroke-width="0" fill="#ffffff"></path><path d="M-2.07 2.39 C17.07 0.87, 44.01 -2.05, 54.73 1.61 M-1.1 1.9 C20.31 0.81, 39.13 -2.5, 57.16 0.97 M61.62 3.98 C59.82 7.71, 60.23 14.34, 56.28 25.69 M59.06 -1.43 C59.78 7.31, 56.95 16.1, 59.46 27.45 M57.11 27.88 C43.73 29.97, 25.57 25.03, 1.35 23.29 M56.3 28.2 C43.76 26.55, 28.55 26.17, -1.01 25.75 M1.39 24.23 C1.4 18.52, 2.28 8.22, 3.59 -2.38 M0.88 28.33 C0.92 15.82, -0.63 5.59, 0.23 -0.8" stroke="#ffffff" stroke-width="2" fill="none"></path></g><g stroke-linecap="round" transform="translate(102.69882406802117 147.77436339039832) rotate(0 14.938166225406547 14.967556339855037)"><path d="M0.49 0.21 L28.1 0.97 L29.53 29.83 L0.31 30.18" stroke="none" stroke-width="0" fill="#ffffff"></path><path d="M-1.52 0.16 C9.43 -1.48, 13.42 0.63, 30.32 0.88 M0.81 0.98 C12.81 -0.96, 23.45 0.2, 29.91 -0.89 M31.02 -0.2 C31.5 5.32, 29.29 12, 30.46 30.12 M30.74 -0.76 C29.48 9.66, 30.76 21.18, 29.72 30.7 M31 31.38 C20.46 29, 11.12 28.27, -0.86 28.84 M30.21 29.9 C21.5 29.92, 12.26 29.63, 0.32 29.47 M0.57 30.25 C0.91 19.03, 1.69 7.72, 1.93 -0.29 M0.42 29.77 C-0.49 21.69, -0.02 13, 0.6 0.86" stroke="#ffffff" stroke-width="2" fill="none"></path></g><g stroke-linecap="round" transform="translate(36.38010930431898 106.11068827510007) rotate(0 15 15)"><path d="M13.22 0.97 L29.65 14.89 L15.31 30.25 L1.17 15.5" stroke="none" stroke-width="0" fill="#ffffff" fill-rule="evenodd"></path><path d="M16.9 -1.31 C18.65 6.19, 26.13 11.66, 31.99 13.9 M15.87 -0.67 C20.62 6.26, 27 10.81, 29.1 15.9 M31.36 14.05 C23.24 20.43, 18.69 27.15, 15.97 31.05 M29.45 14.23 C27.43 18.64, 23.13 22.5, 15.25 29.78 M15.3 28.98 C10.68 23.45, 4.23 19.2, -0.27 13.3 M15.18 29.77 C8.89 23.92, 4.15 18.4, 0.51 15.35 M1.02 14.61 C5.29 10.25, 8.97 7.61, 14.52 0.88 M-0.36 15.02 C5.71 8.97, 11.86 4.57, 15.24 0.11" stroke="#ffffff" stroke-width="2" fill="none"></path></g><g stroke-linecap="round" transform="translate(26.24547040354554 107.9738024572016) rotate(289.0548623253812 13.993441530384384 10.064311396750327)"><path d="M-0.35 -0.11 L28.29 0.25 L29.15 20.63 L1.86 20.26" stroke="none" stroke-width="0" fill="#ffffff"></path><path d="M-1.64 0.81 C9.06 1.06, 19.22 -0.92, 29.89 1.61 M-0.42 0.49 C11.17 -0.71, 21.38 1.09, 28.98 0.57 M27.13 -0.55 C28.71 6.01, 29.09 12.72, 26.55 21.86 M28.71 0.33 C27.72 5.28, 28.13 8.81, 28.26 20.69 M28.66 18.38 C16.71 18.89, 6.87 18.28, 1.41 20.8 M27.48 19.61 C20.02 19.6, 11.93 20.41, -0.64 20.42 M1.79 18.94 C1.83 13.49, -0.58 8.3, 1.54 0.85 M0.11 19.73 C0.68 15.3, 0.31 8.84, -0.89 0.49" stroke="#ffffff" stroke-width="2" fill="none"></path></g><g stroke-linecap="round" transform="translate(21.58946960613372 124.64347543815529) rotate(289.0548623253812 13.993441530384384 10.064311396750327)"><path d="M0.31 0.25 L29.15 0.5 L29.85 20.26 L-0.13 19.54" stroke="none" stroke-width="0" fill="#ffffff"></path><path d="M0.45 0.88 C8.56 -1.22, 15.04 1.5, 29.95 1.74 M0.03 -0.89 C5.61 0.77, 14.03 0.44, 27.88 0.68 M28.57 0.18 C28.87 6.13, 26.47 11.89, 26.47 19.03 M27.83 0.77 C28.39 4.27, 28.41 9.54, 28.71 20.28 M27.13 19.04 C20.75 18.18, 15.47 20.55, -0.08 20.49 M28.31 19.66 C20.74 20.33, 11.83 20.27, 0.16 20.64 M1.93 19.84 C-0.66 15.36, 1.36 9.68, -0.34 -0.71 M0.6 20.99 C0.22 14.15, -0.91 8.44, -0.17 -0.05" stroke="#ffffff" stroke-width="2" fill="none"></path></g><g stroke-linecap="round" transform="translate(62.157521417317696 78.73419265128541) rotate(289.0548623253812 13.993441530384388 10.064311396750327)"><path d="M1.17 0.5 L29.85 0.13 L27.86 19.54 L-0.31 21.4" stroke="none" stroke-width="0" fill="#ffffff"></path><path d="M1.99 -1.1 C11.42 1.49, 21.01 1.62, 26.64 -0.84 M-0.9 0.9 C10.75 0.82, 19.41 0.93, 27.51 -0.43 M28.95 1.05 C26.61 7.22, 26.53 9.87, 26.45 21.58 M28.24 -0.22 C28.23 7.27, 28.68 13.57, 27.48 20.46 M27.72 18.43 C23.45 20.64, 16 20.34, -0.45 19.12 M28.5 20.48 C20.39 20.28, 14.24 20.51, -0.2 21.03 M-0.48 21.01 C1.35 16.13, -0.53 9.73, 0.05 0.23 M0.24 20.24 C-1.01 15.38, -0.3 9.62, 0.15 0.12" stroke="#ffffff" stroke-width="2" fill="none"></path></g><g stroke-linecap="round" transform="translate(45.6610149978263 65.191424253876) rotate(289.0548623253812 19.974642073403515 12.713741376112466)"><path d="M1.86 0.13 L39.82 -0.59 L39.64 26.7 L0.02 24.51" stroke="none" stroke-width="0" fill="#ffffff"></path><path d="M1.9 1.61 C15.7 1.96, 26.14 -0.62, 40.92 0.06 M0.99 0.57 C8.31 0.32, 16.35 -0.79, 39.68 0.29 M38.52 1.73 C38.56 6.76, 38.53 17.17, 40.62 25.12 M40.22 0.56 C40.74 9.72, 39.5 19.48, 39.08 25 M41.36 26.1 C30.06 25.45, 19.89 24.08, -1.03 26.07 M39.31 25.71 C30 26.07, 19.54 26.46, -0.59 26.39 M1.54 26.27 C-0.28 17.45, 0.11 11.13, -0.8 1.21 M-0.89 25.91 C-0.24 15.55, 0.09 5.9, 0.58 0.25" stroke="#ffffff" stroke-width="2" fill="none"></path></g><g stroke-linecap="round" transform="translate(63.12168961354371 49.976209429977644) rotate(289.0548623253812 19.974642073403515 12.713741376112466)"><path d="M-0.13 -0.59 L39.64 1.27 L39.97 24.51 L-1.02 23.87" stroke="none" stroke-width="0" fill="#ffffff"></path><path d="M1.96 1.74 C8.44 -1.16, 20.53 -0.26, 38.16 -1.81 M-0.1 0.68 C15.12 -0.66, 30.92 0.06, 40.04 0.48 M38.44 -1.1 C38.23 10.42, 40.43 17.63, 41.48 25.93 M40.67 0.15 C39.51 7.4, 39.15 13.69, 39.4 25.29 M39.87 25.79 C30.91 24.55, 21.75 26.2, -0.94 26.45 M40.11 25.94 C26.38 26.44, 12.6 26.51, -0.14 25.19 M-0.34 24.72 C-0.15 16.91, -1 9.14, 1.73 0.49 M-0.17 25.37 C0.38 17.65, 0.81 9.88, 0.93 0.06" stroke="#ffffff" stroke-width="2" fill="none"></path></g><g stroke-linecap="round" transform="translate(60.053648923428796 64.03568296177218) rotate(294.48677859654964 19.974642073403515 12.713741376112466)"><path d="M-0.31 1.27 L39.97 -0.92 L38.93 23.87 L1.27 26.48" stroke="none" stroke-width="0" fill="#ffffff"></path><path d="M-1.34 -0.84 C16.17 -0.28, 28.62 -2.16, 41.76 1.99 M-0.48 -0.43 C14 0.02, 28.64 0.21, 40.48 -0.72 M38.41 1.45 C40.42 9.52, 41.29 20.16, 39.5 25.98 M39.44 0.34 C39.26 8.62, 39.59 17.97, 39.1 26.13 M39.5 24.42 C25.6 26.14, 12.37 26.53, 0.7 24.15 M39.75 26.32 C26.22 26.6, 13.54 25.39, 0.44 26.2 M0.05 25.66 C-0.76 17.93, 1.77 8.5, 0.21 -1.78 M0.15 25.55 C0.63 16.82, 0.98 7.77, -0.06 -0.29" stroke="#ffffff" stroke-width="2" fill="none"></path></g><g stroke-linecap="round" transform="translate(78.80259303344133 47.97196115134739) rotate(294.48677859654964 16.243467680067084 13.135206256466518)"><path d="M0.02 -0.92 L31.47 -1.56 L33.76 27.33 L-0.64 24.76" stroke="none" stroke-width="0" fill="#ffffff"></path><path d="M0.97 0.06 C10.79 -1.67, 26.96 2.13, 33.63 -0.2 M-0.27 0.29 C12.04 0.62, 24.42 -0.58, 33.35 -0.76 M33.15 -0.31 C33.82 6.94, 31.84 13.42, 33.61 27.72 M31.61 -0.43 C31.81 8.14, 31.5 17.25, 32.82 26.23 M31.46 26.91 C21.21 27.13, 12.51 24.83, 0.57 26.58 M31.89 27.24 C20.95 26.32, 10.14 27.33, 0.42 26.1 M-0.8 27.48 C1.72 19.81, 0.21 10.59, 0.97 -0.35 M0.58 26.52 C0.89 18.6, -0.1 10.5, -0.16 0.64" stroke="#ffffff" stroke-width="2" fill="none"></path></g><g stroke-linecap="round" transform="translate(102.94421662004737 59.723473627318526) rotate(294.48677859654964 16.243467680067084 13.135206256466518)"><path d="M-1.02 -1.56 L33.76 1.06 L31.85 24.76 L0.69 26.26" stroke="none" stroke-width="0" fill="#ffffff"></path><path d="M-1.79 -1.81 C10.19 1.98, 17.9 -0.21, 33.84 -0.95 M0.09 0.48 C8.88 -0.81, 17.57 -0.85, 31.94 -0.77 M34.02 0.5 C32.13 10.34, 33.69 21.03, 32.79 25.25 M31.94 -0.14 C31.41 9.47, 32.59 17.49, 32.67 26.04 M31.55 27.3 C25.07 25.09, 16.84 26.69, 1.02 25.88 M32.34 26.03 C20.27 27.36, 7.59 26.41, -0.36 26.29 M1.73 26.76 C0.32 16.31, 1.08 9.56, -0.11 0.31 M0.93 26.33 C-0.22 17.77, -0.31 10.5, 0.01 -0.46" stroke="#ffffff" stroke-width="2" fill="none"></path></g><g stroke-linecap="round" transform="translate(111.50200515481203 65.37235579681783) rotate(294.48677859654964 16.243467680067084 13.135206256466518)"><path d="M1.27 1.06 L31.85 -1.51 L33.18 26.26 L0.84 24.61" stroke="none" stroke-width="0" fill="#ffffff"></path><path d="M1.81 1.99 C11 0.09, 21.06 -0.66, 31.63 -0.55 M0.53 -0.72 C11.56 -0.91, 20.84 -0.93, 33.21 0.33 M32.04 0.55 C33.81 8.93, 32.99 13.94, 33.16 24.52 M31.64 0.71 C32.68 6.71, 32.52 13.28, 31.98 25.76 M33.18 24.99 C22.28 26.75, 11.94 26.05, 1.79 25.08 M32.93 27.04 C20.03 26.02, 6.37 26.22, 0.11 25.87 M0.21 24.49 C0.74 16.45, -0.34 7.64, 0.25 1.17 M-0.06 25.98 C-0.4 18.37, -0.23 8.73, -0.51 -0.78" stroke="#ffffff" stroke-width="2" fill="none"></path></g><g stroke-linecap="round" transform="translate(117.28309575948538 57.79897812445142) rotate(289.5421646653013 16.243467680067084 13.135206256466518)"><path d="M-0.64 -1.51 L33.18 -0.01 L33.33 24.61 L-1.26 27.9" stroke="none" stroke-width="0" fill="#ffffff"></path><path d="M1.15 -0.2 C8.17 -1.28, 12.76 -0.87, 33.07 0.18 M0.87 -0.76 C10.76 -0.54, 23.36 0.57, 32.33 0.77 M33.61 1.45 C32.73 7.52, 33.1 15.34, 31.63 25.18 M32.82 -0.04 C32.44 7.3, 31.76 14.54, 32.81 25.8 M33.06 26.58 C22.09 25.67, 11.46 24.87, 1.93 25.98 M32.91 26.1 C23.16 26.54, 14.66 26.12, 0.6 27.13 M0.97 25.92 C-0.14 18.06, 0.22 10.4, 0.5 1.86 M-0.16 26.91 C0.03 17.76, -0.49 9.4, 0.64 0.53" stroke="#ffffff" stroke-width="2" fill="none"></path></g><g stroke-linecap="round" transform="translate(103.23081475936755 54.06005665359953) rotate(289.5421646653013 16.243467680067084 13.135206256466518)"><path d="M0.69 -0.01 L33.33 -1.66 L31.23 27.9 L1.84 25.33" stroke="none" stroke-width="0" fill="#ffffff"></path><path d="M1.36 -0.95 C12.12 -0.52, 26.54 0.21, 33.45 1.05 M-0.55 -0.77 C8.14 0.58, 14.68 1.01, 32.74 -0.22 M32.79 -1.02 C33.31 6.85, 31.77 16.11, 32.22 24.57 M32.67 -0.23 C32.07 9.22, 32.89 19.01, 33 26.62 M33.5 25.88 C26.61 25.13, 19.08 26.04, -0.48 27.15 M32.13 26.29 C20.35 25.81, 8.58 27.08, 0.24 26.38 M-0.11 26.58 C0.12 21.89, 0.37 17.05, 0.13 -0.13 M0.01 25.81 C-0.47 18.38, 0.68 12.58, -0.32 -0.76" stroke="#ffffff" stroke-width="2" fill="none"></path></g><g stroke-linecap="round" transform="translate(126.96438700969867 70.50321039321625) rotate(294.48677859654964 16.243467680067084 13.135206256466518)"><path d="M0.84 -1.66 L31.23 1.63 L34.33 25.33 L1.31 27.07" stroke="none" stroke-width="0" fill="#ffffff"></path><path d="M-0.86 -0.55 C10 0.33, 19.79 1.21, 31.05 1.73 M0.73 0.33 C7.14 1.01, 14.83 0.03, 32.76 0.56 M33.16 -1.75 C31.67 8.69, 32.26 17.86, 33.9 26.94 M31.98 -0.52 C32.85 7.31, 33.05 15.9, 31.85 26.56 M34.28 25.08 C24.16 25.92, 11.5 27.09, 1.54 27.12 M32.6 25.87 C23.9 27.14, 14.34 26.38, -0.89 26.76 M0.25 27.44 C0.52 20.71, 0.14 11.29, -0.59 -0.31 M-0.51 25.49 C0.63 17.24, -0.32 6.4, 0.35 0" stroke="#ffffff" stroke-width="2" fill="none"></path></g><g stroke-linecap="round" transform="translate(134.46438700969873 78.00321039321625) rotate(294.48677859654964 16.243467680067084 13.135206256466518)"><path d="M-1.26 1.63 L34.33 -0.94 L33.79 27.07 L1.2 26.03" stroke="none" stroke-width="0" fill="#ffffff"></path><path d="M0.58 0.18 C9.16 1.14, 14.96 1.82, 30.97 -1.1 M-0.15 0.77 C7.5 -0.33, 14.77 0.45, 33.21 0.15 M31.63 -1.09 C32.3 4.84, 33.99 13.75, 32.41 26.63 M32.81 -0.47 C32.87 7.63, 31.72 14.86, 32.64 26.78 M34.42 25.98 C22.9 26.96, 15.81 26.92, -0.34 25.56 M33.09 27.13 C22.91 26.25, 11.95 26.62, -0.17 26.22 M0.5 28.13 C0.09 17.86, -0.62 9.39, 1.27 0.02 M0.64 26.8 C-0.19 18.84, 0.48 12.93, 0.42 -0.83" stroke="#ffffff" stroke-width="2" fill="none"></path></g><g stroke-linecap="round" transform="translate(97.51616133329907 52.987701578780616) rotate(296.3865674356162 16.243467680067084 13.135206256466518)"><path d="M1.84 -0.94 L33.79 0.8 L33.69 26.03 L1.67 25.7" stroke="none" stroke-width="0" fill="#ffffff"></path><path d="M0.97 1.05 C7.42 1.7, 16.2 -1.13, 30.95 1.45 M0.25 -0.22 C11.1 0.31, 22.38 -0.1, 31.98 0.34 M32.22 -1.7 C33.79 6.25, 32.29 11.53, 32.03 25.26 M33 0.35 C31.93 6.81, 32.73 13.56, 32.29 27.17 M32.01 27.15 C26.21 27.07, 16.51 25.51, 0.05 26.5 M32.73 26.38 C23.16 27.04, 15.44 26.5, 0.15 26.39 M0.13 26.14 C-0.65 16.55, 1.21 7.47, -0.92 -1.02 M-0.32 25.51 C0.18 20.43, 0.25 13.77, -0.63 0.81" stroke="#ffffff" stroke-width="2" fill="none"></path></g><g stroke-linecap="round" transform="translate(82.0094362295506 46.60433298169028) rotate(289.54060266726987 16.243467680067084 13.135206256466518)"><path d="M1.31 0.8 L33.69 -0.24 L34.16 25.7 L0.14 25.94" stroke="none" stroke-width="0" fill="#ffffff"></path><path d="M-1.43 1.73 C8.53 -1.27, 18.54 1.28, 33.15 -0.31 M0.27 0.56 C12.96 0.22, 23.95 0.41, 31.61 -0.43 M33.9 0.67 C32.37 6.81, 32 11.89, 31.46 26.91 M31.85 0.29 C32.78 7.16, 32.43 14.19, 31.89 27.24 M34.03 27.12 C22.87 25.7, 13.97 26.64, -0.8 27.48 M31.6 26.76 C19.76 26.25, 7.53 26.43, 0.58 26.52 M-0.59 25.96 C1.26 15.96, -0.94 4.6, -1.56 1.27 M0.35 26.27 C0.5 16.17, -0.54 8.55, 0.92 -0.47" stroke="#ffffff" stroke-width="2" fill="none"></path></g><g stroke-linecap="round" transform="translate(133.10229775685434 64.81164117200751) rotate(286.51307418627624 16.243467680067084 13.135206256466518)"><path d="M1.2 -0.24 L34.16 -0.58 L32.63 25.94 L-1.49 26.81" stroke="none" stroke-width="0" fill="#ffffff"></path><path d="M-1.51 -1.1 C9.92 1.17, 23.58 -0.59, 34.02 0.5 M0.72 0.15 C8.51 0.15, 17.17 -0.61, 31.94 -0.14 M32.41 0.36 C32.22 4.64, 31.64 11.93, 31.55 27.3 M32.64 0.51 C32.12 9.69, 31.73 18.56, 32.34 26.03 M32.15 25.56 C21.36 26.64, 9.33 27.62, 1.73 26.76 M32.31 26.22 C22.55 26.55, 12.89 26.68, 0.93 26.33 M1.27 26.29 C-0.84 17.54, -1.48 12.12, 1.06 -0.64 M0.42 25.44 C-0.72 21.19, 0.83 14.02, 0.65 0.4" stroke="#ffffff" stroke-width="2" fill="none"></path></g><g stroke-linecap="round" transform="translate(142.54011045273012 85.1136680810223) rotate(207.852760629081 12.01936633736372 12.357679999059656)"><path d="M1.67 -0.58 L24.18 -0.33 L22.55 25.25 L0.32 24.82" stroke="none" stroke-width="0" fill="#ffffff"></path><path d="M-1.54 1.45 C9.96 -0.17, 20.12 0.64, 23.59 0.55 M-0.51 0.34 C7.68 -0.47, 16.57 -0.17, 23.19 0.71 M23.58 -1.01 C23 8.88, 23.09 17.51, 24.74 23.44 M23.84 0.9 C23.48 9.09, 23.93 16.01, 24.48 25.49 M24.09 24.94 C15 25.84, 9.31 25.12, 0.21 22.93 M24.19 24.84 C16.24 24.95, 8.22 24.77, -0.06 24.42 M-0.92 23.7 C-1.71 18.96, 0.9 10.02, -1.51 0.69 M-0.63 25.53 C0.82 16.84, 0.55 10.3, 0.6 -0.12" stroke="#ffffff" stroke-width="2" fill="none"></path></g><g stroke-linecap="round" transform="translate(147.89321331796384 88.60922901695812) rotate(201.33692208770643 10.668208665643903 11.766703398792288)"><path d="M0.14 -0.33 L19.85 0.54 L21.65 23.64 L1.94 21.78" stroke="none" stroke-width="0" fill="#ffffff"></path><path d="M0.67 -0.31 C6.76 0.35, 10.01 0.39, 22.46 1.45 M-0.87 -0.43 C6.17 -0.21, 12.59 0.63, 21.67 -0.04 M20.31 0.64 C20.34 8.51, 21.98 13.69, 21.91 23.85 M20.74 0.97 C21.15 8.02, 21.73 17.28, 21.76 23.36 M20.53 24.74 C17.42 24.04, 10.26 21.78, 0.97 23.19 M21.92 23.78 C15.98 23.62, 8.7 23.27, -0.16 24.17 M-1.56 24.81 C1.16 15.81, -1.41 10.05, -0.01 0.84 M0.92 23.06 C0.8 18.82, 0.75 13.19, 0.83 -0.29" stroke="#ffffff" stroke-width="2" fill="none"></path></g><g stroke-linecap="round" transform="translate(153.7016281985883 67.35223939846765) rotate(196.71982624534976 10.668208665643903 11.766703398792288)"><path d="M-1.49 0.54 L21.65 0.1 L23.27 21.78 L1.77 22.02" stroke="none" stroke-width="0" fill="#ffffff"></path><path d="M1.53 0.5 C7.51 0.58, 17.02 1.48, 21.63 -1.02 M-0.55 -0.14 C6.27 0.8, 14.57 0.05, 21.52 -0.23 M20.4 1.03 C21.91 4.6, 21.79 12.07, 22.35 23.14 M21.19 -0.24 C21.64 9.94, 21.62 18.17, 20.98 23.56 M23.07 24.02 C14.9 21.88, 9.02 23.32, -0.11 23.84 M22.27 23.6 C14.61 23.29, 7.85 24.22, 0.01 23.07 M1.06 22.9 C-1.33 18.36, 0.18 12.65, -1.66 -1.26 M0.65 23.93 C0.38 14.44, 0.62 5.3, 0.07 -0.17" stroke="#ffffff" stroke-width="2" fill="none"></path></g><g stroke-linecap="round" transform="translate(52.52240524209401 41.56341623579374) rotate(289.0548623253812 19.974642073403515 12.713741376112466)"><path d="M0.32 0.1 L41.89 -1.75 L41.72 23.91 L-0.56 25.2" stroke="none" stroke-width="0" fill="#ffffff"></path><path d="M-0.45 0.55 C12.49 1.35, 23.05 -1.12, 40.62 -1.75 M-0.85 0.71 C10.6 0.01, 20.71 -0.17, 39.45 -0.52 M40.65 -1.28 C40.4 8.75, 40.85 16.49, 41.74 24.24 M40.39 0.77 C40.34 9.91, 39.56 20.19, 40.06 25.03 M40.16 23.65 C26.52 25.18, 11.04 25.83, 0.25 26.59 M39.89 25.13 C26.81 26.09, 13.99 24.99, -0.51 24.65 M-1.51 26.12 C-0.14 17.02, -1.79 5.68, 1.63 1.84 M0.6 25.31 C0.67 18.71, -0.09 12.4, -0.74 0.27" stroke="#ffffff" stroke-width="2" fill="none"></path></g><g stroke-linecap="round" transform="translate(50.30467038349417 40.31745152673284) rotate(285.50590973326075 19.974642073403515 12.713741376112466)"><path d="M1.94 -1.75 L41.72 -1.51 L39.39 25.2 L0.96 23.74" stroke="none" stroke-width="0" fill="#ffffff"></path><path d="M1.12 1.45 C13.29 -1.13, 26.66 -1.86, 39.09 -1.09 M0.33 -0.04 C11.63 -0.51, 22.38 -0.8, 40.27 -0.47 M40.52 0.31 C41.05 8.54, 41.83 16.68, 41.88 25.14 M40.37 -0.17 C39.71 7.05, 40.18 13.64, 40.55 26.29 M40.92 25.08 C26.88 25.38, 14.28 26.24, 0.5 27.29 M39.79 26.06 C27.72 24.85, 14.96 24.53, 0.64 25.96 M-0.01 26.27 C-1.46 17.35, 1.82 13.64, -0.94 1.31 M0.83 25.14 C-0.08 16.62, -0.9 8.42, 0.16 0.05" stroke="#ffffff" stroke-width="2" fill="none"></path></g><g stroke-linecap="round" transform="translate(43.95689292748139 63.36584064577528) rotate(285.50590973326075 19.974642073403515 12.713741376112466)"><path d="M1.77 -1.51 L39.39 -0.23 L40.91 23.74 L1.93 24.83" stroke="none" stroke-width="0" fill="#ffffff"></path><path d="M0.3 -1.02 C13.75 -2.04, 25.3 -1.38, 39.68 -1.7 M0.18 -0.23 C14.3 -0.5, 29.93 -0.45, 40.46 0.35 M40.97 -0.39 C41.82 4.81, 41.95 11.72, 39.47 26.31 M39.59 0.02 C40.17 9.19, 40.66 20.05, 40.19 25.53 M39.84 25.73 C31.77 26.52, 23.59 27.22, 0.13 25.3 M39.96 24.97 C28.63 24.9, 18.97 26.21, -0.32 24.67 M-1.66 24.17 C1.63 18.77, -0.94 9.72, 0.8 1.2 M0.07 25.26 C-0.96 18.38, -0.05 10.84, 0.97 -0.88" stroke="#ffffff" stroke-width="2" fill="none"></path></g><g stroke-linecap="round" transform="translate(36.377773530350936 130.68581465331135) rotate(289.0548623253812 13.993441530384384 10.064311396750327)"><path d="M-0.56 -0.23 L28.95 -1.68 L29.92 19.53 L0.74 19.32" stroke="none" stroke-width="0" fill="#ffffff"></path><path d="M0.67 -1.75 C9.56 -0.95, 20.57 -1.56, 29.4 0.67 M-0.5 -0.52 C8.6 -0.41, 17.08 0.41, 27.35 0.29 M29.78 -1.19 C30.02 6.07, 27.61 13.59, 29.53 20.98 M28.1 -0.4 C28.52 6.56, 28.16 11.5, 27.1 20.61 M28.23 21.29 C20.58 22.04, 12.29 20.04, -0.59 19.82 M27.48 19.35 C18.44 20.53, 7.31 19.24, 0.35 20.12 M1.63 21.97 C-0.78 14.55, 0.96 7.56, -0.24 1.67 M-0.74 20.4 C0.14 14.72, 0.95 8.33, 0.89 -0.76" stroke="#ffffff" stroke-width="2" fill="none"></path></g><g stroke-linecap="round" transform="translate(41.81275779217924 114.13441170339502) rotate(289.0548623253812 13.993441530384384 10.064311396750327)"><path d="M0.96 -1.68 L29.92 -0.6 L28.73 19.32 L1.73 20.67" stroke="none" stroke-width="0" fill="#ffffff"></path><path d="M-0.86 -1.09 C6.7 -1.46, 15.35 0.91, 27.91 0.36 M0.32 -0.47 C8.27 0.49, 14.88 0.43, 28.14 0.51 M29.92 -0.29 C27.69 6.53, 29.71 12.14, 27.65 19.42 M28.59 0.86 C28.25 6.19, 27.12 12.66, 27.81 20.07 M28.49 21.99 C19.29 20.16, 9.75 19.98, 1.27 20.15 M28.62 20.66 C20.56 19.15, 14.12 19.91, 0.42 19.3 M-0.94 21.44 C0.63 16.55, -0.41 12.25, -0.58 0.14 M0.16 20.18 C1.12 13.55, 1.04 7.97, -0.28 -0.11" stroke="#ffffff" stroke-width="2" fill="none"></path></g><g stroke-linecap="round" transform="translate(60.488153435622564 121.75588158195296) rotate(289.0548623253812 13.993441530384388 10.064311396750327)"><path d="M1.93 -0.6 L28.73 -0.81 L29.71 20.67 L0.38 18.94" stroke="none" stroke-width="0" fill="#ffffff"></path><path d="M-0.27 -1.7 C7.36 0.82, 11.82 0.52, 27.53 -1.01 M0.51 0.35 C6.31 0.42, 14.07 0.64, 27.79 0.9 M27.51 0.88 C29.72 5.69, 27.84 8.98, 28.03 20.36 M28.23 0.11 C27.22 5.71, 27.93 10.4, 28.14 20.25 M28.11 20 C17.37 20.08, 9.2 20.41, -0.92 19.11 M27.67 19.37 C22.11 20.27, 15.97 19.45, -0.63 20.94 M0.8 21.33 C-0.15 13.9, -0.48 4.48, -0.33 -1.49 M0.97 19.25 C0.85 12.79, -0.31 6.85, 0.48 -0.84" stroke="#ffffff" stroke-width="2" fill="none"></path></g><g stroke-linecap="round" transform="translate(78.43471868664409 128.4055757504384) rotate(289.0548623253812 13.993441530384388 10.064311396750327)"><path d="M0.74 -0.81 L29.71 0.54 L28.37 18.94 L-1.46 21.81" stroke="none" stroke-width="0" fill="#ffffff"></path><path d="M1.41 0.67 C6.79 0.6, 13.28 -0.77, 26.96 0.64 M-0.64 0.29 C7.24 0.41, 13.97 0.8, 27.39 0.97 M29.53 0.85 C27.6 5.04, 27.99 11.73, 27.18 21.34 M27.1 0.49 C27.86 7.72, 28.19 15.68, 28.57 20.38 M27.4 19.82 C18.26 20.13, 5.06 19.09, -1.56 21.4 M28.33 20.12 C18.53 19.09, 7.61 20.73, 0.92 19.66 M-0.24 21.8 C-0.66 12.92, -0.41 3.93, 0.54 0.32 M0.89 19.37 C-0.47 13.87, 0.28 7, 0.97 -0.3" stroke="#ffffff" stroke-width="2" fill="none"></path></g><g stroke-linecap="round" transform="translate(72.57282074486648 144.1656498241946) rotate(289.0548623253812 13.993441530384388 10.064311396750327)"><path d="M1.73 0.54 L28.37 -1.18 L26.53 21.81 L1.56 19.09" stroke="none" stroke-width="0" fill="#ffffff"></path><path d="M-0.08 0.36 C5.56 -1.1, 11 0.55, 27.05 1.03 M0.16 0.51 C9.18 0.82, 18.15 0.89, 27.84 -0.24 M27.65 -0.71 C28.19 7.16, 27.34 15.06, 29.72 20.62 M27.81 -0.05 C27.96 6.38, 28.39 12.76, 28.92 20.19 M29.26 20.15 C18.85 19.07, 10 21.36, 1.06 19.49 M28.41 19.3 C21.08 20.94, 16.36 19.66, 0.65 20.53 M-0.58 20.27 C-0.31 11.4, 0.56 5.96, 0.1 1.94 M-0.28 20.01 C0.3 15.01, 0.79 11.28, 0.37 -0.4" stroke="#ffffff" stroke-width="2" fill="none"></path></g><g stroke-linecap="round" transform="translate(83.83843702499917 149.11474345071838) rotate(289.0548623253812 13.993441530384388 10.064311396750327)"><path d="M0.38 -1.18 L26.53 1.69 L29.55 19.09 L1.51 18.54" stroke="none" stroke-width="0" fill="#ffffff"></path><path d="M-0.45 -1.01 C8.3 0.59, 17.72 0.98, 28.68 -1.28 M-0.2 0.9 C8.61 0.82, 18.25 -0.38, 28.43 0.77 M28.03 0.23 C27.15 8.1, 29.68 14.27, 28.2 18.35 M28.14 0.12 C28.53 7.27, 28.88 14.09, 27.92 19.83 M27.06 19.11 C18.47 21.4, 13.12 19.49, -1.51 20.82 M27.36 20.94 C20.52 19.43, 11.87 20.29, 0.6 20.01 M-0.33 18.64 C0.6 12.73, 0.16 6.63, -1.75 1.77 M0.48 19.29 C1.02 15.32, 0.43 10.7, 0.86 0.27" stroke="#ffffff" stroke-width="2" fill="none"></path></g><g stroke-linecap="round" transform="translate(102.75677242555986 156.12886393648205) rotate(289.0548623253812 13.993441530384388 10.064311396750327)"><path d="M-1.46 1.69 L29.55 -1.03 L29.5 18.54 L-1.64 19.66" stroke="none" stroke-width="0" fill="#ffffff"></path><path d="M-1.03 0.64 C7.96 1.17, 18.5 -1.14, 28.56 0.31 M-0.59 0.97 C9.67 -0.49, 20.08 0.52, 28.41 -0.17 M27.18 1.21 C29.72 5.81, 28.2 8.87, 28.96 19.78 M28.57 0.25 C28.95 5.99, 27.95 11.56, 27.83 20.77 M26.43 21.4 C20.62 19.35, 9.62 20.68, -0.01 20.97 M28.91 19.66 C22.56 20.75, 16.43 20.23, 0.83 19.84 M0.54 20.45 C0.14 15.88, -1.72 9.54, -1.51 -0.56 M0.97 19.83 C0.27 13.92, 0.77 8.79, 0.19 -0.59" stroke="#ffffff" stroke-width="2" fill="none"></path></g><g stroke-linecap="round" transform="translate(109.40647771511397 158.52705118953054) rotate(289.0548623253812 13.993441530384388 10.064311396750327)"><path d="M1.56 -1.03 L29.5 -1.59 L26.34 19.66 L-0.84 21.53" stroke="none" stroke-width="0" fill="#ffffff"></path><path d="M-0.94 1.03 C7.68 -1.37, 14.55 0.22, 29 -0.39 M-0.14 -0.24 C11.35 0.5, 22.23 -0.44, 27.63 0.02 M29.72 0.49 C28.12 4.49, 28.88 12.19, 27.88 20.44 M28.92 0.06 C28.04 5.99, 27.95 13.21, 28 19.67 M29.04 19.49 C19.5 21, 14.03 21.15, -1.66 18.87 M28.64 20.53 C17.91 19.87, 7.47 19.71, 0.07 19.96 M0.1 22.06 C-1.8 17.36, -1.57 10.49, -0.23 0.96 M0.37 19.73 C0.67 16.06, 0 10.85, -0.73 0.84" stroke="#ffffff" stroke-width="2" fill="none"></path></g><g stroke-linecap="round" transform="translate(109.13228315559246 158.86022270440571) rotate(294.136465015675 13.993441530384388 10.064311396750327)"><path d="M1.51 -1.59 L26.34 -0.47 L27.15 21.53 L-0.75 20.61" stroke="none" stroke-width="0" fill="#ffffff"></path><path d="M0.7 -1.28 C9.86 0.17, 19.6 -0.53, 29.78 -1.19 M0.44 0.77 C11.52 -0.1, 21.84 0.09, 28.1 -0.4 M28.2 -1.78 C29.13 6.91, 28.05 14.82, 28.23 21.29 M27.92 -0.29 C28.02 7.18, 28.19 12.63, 27.48 19.35 M26.47 20.82 C17.8 20.88, 5.98 18.78, 1.63 21.97 M28.59 20.01 C21.74 19.95, 13.9 20.07, -0.74 20.4 M-1.75 21.9 C-1.52 13.21, -0.24 8.37, -1.68 1.93 M0.86 20.4 C0.12 14.1, -0.8 10.1, 0.78 -0.52" stroke="#ffffff" stroke-width="2" fill="none"></path></g><g stroke-linecap="round" transform="translate(116.99669835180339 141.2155741658571) rotate(294.136465015675 13.993441530384388 10.064311396750327)"><path d="M-1.64 -0.47 L27.15 1.4 L27.24 20.61 L1.43 18.55" stroke="none" stroke-width="0" fill="#ffffff"></path><path d="M0.57 0.31 C10.85 -0.21, 21.46 -1.01, 29.92 -0.29 M0.42 -0.17 C7.37 -0.19, 15.57 -0.62, 28.59 0.86 M28.96 -0.35 C27.9 6.84, 28.26 14.22, 28.49 21.99 M27.83 0.64 C27.98 5.71, 27.47 11.55, 28.62 20.66 M27.98 20.97 C18.83 18.97, 14.61 22.07, -0.94 21.44 M28.82 19.84 C18.55 19.93, 8.23 20.36, 0.16 20.18 M-1.51 19.57 C-0.05 13.1, -1.51 6.09, -0.6 0.74 M0.19 19.54 C-0.9 15.74, 0.61 9.16, 0.76 -0.79" stroke="#ffffff" stroke-width="2" fill="none"></path></g><g stroke-linecap="round" transform="translate(124.73964922999 124.42123145882306) rotate(291.8607486354426 13.993441530384388 10.064311396750327)"><path d="M-0.84 1.4 L27.24 0.48 L29.41 18.55 L1.14 20.01" stroke="none" stroke-width="0" fill="#ffffff"></path><path d="M1.02 -0.39 C8.4 -1.23, 15.14 -0.33, 27.51 0.88 M-0.36 0.02 C10.67 -0.35, 21.72 0.91, 28.23 0.11 M27.88 0.31 C28.33 5.41, 28.59 10.36, 28.11 20 M28 -0.46 C27.45 4.67, 28.59 11.42, 27.67 19.37 M26.33 18.87 C20.25 22.09, 8.32 21.55, 0.8 21.33 M28.06 19.96 C19.19 20.32, 12.04 20.1, 0.97 19.25 M-0.23 21.09 C-1.53 14.24, -0.44 5.23, -0.81 1.73 M-0.73 20.97 C0.74 13.02, 0.72 6.16, -0.82 -0.24" stroke="#ffffff" stroke-width="2" fill="none"></path></g><g stroke-linecap="round" transform="translate(109.40296730779914 118.68081451667331) rotate(291.8607486354426 13.993441530384388 10.064311396750327)"><path d="M-0.75 0.48 L29.41 -1.58 L29.12 20.01 L1.66 20.47" stroke="none" stroke-width="0" fill="#ffffff"></path><path d="M1.79 -1.19 C10.77 -0.23, 17.19 0.94, 29.53 0.85 M0.11 -0.4 C8.53 0.86, 16.08 0.1, 27.1 0.49 M28.23 1.17 C28.48 7.55, 28.1 11.25, 27.4 19.82 M27.48 -0.78 C28.63 7.85, 27.67 13.88, 28.33 20.12 M29.61 21.97 C17.47 21.26, 9.63 21.15, -0.24 21.8 M27.24 20.4 C20.55 20.13, 13.77 19.21, 0.89 19.37 M-1.68 22.06 C-0.57 15.39, -0.78 10.91, 0.54 0.38 M0.78 19.61 C0.9 14.49, -0.68 10.2, -0.42 0.7" stroke="#ffffff" stroke-width="2" fill="none"></path></g><g stroke-linecap="round" transform="translate(105.60610734633178 117.67779234499812) rotate(306.1977957575504 13.993441530384388 10.064311396750327)"><path d="M1.43 -1.58 L29.12 -0.12 L29.65 20.47 L-0.69 20.03" stroke="none" stroke-width="0" fill="#ffffff"></path><path d="M1.93 -0.29 C7.37 1.05, 17.24 1.01, 27.65 -0.71 M0.6 0.86 C8.7 0.22, 16.03 0.6, 27.81 -0.05 M28.49 1.86 C28.14 6.22, 27.42 12.38, 29.26 20.15 M28.62 0.53 C27.57 4.35, 28.23 10.22, 28.41 19.3 M27.04 21.44 C22.15 21.59, 14.47 22.05, -0.58 20.27 M28.15 20.18 C21.03 19.33, 13.02 19.45, -0.28 20.01 M-0.6 20.87 C-0.64 14.85, 0.71 6.51, -1.18 -1.46 M0.76 19.33 C-0.98 12.16, -0.58 5.36, -0.37 0.24" stroke="#ffffff" stroke-width="2" fill="none"></path></g><g stroke-linecap="round" transform="translate(54.14037597960976 137.51595565571006) rotate(289.0548623253812 13.993441530384388 10.064311396750327)"><path d="M1.14 -0.12 L29.65 0.34 L27.3 20.03 L-1.39 19.25" stroke="none" stroke-width="0" fill="#ffffff"></path><path d="M-0.48 0.88 C8.28 0.89, 13.13 -0.67, 28.03 0.23 M0.24 0.11 C6.38 0.24, 14.37 -0.3, 28.14 0.12 M28.11 -0.13 C27.45 6.9, 29.31 14.45, 27.06 19.11 M27.67 -0.76 C28.46 4.47, 28.54 8.12, 27.36 20.94 M28.78 21.33 C16.77 21.98, 5.46 20.45, -0.33 18.64 M28.95 19.25 C19.72 19.39, 9.41 20.03, 0.48 19.29 M-0.81 21.86 C0.6 12.53, -1.12 2.71, 1.69 1.56 M-0.82 19.89 C-0.57 15.83, -0.53 10.37, 0.71 -0.79" stroke="#ffffff" stroke-width="2" fill="none"></path></g></svg>