<?xml version="1.0" standalone="no"?>
<!DOCTYPE svg PUBLIC "-//W3C//DTD SVG 1.1//EN" "http://www.w3.org/Graphics/SVG/1.1/DTD/svg11.dtd">
<svg version="1.1" xmlns="http://www.w3.org/2000/svg" viewBox="0 0 159.25450317953755 167.04074955294436" width="159.25450317953755" height="167.04074955294436"><!-- svg-source:excalidraw --><metadata></metadata><defs><style class="style-fonts">
      </style></defs><g stroke-linecap="round"><g transform="translate(11.755166506394744 13.138104269650285) rotate(0 68.67751345141346 70.59939931979125)" fill-rule="evenodd"><path d="M0.51 0.98 L37.23 2.77 L80.3 54.78 L117.57 0.67 L129.17 0.52 L82.99 58.27 L141.08 138.38 L99.46 137.21 L59.06 89.07 L11.89 145.06 L1.42 143.08 L57.49 76.27 L2.98 -1.01" stroke="none" stroke-width="0" fill="#1e1e1e" fill-rule="evenodd"></path><path d="M-1.59 0.88 C7.95 -2.71, 21.29 -1.71, 38.9 -2.81 M-1.76 0.36 C8.49 0.33, 16.81 -0.72, 41.3 1.02 M41.5 -1.28 C54.35 19.72, 67.91 42.44, 75.18 51.23 M39.55 -1.58 C47.85 11.96, 56.86 27.33, 76.93 51.36 M73.16 52.13 C87.05 40.79, 96.37 26.81, 119.42 2.5 M74.69 52.47 C92.13 33.81, 104.5 18.76, 121.79 0.32 M120.84 -1.96 C123.96 -0.97, 127.29 1.13, 133.7 -0.79 M121.69 0.1 C123.47 0.65, 127.31 0.25, 132.89 1.03 M130.05 -3.14 C120.1 19.36, 103.31 36.65, 83.63 61.08 M134.06 -0.22 C117.75 15.45, 105.63 29.24, 81.01 60.25 M85.15 62.89 C97.79 86.54, 116.76 106.02, 133.39 143.26 M81.57 59.42 C100.55 89.33, 124.27 119.79, 135.79 139.97 M137.5 139.04 C124.78 138.58, 113.25 143.62, 95.9 137.45 M136.73 140.58 C122.22 139.35, 105.39 142.22, 96.27 140.46 M97.61 143.9 C81.76 118.2, 64.33 99.6, 55.84 85.81 M98.08 139.05 C89.44 130.2, 79.71 115.92, 56.99 86.43 M61.42 84.86 C44.23 110.44, 21.31 126.83, 7.96 139.68 M57.26 86.18 C49.12 98.9, 36.85 111.93, 11.94 139.88 M9.51 139.02 C6.67 143.55, 4.91 141.8, -1.65 141.67 M11.17 141.11 C7.87 141.54, 5.51 141.46, -0.73 141.3 M3.35 139.86 C20.67 120.99, 35.56 102.08, 56.19 76.37 M0.58 140.01 C15.32 120, 35.26 103.19, 54.75 79.77 M50.93 81.87 C39.41 58.99, 29.14 35.75, 1.15 1.39 M53.61 77.93 C41.44 64.54, 31.37 47.31, 0.4 1.61 M0 0 C0 0, 0 0, 0 0 M0 0 C0 0, 0 0, 0 0" stroke="#1e1e1e" stroke-width="2" fill="none"></path></g></g><mask></mask><g stroke-linecap="round"><g transform="translate(28.772515091931155 22.742741409944756) rotate(0 51.5510654638108 61.556757494761314)" fill-rule="evenodd"><path d="M1.04 3.81 L21.84 -1.45 L106.43 124.06 L83.24 119.15 L2.19 2.46" stroke="none" stroke-width="0" fill="#ffffff" fill-rule="evenodd"></path><path d="M-2.7 -2.07 C6.43 -1.23, 11.76 -2.77, 15.03 -3.41 M0.24 0.38 C6.13 -0.68, 12.07 0.83, 20.23 -0.31 M18.84 -0.65 C40.55 33.69, 60.52 61.41, 100.77 120.53 M17.74 -1.24 C36.09 31.27, 56.68 57.13, 102.05 121.02 M101.8 124.4 C93.92 123.47, 89.05 125.32, 85.11 122.59 M104.14 121.75 C95.58 123.67, 90.73 123.3, 82.63 123.31 M84.74 120.96 C68.4 96.81, 50.17 67.49, -3.08 -3.59 M83.8 124.45 C51.75 75.63, 17.33 28.39, 0.16 0.1 M0 0 C0 0, 0 0, 0 0 M0 0 C0 0, 0 0, 0 0" stroke="#1e1e1e" stroke-width="2" fill="none"></path></g></g><mask></mask></svg>